<?xml version="1.0" encoding="UTF-8" standalone="no"?>
<svg width="200px" height="200px" viewBox="0 0 200 200" version="1.1" xmlns="http://www.w3.org/2000/svg" xmlns:xlink="http://www.w3.org/1999/xlink" xmlns:sketch="http://www.bohemiancoding.com/sketch/ns">
    <!-- Generator: Sketch 3.4.2 (15855) - http://www.bohemiancoding.com/sketch -->
    <title>200x200-clientes13</title>
    <desc>Created with Sketch.</desc>
    <defs></defs>
    <g id="Page-1" stroke="none" stroke-width="1" fill="none" fill-rule="evenodd" sketch:type="MSPage">
        <g id="200x200-clientes" sketch:type="MSArtboardGroup">
            <g id="duratop" sketch:type="MSLayerGroup" transform="translate(0.000000, 50.000000)">
                <g id="Layer_x0020_1" sketch:type="MSShapeGroup">
                    <g id="_1745256368">
                        <g id="Group" transform="translate(166.914336, 31.222989)" fill="#919191">
                            <path d="M30.9230769,1.0524603 C30.5716783,0.701640199 30.9230769,1.0524603 30.2202797,0.350820099 C29.8688811,0 29.5174825,0 29.1660839,0 C29.5174825,0.350820099 29.1660839,0 29.8688811,0.701640199 C30.2202797,0.701640199 30.5716783,1.0524603 30.9230769,1.0524603 L30.9230769,1.0524603 Z" id="Shape"></path>
                            <path d="M0,22.1016663 L1.0541958,20.3475658 C0.351398601,20.6983859 0.702797203,20.3475658 0.351398601,21.049206 C0,21.7508462 0,21.049206 0,22.1016663 L0,22.1016663 Z" id="Shape"></path>
                        </g>
                        <g id="Group" transform="translate(162.346154, 55.078756)" fill="#B5B6B6">
                            <path d="M1.40559441,1.0524603 L0.702797203,1.0524603 L0.702797203,0 C0.351398601,0.701640199 -3.94129174e-15,-0.701640199 0.351398601,1.7541005 L1.40559441,1.0524603 L1.40559441,1.0524603 L1.40559441,1.0524603 Z" id="Shape"></path>
                            <path d="M3.51398601,3.85902109 L4.56818182,3.1573809 L3.86538462,3.50820099 C3.16258741,3.50820099 3.51398601,3.50820099 3.51398601,3.85902109 L3.51398601,3.85902109 Z" id="Shape"></path>
                        </g>
                        <g id="Group" transform="translate(22.840909, 33.327909)" fill="#959596">
                            <path d="M165.86014,11.2262432 L163.048951,11.2262432 L163.048951,3.50820099 C161.994755,4.20984119 162.346154,5.61312159 162.346154,7.71804219 C162.346154,9.12132259 162.346154,10.1737829 162.697552,11.9278834 L164.454545,11.9278834 C166.211538,11.9278834 165.508741,11.9278834 165.86014,11.2262432 L165.86014,11.2262432 Z" id="Shape"></path>
                            <path d="M1.0541958,1.0524603 C0.702797203,0.350820099 1.40559441,1.0524603 1.0541958,0.350820099 C0.351398601,0 0.702797203,0.350820099 0,0 C0.702797203,1.0524603 0.702797203,0.701640199 1.0541958,1.0524603 L1.0541958,1.0524603 Z" id="Shape"></path>
                        </g>
                        <g id="Group" transform="translate(75.550699, 28.416428)" fill="#C9C9CA">
                            <path d="M73.7937063,1.7541005 C74.1451049,1.7541005 75.1993007,1.4032804 75.1993007,1.4032804 C78.0104895,1.0524603 75.9020979,1.0524603 76.6048951,2.1049206 C79.7674825,1.7541005 81.8758741,1.0524603 85.0384615,2.1049206 C82.5786713,1.94289029e-15 76.2534965,-0.350820099 73.7937063,1.7541005 L73.7937063,1.7541005 Z" id="Shape"></path>
                            <path d="M1.0541958,19.9967457 L2.10839161,19.9967457 C1.75699301,19.6459256 2.10839161,19.9967457 1.40559441,19.2951055 L0.702797203,18.5934653 L0,18.5934653 C0.702797203,19.6459256 0,18.9442854 0.702797203,19.6459256 C0.702797203,19.6459256 1.0541958,19.9967457 1.0541958,19.6459256 L1.0541958,19.9967457 L1.0541958,19.9967457 Z" id="Shape"></path>
                        </g>
                        <g id="Group" transform="translate(74.496503, 47.009893)" fill="#707071">
                            <path d="M33.0314685,19.2951055 L33.3828671,18.5934653 L23.1923077,18.5934653 L23.1923077,5.61312159 C22.8409091,3.85902109 23.1923077,4.91148139 22.4895105,4.56066129 L22.8409091,19.2951055 L33.0314685,19.2951055 L33.0314685,19.2951055 Z" id="Shape"></path>
                            <path d="M2.10839161,1.4032804 L2.10839161,1.0524603 C2.10839161,1.4032804 1.75699301,1.0524603 1.75699301,1.0524603 C1.0541958,0.350820099 1.75699301,1.0524603 1.0541958,0 C0,0.350820099 0.351398601,0.350820099 0,1.4032804 L2.10839161,1.4032804 L2.10839161,1.4032804 Z" id="Shape"></path>
                        </g>
                        <g id="Group" transform="translate(131.071678, 27.714788)" fill="#757676">
                            <path d="M16.1643357,0.350820099 C11.9475524,1.0524603 7.73076923,4.56066129 5.62237762,7.01640199 L4.91958042,8.06886229 L4.21678322,8.41968239 C3.86538462,9.47214269 3.16258741,10.524603 2.45979021,11.2262432 L2.45979021,11.5770633 L1.75699301,12.6295236 C-0.351398601,18.2426452 -1.47104551e-15,19.6459256 0.702797203,25.9606874 C1.0541958,26.6623276 0.702797203,25.6098673 1.0541958,27.0131477 C1.40559441,27.3639678 1.40559441,27.3639678 1.40559441,28.065608 C3.51398601,37.5377506 18.6241259,46.3082531 30.9230769,38.941031 C34.0856643,37.1869305 38.6538462,33.3279094 40.0594406,29.8197085 L41.1136364,27.7147879 L41.1136364,27.0131477 L41.465035,24.9082271 C41.1136364,25.9606874 40.7622378,25.6098673 40.4108392,25.6098673 C40.0594406,27.7147879 37.951049,30.8721688 36.5454545,32.2754492 C34.7884615,34.0295496 32.3286713,35.43283 30.2202797,36.4852903 C24.2465035,38.5902109 18.2727273,37.8885707 13.3531469,35.0820099 C11.5961538,34.3803697 13.0017483,35.43283 11.5961538,34.0295496 C6.32517483,30.1705286 2.45979021,21.7508462 4.91958042,13.6819839 C4.91958042,12.6295236 4.91958042,13.3311638 5.27097902,12.6295236 L5.27097902,12.2787035 C5.27097902,12.2787035 5.62237762,12.2787035 5.62237762,11.9278834 C6.32517483,9.12132259 9.13636364,5.96394169 10.8933566,4.20984119 C12.6503497,2.8065608 17.2185315,0.350820099 20.0297203,0.350820099 C19.3269231,-0.350820099 20.3811189,0.350820099 19.3269231,0 L18.2727273,0 C17.5699301,0 17.2185315,0.350820099 16.1643357,0.350820099 L16.1643357,0.350820099 Z" id="Shape"></path>
                            <path d="M18.2727273,2.4557407 C14.4073427,3.50820099 9.83916084,7.36722209 8.08216783,11.5770633 C3.16258741,20.6983859 8.08216783,32.6262693 19.6783217,35.43283 C26.3548951,37.1869305 30.5716783,34.0295496 34.7884615,31.2229889 C34.7884615,30.8721688 34.4370629,30.8721688 35.1398601,30.8721688 L35.8426573,30.5213487 C36.8968531,28.4164281 38.6538462,27.3639678 39.3566434,24.557407 C41.1136364,20.6983859 40.0594406,19.6459256 40.7622378,15.7869045 C40.4108392,15.7869045 39.708042,16.4885447 40.4108392,15.0852643 L40.0594406,15.7869045 C39.708042,19.9967457 39.708042,21.7508462 37.5996503,24.557407 C36.1940559,27.0131477 34.4370629,28.7672482 31.9772727,29.8197085 C26.7062937,32.9770893 18.6241259,31.9246291 15.4615385,28.065608 C14.4073427,27.7147879 14.7587413,28.065608 14.4073427,27.0131477 C12.298951,25.6098673 10.541958,21.4000261 10.1905594,18.9442854 C9.83916084,13.6819839 10.8933566,12.6295236 12.298951,8.77050249 L13.3531469,7.71804219 C15.1101399,6.31476179 17.5699301,2.8065608 21.0839161,2.8065608 C20.3811189,1.7541005 22.4895105,1.7541005 19.6783217,2.1049206 C19.6783217,2.1049206 18.6241259,2.4557407 18.2727273,2.4557407 L18.2727273,2.4557407 Z" id="Shape"></path>
                        </g>
                        <path d="M96.2832168,37.5377506 C96.986014,37.8885707 96.6346154,37.5377506 96.986014,37.8885707 C97.6888112,38.941031 96.986014,37.1869305 97.3374126,38.5902109 L97.3374126,44.5541526 L93.1206294,44.5541526 C92.7692308,42.449232 92.7692308,38.941031 94.1748252,37.1869305 C95.5804196,37.1869305 95.5804196,36.8361104 96.2832168,37.5377506 L96.2832168,37.5377506 Z M87.4982517,30.8721688 C85.3898601,32.2754492 85.3898601,32.2754492 83.9842657,34.7311898 C81.5244755,38.2393908 82.9300699,60.3410571 82.9300699,65.9541787 L93.1206294,65.9541787 L93.1206294,51.5705546 L96.986014,51.5705546 C97.6888112,51.9213747 97.3374126,50.8689144 97.6888112,52.6230149 L97.6888112,65.6033586 L107.879371,65.6033586 L107.527972,36.8361104 C106.473776,32.9770893 106.473776,33.3279094 103.662587,31.573809 C99.4458042,29.4688884 92.0664336,30.5213487 87.4982517,30.8721688 L87.4982517,30.8721688 Z" id="Shape" fill="#2C2C2C"></path>
                        <path d="M65.7115385,37.1869305 L68.5227273,37.1869305 C69.5769231,38.5902109 69.5769231,38.5902109 69.5769231,40.6951315 C69.5769231,41.7475918 69.9283217,43.5016923 69.2255245,43.8525124 C68.5227273,45.6066129 66.7657343,45.2557928 65.3601399,44.9049727 L65.3601399,41.0459516 C65.3601399,39.9934913 65.0087413,37.1869305 65.7115385,37.1869305 L65.7115385,37.1869305 Z M65.3601399,65.9541787 L65.3601399,51.5705546 L68.1713287,51.9213747 L68.8741259,52.2721948 L69.2255245,52.6230149 C69.5769231,52.973835 69.5769231,51.9213747 69.9283217,53.6754752 L69.9283217,65.6033586 L79.7674825,65.6033586 L79.7674825,50.1672742 C79.0646853,49.465634 79.4160839,50.1672742 79.0646853,49.1148139 C78.3618881,49.1148139 78.7132867,49.465634 77.6590909,48.4131737 L77.6590909,48.4131737 L76.6048951,48.4131737 L74.4965035,48.4131737 C74.8479021,47.3607134 74.4965035,47.3607134 75.5506993,47.0098933 L76.2534965,47.0098933 L76.2534965,47.0098933 C76.6048951,46.6590732 76.6048951,46.6590732 76.9562937,46.3082531 C77.6590909,45.957433 76.6048951,46.6590732 77.6590909,45.957433 L78.7132867,45.2557928 C78.7132867,44.9049727 78.7132867,44.5541526 79.0646853,44.2033325 C79.4160839,43.8525124 79.4160839,43.8525124 79.7674825,43.5016923 L80.1188811,43.1508722 L80.1188811,36.1344702 C79.4160839,35.7836501 79.7674825,37.1869305 79.4160839,35.7836501 L79.4160839,34.7311898 L79.0646853,34.3803697 C78.3618881,33.6787295 78.7132867,34.3803697 78.0104895,33.3279094 L78.3618881,33.3279094 C76.6048951,32.6262693 77.6590909,33.3279094 76.9562937,31.9246291 L74.8479021,31.2229889 C70.9825175,30.1705286 59.7377622,30.5213487 55.1695804,30.5213487 L55.1695804,65.9541787 L65.3601399,65.9541787 L65.3601399,65.9541787 Z" id="Shape" fill="#2C2C2C"></path>
                        <path d="M14.7587413,38.2393908 C15.8129371,41.7475918 15.1101399,45.957433 15.1101399,49.8164541 C15.1101399,59.990237 15.1101399,59.2885968 10.541958,59.2885968 L10.541958,36.8361104 C11.9475524,36.8361104 14.4073427,36.4852903 14.7587413,38.2393908 L14.7587413,38.2393908 Z M18.6241259,65.6033586 C20.7325175,65.6033586 23.1923077,63.8492581 24.2465035,61.7443375 C25.3006993,59.2885968 24.9493007,55.4295757 24.9493007,52.6230149 C24.9493007,47.0098933 25.6520979,39.6426712 23.8951049,34.3803697 C23.5437063,34.0295496 23.5437063,34.3803697 22.8409091,33.3279094 L22.1381119,32.2754492 L21.0839161,31.573809 L18.9755245,30.8721688 L0.351398601,30.8721688 L0.351398601,65.9541787 L9.48776224,65.9541787 C11.9475524,65.9541787 16.5157343,65.6033586 18.6241259,65.6033586 L18.6241259,65.6033586 Z" id="Shape" fill="#2C2C2C"></path>
                        <path d="M27.4090909,30.8721688 C28.4632867,40.3443114 26.7062937,51.9213747 28.1118881,61.0426973 C28.1118881,62.0951576 30.5716783,64.5508983 30.5716783,64.5508983 C31.2744755,65.6033586 52.3583916,72.2689405 52.3583916,57.1836762 C52.3583916,52.6230149 52.3583916,33.3279094 52.006993,30.5213487 C50.9527972,30.5213487 42.8706294,30.1705286 42.5192308,30.8721688 L42.5192308,50.8689144 C42.5192308,54.7279355 43.222028,56.482036 41.1136364,59.2885968 L38.6538462,58.9377767 C36.5454545,53.3246551 39.0052448,37.5377506 37.951049,30.5213487 C36.1940559,30.1705286 31.9772727,30.1705286 29.8688811,30.1705286 C28.8146853,30.1705286 27.4090909,29.8197085 27.4090909,30.8721688 L27.4090909,30.8721688 Z M148.29021,33.3279094 L150.398601,32.6262693 L149.344406,32.6262693 C148.29021,32.9770893 148.993007,32.9770893 148.29021,33.3279094 L148.29021,33.3279094 Z M167.617133,41.7475918 C167.617133,40.3443114 167.617133,41.3967717 167.265734,40.6951315 C166.914336,40.3443114 167.265734,40.3443114 166.914336,39.9934913 C167.265734,41.7475918 166.562937,39.9934913 166.914336,40.6951315 C167.265734,41.3967717 167.265734,41.3967717 167.617133,41.7475918 L167.617133,41.7475918 Z M143.370629,36.4852903 C144.073427,36.1344702 143.722028,36.8361104 144.424825,35.43283 L143.370629,36.4852903 L143.370629,36.4852903 Z M146.533217,55.7803958 L145.479021,54.7279355 C145.83042,55.7803958 145.479021,55.4295757 146.533217,55.7803958 L146.533217,55.7803958 Z M108.933566,36.8361104 L108.933566,30.5213487 L133.531469,30.5213487 L133.531469,36.8361104 C127.557692,37.1869305 126.152098,35.0820099 125.800699,38.941031 C125.800699,43.8525124 125.800699,64.2000782 126.152098,65.9541787 C127.206294,63.8492581 125.800699,41.0459516 126.503497,37.5377506 C128.26049,36.8361104 131.071678,37.5377506 133.531469,36.8361104 C134.234266,35.0820099 134.234266,31.9246291 133.531469,30.1705286 L108.933566,30.1705286 C108.582168,31.573809 108.582168,32.2754492 108.582168,33.6787295 C108.582168,34.3803697 108.230769,36.8361104 108.933566,36.8361104 L108.933566,36.8361104 Z M160.237762,41.0459516 L159.183566,39.9934913 C159.534965,41.0459516 159.183566,40.6951315 160.237762,41.0459516 L160.237762,41.0459516 Z M79.0646853,49.1148139 C78.3618881,48.4131737 78.7132867,48.7639938 77.6590909,48.4131737 C78.7132867,49.465634 78.3618881,49.1148139 79.0646853,49.1148139 L79.0646853,49.1148139 Z" id="Shape" fill="#2C2C2C"></path>
                        <path d="M188.701049,44.5541526 C188.34965,45.2557928 189.052448,45.2557928 187.295455,45.2557928 L185.538462,45.2557928 C185.187063,43.5016923 185.187063,42.449232 185.187063,41.0459516 C185.187063,38.941031 184.835664,37.5377506 185.88986,36.8361104 C191.863636,36.4852903 191.160839,43.5016923 188.701049,44.5541526 L188.701049,44.5541526 Z M185.88986,50.1672742 C191.512238,50.5180943 195.729021,50.8689144 198.891608,47.3607134 C200.648601,44.9049727 200.648601,44.2033325 200.648601,41.0459516 C200.648601,37.5377506 201,36.4852903 199.594406,34.0295496 C198.891608,33.6787295 199.243007,34.7311898 198.891608,33.6787295 L198.891608,32.9770893 C198.188811,32.6262693 198.188811,32.6262693 197.837413,32.2754492 C197.486014,32.2754492 197.134615,31.9246291 196.783217,31.9246291 L196.08042,31.2229889 L192.566434,30.5213487 L176.050699,30.5213487 L176.050699,65.9541787 L185.187063,65.9541787 L185.187063,51.2197345 L185.88986,50.1672742 L185.88986,50.1672742 Z" id="Shape" fill="#2C2C2C"></path>
                        <path d="M108.933566,36.8361104 L116.312937,37.1869305 L116.312937,65.9541787 L126.152098,65.9541787 C125.800699,64.2000782 125.800699,43.8525124 125.800699,38.941031 C126.152098,35.0820099 127.557692,37.1869305 133.531469,36.8361104 L133.531469,30.5213487 L108.933566,30.5213487 L108.933566,36.8361104 L108.933566,36.8361104 Z" id="Shape" fill="#2C2C2C"></path>
                        <path d="M150.398601,32.6262693 L148.29021,33.3279094 L148.29021,33.3279094 C147.587413,34.0295496 148.29021,33.6787295 147.236014,34.0295496 L146.884615,34.3803697 L146.181818,35.43283 L145.127622,36.8361104 C150.75,36.1344702 150.398601,35.7836501 155.66958,37.8885707 L157.075175,38.5902109 C157.426573,38.941031 158.480769,39.6426712 159.183566,39.9934913 L160.237762,41.0459516 C160.589161,41.7475918 161.643357,43.1508722 161.994755,43.8525124 C162.697552,44.9049727 162.697552,45.6066129 163.40035,47.0098933 C164.103147,50.5180943 163.751748,51.9213747 163.048951,55.0787556 L163.048951,56.1312159 L163.751748,56.1312159 L164.805944,55.4295757 C165.157343,54.7279355 164.103147,55.0787556 165.86014,54.7279355 L166.914336,53.3246551 C166.914336,52.2721948 166.914336,52.973835 167.265734,52.2721948 C167.617133,51.5705546 167.265734,51.9213747 167.968531,51.5705546 C167.968531,47.3607134 169.374126,46.3082531 167.617133,41.7475918 C167.265734,41.3967717 167.265734,41.3967717 166.914336,40.6951315 C166.562937,39.9934913 167.265734,41.7475918 166.914336,39.9934913 L165.86014,38.5902109 L164.805944,37.5377506 C164.454545,36.1344702 160.589161,33.3279094 158.480769,32.9770893 L157.075175,32.9770893 C155.66958,32.2754492 156.723776,32.6262693 156.020979,32.2754492 C154.263986,32.2754492 152.155594,32.2754492 150.398601,32.6262693 L150.398601,32.6262693 Z" id="Shape" fill="#2C2C2C"></path>
                        <g id="Group" fill="#737373">
                            <path d="M0,21.4000261 L199.594406,21.4000261 L199.945804,0 L0,0 L0,21.4000261 Z" id="Shape"></path>
                            <path d="M0,99.9837283 L199.945804,99.9837283 L199.594406,80.6886229 L0,80.6886229 L0,99.9837283 Z" id="Shape"></path>
                        </g>
                        <path d="M185.88986,50.1672742 L185.187063,51.2197345 L185.187063,65.9541787 L176.050699,65.9541787 L176.050699,30.5213487 L192.566434,30.5213487 C191.863636,30.1705286 193.972028,30.1705286 191.512238,29.8197085 C188.34965,29.8197085 177.456294,29.4688884 175.347902,30.1705286 L175.347902,65.9541787 C177.104895,66.3049988 183.781469,66.3049988 185.88986,65.9541787 L185.88986,50.1672742 L185.88986,50.1672742 Z" id="Shape" fill="#868686"></path>
                        <path d="M65.3601399,65.9541787 L55.1695804,65.9541787 L55.1695804,30.5213487 C59.7377622,30.5213487 70.9825175,30.1705286 74.8479021,31.2229889 C74.1451049,29.4688884 66.7657343,30.1705286 65.3601399,30.1705286 C62.548951,30.1705286 57.277972,29.8197085 55.1695804,30.1705286 L54.8181818,65.9541787 C55.8723776,66.3049988 64.3059441,66.6558189 65.3601399,65.9541787 L65.3601399,65.9541787 Z" id="Shape" fill="#898989"></path>
                        <path d="M69.2255245,52.6230149 C69.9283217,56.8328561 68.8741259,62.0951576 69.5769231,66.3049988 L80.1188811,66.3049988 C80.4702797,64.9017184 80.8216783,50.8689144 79.7674825,50.1672742 L79.7674825,65.6033586 L69.9283217,65.6033586 L69.9283217,53.6754752 C69.5769231,51.9213747 69.5769231,52.973835 69.2255245,52.6230149 L69.2255245,52.6230149 Z" id="Shape" fill="#676767"></path>
                        <path d="M147.236014,28.065608 C148.29021,28.065608 148.641608,27.7147879 149.344406,27.7147879 L150.398601,27.7147879 C151.452797,28.065608 150.398601,27.3639678 151.101399,28.065608 C152.506993,28.4164281 156.020979,28.4164281 157.075175,27.7147879 C155.318182,27.0131477 148.993007,26.3115075 147.236014,28.065608 L147.236014,28.065608 Z" id="Shape" fill="#D2D2D3"></path>
                        <path d="M171.482517,53.3246551 C171.833916,53.3246551 172.185315,53.6754752 172.536713,52.6230149 L172.185315,54.7279355 C173.23951,53.6754752 173.942308,48.7639938 173.590909,47.7115335 C173.23951,47.0098933 173.590909,47.3607134 173.23951,47.0098933 C172.888112,49.1148139 172.185315,51.2197345 171.482517,53.3246551 L171.482517,53.3246551 Z" id="Shape" fill="#AFAFB0"></path>
                        <path d="M171.131119,43.5016923 L171.482517,42.8000521 C170.77972,44.2033325 171.482517,43.5016923 171.833916,43.5016923 C171.833916,42.0984119 170.77972,39.9934913 170.428322,38.5902109 C169.725524,37.5377506 169.725524,37.5377506 169.022727,37.1869305 C169.374126,38.2393908 169.725524,38.941031 170.076923,39.9934913 C170.428322,41.0459516 170.428322,41.0459516 170.428322,42.0984119 C170.77972,43.5016923 170.77972,43.1508722 171.131119,43.5016923 L171.131119,43.5016923 Z" id="Shape" fill="#D7D7D7"></path>
                        <path d="M69.2255245,43.8525124 C68.1713287,44.5541526 67.1171329,44.9049727 65.7115385,44.5541526 L65.7115385,37.1869305 C65.0087413,37.1869305 65.3601399,39.9934913 65.3601399,41.0459516 L65.3601399,44.9049727 C66.7657343,45.2557928 68.5227273,45.6066129 69.2255245,43.8525124 L69.2255245,43.8525124 Z" id="Shape" fill="#AFAFAF"></path>
                        <path d="M126.503497,37.5377506 L133.882867,37.5377506 C133.18007,38.5902109 133.531469,37.8885707 133.531469,38.941031 C134.234266,38.2393908 134.937063,37.1869305 135.288462,36.1344702 L134.234266,37.1869305 L134.234266,31.2229889 C133.882867,29.4688884 134.234266,30.8721688 133.531469,30.1705286 C134.234266,31.9246291 134.234266,35.0820099 133.531469,36.8361104 C131.071678,37.5377506 128.26049,36.8361104 126.503497,37.5377506 L126.503497,37.5377506 Z" id="Shape" fill="#CBCBCB"></path>
                        <path d="M158.480769,32.9770893 C158.129371,32.6262693 158.832168,32.9770893 157.426573,32.2754492 L156.020979,32.2754492 C156.723776,32.6262693 155.66958,32.2754492 157.075175,32.9770893 L158.480769,32.9770893 L158.480769,32.9770893 Z" id="Shape" fill="#929292"></path>
                        <path d="M132.477273,55.7803958 C132.477273,55.0787556 132.477273,55.0787556 132.125874,54.7279355 C131.774476,53.3246551 132.125874,54.3771154 131.774476,53.6754752 L131.774476,55.0787556 C132.125874,56.1312159 132.125874,55.4295757 132.477273,55.7803958 L132.477273,55.7803958 Z" id="Shape" fill="#B9B9B9"></path>
                        <path d="M144.424825,62.7967978 C143.019231,61.0426973 144.776224,62.4459777 142.667832,61.7443375 C144.073427,63.1476179 142.667832,62.0951576 144.424825,62.7967978 L144.424825,62.7967978 Z" id="Shape" fill="#BABABA"></path>
                        <path d="M171.131119,57.5344963 C171.482517,57.1836762 171.131119,57.8853164 171.833916,56.8328561 C172.185315,55.7803958 171.833916,56.482036 172.185315,55.4295757 L171.131119,57.5344963 L171.131119,57.5344963 Z" id="Shape" fill="#B8B8B8"></path>
                        <path d="M78.7132867,45.2557928 C79.4160839,44.9049727 78.7132867,45.957433 79.4160839,44.5541526 L79.7674825,43.5016923 L79.0646853,44.2033325 C78.7132867,44.5541526 78.7132867,44.9049727 78.7132867,45.2557928 L78.7132867,45.2557928 Z" id="Shape" fill="#8E8E8E"></path>
                        <path d="M76.2534965,47.0098933 L77.3076923,46.6590732 C78.0104895,46.6590732 77.3076923,46.6590732 77.6590909,45.957433 C76.6048951,46.6590732 77.6590909,45.957433 76.9562937,46.3082531 L76.2534965,47.0098933 L76.2534965,47.0098933 Z" id="Shape" fill="#9B9B9B"></path>
                        <path d="M79.0646853,34.3803697 C78.7132867,33.3279094 79.0646853,33.6787295 78.0104895,33.3279094 C78.7132867,34.3803697 78.3618881,33.6787295 79.0646853,34.3803697 L79.0646853,34.3803697 Z" id="Shape" fill="#9F9FA0"></path>
                        <path d="M147.236014,34.0295496 C148.29021,33.6787295 147.587413,34.0295496 148.29021,33.3279094 C147.236014,33.6787295 148.29021,32.9770893 147.587413,33.3279094 C147.236014,34.0295496 147.587413,33.6787295 147.236014,34.0295496 L147.236014,34.0295496 Z" id="Shape" fill="#909090"></path>
                        <path d="M22.1381119,32.2754492 C22.1381119,31.573809 22.4895105,31.9246291 21.7867133,31.9246291 L21.0839161,31.573809 L22.1381119,32.2754492 L22.1381119,32.2754492 Z" id="Shape" fill="#9A9A9A"></path>
                        <path d="M146.181818,35.43283 L146.884615,34.3803697 C146.181818,34.7311898 146.533217,33.6787295 146.181818,35.43283 L146.181818,35.43283 Z" id="Shape" fill="#7B7B7C"></path>
                        <path d="M69.2255245,52.6230149 L68.8741259,52.2721948 L68.1713287,51.9213747 L69.2255245,52.6230149 Z" id="Shape" fill="#8B8B8B"></path>
                        <path d="M165.86014,38.5902109 C165.157343,37.1869305 165.508741,37.8885707 164.805944,37.5377506 L165.86014,38.5902109 L165.86014,38.5902109 Z" id="Shape" fill="#808081"></path>
                        <path d="M135.991259,35.7836501 L136.694056,34.7311898 C135.991259,34.7311898 136.342657,34.3803697 136.342657,35.0820099 L135.991259,35.7836501 L135.991259,35.7836501 Z" id="Shape" fill="#BCBCBD"></path>
                        <path d="M135.991259,41.3967717 L136.694056,39.6426712 C136.694056,39.9934913 136.342657,39.9934913 136.342657,39.9934913 C136.342657,39.9934913 136.342657,39.9934913 136.342657,40.3443114 C135.991259,41.0459516 135.991259,40.3443114 135.991259,41.3967717 L135.991259,41.3967717 Z" id="Shape" fill="#C7C7C7"></path>
                        <path d="M79.7674825,50.1672742 L79.0646853,49.1148139 C79.4160839,50.1672742 79.0646853,49.465634 79.7674825,50.1672742 L79.7674825,50.1672742 Z" id="Shape" fill="#A3A3A3"></path>
                        <path d="M132.828671,40.3443114 L133.531469,39.2918511 L132.828671,40.3443114 Z" id="Shape" fill="#C4C4C4"></path>
                    </g>
                </g>
            </g>
        </g>
    </g>
</svg>