<?xml version="1.0" encoding="UTF-8" standalone="no"?>
<svg width="200px" height="200px" viewBox="0 0 200 200" version="1.1" xmlns="http://www.w3.org/2000/svg" xmlns:xlink="http://www.w3.org/1999/xlink" xmlns:sketch="http://www.bohemiancoding.com/sketch/ns">
    <!-- Generator: Sketch 3.4.2 (15855) - http://www.bohemiancoding.com/sketch -->
    <title>200x200-clientes16</title>
    <desc>Created with Sketch.</desc>
    <defs></defs>
    <g id="Page-1" stroke="none" stroke-width="1" fill="none" fill-rule="evenodd" sketch:type="MSPage">
        <g id="200x200-clientes" sketch:type="MSArtboardGroup" fill="#606062">
            <g id="acerolatina-2" sketch:type="MSLayerGroup" transform="translate(1.000000, 83.000000)">
                <g id="Layer_x0020_1" sketch:type="MSShapeGroup">
                    <g id="_1757108416" transform="translate(0.000000, 0.213566)">
                        <g id="_822707952">
                            <path d="M53.1880437,12.8013358 L53.4702084,12.8013358 C53.8934554,12.8013358 54.3167024,12.8013358 54.5988671,12.9420098 C55.0221142,13.0826838 55.3042788,13.3640319 55.5864435,13.6453799 C55.8686082,13.926728 56.1507729,14.208076 56.2918553,14.489424 C56.4329376,14.7707721 56.4329376,15.0521201 56.5740199,15.3334682 L50.2253145,15.3334682 C50.2253145,15.0521201 50.2253145,14.7707721 50.3663968,14.489424 C50.6485615,14.208076 50.7896438,13.926728 51.0718085,13.6453799 C51.3539732,13.3640319 51.6361379,13.0826838 52.0593849,12.9420098 C52.3415496,12.8013358 52.7647967,12.8013358 53.1880437,12.8013358 L53.1880437,12.8013358 Z M57.420514,11.8166177 C56.997267,11.2539216 56.2918553,10.8318995 55.7275259,10.5505515 C55.0221142,10.2692034 54.3167024,10.1285294 53.4702084,10.1285294 L53.1880437,10.1285294 C52.482632,10.1285294 51.6361379,10.2692034 50.9307262,10.5505515 C50.3663968,10.8318995 49.6609851,11.2539216 49.2377381,11.8166177 C48.6734087,12.2386397 48.2501616,12.9420098 47.967997,13.5047059 C47.6858323,14.208076 47.5447499,15.0521201 47.5447499,15.7554902 L47.5447499,23.6332353 L50.2253145,23.6332353 L50.2253145,18.0062745 L56.5740199,18.0062745 L56.5740199,23.6332353 L59.1135021,23.6332353 L59.1135021,15.7554902 C59.1135021,15.0521201 58.9724198,14.208076 58.6902551,13.5047059 C58.4080904,12.9420098 57.9848434,12.2386397 57.420514,11.8166177 L57.420514,11.8166177 Z" id="path3345"></path>
                            <path d="M64.8978782,10.5505515 C64.3335489,10.8318995 63.6281371,11.2539216 63.2048901,11.8166177 C62.6405607,12.2386397 62.2173137,12.9420098 61.935149,13.5047059 C61.6529843,14.208076 61.511902,15.0521201 61.511902,15.7554902 L61.511902,18.0062745 C61.511902,18.7096446 61.6529843,19.4130147 61.935149,20.1163848 C62.2173137,20.8197549 62.6405607,21.382451 63.2048901,21.9451471 C63.6281371,22.5078432 64.3335489,22.9298652 64.8978782,23.2112133 C65.60329,23.4925613 66.449784,23.6332353 67.1551957,23.6332353 L72.3752425,23.6332353 L72.3752425,20.9604289 L67.1551957,20.9604289 C66.7319487,20.9604289 66.3087017,20.9604289 66.026537,20.8197549 C65.60329,20.5384069 65.3211253,20.3977329 65.0389606,20.1163848 C64.7567959,19.8350368 64.4746312,19.4130147 64.3335489,19.1316667 C64.1924665,18.7096446 64.0513842,18.4282966 64.0513842,18.0062745 L64.0513842,15.7554902 C64.0513842,15.3334682 64.1924665,14.9114461 64.3335489,14.6300981 C64.4746312,14.208076 64.7567959,13.926728 65.0389606,13.6453799 C65.3211253,13.3640319 65.60329,13.0826838 66.026537,12.9420098 C66.3087017,12.8013358 66.7319487,12.8013358 67.1551957,12.8013358 L72.3752425,12.8013358 L72.3752425,10.1285294 L67.1551957,10.1285294 C66.449784,10.1285294 65.60329,10.2692034 64.8978782,10.5505515 L64.8978782,10.5505515 Z" id="path3347"></path>
                            <path d="M78.3007009,10.5505515 C77.5952892,10.8318995 76.8898775,11.2539216 76.4666304,11.8166177 C75.9023011,12.2386397 75.479054,12.9420098 75.1968894,13.5047059 C74.9147247,14.208076 74.7736423,14.9114461 74.7736423,15.7554902 L74.7736423,18.0062745 C74.7736423,18.7096446 74.9147247,19.4130147 75.1968894,20.1163848 C75.479054,20.8197549 75.9023011,21.382451 76.4666304,21.9451471 C76.8898775,22.5078432 77.5952892,22.9298652 78.1596186,23.2112133 C78.8650303,23.4925613 79.7115244,23.6332353 80.4169361,23.6332353 L85.7780652,23.6332353 L85.7780652,20.9604289 L80.4169361,20.9604289 C79.993689,20.9604289 79.7115244,20.9604289 79.2882773,20.8197549 C78.8650303,20.5384069 78.5828656,20.3977329 78.3007009,20.1163848 C78.0185362,19.8350368 77.8774539,19.5536887 77.5952892,19.1316667 C77.4542069,18.8503187 77.4542069,18.5689706 77.4542069,18.1469486 L85.7780652,18.1469486 L85.7780652,15.6148162 L77.4542069,15.6148162 C77.4542069,15.1927941 77.4542069,14.9114461 77.5952892,14.6300981 C77.8774539,14.208076 78.0185362,13.926728 78.3007009,13.6453799 C78.5828656,13.3640319 78.8650303,13.0826838 79.2882773,12.9420098 C79.570442,12.8013358 79.993689,12.8013358 80.4169361,12.8013358 L85.7780652,12.8013358 L85.7780652,10.1285294 L80.4169361,10.1285294 C79.7115244,10.1285294 79.0061126,10.2692034 78.3007009,10.5505515 L78.3007009,10.5505515 Z" id="path3349"></path>
                            <path d="M92.267853,12.8013358 L97.3468174,12.8013358 L98.1933114,12.8013358 C98.3343938,12.9420098 98.6165585,13.0826838 98.7576408,13.2233579 C98.8987231,13.3640319 99.0398055,13.6453799 99.1808878,13.7860539 C99.3219702,14.067402 99.3219702,14.208076 99.3219702,14.489424 C99.3219702,14.7707721 99.3219702,14.9114461 99.1808878,15.1927941 C99.0398055,15.3334682 99.0398055,15.6148162 98.7576408,15.7554902 C98.6165585,15.8961642 98.4754761,16.0368383 98.1933114,16.1775123 C97.9111467,16.1775123 97.6289821,16.3181863 97.4878997,16.3181863 L92.267853,16.3181863 L92.267853,12.8013358 L92.267853,12.8013358 Z M101.579288,21.9451471 L100.732794,20.6790809 C100.309547,20.2570588 100.027382,19.8350368 99.7452172,19.4130147 L99.7452172,19.4130147 C99.4630525,19.1316667 99.3219702,18.8503187 99.0398055,18.5689706 C99.3219702,18.4282966 99.4630525,18.4282966 99.7452172,18.2876226 C99.8862996,18.1469486 100.027382,18.1469486 100.168464,18.0062745 L100.591711,17.5842525 C101.014958,17.1622304 101.297123,16.7402084 101.579288,16.1775123 C101.861452,15.6148162 102.002535,15.0521201 102.002535,14.489424 C102.002535,13.7860539 101.72037,13.0826838 101.438205,12.3793137 C101.014958,11.8166177 100.591711,11.2539216 99.8862996,10.8318995 C99.1808878,10.4098775 98.3343938,10.1285294 97.3468174,10.1285294 L89.7283708,10.1285294 L89.7283708,23.6332353 L92.267853,23.6332353 L92.267853,18.8503187 L96.0770763,18.8503187 L99.6041349,23.6332353 L102.849029,23.6332353 L102.566864,23.2112133 C102.284699,22.7891912 102.002535,22.3671691 101.579288,21.9451471 L101.579288,21.9451471 Z" id="path3351"></path>
                            <path d="M111.596134,21.241777 C109.056652,21.241777 107.081499,19.2723407 107.081499,16.8808824 C107.081499,14.489424 109.056652,12.5199878 111.596134,12.5199878 C113.994534,12.5199878 115.969687,14.489424 115.969687,16.8808824 C115.969687,19.2723407 113.994534,21.241777 111.596134,21.241777 L111.596134,21.241777 Z M111.596134,9.84718138 C107.645828,9.84718138 104.542017,12.9420098 104.542017,16.8808824 C104.542017,20.6790809 107.645828,23.9145834 111.596134,23.9145834 C115.405357,23.9145834 118.509169,20.6790809 118.509169,16.8808824 C118.509169,12.9420098 115.405357,9.84718138 111.596134,9.84718138 L111.596134,9.84718138 Z" id="path3353"></path>
                            <path d="M130.360086,19.2723407 C129.795756,20.3977329 128.667098,21.101103 126.97411,21.101103 L124.716792,21.101103 L124.716792,10.1285294 L122.036228,10.1285294 L122.036228,23.6332353 L127.115192,23.6332353 C128.80818,23.6332353 130.219004,23.2112133 131.347662,22.3671691 C132.194156,21.663799 132.899568,20.6790809 133.181733,19.4130147 L133.322815,19.1316667 L130.501168,19.1316667 L130.360086,19.2723407 L130.360086,19.2723407 Z" id="path3355"></path>
                            <path d="M148.841873,14.34875 L148.841873,14.6300981 L151.240273,14.6300981 L151.381355,14.489424 C151.66352,13.2233579 152.510014,12.6606618 153.779755,12.6606618 L154.626249,12.6606618 L154.626249,23.6332353 L157.306814,23.6332353 L157.306814,12.6606618 L161.398202,12.6606618 L161.398202,10.1285294 L154.485167,10.1285294 C151.240273,10.1285294 149.26512,11.5352696 148.841873,14.34875 L148.841873,14.34875 Z" id="path3357"></path>
                            <path d="M141.082344,12.8013358 L141.505591,12.8013358 C141.928838,12.8013358 142.211003,12.8013358 142.63425,12.9420098 C142.916414,13.0826838 143.339662,13.3640319 143.621826,13.6453799 C143.903991,13.926728 144.045073,14.208076 144.186156,14.489424 C144.327238,14.7707721 144.46832,15.0521201 144.46832,15.3334682 L138.119615,15.3334682 C138.119615,15.0521201 138.260697,14.7707721 138.401779,14.489424 C138.542862,14.208076 138.825026,13.926728 138.966109,13.6453799 C139.248274,13.3640319 139.671521,13.0826838 139.953685,12.9420098 C140.376932,12.8013358 140.800179,12.8013358 141.082344,12.8013358 L141.082344,12.8013358 Z M145.455897,11.8166177 C144.891567,11.2539216 144.327238,10.8318995 143.621826,10.5505515 C142.916414,10.2692034 142.211003,10.1285294 141.505591,10.1285294 L141.082344,10.1285294 C140.376932,10.1285294 139.671521,10.2692034 138.966109,10.5505515 C138.260697,10.8318995 137.696368,11.2539216 137.132038,11.8166177 C136.708791,12.2386397 136.285544,12.9420098 136.00338,13.5047059 C135.721215,14.208076 135.580133,15.0521201 135.580133,15.7554902 L135.580133,23.6332353 L138.119615,23.6332353 L138.119615,18.0062745 L144.46832,18.0062745 L144.46832,23.6332353 L147.148885,23.6332353 L147.148885,15.7554902 C147.148885,15.0521201 147.007802,14.208076 146.725638,13.5047059 C146.302391,12.9420098 146.020226,12.2386397 145.455897,11.8166177 L145.455897,11.8166177 Z" id="path3359"></path>
                            <path d="M164.078766,10.1285294 L164.078766,23.6332353 L166.759331,23.6332353 L166.759331,10.1285294 L164.078766,10.1285294 Z" id="polygon3361"></path>
                            <path d="M193.423894,12.8013358 L193.706058,12.8013358 C194.129305,12.8013358 194.41147,12.8013358 194.834717,12.9420098 C195.257964,13.0826838 195.540129,13.3640319 195.822293,13.6453799 C196.104458,13.926728 196.245541,14.208076 196.527705,14.489424 C196.527705,14.7707721 196.668788,15.0521201 196.668788,15.3334682 L190.320082,15.3334682 C190.461164,15.0521201 190.461164,14.7707721 190.602247,14.489424 C190.743329,14.208076 191.025494,13.926728 191.307658,13.6453799 C191.589823,13.3640319 191.871988,13.0826838 192.295235,12.9420098 C192.5774,12.8013358 193.000647,12.8013358 193.423894,12.8013358 L193.423894,12.8013358 Z M198.926105,13.5047059 C198.64394,12.9420098 198.220693,12.2386397 197.656364,11.8166177 C197.092035,11.2539216 196.527705,10.8318995 195.822293,10.5505515 C195.257964,10.2692034 194.41147,10.1285294 193.706058,10.1285294 L193.423894,10.1285294 C192.5774,10.1285294 191.871988,10.2692034 191.166576,10.5505515 C190.461164,10.8318995 189.896835,11.2539216 189.473588,11.8166177 C188.909259,12.2386397 188.486012,12.9420098 188.203847,13.5047059 C187.921682,14.208076 187.7806,14.9114461 187.7806,15.7554902 L187.7806,23.6332353 L190.320082,23.6332353 L190.320082,18.0062745 L196.668788,18.0062745 L196.668788,23.6332353 L199.349352,23.6332353 L199.349352,15.7554902 C199.349352,15.0521201 199.20827,14.208076 198.926105,13.5047059 L198.926105,13.5047059 Z" id="path3363"></path>
                            <path d="M183.830294,10.1285294 L181.14973,10.1285294 L181.14973,16.8808824 C179.456742,14.208076 176.917259,11.9572917 173.95453,10.2692034 L173.813448,10.1285294 L173.390201,10.1285294 L171.415048,10.1285294 L171.415048,23.6332353 L173.95453,23.6332353 L173.95453,13.3640319 C177.904836,16.0368383 180.444318,19.6943628 181.14973,23.3518873 L181.290812,23.6332353 L183.830294,23.6332353 L183.830294,23.3518873 L183.830294,10.1285294 L183.830294,10.1285294 Z" id="path3365"></path>
                            <path d="M33.5775979,18.9909927 C33.1543508,22.7891912 31.4613627,26.1653677 28.7807982,28.6975 L40.7727974,16.8808824 L33.5775979,18.9909927 L33.5775979,18.9909927 Z" id="path3367"></path>
                            <path d="M16.9298813,27.5721079 C11.0044228,27.5721079 6.06654079,22.7891912 6.06654079,16.8808824 C6.06654079,10.9725735 11.0044228,6.18965687 16.9298813,6.18965687 C22.8553397,6.18965687 27.6521394,10.9725735 27.6521394,16.8808824 C27.6521394,22.7891912 22.8553397,27.5721079 16.9298813,27.5721079 L16.9298813,27.5721079 Z M16.9298813,0 C7.61844658,0 0,7.59639707 0,16.8808824 C0,26.1653677 7.61844658,33.7617647 16.9298813,33.7617647 C26.241316,33.7617647 33.8597626,26.1653677 33.8597626,16.8808824 C33.8597626,7.59639707 26.241316,0 16.9298813,0 L16.9298813,0 Z" id="path3369"></path>
                        </g>
                    </g>
                </g>
            </g>
        </g>
    </g>
</svg>