<?xml version="1.0" encoding="UTF-8" standalone="no"?>
<svg width="200px" height="200px" viewBox="0 0 200 200" version="1.1" xmlns="http://www.w3.org/2000/svg" xmlns:xlink="http://www.w3.org/1999/xlink" xmlns:sketch="http://www.bohemiancoding.com/sketch/ns">
    <!-- Generator: Sketch 3.4.2 (15855) - http://www.bohemiancoding.com/sketch -->
    <title>200x200-clientes1</title>
    <desc>Created with Sketch.</desc>
    <defs></defs>
    <g id="Page-1" stroke="none" stroke-width="1" fill="none" fill-rule="evenodd" sketch:type="MSPage">
        <g id="200x200-clientes" sketch:type="MSArtboardGroup" fill="#A3A2A0">
            <g id="genrod" sketch:type="MSLayerGroup" transform="translate(1.000000, 63.000000)">
                <g id="Layer_x0020_1" sketch:type="MSShapeGroup">
                    <g id="_1024957200">
                        <path d="M21.8795812,1.04016958 C15.9755672,3.12050874 11.460733,13.1754813 7.64048866,20.4566684 C2.77835951,29.4714714 -3.12565445,33.6321497 2.77835951,44.7272919 C6.94589878,52.0084789 10.7661431,58.9429428 14.9336824,66.2241298 C20.1431065,75.2389328 28.1308901,72.8118705 42.7172775,72.8118705 C52.0942408,72.8118705 172.25829,73.1585937 178.162304,72.8118705 C183.024433,72.1184241 185.108202,68.6511922 186.844677,64.8372371 L197.61082,41.9535063 C201.08377,33.9788729 195.527051,27.7378554 191.012216,17.3361596 C181.982548,-2.08033916 185.455497,0.693446386 156.282723,0.693446386 C142.04363,0.693446386 25.6998255,-0.346723193 21.8795812,1.04016958 L21.8795812,1.04016958 Z M22.574171,5.54757108 C19.1012216,6.93446386 12.5026178,20.4566684 10.4188482,24.2706235 C2.08376963,39.1797208 2.43106457,33.6321497 14.5863874,56.1691572 C15.6282723,58.5962196 19.1012216,64.8372371 20.4904014,66.570853 C23.2687609,70.0380849 44.4537522,68.304469 50.3577661,68.304469 L145.169284,68.304469 C155.240838,68.304469 167.743455,68.9979154 177.120419,68.304469 C181.982548,67.9577458 182.329843,64.1437907 184.066318,59.6363892 C194.137871,38.1395512 196.91623,40.9133367 190.317627,26.6976858 C188.581152,22.5370075 181.982548,6.93446386 179.551483,5.54757108 C176.773124,4.16067831 24.3106457,4.8541247 22.574171,5.54757108 L22.574171,5.54757108 Z" id="Shape"></path>
                        <path d="M138.917976,18.7230524 C131.624782,21.1501148 127.804538,28.778025 126.415358,37.792828 C125.026178,46.807631 127.804538,58.2494964 138.917976,54.7822645 C153.157068,50.274863 158.019197,12.4820349 138.917976,18.7230524 L138.917976,18.7230524 Z M140.307155,25.3107931 C135.445026,27.044409 130.930192,49.9281398 137.181501,48.1945238 C141.696335,46.807631 146.211169,22.8837307 140.307155,25.3107931 L140.307155,25.3107931 Z" id="Shape"></path>
                        <path d="M159.408377,19.0697756 L152.809773,53.7420949 C155.935428,56.1691572 172.95288,57.9027732 177.815009,39.526444 C181.982548,22.8837307 175.731239,16.6427133 159.408377,19.0697756 L159.408377,19.0697756 Z M161.492147,48.1945238 C167.048866,48.541247 168.78534,43.6871223 169.827225,38.4862744 C170.86911,33.6321497 172.605585,24.9640699 166.354276,24.9640699 C164.965096,26.6976858 161.839442,45.0740151 161.492147,48.1945238 L161.492147,48.1945238 Z" id="Shape"></path>
                        <path d="M105.577661,19.0697756 L98.6317627,54.7822645 C101.062827,54.7822645 104.188482,55.1289877 105.924956,54.4355413 C106.619546,52.0084789 106.966841,49.9281398 107.314136,47.5010774 L108.356021,42.3002295 C109.050611,40.5666136 108.703316,41.6067831 109.397906,40.9133367 C114.260035,41.6067831 111.481675,46.1141846 112.52356,54.7822645 L120.164049,54.7822645 C119.816754,48.541247 120.858639,41.6067831 117.385689,38.1395512 C117.385689,37.792828 127.804538,31.8985337 123.289703,23.2304539 C120.511344,17.3361596 112.52356,18.3763292 105.577661,19.0697756 L105.577661,19.0697756 Z M110.092496,34.6723193 C113.565445,34.6723193 115.30192,33.2854265 115.99651,30.511641 C117.038394,26.3509627 115.99651,24.6173467 112.176265,24.6173467 L110.092496,34.6723193 L110.092496,34.6723193 Z" id="Shape"></path>
                        <path d="M69.8062827,54.7822645 L76.4048866,54.7822645 C76.7521815,51.3150325 77.7940663,47.8478006 78.1413613,44.3805687 L79.1832461,39.1797208 C79.1832461,37.4461048 79.1832461,35.0190425 80.2251309,33.6321497 L85.08726,54.7822645 L91.3385689,54.7822645 L98.2844677,18.3763292 L92.0331588,18.7230524 C90.2966841,23.5771771 89.6020942,31.5518105 88.9075044,36.7526584 L87.8656195,38.8329976 C86.8237347,36.059212 85.08726,22.5370075 83.3507853,18.7230524 L76.7521815,18.7230524 L69.8062827,54.7822645 L69.8062827,54.7822645 Z" id="Shape"></path>
                        <path d="M41.6753927,53.7420949 L45.1483421,34.3255961 L36.1186736,34.3255961 L34.382199,39.8731672 L36.8132635,40.9133367 L35.7713787,48.541247 C31.2565445,48.541247 30.2146597,47.1543542 30.2146597,42.6469527 C29.8673647,39.526444 30.5619546,36.059212 31.6038394,33.2854265 C34.034904,27.044409 36.8132635,24.2706235 44.8010471,26.0042395 L47.2321117,19.0697756 C34.382199,16.6427133 26.0471204,22.1902843 22.921466,34.6723193 C19.1012216,50.6215861 26.0471204,57.55605 41.6753927,53.7420949 L41.6753927,53.7420949 Z" id="Shape"></path>
                        <path d="M47.5794066,54.7822645 L63.9022688,54.7822645 L65.2914485,47.8478006 L56.609075,47.8478006 L57.9982548,39.1797208 L65.6387435,39.1797208 L67.0279232,32.9387033 L59.3874346,32.5919801 L60.7766143,25.3107931 C63.2076789,25.3107931 65.9860384,25.6575163 68.417103,24.9640699 L68.7643979,24.9640699 L70.1535777,18.7230524 L54.5253054,18.7230524 L47.5794066,54.7822645 L47.5794066,54.7822645 Z" id="Shape"></path>
                    </g>
                </g>
            </g>
        </g>
    </g>
</svg>