<?xml version="1.0" encoding="UTF-8" standalone="no"?>
<svg width="200px" height="200px" viewBox="0 0 200 200" version="1.1" xmlns="http://www.w3.org/2000/svg" xmlns:xlink="http://www.w3.org/1999/xlink" xmlns:sketch="http://www.bohemiancoding.com/sketch/ns">
    <!-- Generator: Sketch 3.4.2 (15855) - http://www.bohemiancoding.com/sketch -->
    <title>200x200-clientes12</title>
    <desc>Created with Sketch.</desc>
    <defs></defs>
    <g id="Page-1" stroke="none" stroke-width="1" fill="none" fill-rule="evenodd" sketch:type="MSPage">
        <g id="200x200-clientes" sketch:type="MSArtboardGroup">
            <g id="genebre-2" sketch:type="MSLayerGroup" transform="translate(1.000000, 84.000000)">
                <g id="Layer_x0020_1" sketch:type="MSShapeGroup">
                    <g id="_1745252816" transform="translate(0.000000, 0.747247)">
                        <path d="M28.7790658,13.7028047 L28.6625514,11.4583798 L14.5643046,11.4583798 L14.5643046,18.1916545 L21.3221419,18.1916545 C18.409281,23.3892701 11.8844725,24.2161635 8.15601056,19.4910584 C5.70920739,16.4197401 6.0587507,11.3402522 9.78721267,8.62331676 C13.2826458,6.1426366 18.409281,6.96952999 23.5359162,6.96952999 L54.6452708,6.96952999 L54.6452708,0.354382881 L15.0303623,0.354382881 C10.6028137,0.354382881 7.80646725,1.53565915 4.7770919,4.01633931 C2.91286091,5.55199846 1.51468768,7.67829575 0.69908662,10.1589759 C-0.815601056,15.0022086 0.34954331,19.7273137 2.44680317,23.0348872 C3.02937535,23.8617806 3.61194753,24.4524188 4.31103415,25.1611845 C11.0688715,32.1307145 23.6524306,30.2406725 27.497407,20.5542071 C28.1964937,18.6641651 28.7790658,16.3016125 28.7790658,13.7028047 L28.7790658,13.7028047 Z" id="Shape" fill="#817A72"></path>
                        <path d="M119.427298,29.2956515 L136.088862,29.2956515 C144.71093,29.2956515 147.157733,19.1366756 142.264127,14.884081 C141.681555,14.4115705 140.982468,14.1753152 140.516411,13.7028047 C141.56504,13.2302942 142.147613,12.2852732 142.730185,10.9858693 C144.361387,6.73327473 142.147613,0.354382881 134.45766,0.354382881 L119.427298,0.354382881 L119.427298,29.2956515 L119.427298,29.2956515 Z M125.602563,23.2711425 C127.583308,23.3892701 135.156746,23.6255254 136.787949,22.9167596 C138.885208,21.853611 138.885208,19.0185479 136.904463,17.9553993 C135.972347,17.4828888 134.807203,17.4828888 133.40903,17.4828888 L125.602563,17.4828888 L125.602563,23.2711425 L125.602563,23.2711425 Z M125.602563,11.4583798 C127.233765,11.4583798 134.45766,11.6946351 135.622804,11.1039969 C137.370521,10.1589759 137.254006,7.67829575 135.622804,6.73327473 C134.574174,6.1426366 127.000736,6.49701948 125.602563,6.49701948 L125.602563,11.4583798 L125.602563,11.4583798 Z" id="Shape" fill="#817A72"></path>
                        <path d="M148.672421,29.0593962 L154.964201,29.2956515 L154.964201,20.5542071 L160.20735,20.5542071 L164.40187,26.9330989 C164.751413,27.5237371 165.567014,28.5868857 165.683529,29.2956515 L173.723025,29.2956515 L166.732159,19.0185479 C167.431245,18.9004203 168.479875,18.3097822 168.945933,17.8372717 C172.324852,15.2384639 172.790909,13.1121666 172.790909,9.2139549 C172.790909,5.07948796 169.178962,1.2994039 164.867928,0.472510508 C162.654153,0.118127627 151.701796,0.354382881 148.555907,0.354382881 L148.672421,29.0593962 L148.672421,29.0593962 Z M154.964201,14.5296981 C157.411004,14.5296981 160.20735,14.6478257 162.537639,14.4115705 C168.479875,13.7028047 167.314731,6.85140236 162.770668,6.49701948 C160.440379,6.26076423 157.411004,6.49701948 154.964201,6.49701948 L154.964201,14.5296981 L154.964201,14.5296981 Z" id="Shape" fill="#817A72"></path>
                        <path d="M177.101944,1.2994039 L177.101944,29.2956515 L199.356201,29.2956515 L199.356201,23.2711425 L183.510238,23.2711425 L183.510238,17.4828888 L199.123172,17.4828888 L199.123172,11.4583798 L183.510238,11.4583798 L183.510238,6.49701948 L199.356201,6.49701948 L199.356201,0.354382881 L177.101944,0.354382881 L177.101944,1.2994039 Z" id="Shape" fill="#817A72"></path>
                        <path d="M91.9298905,29.2956515 L113.834605,29.2956515 L113.834605,23.2711425 L98.1051556,23.2711425 L98.1051556,17.4828888 L113.834605,17.4828888 L113.834605,11.4583798 L98.1051556,11.4583798 L98.1051556,6.49701948 L113.834605,6.49701948 L113.834605,0.354382881 L91.9298905,0.354382881 L91.9298905,29.2956515 Z" id="Shape" fill="#817A72"></path>
                        <path d="M60.2379637,29.2956515 L66.4132289,29.2956515 L66.4132289,13.2302942 C66.8792866,13.3484218 68.5104887,14.7659534 68.9765465,15.2384639 C69.7921475,15.9472296 70.4912341,16.5378678 71.3068352,17.2466335 L83.540851,27.4056094 C84.3564521,27.9962476 85.405082,29.0593962 86.2206831,29.4137791 L86.2206831,0.354382881 L79.9289035,0.354382881 L79.9289035,16.5378678 L78.7637591,15.5928468 C78.2977014,15.2384639 78.0646725,14.884081 77.5986148,14.5296981 C77.132557,14.1753152 76.7830137,13.8209323 76.316956,13.4665495 L65.2480845,4.13446694 C64.1994546,3.30757355 61.0535648,0.354382881 60.2379637,0 L60.2379637,29.2956515 L60.2379637,29.2956515 Z" id="Shape" fill="#817A72"></path>
                        <path d="M32.8570711,29.4137791 L54.5287563,29.4137791 L54.5287563,22.6805044 L32.8570711,22.6805044 L32.8570711,29.4137791 Z" id="Shape" fill="#515151"></path>
                        <path d="M32.8570711,18.1916545 L54.5287563,18.1916545 L54.5287563,12.0490179 L54.5287563,11.4583798 L32.8570711,11.4583798 L32.8570711,18.1916545 Z" id="Shape" fill="#515151"></path>
                    </g>
                </g>
            </g>
        </g>
    </g>
</svg>