<?xml version="1.0" encoding="UTF-8" standalone="no"?>
<svg width="200px" height="200px" viewBox="0 0 200 200" version="1.1" xmlns="http://www.w3.org/2000/svg" xmlns:xlink="http://www.w3.org/1999/xlink" xmlns:sketch="http://www.bohemiancoding.com/sketch/ns">
    <!-- Generator: Sketch 3.4.2 (15855) - http://www.bohemiancoding.com/sketch -->
    <title>200x200-clientes10</title>
    <desc>Created with Sketch.</desc>
    <defs></defs>
    <g id="Page-1" stroke="none" stroke-width="1" fill="none" fill-rule="evenodd" sketch:type="MSPage">
        <g id="200x200-clientes" sketch:type="MSArtboardGroup" fill="#959596">
            <g id="knauf" sketch:type="MSLayerGroup" transform="translate(1.000000, 41.000000)">
                <g id="Layer_x0020_1" sketch:type="MSShapeGroup">
                    <g id="_1030872032">
                        <path d="M28.6713287,0 L14.3356643,0 C12.9370629,5.23612089 2.66453526e-15,93.2029518 0.34965035,95.2974002 L14.6853147,95.2974002 C16.0839161,90.0612793 18.1818182,72.9566177 19.2307692,70.5130946 C19.5804196,69.1167957 19.2307692,69.4658704 19.9300699,69.1167957 L21.3286713,94.9483254 L36.7132867,94.9483254 C36.3636364,87.6177562 31.8181818,61.4371517 33.5664336,56.5501056 C37.0629371,46.7760133 41.6083916,36.3037715 45.4545455,26.1806044 L32.1678322,26.1806044 C29.7202797,27.9259781 24.8251748,46.0778638 22.3776224,49.9176858 L28.6713287,0 L28.6713287,0 Z" id="Shape"></path>
                        <path d="M86.7132867,25.8315297 L73.7762238,25.8315297 L69.2307692,50.96491 L67.1328671,25.8315297 L51.7482517,25.8315297 L41.2587413,94.9483254 L54.1958042,94.9483254 C54.8951049,89.7122045 57.6923077,69.4658704 59.0909091,65.9751232 L61.1888112,94.5992507 L76.5734266,94.5992507 L86.7132867,25.8315297 L86.7132867,25.8315297 Z" id="Shape"></path>
                        <path d="M146.853147,25.482455 C130.06993,25.1333803 133.216783,22.3407825 131.118881,35.605622 C130.06993,42.9361913 129.020979,50.6158352 127.972028,57.9464045 C126.923077,65.6260485 125.524476,73.3056924 124.475524,80.9853364 C123.076923,90.0612793 127.272727,94.250176 134.965035,95.6464749 C143.006993,97.0427738 151.398601,94.9483254 155.244755,90.410354 C159.440559,85.5233078 159.440559,77.4945891 160.48951,69.8149452 C162.587413,55.8519561 165.734266,39.0963693 167.132867,25.1333803 L153.496503,25.1333803 C151.748252,29.6713517 149.300699,51.3139847 148.601399,57.9464045 C147.552448,63.1825254 146.853147,68.767721 146.153846,74.3529166 C145.104895,80.6362617 146.153846,86.9196067 139.160839,84.8251584 C137.762238,79.2399628 147.902098,31.0676506 146.853147,25.482455 L146.853147,25.482455 Z" id="Shape"></path>
                        <path d="M117.832168,94.9483254 C118.531469,88.3159056 121.328671,28.6241275 120.629371,25.482455 L102.447552,25.482455 L80.7692308,94.9483254 L96.1538462,94.9483254 L99.3006993,80.9853364 L104.545455,80.9853364 L104.195804,94.9483254 L117.832168,94.9483254 L117.832168,94.9483254 Z M101.398601,70.1640199 L106.643357,70.1640199 L109.440559,41.5398924 L101.398601,70.1640199 L101.398601,70.1640199 Z" id="Shape"></path>
                        <path d="M200,25.1333803 L174.825175,25.1333803 L160.839161,117.987257 L177.272727,117.987257 L185.664336,62.1353012 L194.755245,62.1353012 C195.454545,58.9936287 196.153846,54.1065825 195.804196,50.96491 L187.412587,50.96491 L189.160839,35.9546968 L198.601399,35.9546968 L200,25.1333803 L200,25.1333803 Z" id="Shape"></path>
                    </g>
                </g>
            </g>
        </g>
    </g>
</svg>