<?xml version="1.0" encoding="UTF-8" standalone="no"?>
<svg width="200px" height="200px" viewBox="0 0 200 200" version="1.1" xmlns="http://www.w3.org/2000/svg" xmlns:xlink="http://www.w3.org/1999/xlink" xmlns:sketch="http://www.bohemiancoding.com/sketch/ns">
    <!-- Generator: Sketch 3.4.2 (15855) - http://www.bohemiancoding.com/sketch -->
    <title>200x200-clientes9</title>
    <desc>Created with Sketch.</desc>
    <defs></defs>
    <g id="Page-1" stroke="none" stroke-width="1" fill="none" fill-rule="evenodd" sketch:type="MSPage">
        <g id="200x200-clientes" sketch:type="MSArtboardGroup" fill="#5E5E5E">
            <g id="pirelli-2" sketch:type="MSLayerGroup" transform="translate(0.000000, 79.000000)">
                <g id="Layer_x0020_1" sketch:type="MSShapeGroup">
                    <g id="_1745241488" transform="translate(0.000000, 0.351832)">
                        <path d="M167.123728,10.0744424 L94.9544724,10.0637477 C88.6984467,10.0637477 20.9534012,10.2348635 20.6534547,9.94610558 C20.3642207,9.32581082 20.546331,8.06383183 20.5570434,7.24033707 C20.5891805,4.01052644 19.5715051,4.57734751 25.3776111,4.56665278 L167.959293,4.57734751 C168.837708,4.57734751 169.234065,4.73776857 169.737547,5.11208437 C172.222817,7.01574759 170.155329,10.0744424 167.123728,10.0744424 L167.123728,10.0744424 Z M0.0749866095,41.0143171 C2.29244778,41.3458539 13.9903589,41.1533487 17.9432244,41.1533487 C18.3395822,41.1533487 19.8071773,41.2068224 20.1606856,41.0891803 C20.4177825,41.0036224 20.2678093,41.0784855 20.4177825,40.9501487 C20.8462775,40.4154118 19.9892876,15.9351584 20.546331,15.26139 C20.8998393,14.8442952 25.3990359,15.0368005 26.2131762,15.0368005 C28.1735404,15.0261057 30.144617,15.0368005 32.1156936,15.0368005 L162.870916,15.0474952 C165.302625,15.0368005 192.372791,15.1865268 193.893948,14.9833268 C203.470809,11.2936425 201.0391,0.0962526346 191.697911,0.0534736859 L6.59882164,0.0427789487 C4.54204606,0.0427789487 2.15318693,-0.0641684231 0.128548473,0.0855578975 C-0.0964113551,1.28336846 0.0642742367,40.287075 0.0749866095,41.0143171 L0.0749866095,41.0143171 Z" id="Shape"></path>
                        <path d="M62.2924478,29.3570536 C61.9496518,29.014822 62.1210498,27.7849272 62.1210498,27.2929693 C62.1210498,24.2770534 61.7675415,24.2984429 63.6529191,24.3305271 C64.9169791,24.3519166 68.6341725,24.2342745 69.4483128,24.4588639 C70.6695233,24.8010955 72.0835565,26.6512851 70.9266202,28.2982746 C70.6052491,28.7581483 70.0482057,29.2714957 69.4911623,29.4640009 C69.0305303,29.6137273 68.4092126,29.5388641 67.9057311,29.5495588 C66.9737547,29.5495588 62.6888056,29.7099799 62.2924478,29.3570536 L62.2924478,29.3570536 Z M69.5554365,41.303075 C71.3336904,41.3672434 82.7637922,41.4421066 83.7493305,41.2068224 C83.5886449,40.4368013 83.3101232,40.6079171 82.6352437,39.3459381 L79.4750937,34.8220643 C79.1537225,34.3408011 79.0358864,34.3621906 78.8002142,34.0092642 C78.5966792,33.2071589 79.6464917,33.5386958 81.1676486,31.9130957 C83.1494376,29.7955378 83.5779325,27.9988219 83.0530262,24.9829061 C82.6673808,22.7156218 80.9105517,21.3039165 79.0037493,20.3200006 C78.0931976,19.817348 76.7005892,19.6248427 75.4686663,19.6248427 L58.4574183,19.6248427 C58.189609,19.6248427 50.3053026,19.4751164 50.0589181,19.7424848 C49.8768077,20.1488849 49.8339582,40.4154118 50.0696304,41.0891803 C50.316015,41.3565487 59.4750937,41.2496013 61.2961971,41.2068224 L61.7354044,41.1640434 C62.2603107,41.057096 62.1210498,40.4688855 62.1210498,39.5491381 C62.1103374,38.1802117 62.0460632,35.3781906 62.2817354,34.8862327 C62.2924478,34.8648432 62.3245849,34.832759 62.3352973,34.8113695 C62.6031066,34.3087169 65.1419389,34.5653906 65.8275308,34.5653906 C66.0417783,34.8755379 66.3310123,35.1108222 66.5024103,35.5065274 C67.3379754,37.1428222 68.5806106,40.0945697 69.5554365,41.303075 L69.5554365,41.303075 Z" id="Shape"></path>
                        <path d="M117.311194,32.9504853 C117.418318,32.3194958 117.589716,28.3731377 117.257633,28.0416009 C115.811462,28.1806325 104.027852,28.1699377 103.427959,27.913264 C103.213712,27.3250535 103.213712,25.2395797 103.417247,24.6513692 C104.349223,24.212885 115.372255,24.576506 117.536154,24.4802534 C117.771826,23.8706534 117.911087,20.0098533 117.579004,19.6783164 C117.28977,19.4002532 114.740225,19.5499796 114.322442,19.5499796 C110.787359,19.5285901 90.862346,19.3895585 90.5409748,19.6997059 C90.1874665,20.0526322 90.401714,21.6033691 90.401714,22.2129691 L90.401714,35.7738959 C90.401714,36.6401696 90.1660418,40.7469487 90.5409748,41.1319592 C90.8409213,41.4528013 93.4226031,41.2923803 93.8939475,41.2923803 L97.4397429,41.2923803 L118.211034,41.2709908 C118.500268,41.2282118 118.382432,41.2816855 118.532405,41.1533487 C118.810927,40.8004223 118.73594,37.3460222 118.607392,36.6936433 C116.914837,36.297938 105.024103,36.950317 103.513658,36.5332222 C103.224424,35.9557064 103.256561,34.6723379 103.288698,33.8809274 C103.310123,33.4852221 103.331548,33.3248011 103.577933,33.1322958 C104.124264,32.6938116 114.954472,33.1964642 117.311194,32.9504853 L117.311194,32.9504853 Z" id="Shape"></path>
                        <path d="M138.393144,19.5072006 L138.307445,19.5285901 L126.084628,19.6890112 L125.945367,20.8012638 L126.084628,41.2496013 L138.425281,41.2923803 L150.755222,41.1426539 L150.905196,36.747117 L138.532405,36.4797485 L138.478843,23.7530113 L138.393144,19.5072006 Z" id="Shape"></path>
                        <path d="M155.083021,41.2068224 L179.507231,41.2068224 L179.528656,36.7257275 L167.445099,36.4048854 L167.305838,19.6890112 L155.16872,19.6248427 L155.083021,41.2068224 Z" id="Shape"></path>
                        <path d="M196.20782,41.1319592 L196.047134,19.7638743 L184.167113,19.6676217 L184.167113,41.0464013 L196.20782,41.1319592 Z" id="Shape"></path>
                        <path d="M29.3947509,41.0784855 L35.5436529,41.2068224 L40.2678093,41.2068224 L41.0819497,41.0784855 L41.1140868,40.9929276 L41.1890734,19.6890112 L29.4054633,19.7852638 L29.3947509,41.0784855 Z" id="Shape"></path>
                    </g>
                </g>
            </g>
        </g>
    </g>
</svg>