<?xml version="1.0" encoding="UTF-8" standalone="no"?>
<svg width="200px" height="200px" viewBox="0 0 200 200" version="1.1" xmlns="http://www.w3.org/2000/svg" xmlns:xlink="http://www.w3.org/1999/xlink" xmlns:sketch="http://www.bohemiancoding.com/sketch/ns">
    <!-- Generator: Sketch 3.4.2 (15855) - http://www.bohemiancoding.com/sketch -->
    <title>200x200-clientes4</title>
    <desc>Created with Sketch.</desc>
    <defs></defs>
    <g id="Page-1" stroke="none" stroke-width="1" fill="none" fill-rule="evenodd" sketch:type="MSPage">
        <g id="200x200-clientes" sketch:type="MSArtboardGroup">
            <g id="technal" sketch:type="MSLayerGroup" transform="translate(40.566784, 40.500000)">
                <g id="Layer_x0020_1" sketch:type="MSShapeGroup">
                    <g id="_1024961520">
                        <path d="M0,119 L119.196231,119 L119.196231,0 L0,0 L0,119 Z" id="Shape" fill="#000000"></path>
                        <g id="Group" transform="translate(4.546995, 19.455041)">
                            <path d="M49.0425909,0 C49.3673763,0 49.3673763,0.324250681 49.3673763,0.972752044 L49.3673763,2.26975477 L49.3673763,4.53950954 L60.0852935,4.53950954 L60.0852935,0.972752044 C60.0852935,0.324250681 60.0852935,0 60.4100789,0 L74.3758498,0 L74.3758498,13.9427793 C74.3758498,13.9427793 74.7006351,13.9427793 73.4014937,13.9427793 L69.8288546,13.9427793 L69.8288546,24.9673025 L74.3758498,24.9673025 L74.3758498,39.2343324 L60.4100789,39.2343324 L60.4100789,34.3705722 L49.3673763,34.3705722 L49.3673763,39.2343324 C47.7434494,39.5585831 35.7263907,39.5585831 35.07682,39.2343324 L35.07682,24.9673025 C36.0511761,24.6430518 38.6494591,24.9673025 39.6238152,24.9673025 L39.6238152,13.9427793 L37.3503176,13.9427793 L35.7263907,13.9427793 L35.4016054,13.9427793 L35.07682,13.9427793 L35.07682,0 L49.0425909,0 L49.0425909,0 Z" id="Shape" fill="#000000"></path>
                            <path d="M44.1708103,76.5231608 C43.846025,77.1716621 43.1964542,77.8201635 42.8716689,78.4686649 C42.5468835,79.4414169 42.5468835,79.7656676 41.247742,79.7656676 C39.6238152,80.0899183 37.0255322,80.0899183 35.7263907,79.7656676 C28.5811126,77.8201635 27.2819711,69.0653951 33.4528931,65.4986376 C37.0255322,63.2288828 40.5981713,64.2016349 43.5212396,64.5258856 L43.5212396,67.7683924 C41.247742,67.119891 39.6238152,66.147139 37.0255322,67.4441417 C32.8033224,69.3896458 33.1281078,75.226158 37.3503176,76.8474114 C39.6238152,77.8201635 41.8973128,77.1716621 44.1708103,76.5231608 L44.1708103,76.5231608 Z" id="Shape" fill="#000000"></path>
                            <path d="M105.23046,66.147139 C105.23046,62.9046322 110.10224,63.2288828 110.10224,66.4713896 C109.777455,69.3896458 105.23046,70.0381471 105.23046,66.147139 L105.23046,66.147139 Z" id="Shape" fill="#000000"></path>
                            <path d="M17.2136246,64.2016349 L28.2563272,64.2016349 L28.2563272,67.4441417 L21.4358344,67.4441417 L21.4358344,70.0381471 C22.4101905,70.3623978 25.6580442,70.0381471 27.2819711,70.3623978 L27.2819711,73.280654 L21.4358344,73.280654 L21.4358344,76.5231608 L29.2306833,76.5231608 L27.2819711,79.7656676 L17.2136246,79.7656676 L17.2136246,64.2016349 L17.2136246,64.2016349 Z" id="Shape" fill="#000000"></path>
                            <path d="M0,64.2016349 L15.5896978,64.2016349 L15.5896978,67.4441417 L10.0683465,67.4441417 L10.0683465,79.7656676 L5.52135129,79.7656676 L5.52135129,67.4441417 L0,67.4441417 L0,64.2016349 Z" id="Shape" fill="#000000"></path>
                            <path d="M67.2305716,70.6866485 L67.2305716,79.7656676 L63.0083618,79.7656676 L63.0083618,64.2016349 L66.2562155,64.2016349 C66.9057863,64.2016349 66.9057863,64.5258856 67.2305716,64.8501362 L73.4014937,71.3351499 C73.726279,71.9836512 74.0510644,72.3079019 74.3758498,72.3079019 L74.3758498,64.2016349 L78.5980596,64.2016349 L78.5980596,79.7656676 L75.9997766,79.7656676 C75.3502059,79.4414169 73.726279,77.4959128 73.4014937,77.1716621 C72.7519229,76.5231608 72.7519229,76.1989101 72.1023522,75.5504087 L68.5297131,71.6594005 C67.8801424,71.3351499 67.555357,70.6866485 67.2305716,70.3623978 L67.2305716,70.6866485 L67.2305716,70.6866485 Z" id="Shape" fill="#000000"></path>
                            <path d="M49.3673763,79.7656676 L45.4699518,79.7656676 L45.1451665,64.2016349 L49.6921616,64.2016349 L49.6921616,70.0381471 L55.8630837,70.0381471 L55.8630837,64.2016349 L60.0852935,64.2016349 L60.0852935,79.7656676 L55.8630837,79.7656676 L55.8630837,73.280654 L49.6921616,72.9564033 C49.3673763,74.5776567 49.6921616,77.8201635 49.3673763,79.7656676 L49.3673763,79.7656676 Z" id="Shape" fill="#000000"></path>
                            <path d="M97.7603964,79.7656676 L97.7603964,64.2016349 L101.982606,64.2016349 L101.982606,76.5231608 L109.45267,76.5231608 C109.127884,77.1716621 108.478314,78.1444142 108.153528,78.7929155 C107.503958,80.0899183 106.854387,79.7656676 105.23046,79.7656676 L97.7603964,79.7656676 L97.7603964,79.7656676 Z" id="Shape" fill="#000000"></path>
                            <path d="M67.2305716,70.3623978 C67.555357,70.6866485 67.8801424,71.3351499 68.5297131,71.6594005 L72.1023522,75.5504087 C72.7519229,76.1989101 72.7519229,76.5231608 73.4014937,77.1716621 C73.726279,77.4959128 75.3502059,79.4414169 75.9997766,79.7656676 L78.5980596,79.7656676 L78.5980596,64.2016349 L74.3758498,64.2016349 L74.3758498,72.3079019 C74.0510644,72.3079019 73.726279,71.9836512 73.4014937,71.3351499 L67.2305716,64.8501362 C66.9057863,64.5258856 66.9057863,64.2016349 66.2562155,64.2016349 L63.0083618,64.2016349 L63.0083618,79.7656676 L67.2305716,79.7656676 L67.2305716,70.6866485 L67.2305716,70.3623978 L67.2305716,70.3623978 Z" id="Shape" fill="#A3A2A0"></path>
                            <path d="M49.3673763,79.7656676 C49.6921616,77.8201635 49.3673763,74.5776567 49.6921616,72.9564033 L55.8630837,73.280654 L55.8630837,79.7656676 L60.0852935,79.7656676 L60.0852935,64.2016349 L55.8630837,64.2016349 L55.8630837,70.0381471 L49.6921616,70.0381471 L49.6921616,64.2016349 L45.1451665,64.2016349 L45.4699518,79.7656676 L49.3673763,79.7656676 L49.3673763,79.7656676 Z" id="Shape" fill="#A3A2A0"></path>
                            <path d="M83.7946255,79.7656676 C85.7433377,75.8746594 82.8202694,76.5231608 90.6151183,76.5231608 C91.264689,76.5231608 91.5894744,78.7929155 91.9142598,79.7656676 L96.4612549,79.7656676 C96.4612549,78.7929155 93.862972,73.280654 93.2134012,71.9836512 L90.2903329,64.2016349 L86.0681231,64.2016349 C85.4185524,65.1743869 79.8972011,79.1171662 79.5724157,79.7656676 L83.7946255,79.7656676 L83.7946255,79.7656676 Z M86.0681231,74.253406 L89.9655475,74.253406 L88.0168353,68.7411444 L86.0681231,74.253406 L86.0681231,74.253406 Z" id="Shape" fill="#A3A2A0"></path>
                            <path d="M17.2136246,79.7656676 L27.2819711,79.7656676 L29.2306833,76.5231608 L21.4358344,76.5231608 L21.4358344,73.280654 L27.2819711,73.280654 L27.2819711,70.3623978 C25.6580442,70.0381471 22.4101905,70.3623978 21.4358344,70.0381471 L21.4358344,67.4441417 L28.2563272,67.4441417 L28.2563272,64.2016349 L17.2136246,64.2016349 L17.2136246,79.7656676 L17.2136246,79.7656676 Z" id="Shape" fill="#A3A2A0"></path>
                            <path d="M44.1708103,76.5231608 C41.8973128,77.1716621 39.6238152,77.8201635 37.3503176,76.8474114 C33.1281078,75.226158 32.8033224,69.3896458 37.0255322,67.4441417 C39.6238152,66.147139 41.247742,67.119891 43.5212396,67.7683924 L43.5212396,64.5258856 C40.5981713,64.2016349 37.0255322,63.2288828 33.4528931,65.4986376 C27.2819711,69.0653951 28.5811126,77.8201635 35.7263907,79.7656676 C37.0255322,80.0899183 39.6238152,80.0899183 41.247742,79.7656676 C42.5468835,79.7656676 42.5468835,79.4414169 42.8716689,78.4686649 C43.1964542,77.8201635 43.846025,77.1716621 44.1708103,76.5231608 L44.1708103,76.5231608 Z" id="Shape" fill="#A3A2A0"></path>
                            <path d="M60.4100789,34.3705722 L60.4100789,39.2343324 L74.3758498,39.2343324 L74.3758498,24.9673025 L69.8288546,24.9673025 L69.8288546,34.3705722 L60.4100789,34.3705722 Z" id="Shape" fill="#FCFCFA"></path>
                            <path d="M35.07682,39.2343324 L49.0425909,39.2343324 L49.0425909,34.3705722 L39.6238152,34.3705722 L39.6238152,24.9673025 L35.07682,24.9673025 L35.07682,39.2343324 Z" id="Shape" fill="#FCFCFA"></path>
                            <path d="M35.07682,13.9427793 L39.6238152,13.9427793 L39.6238152,4.53950954 L49.0425909,4.53950954 L49.0425909,0 L35.07682,0 L35.07682,13.9427793 Z" id="Shape" fill="#FCFCFA"></path>
                            <path d="M74.3758498,13.9427793 L74.3758498,0 L60.4100789,0 L60.4100789,4.53950954 L69.8288546,4.53950954 L69.8288546,13.9427793 L74.3758498,13.9427793 Z" id="Shape" fill="#FCFCFA"></path>
                            <path d="M0,67.4441417 L5.52135129,67.4441417 L5.52135129,79.7656676 L10.0683465,79.7656676 L10.0683465,67.4441417 L15.5896978,67.4441417 L15.5896978,64.2016349 L0,64.2016349 L0,67.4441417 Z" id="Shape" fill="#A3A2A0"></path>
                            <path d="M97.7603964,79.7656676 L105.23046,79.7656676 C106.854387,79.7656676 107.503958,80.0899183 108.153528,78.7929155 C108.478314,78.1444142 109.127884,77.1716621 109.45267,76.5231608 L101.982606,76.5231608 L101.982606,64.2016349 L97.7603964,64.2016349 L97.7603964,79.7656676 L97.7603964,79.7656676 Z" id="Shape" fill="#A3A2A0"></path>
                            <path d="M35.07682,24.9673025 L39.6238152,24.9673025 L39.6238152,34.3705722 L49.0425909,34.3705722 L49.0425909,39.2343324 L35.07682,39.2343324 L35.07682,24.9673025 L35.07682,24.9673025 Z M35.07682,13.9427793 L35.4016054,13.9427793 L35.7263907,13.9427793 L37.3503176,13.9427793 L39.6238152,13.9427793 L39.6238152,24.9673025 C38.6494591,24.9673025 36.0511761,24.6430518 35.07682,24.9673025 L35.07682,39.2343324 C35.7263907,39.5585831 47.7434494,39.5585831 49.3673763,39.2343324 L49.3673763,34.3705722 L60.4100789,34.3705722 L69.8288546,34.3705722 L69.8288546,24.9673025 L69.8288546,13.9427793 L73.4014937,13.9427793 L74.3758498,13.9427793 L69.8288546,13.9427793 L69.8288546,4.53950954 L60.4100789,4.53950954 L60.4100789,0 C60.0852935,0 60.0852935,0.324250681 60.0852935,0.972752044 L60.0852935,4.53950954 L49.3673763,4.53950954 L49.3673763,2.26975477 L49.3673763,0.972752044 C49.3673763,0.324250681 49.3673763,0 49.0425909,0 L49.0425909,4.53950954 L39.6238152,4.53950954 L39.6238152,13.9427793 L35.07682,13.9427793 L35.07682,13.9427793 Z" id="Shape" fill="#4D4D4D"></path>
                        </g>
                    </g>
                </g>
            </g>
        </g>
    </g>
</svg>