<?xml version="1.0" encoding="UTF-8" standalone="no"?>
<svg width="200px" height="200px" viewBox="0 0 200 200" version="1.1" xmlns="http://www.w3.org/2000/svg" xmlns:xlink="http://www.w3.org/1999/xlink" xmlns:sketch="http://www.bohemiancoding.com/sketch/ns">
    <!-- Generator: Sketch 3.4.2 (15855) - http://www.bohemiancoding.com/sketch -->
    <title>200x200-clientes5</title>
    <desc>Created with Sketch.</desc>
    <defs></defs>
    <g id="Page-1" stroke="none" stroke-width="1" fill="none" fill-rule="evenodd" sketch:type="MSPage">
        <g id="200x200-clientes" sketch:type="MSArtboardGroup">
            <g id="sinteplast" sketch:type="MSLayerGroup" transform="translate(0.000000, 54.000000)">
                <g id="Layer_x0020_1" sketch:type="MSShapeGroup">
                    <g id="_1016289600">
                        <g id="Group" transform="translate(12.628272, 9.455612)" fill="#444444">
                            <path d="M98.5706806,24.8647572 C97.8691099,25.5651729 97.8691099,25.5651729 96.8167539,26.6157964 C92.9581152,30.4680828 84.1884817,30.4680828 79.9790576,25.9153808 C75.0680628,21.3626787 75.4188482,18.9112238 74.7172775,11.2066511 C74.7172775,8.7551962 75.4188482,7.35436481 75.4188482,5.25311772 C74.7172775,5.60332557 74.0157068,8.7551962 73.6649215,10.1560276 C73.3141361,12.6074825 74.0157068,21.3626787 75.4188482,23.4639258 C77.5235602,28.3668357 83.486911,32.219122 89.8010471,31.1684985 C93.3089005,30.4680828 98.5706806,27.3162121 98.5706806,24.8647572 L98.5706806,24.8647572 Z" id="Shape"></path>
                            <path d="M111.549738,45.1768124 L110.497382,51.8307615 L109.094241,60.5859577 C111.198953,60.5859577 114.005236,60.9361655 116.109948,60.2357499 L116.109948,58.4847106 L111.549738,58.4847106 L111.198953,58.4847106 C111.198953,58.1345028 111.198953,58.1345028 110.848168,58.1345028 C111.549738,52.881385 112.602094,47.2780595 113.65445,41.6747339 C114.356021,37.8224476 116.109948,28.7170435 116.109948,25.2149651 C115.759162,24.1643415 116.460733,24.8647572 115.057592,24.5145494 C113.65445,26.6157964 112.95288,42.7253575 111.549738,45.1768124 L111.549738,45.1768124 Z" id="Shape"></path>
                            <path d="M157.502618,39.9236947 L156.801047,41.3245261 C157.502618,41.6747339 158.905759,41.6747339 159.958115,41.6747339 C159.958115,47.2780595 153.643979,63.0374126 167.324607,60.9361655 C168.727749,60.5859577 170.481675,59.5353342 168.376963,59.1851263 C163.115183,58.4847106 160.659686,58.1345028 160.308901,52.5311772 C159.958115,47.9784752 162.062827,43.4257732 161.712042,39.5734868 L158.554974,39.5734868 L158.554974,37.1220319 C158.905759,34.670577 158.905759,36.4216162 158.554974,35.7212005 L157.502618,39.9236947 L157.502618,39.9236947 Z" id="Shape"></path>
                            <path d="M69.8062827,38.8730711 L69.8062827,39.5734868 L68.4031414,41.6747339 C68.052356,42.0249418 68.052356,42.7253575 67.7015707,43.4257732 C66.6492147,46.5776438 66.2984293,50.0797223 67.3507853,52.881385 C68.052356,54.6324243 67.3507853,55.33284 68.7539267,57.0838792 C71.9109948,60.9361655 75.7696335,61.6365812 81.0314136,60.5859577 C82.434555,60.2357499 84.1884817,59.885542 83.486911,58.4847106 C80.3298429,58.4847106 78.2251309,59.5353342 74.7172775,58.4847106 C69.4554974,56.3834635 68.052356,50.4299301 68.7539267,45.1768124 C69.104712,42.0249418 70.8586387,39.223279 71.2094241,37.8224476 C70.8586387,37.8224476 70.5078534,38.5228633 69.8062827,38.8730711 L69.8062827,38.8730711 Z" id="Shape"></path>
                            <path d="M89.0994764,40.9743182 C88.7486911,42.3751496 89.0994764,43.775981 89.0994764,45.1768124 C88.7486911,45.8772281 88.7486911,46.5776438 88.7486911,47.2780595 C88.3979058,48.6788909 88.7486911,47.9784752 88.0471204,48.328683 C87.3455497,49.7295144 83.8376963,68.2905304 84.1884817,70.3917774 C86.2931937,70.3917774 89.4502618,70.7419853 90.8534031,70.0415696 L91.2041885,68.2905304 L85.9424084,68.2905304 C85.9424084,64.438244 88.0471204,56.3834635 88.7486911,52.1809693 C89.0994764,48.6788909 91.2041885,38.8730711 91.2041885,36.0714083 C90.8534031,35.3709926 91.2041885,35.7212005 90.1518325,35.3709926 C89.4502618,36.771824 89.4502618,39.5734868 89.0994764,40.9743182 L89.0994764,40.9743182 Z" id="Shape"></path>
                            <path d="M64.5445026,58.8349185 C59.2827225,58.4847106 56.8272251,58.4847106 56.4764398,52.881385 C56.1256545,49.0290987 57.5287958,43.775981 58.2303665,39.5734868 C57.5287958,39.5734868 56.8272251,39.5734868 56.1256545,39.9236947 L55.0732984,39.9236947 L54.7225131,40.2739025 C55.0732984,42.7253575 54.7225131,40.9743182 56.1256545,42.0249418 C56.1256545,45.8772281 49.8115183,63.3876205 63.4921466,60.9361655 C64.895288,60.5859577 66.2984293,59.5353342 64.5445026,58.8349185 L64.5445026,58.8349185 Z" id="Shape"></path>
                            <path d="M13.6806283,51.1303458 C14.382199,51.1303458 14.382199,51.4805537 14.7329843,50.0797223 C15.0837696,49.7295144 15.434555,49.0290987 15.0837696,48.328683 C14.7329843,43.4257732 5.2617801,43.775981 4.91099476,36.771824 C4.56020942,33.2697456 5.96335079,31.8689142 6.31413613,29.7676671 C5.2617801,30.1178749 3.85863874,32.9195377 3.15706806,35.3709926 C2.45549738,37.8224476 2.80628272,40.6241104 4.20942408,42.3751496 C8.41884817,47.2780595 12.2774869,44.8266045 13.6806283,51.1303458 L13.6806283,51.1303458 Z" id="Shape"></path>
                            <path d="M31.5706806,58.1345028 C31.921466,54.6324243 32.973822,50.780138 33.3246073,46.9278516 C34.026178,44.4763967 35.078534,38.5228633 35.078534,36.0714083 C34.7277487,35.3709926 35.7801047,35.7212005 34.026178,35.7212005 C32.973822,37.1220319 30.1675393,56.7336714 29.8167539,60.2357499 C31.2198953,60.5859577 32.6230366,60.2357499 34.026178,60.5859577 C36.8324607,60.5859577 36.4816754,60.9361655 36.8324607,58.8349185 C35.7801047,58.4847106 35.078534,58.4847106 34.026178,58.4847106 L32.2722513,58.4847106 L31.921466,58.4847106 C31.921466,58.1345028 31.5706806,58.1345028 31.5706806,58.1345028 L31.5706806,58.1345028 Z" id="Shape"></path>
                            <path d="M41.7434555,42.7253575 C42.7958115,42.3751496 43.8481675,42.3751496 45.2513089,42.7253575 C47.0052356,45.8772281 44.1989529,55.6830478 43.8481675,60.5859577 L48.0575916,60.5859577 C50.513089,60.5859577 50.513089,60.9361655 50.8638743,58.8349185 C50.513089,58.8349185 51.565445,58.8349185 50.1623037,58.8349185 L48.0575916,58.4847106 L46.6544503,58.4847106 C45.6020942,58.4847106 46.3036649,58.8349185 45.6020942,58.1345028 C45.6020942,54.6324243 47.0052356,49.3793066 47.7068063,45.8772281 C47.7068063,43.4257732 48.0575916,40.9743182 46.3036649,40.2739025 C43.8481675,39.5734868 42.0942408,41.3245261 41.7434555,42.7253575 L41.7434555,42.7253575 Z" id="Shape"></path>
                            <path d="M22.4502618,47.9784752 L22.0994764,52.1809693 L20.6963351,60.2357499 L27.7120419,60.2357499 L28.0628272,59.1851263 C27.3612565,58.4847106 28.7643979,58.8349185 26.6596859,58.4847106 C25.2565445,58.4847106 23.8534031,59.1851263 22.4502618,58.1345028 L25.9581152,36.4216162 C25.6073298,34.670577 26.3089005,35.7212005 25.2565445,35.3709926 C24.2041885,36.0714083 24.5549738,36.771824 24.2041885,38.1726554 C23.8534031,40.6241104 23.5026178,46.5776438 22.4502618,47.9784752 L22.4502618,47.9784752 Z" id="Shape"></path>
                            <path d="M79.6282723,4.90290987 C81.7329843,3.85228633 82.434555,2.45145494 85.591623,2.10124709 C92.2565445,1.05062354 98.2198953,6.30374126 97.5183246,13.3078982 L97.5183246,14.0083139 C97.5183246,15.0589375 97.5183246,14.3585218 97.8691099,15.0589375 C99.973822,8.7551962 97.5183246,3.85228633 93.6596859,1.40083139 C91.5549738,0.350207848 88.3979058,-0.350207848 85.591623,0.350207848 C83.1361257,1.05062354 80.3298429,3.15187063 79.6282723,4.90290987 L79.6282723,4.90290987 Z" id="Shape"></path>
                            <path d="M18.2408377,56.7336714 C13.3298429,59.1851263 7.01570681,59.885542 1.7539267,57.0838792 L2.45549738,53.5818007 C2.10471204,52.5311772 2.45549738,53.2315929 1.7539267,52.5311772 C0.701570681,53.9320086 0,57.4340871 0,59.5353342 C3.5078534,60.2357499 5.96335079,61.2863734 10.1727749,60.9361655 C13.3298429,60.5859577 17.1884817,59.1851263 18.2408377,56.7336714 L18.2408377,56.7336714 Z" id="Shape"></path>
                            <path d="M119.267016,49.3793066 L118.565445,53.9320086 C118.565445,57.4340871 119.617801,59.885542 122.774869,60.5859577 C126.282723,61.6365812 129.790576,60.2357499 130.842932,57.7842949 C121.722513,60.9361655 118.565445,56.0332557 121.371728,47.2780595 C120.319372,47.9784752 121.020942,47.2780595 120.319372,48.328683 L119.617801,49.0290987 C119.267016,49.7295144 119.617801,49.0290987 119.267016,49.3793066 L119.267016,49.3793066 Z" id="Shape"></path>
                            <path d="M141.015707,39.9236947 L140.664921,45.5270202 C141.366492,46.2274359 141.717277,47.9784752 144.172775,49.7295144 C145.926702,50.780138 145.926702,50.0797223 148.031414,51.8307615 C149.08377,52.881385 148.031414,52.5311772 149.08377,52.881385 C151.890052,52.1809693 149.78534,49.7295144 148.732984,49.3793066 C147.329843,48.328683 145.926702,47.9784752 144.874346,46.9278516 C141.717277,44.4763967 142.418848,41.6747339 143.120419,37.4722397 C142.068063,38.1726554 141.717277,38.8730711 141.015707,39.9236947 L141.015707,39.9236947 Z" id="Shape"></path>
                            <path d="M82.434555,25.2149651 C84.1884817,25.2149651 84.539267,25.9153808 86.9947644,25.9153808 C89.0994764,25.9153808 89.8010471,25.5651729 91.2041885,25.2149651 C94.0104712,24.5145494 95.4136126,22.7635101 98.2198953,22.0630944 L98.921466,20.3120552 C95.0628272,21.3626787 93.6596859,24.1643415 88.0471204,24.1643415 C83.486911,23.8141337 79.6282723,21.3626787 77.8743455,19.2614316 C78.2251309,21.7128866 80.6806283,24.5145494 82.434555,25.2149651 L82.434555,25.2149651 Z" id="Shape"></path>
                            <path d="M138.560209,58.1345028 L138.209424,59.5353342 C139.963351,60.5859577 144.874346,61.2863734 146.979058,60.9361655 C148.382199,60.9361655 154.696335,58.8349185 153.293194,57.7842949 C150.486911,58.4847106 150.486911,59.1851263 146.628272,58.8349185 C144.52356,58.8349185 141.717277,58.4847106 139.963351,57.4340871 L140.314136,54.6324243 C139.963351,53.9320086 140.664921,54.2822164 139.26178,53.9320086 L138.560209,58.1345028 L138.560209,58.1345028 Z" id="Shape"></path>
                            <path d="M132.596859,42.7253575 C132.947644,42.7253575 132.947644,43.0755653 133.649215,42.7253575 L134.701571,42.7253575 C134.701571,35.7212005 125.931937,40.2739025 124.879581,40.6241104 L125.230366,36.0714083 C123.47644,36.0714083 123.47644,36.4216162 123.47644,38.5228633 C123.125654,39.9236947 123.125654,41.3245261 123.125654,42.7253575 C125.581152,41.6747339 130.842932,38.8730711 132.596859,42.7253575 L132.596859,42.7253575 Z" id="Shape"></path>
                            <path d="M94.7120419,57.0838792 C94.0104712,61.6365812 102.078534,61.9867891 105.235602,58.8349185 C106.638743,57.7842949 105.937173,58.4847106 105.586387,58.1345028 C103.832461,58.4847106 101.376963,59.5353342 98.921466,58.4847106 C96.8167539,57.7842949 96.4659686,56.0332557 95.0628272,54.6324243 L94.7120419,57.0838792 L94.7120419,57.0838792 Z" id="Shape"></path>
                            <path d="M98.2198953,41.6747339 C100.675393,42.0249418 101.727749,41.3245261 102.780105,44.1261888 C103.481675,47.6282673 102.429319,48.6788909 102.429319,51.1303458 C104.183246,49.3793066 105.235602,45.8772281 104.534031,42.3751496 C103.481675,38.8730711 99.2722513,38.8730711 98.2198953,41.6747339 L98.2198953,41.6747339 Z" id="Shape"></path>
                            <path d="M75.0680628,49.7295144 L75.0680628,50.4299301 L86.9947644,50.4299301 L86.9947644,48.6788909 L75.4188482,48.6788909 C75.0680628,49.3793066 74.7172775,47.9784752 75.0680628,49.7295144 L75.0680628,49.7295144 Z" id="Shape"></path>
                            <path d="M32.6230366,29.4174592 L27.3612565,29.7676671 L27.7120419,26.2655886 C27.7120419,24.5145494 27.7120419,25.9153808 27.3612565,25.2149651 C25.9581152,25.5651729 26.3089005,26.6157964 25.9581152,28.0166278 C25.9581152,29.0672514 25.6073298,30.4680828 25.6073298,31.5187063 L32.2722513,31.5187063 L32.6230366,29.4174592 L32.6230366,29.4174592 Z" id="Shape"></path>
                            <path d="M12.6282723,32.9195377 C12.9790576,33.2697456 12.2774869,33.6199534 14.7329843,33.2697456 C19.6439791,33.2697456 18.2408377,33.9701613 21.3979058,34.670577 L21.7486911,32.219122 C20.3455497,31.5187063 18.591623,31.1684985 16.8376963,31.1684985 C14.382199,31.1684985 13.6806283,31.5187063 12.6282723,32.9195377 L12.6282723,32.9195377 Z" id="Shape"></path>
                            <path d="M76.4712042,40.9743182 C79.2774869,40.2739025 81.0314136,40.6241104 81.7329843,43.775981 L83.486911,43.775981 C83.1361257,41.6747339 83.1361257,39.5734868 81.382199,38.8730711 C78.9267016,38.1726554 76.8219895,39.5734868 76.4712042,40.9743182 L76.4712042,40.9743182 Z" id="Shape"></path>
                            <path d="M148.732984,40.9743182 C152.591623,40.6241104 152.942408,41.6747339 155.748691,42.0249418 L155.748691,39.5734868 C153.643979,38.5228633 151.188482,38.5228633 149.08377,39.5734868 L148.732984,40.9743182 L148.732984,40.9743182 Z" id="Shape"></path>
                            <path d="M131.544503,57.7842949 L131.193717,60.2357499 C137.858639,60.5859577 136.806283,60.9361655 137.157068,58.4847106 C135.753927,58.4847106 134.350785,58.8349185 133.298429,58.1345028 L133.298429,55.33284 C132.596859,55.6830478 132.596859,56.0332557 132.246073,56.3834635 C131.544503,57.0838792 131.544503,56.7336714 131.544503,57.7842949 L131.544503,57.7842949 Z" id="Shape"></path>
                            <path d="M127.335079,49.3793066 L132.246073,49.3793066 C132.246073,50.780138 131.544503,51.4805537 131.895288,52.1809693 C132.947644,51.1303458 134,49.3793066 134,47.2780595 C132.246073,47.2780595 131.193717,47.2780595 129.790576,47.6282673 C127.335079,48.328683 127.335079,48.6788909 127.335079,49.3793066 L127.335079,49.3793066 Z" id="Shape"></path>
                            <path d="M64.895288,39.9236947 L64.895288,40.2739025 L64.5445026,41.6747339 L68.052356,41.3245261 L68.4031414,39.9236947 L64.895288,39.9236947 Z" id="Shape"></path>
                            <path d="M162.062827,33.6199534 L163.115183,33.6199534 L163.816754,29.7676671 C162.413613,30.1178749 162.413613,29.7676671 162.062827,31.1684985 C161.712042,31.8689142 161.712042,32.9195377 162.062827,33.6199534 L162.062827,33.6199534 Z" id="Shape"></path>
                            <path d="M59.2827225,33.2697456 L59.6335079,30.4680828 L59.2827225,29.7676671 C58.2303665,30.4680828 58.5811518,29.7676671 58.2303665,30.8182906 C57.8795812,31.5187063 57.8795812,32.9195377 57.8795812,33.6199534 L59.2827225,33.2697456 L59.2827225,33.2697456 Z" id="Shape"></path>
                            <path d="M168.727749,40.9743182 L171.534031,41.6747339 L172.235602,40.2739025 C171.884817,39.9236947 171.884817,39.9236947 171.183246,39.9236947 L170.481675,39.5734868 C169.078534,39.9236947 169.780105,39.5734868 168.727749,40.2739025 L168.727749,40.9743182 L168.727749,40.9743182 Z" id="Shape"></path>
                        </g>
                        <g id="Group" fill="#6F6F6F">
                            <path d="M34.3769634,41.6747339 L34.026178,44.1261888 C30.8691099,43.4257732 32.2722513,42.7253575 27.3612565,42.7253575 C24.9057592,43.0755653 25.6073298,42.7253575 25.2565445,42.3751496 C24.9057592,42.7253575 25.2565445,42.3751496 24.9057592,43.4257732 C24.5549738,49.0290987 35.7801047,46.9278516 35.078534,57.4340871 C36.1308901,56.0332557 36.4816754,50.0797223 36.8324607,47.6282673 C37.1832461,46.2274359 36.8324607,45.5270202 37.8848168,44.8266045 C38.9371728,45.1768124 38.2356021,44.1261888 38.5863874,45.8772281 C39.2879581,44.8266045 38.5863874,44.4763967 39.2879581,43.0755653 L45.9528796,43.0755653 C45.9528796,43.775981 42.4450262,66.5394911 41.7434555,67.9403225 L35.078534,67.5901147 C36.4816754,68.6407382 37.8848168,67.9403225 39.2879581,67.9403225 C41.3926702,68.2905304 39.9895288,67.9403225 40.6910995,68.6407382 L40.3403141,69.6913617 L33.3246073,69.6913617 L34.7277487,61.6365812 C33.3246073,63.0374126 34.7277487,62.6872048 31.2198953,65.8390754 L30.8691099,66.1892833 C29.8167539,68.6407382 25.9581152,70.0415696 22.8010471,70.3917774 C18.591623,70.7419853 16.1361257,69.6913617 12.6282723,68.9909461 C12.6282723,66.889699 13.3298429,63.3876205 14.382199,61.9867891 C15.0837696,62.6872048 14.7329843,61.9867891 15.0837696,63.0374126 C15.7853403,61.9867891 15.434555,61.2863734 16.1361257,60.2357499 C18.2408377,61.2863734 24.2041885,63.3876205 26.3089005,60.5859577 C24.9057592,54.2822164 21.0471204,56.7336714 16.8376963,51.8307615 C15.434555,50.0797223 15.0837696,47.2780595 15.7853403,44.8266045 C16.486911,42.3751496 17.8900524,39.5734868 18.9424084,39.223279 L20.6963351,37.4722397 C21.0471204,36.771824 21.3979058,36.4216162 22.0994764,36.0714083 C26.6596859,33.2697456 32.973822,33.9701613 37.1832461,35.3709926 C37.1832461,37.1220319 36.4816754,40.9743182 35.4293194,42.0249418 L34.3769634,41.6747339 L34.3769634,41.6747339 Z M45.2513089,38.8730711 L44.9005236,40.9743182 L38.2356021,40.9743182 C38.2356021,39.9236947 38.5863874,38.5228633 38.5863874,37.4722397 C38.9371728,36.0714083 38.5863874,35.0207848 39.9895288,34.670577 C40.3403141,35.3709926 40.3403141,33.9701613 40.3403141,35.7212005 C41.0418848,34.670577 40.3403141,34.3203691 41.0418848,32.9195377 C42.7958115,32.219122 45.2513089,32.9195377 47.3560209,32.9195377 C47.7068063,34.670577 47.0052356,37.1220319 46.6544503,39.223279 L45.2513089,38.8730711 L45.2513089,38.8730711 Z M131.895288,58.8349185 C132.246073,58.4847106 131.895288,59.1851263 132.246073,58.4847106 C132.596859,58.1345028 132.596859,58.1345028 132.947644,57.7842949 C133.649215,56.7336714 132.947644,57.4340871 134,56.7336714 C136.455497,53.5818007 139.26178,51.8307615 145.225131,52.1809693 C143.471204,48.328683 138.209424,51.1303458 135.753927,52.1809693 C135.753927,50.780138 135.753927,49.3793066 136.104712,47.9784752 C136.104712,45.8772281 136.104712,45.5270202 137.858639,45.5270202 L138.209424,44.1261888 C141.015707,42.7253575 144.874346,42.0249418 148.031414,43.0755653 C151.539267,43.775981 152.591623,45.5270202 153.643979,49.3793066 C154.34555,48.328683 154.696335,47.6282673 155.748691,46.9278516 C157.502618,45.1768124 158.204188,43.4257732 162.413613,42.7253575 C164.86911,42.3751496 167.324607,42.3751496 169.429319,43.4257732 C171.183246,43.775981 171.183246,43.775981 171.183246,45.1768124 C171.534031,45.8772281 171.534031,44.1261888 171.183246,46.5776438 C172.586387,44.8266045 170.832461,44.1261888 172.235602,43.0755653 L174.691099,43.0755653 C174.340314,42.3751496 174.340314,41.3245261 174.691099,40.6241104 C175.041885,39.223279 175.041885,39.5734868 176.445026,39.223279 C176.795812,37.4722397 176.445026,37.8224476 177.497382,37.4722397 L183.460733,35.3709926 L182.408377,43.0755653 L186.968586,43.0755653 C186.968586,44.8266045 186.968586,47.6282673 185.91623,49.0290987 L182.408377,49.0290987 C181.356021,49.3793066 181.706806,48.6788909 181.356021,49.7295144 C182.408377,49.0290987 181.706806,49.3793066 183.109948,49.0290987 L183.811518,49.3793066 C184.513089,49.3793066 184.513089,49.3793066 184.863874,49.7295144 L184.162304,51.1303458 L181.356021,50.4299301 C180.303665,51.4805537 179.95288,56.7336714 179.95288,58.4847106 C179.251309,62.3369969 179.95288,63.3876205 183.811518,62.3369969 L183.109948,67.9403225 C182.057592,68.2905304 181.706806,67.9403225 181.005236,68.6407382 C183.109948,68.9909461 181.356021,70.0415696 179.95288,70.3917774 C166.272251,72.4930245 172.586387,56.7336714 172.586387,51.1303458 C171.534031,51.1303458 170.13089,51.1303458 169.429319,50.780138 L170.13089,49.3793066 L168.376963,49.0290987 L168.376963,51.4805537 C165.570681,51.1303458 165.219895,50.0797223 161.361257,50.4299301 C162.764398,53.2315929 167.675393,53.2315929 169.078534,57.0838792 C170.13089,58.8349185 169.780105,61.2863734 169.078534,63.0374126 C168.376963,65.1386597 167.324607,65.8390754 165.921466,67.2399068 C167.324607,68.2905304 161.010471,70.3917774 159.60733,70.3917774 C157.502618,70.7419853 152.591623,70.0415696 150.837696,68.9909461 L151.188482,67.5901147 L145.926702,67.5901147 C146.979058,68.2905304 148.382199,67.9403225 149.78534,67.9403225 C149.434555,70.3917774 150.486911,70.0415696 143.82199,69.6913617 L144.172775,67.2399068 L143.471204,67.2399068 C142.418848,69.6913617 138.910995,71.0921931 135.403141,70.0415696 C132.246073,69.3411539 131.193717,66.889699 131.193717,63.3876205 L130.141361,67.5901147 L123.47644,67.5901147 C123.827225,67.5901147 123.827225,67.5901147 123.827225,67.9403225 L124.17801,67.9403225 L128.73822,67.9403225 L128.73822,69.6913617 C126.633508,70.3917774 123.827225,70.0415696 121.722513,70.0415696 L123.125654,61.2863734 C122.073298,62.3369969 122.073298,63.7378283 121.020942,64.7884519 C120.319372,65.8390754 119.267016,66.1892833 118.21466,67.5901147 C118.565445,67.9403225 119.267016,67.2399068 117.863874,68.2905304 C114.706806,71.442401 106.638743,71.0921931 107.340314,66.5394911 C106.638743,67.5901147 105.586387,75.6448952 105.235602,77.7461423 L103.832461,77.7461423 L103.481675,79.4971815 C102.078534,80.1975972 98.921466,79.8473893 96.8167539,79.8473893 C96.4659686,77.7461423 99.973822,59.1851263 100.675393,57.7842949 L87.3455497,57.7842949 C87.3455497,59.1851263 87.3455497,58.4847106 87.6963351,59.1851263 C87.3455497,57.4340871 87.6963351,58.8349185 88.0471204,58.1345028 L99.6230366,58.1345028 L99.6230366,59.885542 L87.6963351,59.885542 C89.8010471,64.438244 94.3612565,62.3369969 98.5706806,61.2863734 L97.8691099,67.2399068 L96.1151832,67.9403225 C96.8167539,69.3411539 95.0628272,69.6913617 93.6596859,70.0415696 C88.3979058,71.0921931 84.539267,70.3917774 81.382199,66.5394911 C79.9790576,64.7884519 80.6806283,64.0880362 79.9790576,62.3369969 C78.9267016,59.5353342 79.2774869,56.0332557 80.3298429,52.881385 C80.6806283,52.1809693 80.6806283,51.4805537 81.0314136,51.1303458 L82.434555,49.0290987 L79.6282723,49.0290987 C78.9267016,49.0290987 77.8743455,49.0290987 77.5235602,49.3793066 L81.0314136,49.3793066 L80.6806283,50.780138 L77.1727749,51.1303458 L77.5235602,49.7295144 C76.4712042,50.780138 76.1204188,56.0332557 76.1204188,57.7842949 C75.4188482,61.6365812 75.7696335,63.7378283 79.9790576,62.6872048 L79.2774869,67.9403225 L77.1727749,68.2905304 C78.9267016,68.9909461 77.5235602,70.0415696 76.1204188,70.3917774 C62.4397906,72.8432324 68.7539267,55.33284 68.7539267,51.4805537 C67.3507853,50.4299301 67.7015707,52.1809693 67.3507853,49.7295144 L67.7015707,49.3793066 L68.7539267,49.3793066 C69.4554974,49.0290987 70.1570681,49.0290987 70.8586387,49.0290987 L67.3507853,49.0290987 C67,50.780138 67.3507853,52.1809693 67,53.9320086 C67,57.0838792 65.5968586,66.1892833 64.895288,67.9403225 L58.2303665,67.5901147 C58.9319372,68.2905304 58.2303665,67.9403225 59.2827225,67.9403225 L60.6858639,67.9403225 L62.7905759,68.2905304 L63.4921466,68.2905304 C63.1413613,70.3917774 63.1413613,70.0415696 60.6858639,70.0415696 L56.4764398,70.0415696 C56.8272251,65.1386597 59.6335079,55.33284 57.8795812,52.1809693 C56.4764398,51.8307615 55.4240838,51.8307615 54.3717277,52.1809693 C52.617801,54.2822164 51.2146597,64.438244 50.8638743,67.9403225 L44.1989529,67.5901147 C44.1989529,67.5901147 44.5497382,67.5901147 44.5497382,67.9403225 L44.9005236,67.9403225 L46.6544503,67.9403225 C47.7068063,67.9403225 48.408377,67.9403225 49.460733,68.2905304 C49.1099476,70.3917774 49.460733,70.0415696 46.6544503,70.0415696 C45.2513089,69.6913617 43.8481675,70.0415696 42.4450262,69.6913617 C42.7958115,66.1892833 45.6020942,46.5776438 46.6544503,45.1768124 C48.408377,45.1768124 47.3560209,44.8266045 47.7068063,45.5270202 C49.460733,43.0755653 45.2513089,43.0755653 54.7225131,43.0755653 L54.3717277,45.8772281 C56.4764398,44.1261888 58.2303665,42.3751496 61.7382199,42.7253575 C65.947644,42.7253575 65.5968586,46.2274359 67.3507853,47.9784752 L68.052356,43.0755653 C69.4554974,43.0755653 71.2094241,43.4257732 71.9109948,42.7253575 L70.5078534,43.0755653 C70.5078534,42.3751496 70.5078534,40.9743182 70.8586387,40.2739025 C71.2094241,39.223279 70.8586387,39.9236947 71.9109948,39.223279 L72.2617801,39.9236947 L72.9633508,37.8224476 L79.6282723,35.3709926 L78.5759162,43.0755653 L83.1361257,43.0755653 L82.434555,48.328683 C83.1361257,47.9784752 83.486911,47.2780595 83.8376963,47.2780595 C85.591623,45.8772281 87.3455497,41.6747339 94.0104712,42.7253575 C96.4659686,42.7253575 97.8691099,43.775981 98.921466,45.1768124 C101.026178,47.2780595 100.675393,49.0290987 101.727749,50.4299301 C102.078534,49.0290987 102.078534,46.2274359 102.780105,44.8266045 C103.832461,45.1768124 103.481675,44.8266045 103.832461,45.5270202 C104.534031,44.8266045 104.183246,44.1261888 104.534031,43.0755653 L110.848168,43.0755653 L110.848168,45.5270202 C111.198953,45.5270202 116.109948,40.2739025 120.670157,43.775981 C123.47644,45.8772281 124.17801,50.0797223 124.17801,54.6324243 C125.581152,52.1809693 126.282723,36.0714083 127.685864,33.9701613 C129.089005,34.3203691 128.387435,33.6199534 128.73822,34.670577 L129.439791,32.219122 L136.104712,32.219122 L131.895288,58.8349185 L131.895288,58.8349185 Z M111.198953,34.3203691 C111.198953,36.771824 105.937173,39.9236947 102.429319,40.6241104 C96.1151832,41.6747339 90.1518325,37.8224476 88.0471204,32.9195377 C86.6439791,30.8182906 85.9424084,22.0630944 86.2931937,19.6116395 C86.6439791,18.2108081 87.3455497,15.0589375 88.0471204,14.7087296 C90.1518325,12.9576904 90.1518325,7.35436481 101.376963,5.95353342 C108.041885,5.25311772 114.706806,3.15187063 119.617801,7.35436481 C121.371728,8.7551962 122.774869,10.8564433 123.47644,14.0083139 C124.17801,17.1601846 123.125654,21.0124709 121.722513,22.7635101 L118.565445,25.2149651 C115.408377,28.0166278 114.706806,26.2655886 114.005236,28.7170435 C112.95288,33.2697456 113.65445,30.8182906 111.198953,34.3203691 L111.198953,34.3203691 Z M114.356021,0 L109.795812,0 C106.287958,1.75103924 97.5183246,0.700415696 92.2565445,3.85228633 C89.8010471,4.90290987 87.6963351,7.00415696 86.2931937,8.7551962 C78.9267016,18.2108081 91.2041885,15.0589375 68.4031414,17.8606002 C56.4764398,18.9112238 41.3926702,22.4133023 30.5183246,26.6157964 C18.591623,30.8182906 -4.91099476,42.0249418 1.40314136,58.8349185 C9.47120419,81.2482207 63.1413613,91.0540405 94.7120419,91.0540405 C115.057592,91.4042483 133.298429,90.0034169 152.240838,85.8009228 C168.727749,81.9486364 186.617801,75.2946873 195.387435,65.8390754 C209.769634,49.3793066 191.879581,35.7212005 178.900524,29.7676671 C166.973822,24.5145494 155.397906,21.3626787 142.418848,19.2614316 C139.26178,18.5610159 130.842932,17.8606002 128.73822,17.1601846 C128.036649,15.7593532 128.036649,12.2572747 127.335079,10.5062354 C124.17801,1.40083139 116.460733,1.05062354 114.356021,0 L114.356021,0 Z" id="Shape"></path>
                            <path d="M92.2565445,14.3585218 C90.5026178,15.7593532 88.3979058,24.8647572 95.7643979,28.7170435 C101.727749,32.219122 108.39267,29.0672514 110.497382,24.5145494 C110.146597,23.8141337 110.146597,24.5145494 110.146597,23.4639258 L110.146597,22.7635101 C110.848168,15.7593532 104.884817,10.5062354 98.2198953,11.556859 C95.0628272,11.9070668 94.3612565,13.3078982 92.2565445,14.3585218 L92.2565445,14.3585218 Z" id="Shape"></path>
                            <path d="M115.057592,60.5859577 C115.057592,58.1345028 116.109948,57.0838792 115.408377,53.5818007 C114.356021,50.780138 113.303665,51.4805537 110.848168,51.1303458 C108.39267,52.881385 108.041885,60.5859577 111.198953,61.6365812 C112.602094,61.9867891 114.356021,61.6365812 115.057592,60.5859577 L115.057592,60.5859577 Z" id="Shape"></path>
                            <path d="M151.890052,63.3876205 C153.293194,63.7378283 152.591623,63.3876205 152.942408,64.0880362 C153.643979,63.3876205 153.293194,62.6872048 153.994764,61.6365812 C155.748691,62.3369969 159.958115,63.7378283 161.712042,62.3369969 C160.659686,61.9867891 161.712042,62.3369969 160.659686,61.2863734 C158.554974,59.5353342 158.554974,60.2357499 156.801047,59.1851263 C154.34555,57.4340871 153.994764,55.6830478 153.293194,54.9826321 L151.890052,63.3876205 L151.890052,63.3876205 Z" id="Shape"></path>
                            <path d="M95.0628272,34.670577 C96.8167539,36.771824 101.026178,37.1220319 104.183246,36.4216162 C107.340314,35.7212005 109.445026,33.6199534 110.848168,31.5187063 C108.041885,32.219122 106.638743,33.9701613 103.832461,34.670577 C102.429319,35.0207848 101.727749,35.3709926 99.6230366,35.3709926 C97.1675393,35.3709926 96.8167539,34.670577 95.0628272,34.670577 L95.0628272,34.670577 Z" id="Shape"></path>
                            <path d="M139.963351,58.8349185 C138.560209,60.2357499 139.612565,61.9867891 140.664921,62.3369969 C141.366492,62.6872048 141.717277,62.6872048 142.769634,62.6872048 C143.471204,62.3369969 143.82199,61.9867891 144.52356,61.6365812 C144.172775,60.9361655 144.874346,60.2357499 144.874346,58.8349185 L139.963351,58.8349185 L139.963351,58.8349185 Z" id="Shape"></path>
                            <path d="M89.0994764,50.4299301 C88.3979058,51.4805537 88.0471204,51.8307615 88.0471204,53.2315929 L94.3612565,53.2315929 C93.6596859,50.0797223 91.9057592,49.7295144 89.0994764,50.4299301 L89.0994764,50.4299301 Z" id="Shape"></path>
                        </g>
                    </g>
                </g>
            </g>
        </g>
    </g>
</svg>