<?xml version="1.0" encoding="UTF-8" standalone="no"?>
<svg width="200px" height="200px" viewBox="0 0 200 200" version="1.1" xmlns="http://www.w3.org/2000/svg" xmlns:xlink="http://www.w3.org/1999/xlink" xmlns:sketch="http://www.bohemiancoding.com/sketch/ns">
    <!-- Generator: Sketch 3.4.2 (15855) - http://www.bohemiancoding.com/sketch -->
    <title>200x200-clientes3</title>
    <desc>Created with Sketch.</desc>
    <defs></defs>
    <g id="Page-1" stroke="none" stroke-width="1" fill="none" fill-rule="evenodd" sketch:type="MSPage">
        <g id="200x200-clientes" sketch:type="MSArtboardGroup">
            <g id="tubo-therm" sketch:type="MSLayerGroup" transform="translate(0.000000, 53.000000)">
                <g id="Layer_x0020_1" sketch:type="MSShapeGroup">
                    <g id="_956059024">
                        <g id="Group" transform="translate(0.701886, 0.700730)" fill="#656565">
                            <path d="M0.701885783,7.35766793 L0.701885783,0.700730279 C1.75471446,0.35036514 17.5471446,0.35036514 20.0037448,0.35036514 L20.3546877,7.35766793 C12.984887,7.35766793 14.3886585,5.95620737 14.3886585,12.9635102 L14.3886585,53.2555012 L6.31697204,53.2555012 C6.31697204,49.0511195 6.66791494,8.05839821 6.31697204,7.70803307 C5.96602915,7.00730279 1.05282867,7.35766793 0.701885783,7.35766793 L0.701885783,7.35766793 Z M0.701885783,7.35766793 C1.05282867,8.05839821 5.26414337,7.00730279 5.96602915,8.05839821 C6.31697204,8.40876335 5.96602915,37.4890699 5.96602915,42.0438168 C5.96602915,43.4452773 5.96602915,52.9051361 6.31697204,53.2555012 C6.66791494,53.6058664 11.5811154,53.6058664 12.6339441,53.6058664 C12.984887,53.6058664 14.0377157,53.6058664 14.3886585,53.2555012 C15.0905443,52.9051361 14.0377157,8.75912849 14.7396014,7.70803307 L15.4414872,7.70803307 L20.3546877,7.70803307 L20.3546877,7.70803307 L20.3546877,0.35036514 C20.0037448,0.35036514 20.3546877,0.35036514 20.0037448,0.35036514 L5.26414337,0 C4.2113147,0 1.05282867,0 0.350942891,0.35036514 C-2.77555756e-17,0.700730279 0.350942891,4.90511195 0.350942891,5.95620737 C0.350942891,7.35766793 -2.77555756e-17,7.35766793 0.701885783,7.35766793 L0.701885783,7.35766793 Z" id="Shape"></path>
                            <path d="M64.573492,52.9051361 C64.2225491,52.2044058 64.2225491,52.5547709 63.8716062,52.2044058 C63.8716062,51.8540407 63.5206633,51.8540407 63.1697204,51.5036755 C62.8187775,51.1533104 62.8187775,50.8029452 62.1168918,50.4525801 C62.1168918,51.1533104 63.5206633,52.5547709 64.573492,52.9051361 L64.573492,52.9051361 Z" id="Shape"></path>
                        </g>
                        <g id="Group" transform="translate(158.275244, 10.160589)" fill="#DEDEDE">
                            <path d="M10.8792296,9.45985877 C10.5282867,8.40876335 8.77357228,8.05839821 8.42262939,10.160589 L8.42262939,38.8905305 C8.42262939,40.2919911 8.77357228,42.744547 8.42262939,43.7956425 C7.72074361,44.4963727 7.72074361,44.1460076 6.66791494,44.1460076 L2.45660024,44.1460076 C1.40377157,44.1460076 1.40377157,44.4963727 0.701885783,43.7956425 C0.350942891,42.0438168 0.701885783,1.7518257 0.701885783,1.40146056 C1.40377157,1.05109542 1.40377157,1.05109542 2.45660024,1.05109542 C3.50942891,1.05109542 7.72074361,1.05109542 8.0716865,1.40146056 C8.77357228,1.7518257 8.42262939,2.80292112 8.42262939,3.85401654 C9.47545807,3.5036514 8.77357228,3.5036514 9.82640096,2.10219084 C10.1773438,1.7518257 10.8792296,1.05109542 11.5811154,0.700730279 C12.6339441,0.35036514 15.7924301,0 16.8452588,1.40146056 C17.1962017,1.40146056 16.8452588,1.40146056 16.8452588,1.7518257 L17.1962017,1.7518257 C17.5471446,2.10219084 17.8980875,2.45255598 17.8980875,2.80292112 C18.2490303,3.15328626 18.2490303,3.85401654 18.5999732,4.20438168 C19.301859,4.20438168 18.9509161,4.20438168 19.301859,3.85401654 C19.6528019,3.15328626 19.6528019,3.15328626 19.6528019,2.45255598 L19.6528019,2.80292112 C19.301859,3.15328626 18.9509161,3.15328626 18.9509161,3.85401654 C18.2490303,3.5036514 18.5999732,2.80292112 17.5471446,1.7518257 L17.1962017,1.40146056 C16.4943159,0.700730279 15.0905443,0.35036514 14.3886585,0 C12.6339441,0 10.8792296,0.35036514 9.82640096,1.7518257 L8.77357228,3.15328626 L8.77357228,1.05109542 C7.36980072,0.700730279 5.96602915,0.700730279 4.56225759,0.700730279 C-1.05282867,0.700730279 0.350942891,-1.05109542 0.350942891,11.5620496 L0.350942891,42.0438168 C0.350942891,45.197103 -0.350942891,44.4963727 6.31697204,44.4963727 C9.47545807,44.4963727 8.77357228,44.4963727 8.77357228,41.3430865 L8.77357228,12.2627799 C8.77357228,11.5620496 8.77357228,9.81022391 9.12451517,9.45985877 C9.47545807,8.40876335 10.1773438,9.10949363 10.8792296,9.45985877 L10.8792296,9.45985877 Z" id="Shape"></path>
                            <path d="M21.0565735,9.45985877 L21.0565735,18.2189873 L21.0565735,35.7372442 C21.0565735,46.2481984 20.0037448,44.4963727 25.2678882,44.4963727 L29.12826,44.4963727 C29.8301458,43.7956425 29.8301458,43.7956425 29.8301458,42.3941819 L29.8301458,8.40876335 C29.8301458,7.35766793 29.8301458,6.65693765 29.4792029,6.30657251 L29.4792029,39.9416259 C29.4792029,41.3430865 29.8301458,43.4452773 29.12826,44.1460076 L21.7584593,44.1460076 C21.0565735,43.4452773 21.4075164,41.3430865 21.4075164,39.9416259 L21.4075164,13.6642404 C21.4075164,12.9635102 21.7584593,10.160589 21.0565735,9.45985877 L21.0565735,9.45985877 Z" id="Shape"></path>
                            <path d="M36.1471178,11.2116845 C35.0942891,11.2116845 33.3395747,10.5109542 32.6376889,9.81022391 C30.5320315,7.70803307 30.5320315,4.20438168 32.286746,2.45255598 C33.6905176,1.05109542 34.7433462,0.700730279 36.8490036,0.700730279 C39.6565467,0.700730279 41.7622041,3.15328626 41.4112612,6.30657251 C41.4112612,7.70803307 41.0603183,8.75912849 40.0074896,9.81022391 C39.3056038,10.5109542 37.5508894,11.2116845 36.1471178,11.2116845 L36.1471178,11.2116845 Z M41.7622041,7.00730279 C42.113147,5.95620737 42.113147,5.25547709 41.7622041,4.55474682 C41.4112612,3.85401654 41.7622041,3.85401654 41.4112612,3.15328626 C40.3584325,1.40146056 39.3056038,0.700730279 37.1999465,0.35036514 C35.0942891,-7.21644966e-16 32.9886318,1.05109542 31.9358031,2.45255598 C31.2339173,3.15328626 30.8829744,4.20438168 30.8829744,4.90511195 C30.5320315,7.00730279 30.8829744,7.00730279 31.2339173,8.05839821 C31.5848602,8.75912849 31.9358031,9.45985877 32.6376889,10.160589 C33.3395747,10.8613193 34.0414605,10.8613193 34.3924034,11.2116845 C35.445232,11.5620496 37.5508894,11.5620496 38.2527752,11.2116845 C40.3584325,9.81022391 40.7093754,10.5109542 41.7622041,7.00730279 L41.7622041,7.00730279 Z" id="Shape"></path>
                            <path d="M36.8490036,4.20438168 C36.4980607,4.20438168 35.7961749,3.85401654 35.7961749,4.20438168 C35.445232,4.20438168 35.445232,4.90511195 35.7961749,5.25547709 C35.7961749,5.25547709 37.9018323,5.60584223 36.8490036,4.20438168 L36.8490036,4.20438168 Z" id="Shape"></path>
                        </g>
                        <g id="Group" transform="translate(18.249030, 10.861319)" fill="#848485">
                            <path d="M175.822389,4.55474682 C175.471446,4.20438168 175.471446,3.5036514 175.822389,3.5036514 C175.822389,3.15328626 176.524274,3.5036514 176.875217,3.5036514 C177.928046,4.90511195 175.822389,4.55474682 175.822389,4.55474682 L175.822389,4.55474682 Z M179.68276,6.65693765 C179.68276,7.00730279 179.331817,7.70803307 178.980875,7.70803307 C178.278989,7.35766793 178.629932,7.35766793 178.278989,6.65693765 C177.928046,6.30657251 177.577103,6.65693765 177.577103,5.60584223 C178.278989,5.25547709 178.278989,5.25547709 178.629932,4.90511195 C178.629932,4.20438168 178.980875,3.85401654 178.278989,3.15328626 C177.22616,1.7518257 174.418617,2.45255598 174.418617,2.45255598 C174.067674,3.15328626 174.067674,7.00730279 174.418617,8.05839821 C176.524274,8.05839821 175.120503,7.35766793 175.822389,5.95620737 C176.173331,5.95620737 176.173331,5.95620737 176.524274,6.30657251 L176.524274,6.30657251 L176.524274,6.30657251 C176.524274,6.65693765 176.524274,6.30657251 176.875217,6.65693765 C176.875217,7.35766793 176.875217,7.35766793 177.22616,8.05839821 L178.629932,8.05839821 C178.629932,8.40876335 178.629932,8.40876335 178.278989,8.75912849 C177.22616,9.45985877 174.76956,9.45985877 173.716731,8.05839821 C172.31296,6.65693765 172.31296,4.20438168 173.365788,2.80292112 C174.067674,2.10219084 174.418617,1.7518257 175.120503,1.40146056 C176.173331,0.700730279 176.875217,1.05109542 178.278989,1.7518257 C180.384646,2.80292112 180.384646,5.95620737 179.68276,6.65693765 L179.68276,6.65693765 Z M176.173331,10.5109542 C177.577103,10.5109542 179.331817,9.81022391 180.033703,9.10949363 C181.086532,8.05839821 181.437475,7.00730279 181.437475,5.60584223 C181.788418,2.45255598 179.68276,0 176.875217,0 C174.76956,0 173.716731,0.35036514 172.31296,1.7518257 C170.558245,3.5036514 170.558245,7.00730279 172.663903,9.10949363 C173.365788,9.81022391 175.120503,10.5109542 176.173331,10.5109542 L176.173331,10.5109542 Z" id="Shape"></path>
                            <path d="M50.5357764,7.70803307 C51.588605,7.35766793 51.2376621,7.00730279 51.588605,7.00730279 C52.6414337,7.00730279 52.6414337,7.70803307 52.6414337,7.70803307 L52.6414337,8.40876335 C53.3433195,8.75912849 52.9923766,9.10949363 52.9923766,10.160589 L52.9923766,30.8321323 C52.9923766,32.2335928 53.6942624,37.1387048 51.588605,36.7883397 C50.5357764,36.4379745 50.5357764,35.036514 50.5357764,33.9854185 L50.5357764,8.05839821 C50.5357764,8.05839821 50.1848335,8.05839821 50.1848335,8.40876335 L50.1848335,32.2335928 C50.1848335,33.9854185 49.8338906,34.6861488 50.5357764,36.0876094 C50.8867192,37.1387048 51.9395479,37.4890699 52.6414337,36.7883397 C52.9923766,36.4379745 52.6414337,36.4379745 52.9923766,36.0876094 L52.9923766,36.0876094 L53.3433195,36.0876094 C53.6942624,35.3868791 53.6942624,35.3868791 53.6942624,34.6861488 L53.6942624,11.9124147 C53.6942624,10.5109542 53.6942624,7.35766793 52.2904908,7.00730279 C51.588605,6.65693765 50.8867192,7.00730279 50.5357764,7.70803307 L50.5357764,7.70803307 Z" id="Shape"></path>
                            <path d="M9.47545807,41.6934516 C8.77357228,41.6934516 9.82640096,41.6934516 8.42262939,42.744547 L7.72074361,43.0949122 C6.66791494,43.7956425 4.2113147,44.1460076 2.80754313,42.744547 C2.45660024,42.3941819 2.10565735,42.3941819 1.75471446,41.6934516 C-0.350942891,39.2408956 0.350942891,31.8832277 0.350942891,28.0292112 L0.350942891,14.3649707 L0.350942891,0.700730279 L7.72074361,0.700730279 C8.0716865,1.7518257 8.0716865,29.0803066 8.0716865,33.6350534 L8.0716865,34.6861488 C8.0716865,35.7372442 8.42262939,35.3868791 8.42262939,35.3868791 L8.42262939,35.036514 L8.42262939,34.6861488 L8.0716865,4.55474682 C8.0716865,3.5036514 8.42262939,1.05109542 7.72074361,0.35036514 L0.350942891,0.35036514 C1.66533454e-16,1.7518257 0.350942891,24.5255598 0.350942891,27.678846 C0.350942891,31.1824974 -0.350942891,38.5401654 1.05282867,40.9927213 C2.10565735,43.0949122 2.80754313,43.4452773 4.91320048,43.7956425 C6.66791494,44.1460076 8.42262939,43.4452773 9.47545807,42.3941819 C9.82640096,41.6934516 9.82640096,42.3941819 9.47545807,41.6934516 L9.47545807,41.6934516 Z" id="Shape"></path>
                        </g>
                        <g id="Group" transform="translate(17.898087, 0.350365)" fill="#C9C9CA">
                            <path d="M84.9281797,53.6058664 L78.2602648,53.6058664 C77.558379,53.6058664 77.558379,53.6058664 77.558379,53.2555012 L77.558379,1.40146056 L77.558379,0.700730279 L84.9281797,0.700730279 C85.6300655,1.05109542 84.9281797,12.2627799 85.2791226,13.6642404 C85.2791226,14.3649707 85.2791226,14.0146056 85.6300655,14.3649707 C85.9810084,14.0146056 86.3319513,10.5109542 91.2451517,10.5109542 C92.9998662,10.5109542 94.4036378,11.5620496 94.7545807,12.9635102 C95.1055236,13.6642404 95.1055236,13.3138753 95.1055236,14.0146056 C95.4564664,14.3649707 95.4564664,15.065701 95.4564664,15.4160661 C95.8074093,16.1167964 95.8074093,15.4160661 95.8074093,16.4671616 L95.8074093,18.2189873 L95.8074093,53.2555012 C95.8074093,53.6058664 95.8074093,53.6058664 95.4564664,53.6058664 L88.7885515,53.6058664 C88.0866657,53.6058664 88.0866657,53.9562315 88.0866657,53.2555012 L88.0866657,21.7226387 C88.0866657,20.3211781 88.4376086,18.5693524 87.0338371,18.2189873 C85.9810084,18.2189873 85.6300655,18.5693524 85.2791226,19.2700827 L85.2791226,21.3722735 L85.2791226,51.8540407 C85.2791226,52.2044058 85.6300655,53.6058664 84.9281797,53.6058664 L84.9281797,53.6058664 Z M83.1734652,54.3065966 C84.5772368,54.3065966 85.2791226,54.6569618 85.6300655,53.6058664 L85.6300655,23.4744644 C85.6300655,21.7226387 85.2791226,19.970813 86.3319513,18.5693524 L87.3847799,18.5693524 C88.0866657,20.3211781 87.7357228,20.3211781 87.7357228,22.7737341 L87.7357228,45.197103 C87.7357228,46.5985636 87.3847799,53.9562315 88.0866657,54.3065966 L88.4376086,54.3065966 C88.7885515,54.3065966 95.4564664,54.3065966 95.8074093,53.9562315 C96.5092951,53.2555012 96.1583522,48.3503893 96.1583522,46.9489287 L96.1583522,25.2262901 C96.1583522,21.3722735 96.5092951,14.3649707 94.7545807,11.9124147 C93.701752,10.5109542 91.2451517,9.45985877 89.4904373,10.160589 C88.4376086,10.5109542 89.1394944,10.160589 87.7357228,10.8613193 L87.7357228,11.2116845 C86.6828942,11.5620496 85.9810084,12.2627799 85.6300655,13.6642404 L85.6300655,13.3138753 L85.6300655,13.3138753 C85.2791226,11.9124147 85.9810084,1.05109542 85.2791226,0.35036514 C84.9281797,0 77.9093219,0 77.558379,0 C76.8564932,1.7518257 77.2074361,4.90511195 77.2074361,6.65693765 L77.2074361,47.649659 C77.2074361,48.7007544 76.8564932,53.2555012 77.558379,53.9562315 L83.1734652,54.3065966 L83.1734652,54.3065966 Z" id="Shape"></path>
                            <path d="M129.497927,11.5620496 L130.199813,11.5620496 C130.199813,11.5620496 131.252641,10.8613193 131.603584,10.8613193 C132.30547,10.5109542 133.358299,10.5109542 134.060184,10.5109542 C134.411127,10.5109542 135.113013,10.8613193 135.463956,10.8613193 L136.165842,11.2116845 L137.218671,12.613145 C138.271499,13.6642404 138.271499,16.4671616 138.271499,17.518257 C138.271499,19.6204478 138.271499,33.6350534 137.920556,33.9854185 C137.920556,34.3357837 132.656413,34.3357837 131.603584,34.3357837 C131.252641,34.3357837 130.901698,33.9854185 130.550756,33.9854185 C130.199813,33.6350534 130.550756,22.7737341 130.550756,20.6715432 C130.550756,19.6204478 130.199813,19.970813 130.199813,18.9197175 L130.199813,18.5693524 C129.497927,18.2189873 128.796041,17.8686221 128.094155,18.5693524 C128.094155,18.9197175 127.743212,20.3211781 127.743212,20.3211781 L127.743212,51.5036755 C127.743212,52.2044058 127.743212,53.2555012 127.39227,53.6058664 C127.041327,53.9562315 120.373412,53.9562315 120.373412,53.6058664 C120.022469,52.9051361 120.373412,35.036514 120.373412,32.583958 C120.373412,31.1824974 120.373412,12.2627799 120.022469,11.2116845 C120.373412,10.8613193 120.022469,11.2116845 120.724355,10.8613193 C121.777183,10.8613193 126.690384,10.8613193 127.39227,11.2116845 C128.094155,11.5620496 127.743212,11.9124147 127.743212,13.6642404 C128.445098,13.6642404 128.445098,13.6642404 128.796041,12.9635102 C128.796041,12.613145 128.796041,12.613145 129.146984,12.2627799 C128.796041,12.2627799 129.146984,12.2627799 128.796041,12.613145 C128.445098,12.613145 128.796041,12.613145 128.445098,12.613145 C128.094155,13.3138753 128.796041,12.9635102 128.094155,13.3138753 C127.743212,12.613145 128.445098,11.5620496 127.743212,10.8613193 C127.39227,10.5109542 125.988498,10.5109542 125.286612,10.5109542 L120.022469,10.5109542 C119.671526,11.5620496 120.022469,11.9124147 120.022469,13.3138753 L119.671526,53.2555012 C120.022469,53.6058664 120.022469,53.9562315 120.373412,54.3065966 C121.42624,54.3065966 119.671526,54.3065966 120.724355,54.3065966 L126.690384,54.3065966 C128.445098,54.3065966 128.094155,53.6058664 128.094155,52.2044058 L128.094155,22.0730038 C128.094155,21.0219084 127.743212,18.9197175 128.796041,18.5693524 C130.550756,18.5693524 130.199813,20.6715432 130.199813,22.0730038 L130.199813,30.4817671 C130.199813,32.2335928 129.84887,33.6350534 130.550756,34.3357837 C131.954527,34.3357837 137.569613,34.6861488 138.622442,34.3357837 C138.973385,31.8832277 138.622442,28.0292112 138.622442,25.5766552 C138.622442,23.1240992 138.973385,15.065701 137.920556,12.9635102 C136.867728,11.5620496 137.218671,11.2116845 135.113013,10.5109542 C134.76207,10.160589 134.76207,10.160589 134.411127,10.160589 L132.30547,10.160589 L130.901698,10.5109542 C130.550756,10.8613193 129.84887,11.2116845 129.497927,11.5620496 L129.497927,11.5620496 Z" id="Shape"></path>
                            <path d="M99.6677811,49.7518498 C99.3168382,48.3503893 98.9658954,47.649659 98.9658954,46.2481984 C98.6149525,43.7956425 98.9658954,36.0876094 98.9658954,33.2846883 C98.9658954,29.7810369 98.6149525,19.2700827 99.3168382,16.4671616 C99.3168382,16.4671616 99.3168382,16.4671616 99.6677811,16.1167964 C99.6677811,14.7153359 101.422496,12.9635102 102.475324,12.2627799 L102.826267,11.9124147 L103.17721,11.9124147 C103.528153,11.5620496 103.879096,11.2116845 104.580982,11.2116845 C105.984753,10.8613193 103.879096,10.8613193 108.090411,10.8613193 C109.845125,10.8613193 109.845125,10.5109542 110.897954,11.2116845 C111.599839,11.5620496 111.599839,10.8613193 113.354554,12.2627799 L115.460211,14.3649707 L116.162097,15.7664313 C116.51304,16.4671616 116.162097,16.1167964 116.51304,17.1678918 C116.51304,18.2189873 116.863983,17.1678918 116.863983,19.2700827 L116.863983,33.2846883 L116.863983,33.6350534 L106.686639,33.6350534 C105.984753,34.6861488 106.335696,40.6423562 106.335696,42.0438168 C106.335696,44.1460076 105.984753,46.2481984 107.388525,47.2992939 C107.739468,47.649659 108.441353,47.649659 108.792296,46.9489287 L108.792296,46.9489287 C108.792296,47.2992939 108.792296,46.9489287 108.792296,46.5985636 C108.792296,46.5985636 108.792296,46.5985636 109.143239,46.2481984 L108.441353,46.9489287 C107.388525,47.2992939 107.037582,46.5985636 107.037582,45.8978333 C106.686639,44.8467379 106.686639,35.036514 106.686639,34.3357837 C109.143239,33.6350534 114.407383,34.6861488 117.214926,34.3357837 C117.565869,32.9343231 117.214926,21.7226387 117.214926,19.6204478 C117.214926,17.518257 116.863983,16.1167964 115.811154,14.3649707 C115.460211,13.3138753 114.758325,12.613145 113.705497,11.9124147 C112.301725,10.8613193 111.950782,11.2116845 111.599839,10.5109542 C109.143239,10.5109542 110.196068,9.81022391 106.686639,10.160589 L104.230039,10.8613193 C103.17721,11.2116845 102.475324,11.2116845 101.422496,12.613145 L101.071553,12.9635102 C100.369667,13.6642404 100.369667,14.0146056 99.6677811,14.7153359 C99.3168382,15.7664313 98.9658954,16.4671616 98.9658954,17.518257 C98.6149525,19.2700827 98.6149525,17.518257 98.6149525,20.3211781 L98.6149525,37.1387048 C98.6149525,38.8905305 98.2640096,46.2481984 98.6149525,47.2992939 C98.9658954,48.0000241 98.9658954,48.0000241 98.9658954,48.7007544 L99.6677811,49.7518498 L99.6677811,49.7518498 Z" id="Shape"></path>
                            <path d="M8.77357228,45.5474682 L8.77357228,45.8978333 C8.77357228,46.2481984 9.12451517,46.2481984 9.12451517,46.5985636 L10.5282867,46.5985636 C10.5282867,46.2481984 11.2301725,45.5474682 10.8792296,45.197103 C11.2301725,42.3941819 11.2301725,39.2408956 11.2301725,36.4379745 L11.2301725,19.2700827 C11.2301725,17.8686221 10.8792296,11.9124147 11.2301725,10.8613193 L18.5999732,10.8613193 C19.301859,11.5620496 18.9509161,15.065701 18.9509161,16.1167964 L18.9509161,43.4452773 C18.9509161,44.4963727 19.301859,53.6058664 18.5999732,53.9562315 L11.2301725,53.9562315 C10.8792296,52.9051361 11.2301725,51.5036755 10.8792296,50.8029452 L10.5282867,51.1533104 C10.5282867,51.8540407 10.5282867,51.8540407 9.82640096,52.2044058 C10.1773438,52.9051361 10.1773438,52.2044058 9.82640096,52.9051361 C8.77357228,53.9562315 7.01885783,54.6569618 5.26414337,54.3065966 C3.15848602,53.9562315 2.45660024,53.6058664 1.40377157,51.5036755 C-5.55111512e-16,49.0511195 0.701885783,41.6934516 0.701885783,38.1898002 C0.701885783,35.036514 0.350942891,12.2627799 0.701885783,10.8613193 L8.0716865,10.8613193 C8.77357228,11.5620496 8.42262939,14.0146056 8.42262939,15.065701 L8.77357228,45.197103 L8.77357228,36.4379745 L8.77357228,18.9197175 C8.77357228,17.518257 9.12451517,11.2116845 8.42262939,10.5109542 L0.701885783,10.5109542 C-5.55111512e-16,11.5620496 0.350942891,22.7737341 0.350942891,24.8759249 L0.350942891,50.102215 C0.701885783,51.1533104 0.701885783,49.7518498 1.05282867,51.5036755 L1.40377157,52.5547709 C1.75471446,52.9051361 3.15848602,53.9562315 3.50942891,54.3065966 L4.91320048,54.6569618 C5.26414337,55.0073269 5.96602915,55.0073269 6.66791494,54.6569618 C9.47545807,54.3065966 9.47545807,52.9051361 10.8792296,51.8540407 C10.8792296,52.5547709 10.8792296,53.9562315 11.2301725,54.3065966 C11.5811154,54.6569618 18.2490303,54.6569618 18.9509161,54.3065966 C19.301859,53.9562315 19.301859,53.6058664 19.301859,53.2555012 L19.301859,51.8540407 L19.301859,12.9635102 C19.301859,12.2627799 19.301859,10.8613193 18.9509161,10.5109542 L11.2301725,10.5109542 C10.8792296,10.8613193 10.8792296,10.8613193 10.8792296,11.5620496 C10.8792296,16.8175267 11.2301725,43.0949122 10.8792296,44.4963727 C10.8792296,45.197103 10.8792296,44.4963727 10.5282867,45.197103 C10.5282867,45.5474682 10.5282867,45.8978333 10.1773438,46.2481984 L9.12451517,46.2481984 C9.12451517,45.5474682 9.12451517,45.5474682 8.77357228,45.5474682 L8.77357228,45.5474682 Z" id="Shape"></path>
                            <path d="M151.256386,19.6204478 C150.905443,30.131402 151.256386,41.3430865 151.256386,52.2044058 C151.256386,52.9051361 150.905443,53.9562315 151.958272,54.3065966 L158.97713,54.3065966 L159.328073,53.9562315 C160.029958,53.2555012 159.679016,46.2481984 159.679016,44.8467379 L159.679016,21.7226387 C159.679016,19.2700827 159.328073,18.5693524 161.082787,18.5693524 C161.082787,18.5693524 161.43373,18.5693524 160.380901,18.2189873 C160.029958,18.2189873 159.679016,18.5693524 159.679016,19.2700827 C159.328073,19.970813 159.328073,20.6715432 159.328073,21.3722735 L159.328073,53.6058664 C158.626187,54.3065966 157.222415,53.9562315 155.467701,53.9562315 C153.712986,53.9562315 152.660158,54.3065966 151.607329,53.6058664 C151.256386,52.2044058 151.607329,31.5328626 151.607329,28.0292112 L151.607329,20.6715432 C151.607329,19.970813 151.607329,19.970813 151.256386,19.6204478 L151.256386,19.6204478 Z" id="Shape"></path>
                            <path d="M50.8867192,18.2189873 L50.8867192,18.5693524 L50.8867192,44.4963727 C50.8867192,45.5474682 50.8867192,46.9489287 51.9395479,47.2992939 C54.0452053,47.649659 53.3433195,42.744547 53.3433195,41.3430865 L53.3433195,20.6715432 C53.3433195,19.6204478 53.6942624,19.2700827 52.9923766,18.9197175 L52.9923766,40.6423562 L52.9923766,44.1460076 C52.9923766,45.197103 53.3433195,46.9489287 51.9395479,46.9489287 C50.8867192,46.5985636 51.2376621,44.8467379 51.2376621,43.7956425 L51.2376621,18.2189873 C52.2904908,17.518257 51.9395479,17.8686221 52.9923766,18.2189873 C52.9923766,18.2189873 52.9923766,17.518257 51.9395479,17.518257 C51.588605,17.518257 51.9395479,17.8686221 50.8867192,18.2189873 L50.8867192,18.2189873 Z" id="Shape"></path>
                            <path d="M176.173331,16.4671616 C176.524274,16.8175267 176.875217,17.518257 176.875217,17.8686221 C177.22616,18.5693524 177.928046,18.5693524 177.577103,19.2700827 C177.22616,19.6204478 176.173331,19.6204478 175.471446,19.2700827 C175.822389,17.8686221 176.173331,20.3211781 176.173331,16.4671616 L176.173331,16.4671616 Z M173.365788,15.4160661 C173.365788,14.7153359 173.365788,13.6642404 174.418617,13.3138753 C174.418617,14.3649707 174.418617,17.8686221 174.067674,18.2189873 C173.365788,17.1678918 173.365788,16.8175267 173.365788,15.4160661 L173.365788,15.4160661 Z M178.980875,15.4160661 C178.980875,15.065701 179.331817,15.065701 179.331817,14.3649707 C179.331817,11.9124147 175.822389,12.9635102 175.120503,12.613145 C176.173331,11.5620496 177.928046,11.9124147 178.980875,12.9635102 L180.033703,14.3649707 C180.384646,15.4160661 180.033703,16.4671616 180.033703,17.1678918 C180.735589,16.4671616 180.735589,13.3138753 178.629932,12.2627799 C177.22616,11.5620496 176.524274,11.2116845 175.471446,11.9124147 C174.76956,12.2627799 174.418617,12.613145 173.716731,13.3138753 C172.663903,14.7153359 172.663903,17.1678918 174.067674,18.5693524 C175.120503,19.970813 177.577103,19.970813 178.629932,19.2700827 C178.980875,18.9197175 178.980875,18.9197175 178.980875,18.5693524 L177.577103,18.5693524 C177.22616,17.8686221 177.22616,17.8686221 177.22616,17.1678918 C176.875217,16.8175267 176.875217,17.1678918 176.875217,16.8175267 L176.875217,16.8175267 L176.875217,16.8175267 C176.524274,16.4671616 176.524274,16.4671616 176.173331,16.4671616 C175.471446,17.8686221 176.875217,18.5693524 174.76956,18.5693524 C174.418617,17.518257 174.418617,13.6642404 174.76956,12.9635102 C174.76956,12.9635102 177.577103,12.2627799 178.629932,13.6642404 C179.331817,14.3649707 178.980875,14.7153359 178.980875,15.4160661 L178.980875,15.4160661 Z" id="Shape"></path>
                            <path d="M106.686639,27.3284809 C106.686639,25.5766552 106.686639,19.2700827 107.388525,18.2189873 C109.494182,17.518257 109.143239,19.970813 109.143239,21.7226387 C109.143239,23.4744644 109.143239,25.5766552 108.792296,27.3284809 L106.686639,27.3284809 L106.686639,27.3284809 Z M109.143239,27.3284809 C109.494182,26.9781158 109.494182,19.2700827 109.143239,18.2189873 C108.441353,17.518257 107.739468,17.1678918 107.037582,17.8686221 C105.984753,19.2700827 106.335696,22.0730038 106.335696,23.8248295 C106.335696,27.678846 105.984753,27.678846 107.388525,27.678846 C108.090411,27.678846 108.792296,27.678846 109.143239,27.3284809 L109.143239,27.3284809 Z" id="Shape"></path>
                        </g>
                        <g id="Group" transform="translate(38.954661, 0.350365)" fill="#A1A1A1">
                            <path d="M138.973385,12.2627799 C138.973385,12.9635102 138.973385,12.9635102 138.622442,13.6642404 C138.271499,14.0146056 138.622442,14.0146056 137.920556,14.0146056 C137.569613,13.6642404 137.569613,12.9635102 137.218671,12.613145 C137.218671,12.2627799 136.867728,11.9124147 136.516785,11.5620496 C136.516785,11.5620496 136.867728,11.5620496 136.165842,11.5620496 C136.516785,12.2627799 136.516785,11.9124147 136.867728,12.2627799 C136.867728,12.613145 137.218671,12.9635102 137.218671,13.3138753 C137.569613,14.0146056 137.218671,15.065701 138.622442,14.3649707 C138.622442,14.0146056 138.622442,14.0146056 138.973385,13.6642404 L139.675271,11.9124147 C141.429985,10.160589 144.588471,10.5109542 145.290357,10.8613193 C145.6413,11.2116845 145.6413,11.2116845 145.992243,11.2116845 L146.694129,11.9124147 L146.694129,11.9124147 L146.694129,11.9124147 C148.0979,13.3138753 147.746957,14.3649707 148.0979,15.065701 C148.799786,16.1167964 148.448843,24.1751946 148.448843,25.5766552 L148.448843,53.6058664 L141.429985,53.6058664 L141.429985,20.6715432 C141.429985,19.6204478 141.429985,19.970813 141.079042,19.6204478 C140.377157,18.5693524 141.429985,18.9197175 140.026214,18.2189873 C139.675271,17.8686221 139.324328,17.8686221 138.973385,18.2189873 L138.622442,18.2189873 C137.920556,19.2700827 137.920556,20.3211781 137.920556,21.0219084 L137.920556,44.4963727 C137.920556,46.2481984 138.271499,51.8540407 137.920556,53.6058664 L130.901698,53.6058664 C130.550756,52.5547709 130.901698,24.5255598 130.901698,21.0219084 C130.901698,19.970813 130.550756,19.970813 130.550756,18.9197175 C130.199813,18.2189873 130.550756,18.5693524 129.84887,18.2189873 C129.497927,18.2189873 129.497927,17.8686221 129.146984,17.8686221 C128.445098,17.8686221 128.094155,18.5693524 127.743212,18.9197175 C127.39227,19.970813 127.39227,19.6204478 127.39227,21.0219084 L127.39227,53.6058664 L120.373412,53.6058664 C120.022469,51.8540407 120.373412,11.5620496 120.373412,11.2116845 L127.39227,11.2116845 C127.743212,12.2627799 127.041327,13.6642404 127.743212,14.3649707 C128.094155,14.3649707 127.743212,14.7153359 128.094155,14.3649707 C129.146984,13.6642404 128.796041,12.2627799 130.550756,11.2116845 C131.603584,10.5109542 131.603584,10.8613193 133.358299,10.8613193 L134.76207,10.8613193 C135.814899,10.8613193 135.113013,11.2116845 136.165842,11.2116845 C135.113013,9.81022391 131.954527,10.160589 130.901698,10.5109542 C130.199813,10.8613193 129.497927,11.5620496 129.146984,11.9124147 C128.094155,13.3138753 128.796041,13.3138753 127.743212,13.6642404 C127.743212,12.613145 128.094155,11.5620496 127.39227,11.2116845 C127.041327,10.8613193 122.830012,10.8613193 121.777183,10.8613193 C120.724355,10.8613193 120.724355,10.8613193 120.022469,11.2116845 C120.022469,11.5620496 119.671526,51.8540407 120.022469,53.6058664 C120.724355,54.3065966 120.724355,53.9562315 121.777183,53.9562315 L125.988498,53.9562315 C127.041327,53.9562315 127.041327,54.3065966 127.743212,53.6058664 C128.094155,52.5547709 127.743212,50.102215 127.743212,48.7007544 L127.743212,19.970813 C128.094155,17.8686221 129.84887,18.2189873 130.199813,19.2700827 L130.199813,19.6204478 C130.550756,19.970813 130.550756,19.970813 130.550756,20.6715432 L130.550756,28.0292112 C130.550756,31.5328626 130.199813,52.2044058 130.550756,53.6058664 C131.603584,54.3065966 132.656413,53.9562315 134.411127,53.9562315 C136.165842,53.9562315 137.569613,54.3065966 138.271499,53.6058664 L138.271499,21.3722735 C138.271499,20.6715432 138.271499,19.970813 138.622442,19.2700827 C138.622442,18.5693524 138.973385,18.2189873 139.324328,18.2189873 C140.377157,18.5693524 140.026214,18.5693524 140.026214,18.5693524 C140.377157,18.9197175 140.377157,18.9197175 140.377157,19.2700827 C141.079042,19.970813 140.728099,22.7737341 140.728099,23.4744644 L140.728099,49.7518498 C140.728099,51.1533104 140.377157,53.2555012 141.079042,53.9562315 L148.448843,53.9562315 C149.150729,53.2555012 148.799786,51.1533104 148.799786,49.7518498 L148.799786,16.1167964 C148.799786,15.4160661 148.799786,14.7153359 148.448843,14.0146056 C147.746957,12.613145 148.448843,13.3138753 147.746957,12.613145 C147.396014,12.2627799 147.045071,11.9124147 146.694129,11.5620496 C144.939414,9.81022391 140.728099,9.81022391 138.973385,12.2627799 L138.973385,12.2627799 Z" id="Shape"></path>
                            <path d="M46.3244617,64.1168206 C45.9735188,63.4160903 45.9735188,63.7664554 45.6225759,63.0657251 L45.271633,62.0146297 C44.9206901,61.6642646 44.9206901,61.3138994 44.9206901,60.9635343 C44.9206901,59.9124389 44.9206901,60.262804 44.5697472,59.5620737 C44.2188043,56.0584223 44.5697472,35.036514 44.5697472,29.7810369 C44.5697472,27.678846 44.9206901,19.6204478 44.5697472,17.8686221 L42.8150327,17.8686221 C42.4640899,16.4671616 42.8150327,11.9124147 42.8150327,11.5620496 C42.8150327,11.5620496 42.8150327,11.5620496 42.8150327,11.2116845 C43.5169185,11.2116845 43.8678614,11.5620496 44.2188043,11.2116845 C44.9206901,10.160589 44.2188043,2.45255598 44.5697472,0.700730279 L51.2376621,0.700730279 C52.2904908,0.700730279 51.9395479,1.05109542 51.9395479,2.10219084 L51.9395479,10.5109542 C52.2904908,11.2116845 52.2904908,11.2116845 52.9923766,11.2116845 C53.6942624,11.2116845 53.6942624,11.2116845 54.0452053,11.5620496 L54.0452053,17.8686221 L51.9395479,18.2189873 L51.9395479,55.3576921 C51.9395479,56.7591526 52.2904908,57.810248 53.6942624,57.810248 C54.747091,58.1606132 128.094155,57.810248 141.079042,58.1606132 C141.780928,58.1606132 143.1847,58.5109783 143.535643,58.8613435 C143.886585,59.2117086 143.535643,59.2117086 144.237528,59.2117086 C144.237528,58.5109783 143.1847,58.1606132 142.482814,58.1606132 C140.026214,57.1095178 136.867728,57.4598829 134.411127,57.4598829 L99.3168382,57.4598829 C94.7545807,57.4598829 53.3433195,57.810248 52.9923766,57.1095178 L52.9923766,57.1095178 L52.6414337,56.7591526 C52.6414337,56.4087875 52.2904908,56.0584223 52.2904908,55.3576921 L52.2904908,52.9051361 L52.2904908,18.2189873 L53.3433195,18.2189873 C55.0980339,18.2189873 54.3961482,17.1678918 54.3961482,14.3649707 C54.3961482,12.9635102 54.747091,11.5620496 54.0452053,10.8613193 L52.2904908,10.8613193 L52.2904908,2.80292112 C52.2904908,1.40146056 52.6414337,0.35036514 51.588605,0.35036514 L44.5697472,0.35036514 C43.5169185,1.7518257 44.9206901,9.45985877 44.2188043,10.5109542 L43.8678614,10.8613193 C42.4640899,10.8613193 42.113147,10.160589 42.113147,12.613145 C42.113147,19.2700827 41.4112612,17.8686221 44.2188043,18.2189873 L44.2188043,24.1751946 L44.2188043,54.3065966 C44.2188043,56.4087875 43.8678614,59.2117086 44.5697472,61.3138994 C44.5697472,61.6642646 44.5697472,62.0146297 44.9206901,62.3649949 C44.9206901,63.0657251 45.271633,63.7664554 46.3244617,64.1168206 L46.3244617,64.1168206 Z" id="Shape"></path>
                            <path d="M8.42262939,50.4525801 C8.0716865,52.5547709 9.12451517,53.6058664 7.72074361,53.6058664 L1.75471446,53.6058664 C1.05282867,53.6058664 1.05282867,53.6058664 1.05282867,52.5547709 L1.05282867,32.583958 C1.05282867,30.4817671 0.701885783,2.10219084 1.05282867,0.700730279 L7.72074361,0.700730279 C8.42262939,0.700730279 8.42262939,0.700730279 8.42262939,1.05109542 L8.42262939,13.3138753 C8.42262939,14.0146056 8.42262939,14.0146056 8.77357228,14.0146056 C9.12451517,14.0146056 9.47545807,13.3138753 9.82640096,12.613145 C10.1773438,11.9124147 11.5811154,10.8613193 12.2830012,10.8613193 C12.6339441,10.5109542 13.6867728,10.8613193 14.3886585,10.8613193 C15.7924301,10.8613193 15.4414872,10.8613193 16.143373,11.2116845 C18.5999732,12.613145 18.9509161,17.1678918 18.9509161,19.6204478 L18.9509161,23.8248295 L18.9509161,45.8978333 C18.9509161,48.3503893 18.5999732,49.7518498 17.8980875,51.5036755 C17.5471446,52.9051361 16.8452588,53.2555012 15.4414872,53.9562315 C15.0905443,54.3065966 14.3886585,54.3065966 13.6867728,54.3065966 C11.5811154,54.3065966 10.5282867,53.2555012 9.47545807,51.5036755 C9.12451517,50.4525801 9.12451517,50.4525801 8.42262939,50.4525801 L8.42262939,50.4525801 Z M9.82640096,52.9051361 C10.1773438,52.9051361 10.1773438,52.9051361 10.1773438,53.2555012 L10.8792296,53.6058664 C10.8792296,53.9562315 10.8792296,53.9562315 11.2301725,53.9562315 C11.2301725,53.9562315 11.2301725,53.9562315 11.2301725,54.3065966 L12.984887,54.6569618 C14.0377157,55.0073269 16.143373,54.3065966 16.4943159,53.9562315 C17.1962017,53.2555012 17.8980875,52.5547709 18.2490303,51.8540407 L18.5999732,51.5036755 L18.5999732,50.4525801 C18.9509161,50.102215 18.9509161,50.102215 18.9509161,49.7518498 C19.301859,48.3503893 19.301859,15.7664313 18.9509161,15.065701 C18.9509161,14.7153359 18.5999732,14.7153359 18.5999732,14.0146056 C18.5999732,13.3138753 18.2490303,12.613145 17.5471446,11.9124147 C16.4943159,10.5109542 16.143373,10.8613193 14.7396014,10.160589 C12.6339441,9.45985877 10.5282867,10.8613193 9.47545807,12.2627799 C9.12451517,12.9635102 9.47545807,12.613145 8.77357228,12.9635102 L8.77357228,3.15328626 C8.77357228,0.700730279 9.12451517,0 7.36980072,0 L1.05282867,0.35036514 C6.605827e-15,0.35036514 0.350942891,5.25547709 0.350942891,6.65693765 C0.350942891,13.6642404 0.350942891,53.9562315 0.701885783,53.9562315 C1.40377157,54.3065966 7.36980072,54.3065966 8.42262939,54.3065966 C9.47545807,52.9051361 8.77357228,52.5547709 9.12451517,51.8540407 L9.82640096,52.9051361 L9.82640096,52.9051361 Z" id="Shape"></path>
                            <path d="M78.6112077,49.7518498 C78.6112077,50.102215 79.3130934,50.8029452 79.6640363,51.1533104 L81.0678079,52.9051361 C81.7696937,53.2555012 82.4715795,53.6058664 83.1734652,53.9562315 C83.5244081,53.9562315 83.5244081,54.3065966 84.2262939,54.3065966 C88.0866657,55.0073269 92.2979804,53.9562315 94.4036378,51.1533104 C94.7545807,50.102215 94.7545807,50.8029452 95.1055236,50.102215 C95.1055236,49.0511195 95.1055236,50.102215 95.4564664,48.7007544 C95.8074093,48.3503893 95.8074093,48.3503893 95.8074093,47.649659 C96.1583522,46.2481984 96.5092951,37.4890699 96.1583522,36.7883397 C95.4564664,36.4379745 88.7885515,36.4379745 88.0866657,36.7883397 C87.7357228,37.8394351 88.0866657,44.4963727 88.0866657,46.2481984 L87.7357228,46.5985636 L87.7357228,46.9489287 L87.7357228,46.9489287 C88.4376086,46.9489287 88.0866657,46.9489287 88.4376086,46.2481984 C88.4376086,45.5474682 88.4376086,46.2481984 88.4376086,45.197103 L88.4376086,37.1387048 L95.8074093,37.1387048 L95.8074093,46.2481984 C95.4564664,47.649659 95.4564664,45.8978333 95.1055236,48.3503893 C95.1055236,49.0511195 94.4036378,50.102215 94.0526949,50.4525801 C93.701752,51.5036755 91.5960946,53.2555012 90.543266,53.6058664 C87.7357228,54.3065966 89.1394944,54.3065966 85.2791226,53.9562315 C84.5772368,53.9562315 83.1734652,53.6058664 82.8225224,53.2555012 C82.4715795,53.2555012 82.4715795,53.2555012 82.1206366,52.9051361 C81.7696937,52.9051361 81.0678079,52.2044058 80.716865,51.8540407 L79.3130934,50.102215 C78.6112077,48.3503893 78.9621506,49.0511195 78.6112077,48.3503893 C78.2602648,48.0000241 78.2602648,48.3503893 78.2602648,47.649659 C77.9093219,46.5985636 78.2602648,24.1751946 78.2602648,20.6715432 L78.2602648,17.1678918 C78.6112077,16.4671616 78.6112077,17.1678918 78.6112077,16.1167964 L78.2602648,16.4671616 C77.558379,19.2700827 77.9093219,29.7810369 77.9093219,33.2846883 C77.9093219,36.0876094 77.558379,43.7956425 77.9093219,46.2481984 C77.9093219,47.649659 78.2602648,48.3503893 78.6112077,49.7518498 L78.6112077,49.7518498 Z" id="Shape"></path>
                            <path d="M8.77357228,18.9197175 C8.0716865,19.6204478 8.42262939,20.3211781 8.42262939,22.0730038 L8.42262939,45.197103 C8.42262939,45.5474682 8.77357228,46.2481984 9.12451517,46.5985636 L10.5282867,46.5985636 C11.5811154,45.8978333 11.2301725,43.0949122 11.2301725,41.6934516 L11.2301725,19.970813 C11.2301725,19.970813 11.2301725,19.970813 11.2301725,19.6204478 L11.2301725,19.6204478 C11.2301725,19.2700827 10.8792296,19.2700827 10.8792296,19.2700827 C11.2301725,26.2773855 10.8792296,33.9854185 10.8792296,40.9927213 C10.8792296,43.7956425 11.5811154,46.5985636 9.12451517,46.2481984 C8.42262939,44.8467379 8.77357228,41.6934516 8.77357228,39.5912608 L8.77357228,19.970813 C8.77357228,19.6204478 9.12451517,19.2700827 9.12451517,18.5693524 L9.12451517,18.5693524 C9.12451517,18.5693524 9.12451517,18.5693524 9.12451517,18.9197175 L8.77357228,18.9197175 L8.77357228,18.9197175 Z" id="Shape"></path>
                            <path d="M109.143239,18.9197175 C109.143239,19.970813 109.494182,19.6204478 109.494182,20.6715432 C109.494182,22.7737341 109.143239,33.6350534 109.494182,33.9854185 C109.845125,33.9854185 110.196068,34.3357837 110.547011,34.3357837 C111.599839,34.3357837 116.863983,34.3357837 116.863983,33.9854185 C117.214926,33.6350534 117.214926,19.6204478 117.214926,17.518257 C117.214926,16.4671616 117.214926,13.6642404 116.162097,12.613145 C116.162097,12.9635102 116.162097,13.6642404 116.51304,14.0146056 C116.863983,14.3649707 116.863983,14.0146056 116.863983,15.065701 L116.863983,17.518257 L116.863983,33.6350534 L109.845125,33.6350534 L109.845125,20.3211781 C109.845125,19.970813 109.845125,19.6204478 109.494182,19.2700827 C109.143239,18.9197175 109.494182,19.2700827 109.143239,18.9197175 L109.143239,18.9197175 Z" id="Shape"></path>
                            <path d="M98.9658954,11.2116845 L106.335696,11.2116845 C106.335696,11.9124147 105.984753,14.0146056 106.686639,14.3649707 C106.686639,14.3649707 106.686639,14.7153359 107.388525,14.0146056 L108.441353,12.613145 C108.441353,12.2627799 108.441353,12.2627799 108.792296,12.2627799 L109.143239,11.5620496 L108.441353,11.5620496 C108.441353,11.9124147 108.090411,11.9124147 108.090411,12.2627799 C107.739468,12.613145 107.739468,12.613145 107.739468,12.9635102 C107.388525,13.6642404 107.388525,13.6642404 106.686639,13.6642404 C106.686639,11.9124147 107.037582,11.5620496 106.335696,11.2116845 C105.63381,10.8613193 100.72061,10.8613193 99.6677811,10.8613193 C98.9658954,11.2116845 99.3168382,10.8613193 98.9658954,11.2116845 L98.9658954,11.2116845 Z" id="Shape"></path>
                        </g>
                        <g id="Group" fill="#B3B3B3">
                            <path d="M2.80754313,75.328505 C2.80754313,74.6277747 1.75471446,72.875949 1.40377157,72.1752188 C1.05282867,71.8248536 1.40377157,71.4744885 1.05282867,71.1241233 C0.350942891,70.0730279 0.350942891,66.5693765 0.701885783,65.5182811 C1.05282867,65.167916 1.05282867,65.167916 1.05282867,64.8175508 C1.05282867,64.8175508 1.05282867,64.4671857 1.40377157,64.1168206 L2.10565735,62.3649949 C2.45660024,61.6642646 2.80754313,61.6642646 3.50942891,60.9635343 L3.50942891,60.9635343 C3.8603718,60.6131692 4.56225759,59.9124389 5.26414337,59.5620737 C6.66791494,58.8613435 7.36980072,58.5109783 8.77357228,58.5109783 C10.1773438,58.5109783 10.8792296,58.1606132 11.9320583,58.1606132 C14.0377157,58.1606132 15.7924301,58.1606132 17.8980875,58.5109783 L30.1810887,58.5109783 L72.6451785,58.5109783 C74.7508359,58.5109783 76.8564932,58.1606132 78.9621506,58.5109783 L78.9621506,65.5182811 C77.2074361,65.8686463 17.5471446,65.5182811 14.0377157,65.5182811 C11.5811154,65.5182811 9.12451517,65.167916 8.42262939,66.5693765 C8.0716865,66.9197417 8.0716865,67.2701068 8.0716865,67.6204719 C7.72074361,68.3212022 8.42262939,69.3722976 8.77357228,69.7226628 L8.77357228,69.7226628 L9.12451517,69.7226628 C9.12451517,70.0730279 9.47545807,70.0730279 9.47545807,70.0730279 C10.5282867,70.7737582 11.5811154,70.4233931 13.3358299,70.4233931 C18.2490303,70.4233931 177.928046,70.7737582 178.629932,70.4233931 C178.980875,70.4233931 179.331817,70.0730279 179.331817,70.0730279 C181.437475,68.3212022 180.033703,65.8686463 178.629932,65.5182811 L91.5960946,65.5182811 L89.1394944,65.5182811 C87.7357228,65.5182811 87.3847799,65.167916 86.3319513,65.167916 C86.6828942,65.5182811 86.3319513,65.5182811 87.7357228,65.8686463 L177.577103,65.8686463 C179.68276,65.8686463 180.384646,67.6204719 180.033703,68.6715674 C179.331817,70.4233931 177.577103,70.0730279 175.822389,70.0730279 L19.6528019,70.0730279 C17.8980875,70.0730279 10.1773438,70.0730279 9.12451517,69.7226628 C8.0716865,69.0219325 8.0716865,66.9197417 9.47545807,66.2190114 C10.5282867,65.5182811 13.3358299,65.8686463 14.3886585,65.8686463 L36.1471178,65.8686463 L78.9621506,65.8686463 C79.6640363,64.4671857 79.3130934,63.7664554 79.3130934,62.3649949 C79.3130934,57.4598829 80.0149792,57.810248 76.5055503,57.810248 L54.747091,57.810248 C53.6942624,57.810248 18.9509161,58.1606132 17.1962017,57.810248 C15.4414872,57.4598829 12.984887,57.810248 11.2301725,57.810248 C9.82640096,57.810248 7.72074361,57.810248 6.66791494,58.1606132 C6.31697204,58.5109783 6.66791494,58.5109783 5.96602915,58.8613435 L4.91320048,59.2117086 C3.8603718,59.5620737 3.8603718,59.9124389 3.50942891,60.262804 L2.45660024,61.6642646 L1.75471446,62.3649949 C1.40377157,62.71536 1.75471446,62.71536 1.40377157,63.0657251 L1.05282867,64.1168206 C0.701885783,64.8175508 0.701885783,63.7664554 0.350942891,65.8686463 C0.350942891,67.2701068 -0.350942891,67.6204719 0.350942891,69.3722976 C0.350942891,69.7226628 0.350942891,70.4233931 0.701885783,71.1241233 C0.701885783,71.8248536 0.701885783,71.8248536 1.05282867,72.5255839 C1.05282867,73.2263142 1.05282867,72.875949 1.40377157,73.2263142 C1.75471446,73.9270445 2.10565735,74.9781399 2.80754313,75.328505 L2.80754313,75.328505 Z" id="Shape"></path>
                            <path d="M187.403504,93.1971271 L181.437475,93.1971271 L6.66791494,93.1971271 C-3.33066907e-16,93.1971271 1.05282867,93.8978574 1.05282867,91.0949363 C1.05282867,89.3431106 0.701885783,85.1387289 1.05282867,84.0876335 C2.45660024,83.7372684 4.91320048,83.7372684 6.66791494,83.7372684 L175.822389,83.7372684 L187.403504,83.7372684 C187.754447,85.8394592 187.403504,90.7445712 187.403504,93.1971271 C187.754447,92.846762 187.754447,93.5474923 187.754447,92.4963969 L187.754447,84.4379987 C187.754447,84.0876335 187.754447,84.0876335 187.403504,83.7372684 C187.052561,83.3869032 64.9244349,83.3869032 47.3772903,83.3869032 C42.8150327,83.3869032 1.40377157,83.3869032 0.701885783,83.7372684 C0.350942891,84.4379987 0.350942891,92.846762 0.701885783,93.5474923 C1.40377157,93.8978574 21.4075164,93.5474923 23.8641166,93.5474923 L186.701618,93.5474923 L187.052561,93.5474923 L187.403504,93.5474923 L187.403504,93.1971271 L187.403504,93.1971271 Z" id="Shape"></path>
                            <path d="M5.96602915,77.4306959 C6.66791494,78.4817913 7.72074361,78.4817913 8.42262939,78.4817913 C10.5282867,78.8321564 9.12451517,78.8321564 11.5811154,78.8321564 L173.365788,78.8321564 C177.928046,78.8321564 182.841246,79.1825216 185.999732,74.9781399 C187.754447,72.875949 188.10539,70.4233931 188.10539,67.6204719 C188.10539,65.167916 186.701618,62.3649949 185.297847,60.6131692 L183.894075,59.9124389 C183.543132,59.2117086 183.894075,59.2117086 183.192189,59.5620737 C183.543132,60.262804 184.595961,59.9124389 186.350675,62.71536 L187.052561,64.1168206 C188.10539,66.2190114 187.052561,66.2190114 187.754447,66.9197417 C188.10539,67.9708371 188.10539,69.0219325 187.754447,69.7226628 C187.403504,70.7737582 187.403504,71.4744885 187.052561,72.1752188 L187.052561,72.875949 C186.701618,73.2263142 187.052561,72.875949 186.701618,73.2263142 L184.946904,76.0292353 C184.245018,76.3796004 182.841246,77.4306959 181.788418,77.781061 C181.086532,77.781061 181.437475,77.781061 180.735589,78.1314261 C179.68276,78.4817913 176.173331,78.1314261 175.120503,78.1314261 L11.5811154,78.1314261 C6.31697204,78.1314261 8.0716865,77.781061 5.96602915,77.4306959 L5.96602915,77.4306959 Z" id="Shape"></path>
                            <path d="M21.0565735,8.40876335 L16.143373,8.40876335 L15.4414872,8.40876335 C14.7396014,9.45985877 15.7924301,53.6058664 15.0905443,53.9562315 C14.7396014,54.3065966 13.6867728,54.3065966 13.3358299,54.3065966 C12.2830012,54.3065966 7.36980072,54.3065966 7.01885783,53.9562315 C6.66791494,53.6058664 6.66791494,44.1460076 6.66791494,42.744547 C6.66791494,38.1898002 7.01885783,9.10949363 6.66791494,8.75912849 C5.96602915,7.70803307 1.75471446,8.75912849 1.40377157,8.05839821 C0.701885783,8.05839821 1.05282867,8.05839821 1.05282867,6.65693765 C1.05282867,5.60584223 0.701885783,1.40146056 1.05282867,1.05109542 C1.75471446,0.700730279 4.91320048,0.700730279 5.96602915,0.700730279 L20.7056306,1.05109542 L21.0565735,1.05109542 L21.0565735,8.40876335 C21.4075164,7.70803307 21.4075164,5.25547709 21.4075164,4.20438168 C21.4075164,3.15328626 21.4075164,1.40146056 21.0565735,0.35036514 L5.61508626,0.35036514 C0.350942891,0.35036514 0.701885783,-0.35036514 0.701885783,2.45255598 C0.701885783,9.45985877 -0.701885783,8.75912849 4.91320048,8.75912849 C5.96602915,8.75912849 6.31697204,8.40876335 6.31697204,9.10949363 L6.31697204,48.3503893 C6.31697204,49.7518498 5.96602915,53.6058664 6.66791494,54.6569618 L12.984887,54.6569618 C16.143373,54.6569618 15.4414872,56.0584223 15.4414872,43.4452773 L15.4414872,8.75912849 L21.0565735,8.75912849 L21.0565735,8.40876335 L21.0565735,8.40876335 Z" id="Shape"></path>
                            <path d="M75.8036645,53.2555012 C75.1017787,53.2555012 75.4527216,53.6058664 74.399893,53.6058664 C74.0489501,53.9562315 74.399893,53.9562315 73.6980072,53.9562315 C71.9432927,54.3065966 74.0489501,54.6569618 69.8376354,54.6569618 L68.4338638,54.6569618 C67.731978,54.6569618 67.731978,54.6569618 67.3810351,54.3065966 C66.6791494,53.9562315 66.6791494,53.9562315 65.9772636,53.9562315 C65.6263207,53.9562315 65.6263207,53.6058664 65.2753778,53.6058664 C64.2225491,53.2555012 62.8187775,51.8540407 62.8187775,51.1533104 C61.7659489,49.7518498 61.7659489,49.7518498 61.7659489,48.7007544 C61.0640631,46.9489287 61.0640631,45.5474682 61.0640631,43.0949122 L61.0640631,23.4744644 L61.0640631,18.5693524 C61.0640631,18.2189873 61.0640631,17.8686221 61.415006,17.518257 L61.7659489,15.7664313 C62.1168918,15.4160661 62.1168918,15.4160661 62.1168918,15.065701 C62.8187775,14.3649707 63.1697204,13.6642404 63.5206633,12.9635102 C64.2225491,12.613145 64.573492,12.613145 64.9244349,12.2627799 L65.2753778,11.9124147 C64.2225491,11.9124147 63.1697204,12.9635102 62.8187775,13.6642404 C61.7659489,15.065701 61.7659489,15.7664313 61.415006,16.4671616 C61.0640631,16.8175267 61.0640631,17.1678918 61.0640631,18.2189873 C60.3621773,20.6715432 60.7131202,20.6715432 60.7131202,23.8248295 L60.7131202,44.1460076 C60.7131202,44.4963727 60.3621773,45.5474682 60.7131202,45.8978333 L61.415006,49.4014847 C61.415006,49.7518498 61.7659489,50.8029452 62.4678347,51.5036755 L62.4678347,51.5036755 C63.5206633,52.9051361 63.5206633,52.9051361 64.9244349,53.9562315 L64.9244349,53.9562315 L65.2753778,53.9562315 L65.6263207,54.3065966 C67.3810351,54.6569618 65.6263207,54.6569618 68.0829209,54.6569618 C68.4338638,55.0073269 69.1357496,55.0073269 69.4866925,55.3576921 C70.1885783,55.3576921 72.6451785,55.0073269 73.3470643,54.6569618 L75.1017787,53.9562315 L75.1017787,53.9562315 L75.1017787,53.6058664 C75.4527216,53.6058664 75.4527216,53.6058664 75.8036645,53.2555012 L75.8036645,53.2555012 Z" id="Shape"></path>
                            <path d="M75.8036645,53.2555012 C76.1546074,53.2555012 76.1546074,52.9051361 76.5055503,52.5547709 C76.8564932,52.2044058 76.8564932,52.2044058 77.2074361,51.8540407 C77.558379,51.5036755 77.558379,51.5036755 77.9093219,51.1533104 C79.3130934,49.0511195 78.2602648,50.4525801 78.9621506,49.0511195 C79.3130934,48.3503893 79.3130934,47.2992939 79.6640363,45.8978333 L79.6640363,23.1240992 L79.6640363,20.3211781 C79.6640363,18.5693524 79.3130934,18.5693524 79.3130934,17.8686221 C79.3130934,17.518257 79.3130934,17.1678918 78.9621506,16.8175267 C78.9621506,16.1167964 78.9621506,16.4671616 78.6112077,15.7664313 C78.6112077,15.4160661 78.6112077,15.7664313 78.2602648,15.4160661 C78.2602648,15.065701 78.2602648,15.4160661 78.2602648,15.065701 L78.2602648,14.7153359 C77.9093219,14.0146056 77.9093219,14.3649707 77.558379,14.0146056 C77.558379,14.7153359 77.558379,14.3649707 77.9093219,15.065701 C78.2602648,16.1167964 78.9621506,17.1678918 78.9621506,18.2189873 C79.3130934,24.5255598 79.3130934,33.2846883 79.3130934,40.2919911 C79.3130934,43.4452773 79.6640363,47.2992939 78.2602648,50.102215 C77.9093219,50.8029452 76.8564932,52.2044058 76.5055503,52.5547709 L75.8036645,53.2555012 L75.8036645,53.2555012 Z" id="Shape"></path>
                        </g>
                        <g id="Group" transform="translate(1.403772, 1.051095)" fill="#2D2D2D">
                            <path d="M46.3244617,18.2189873 C46.6754045,17.518257 46.3244617,17.8686221 46.6754045,17.518257 C47.0263474,17.518257 47.3772903,16.8175267 48.430119,17.8686221 C48.7810619,18.2189873 48.7810619,18.5693524 48.7810619,19.2700827 L48.7810619,40.9927213 C48.7810619,42.3941819 49.1320048,45.197103 48.0791761,45.8978333 L46.6754045,45.8978333 C46.3244617,45.5474682 45.9735188,44.8467379 45.9735188,44.4963727 L45.9735188,21.3722735 C45.9735188,19.6204478 45.6225759,18.9197175 46.3244617,18.2189873 L46.3244617,18.2189873 Z M45.9735188,49.7518498 C46.6754045,49.7518498 46.6754045,49.7518498 47.0263474,50.8029452 C48.0791761,52.5547709 49.1320048,53.6058664 51.2376621,53.6058664 C51.9395479,53.6058664 52.6414337,53.6058664 52.9923766,53.2555012 C54.3961482,52.5547709 55.0980339,52.2044058 55.4489768,50.8029452 C56.1508626,49.0511195 56.5018055,47.649659 56.5018055,45.197103 L56.5018055,23.1240992 L56.5018055,18.9197175 C56.5018055,16.4671616 56.1508626,11.9124147 53.6942624,10.5109542 C52.9923766,10.160589 53.3433195,10.160589 51.9395479,10.160589 C51.2376621,10.160589 50.1848335,9.81022391 49.8338906,10.160589 C49.1320048,10.160589 47.7282332,11.2116845 47.3772903,11.9124147 C47.0263474,12.613145 46.6754045,13.3138753 46.3244617,13.3138753 C45.9735188,13.3138753 45.9735188,13.3138753 45.9735188,12.613145 L45.9735188,0.35036514 C45.9735188,0 45.9735188,0 45.271633,0 L38.603718,0 C38.2527752,1.40146056 38.603718,29.7810369 38.603718,31.8832277 L38.603718,51.8540407 C38.603718,52.9051361 38.603718,52.9051361 39.3056038,52.9051361 L45.271633,52.9051361 C46.6754045,52.9051361 45.6225759,51.8540407 45.9735188,49.7518498 L45.9735188,49.7518498 Z" id="Shape"></path>
                            <path d="M27.3735455,44.4963727 C27.7244884,44.8467379 27.0226026,45.5474682 27.0226026,45.8978333 L25.6188311,45.8978333 C25.6188311,45.5474682 25.2678882,45.5474682 25.2678882,45.197103 C25.2678882,45.197103 24.9169453,45.5474682 24.9169453,44.4963727 L24.9169453,43.4452773 C24.9169453,38.8905305 24.9169453,11.5620496 24.5660024,10.5109542 L17.1962017,10.5109542 L17.1962017,24.1751946 L17.1962017,37.8394351 C17.1962017,41.6934516 16.4943159,49.0511195 18.5999732,51.5036755 C18.9509161,52.2044058 19.301859,52.2044058 19.6528019,52.5547709 C21.0565735,53.9562315 23.5131737,53.6058664 24.5660024,52.9051361 L25.2678882,52.5547709 C26.6716597,51.5036755 25.6188311,51.5036755 26.3207169,51.5036755 C26.3207169,50.4525801 26.6716597,51.1533104 27.0226026,50.4525801 L27.0226026,49.0511195 C27.3735455,48.7007544 27.0226026,49.0511195 27.3735455,49.0511195 C28.0754313,50.102215 27.7244884,51.5036755 27.7244884,52.9051361 L35.445232,52.9051361 C35.445232,48.3503893 35.445232,11.5620496 35.0942891,10.5109542 L28.0754313,10.5109542 C27.7244884,11.5620496 28.0754313,43.4452773 27.7244884,44.1460076 C27.7244884,44.4963727 28.0754313,44.1460076 27.3735455,44.4963727 L27.3735455,44.4963727 Z" id="Shape"></path>
                            <path d="M67.3810351,17.8686221 L67.3810351,17.518257 C67.731978,16.8175267 68.4338638,16.4671616 69.1357496,16.8175267 C70.5395212,17.1678918 70.5395212,20.3211781 70.5395212,21.7226387 L70.5395212,44.4963727 C70.5395212,45.197103 70.5395212,45.197103 70.1885783,45.8978333 C70.1885783,45.8978333 70.1885783,45.8978333 69.8376354,45.8978333 L69.8376354,45.8978333 C69.4866925,46.2481984 69.8376354,46.2481984 69.4866925,46.5985636 C68.7848067,47.2992939 67.731978,46.9489287 67.3810351,45.8978333 C66.6791494,44.4963727 67.0300922,43.7956425 67.0300922,42.0438168 L67.0300922,18.2189873 C67.0300922,17.8686221 67.3810351,17.8686221 67.3810351,17.8686221 L67.3810351,17.8686221 Z M60.7131202,14.0146056 C60.7131202,14.3649707 60.7131202,14.3649707 60.3621773,14.7153359 L60.0112344,16.4671616 C59.6602915,16.8175267 59.6602915,17.1678918 59.6602915,17.518257 L59.6602915,22.4233689 L59.6602915,42.0438168 C59.6602915,44.4963727 59.6602915,45.8978333 60.3621773,47.649659 C60.3621773,48.7007544 60.3621773,48.7007544 61.415006,50.102215 C62.1168918,50.4525801 62.1168918,50.8029452 62.4678347,51.1533104 C62.8187775,51.5036755 63.1697204,51.5036755 63.1697204,51.8540407 C63.5206633,52.2044058 63.5206633,51.8540407 63.8716062,52.5547709 C64.2225491,52.5547709 64.2225491,52.9051361 64.573492,52.9051361 C65.2753778,52.9051361 65.2753778,52.9051361 65.9772636,53.2555012 C66.3282065,53.6058664 66.3282065,53.6058664 67.0300922,53.6058664 L68.4338638,53.6058664 C72.6451785,53.6058664 70.5395212,53.2555012 72.2942356,52.9051361 C72.9961214,52.9051361 72.6451785,52.9051361 72.9961214,52.5547709 L73.3470643,52.2044058 C74.399893,51.5036755 75.8036645,50.4525801 76.5055503,49.0511195 C76.5055503,48.7007544 76.5055503,48.7007544 76.8564932,48.3503893 C76.8564932,48.0000241 76.8564932,48.7007544 76.8564932,48.0000241 C76.8564932,47.649659 76.8564932,47.2992939 77.2074361,47.2992939 L77.2074361,46.5985636 C77.558379,46.2481984 77.558379,44.1460076 77.558379,43.4452773 L77.558379,16.8175267 C77.2074361,16.4671616 77.2074361,16.4671616 76.8564932,15.7664313 C76.5055503,14.0146056 74.399893,11.9124147 73.6980072,11.5620496 L72.2942356,10.5109542 C71.2414069,10.5109542 71.5923498,10.5109542 71.2414069,10.160589 L67.731978,10.160589 L65.9772636,10.160589 C65.2753778,10.5109542 65.6263207,10.5109542 64.9244349,10.5109542 C64.2225491,10.8613193 64.9244349,10.8613193 64.2225491,10.8613193 C63.5206633,11.5620496 64.2225491,10.8613193 62.8187775,11.9124147 C62.1168918,12.613145 61.7659489,12.9635102 61.415006,13.6642404 L60.7131202,14.0146056 L60.7131202,14.0146056 Z" id="Shape"></path>
                            <path d="M0,7.00730279 C0.350942891,7.00730279 5.26414337,6.65693765 5.61508626,7.35766793 C5.96602915,7.70803307 5.61508626,48.7007544 5.61508626,52.9051361 L13.6867728,52.9051361 L13.6867728,12.613145 C13.6867728,5.60584223 12.2830012,7.00730279 19.6528019,7.00730279 L19.301859,0 C16.8452588,0 1.05282867,0 0,0.35036514 L0,7.00730279 L0,7.00730279 Z" id="Shape"></path>
                        </g>
                        <g id="Group" transform="translate(0.350943, 1.051095)" fill="#737374">
                            <path d="M84.9281797,63.4160903 C85.2791226,63.7664554 85.2791226,64.1168206 85.9810084,64.1168206 C87.0338371,64.1168206 87.3847799,64.4671857 88.7885515,64.4671857 L91.2451517,64.4671857 L178.278989,64.4671857 C179.68276,64.8175508 181.086532,67.2701068 178.980875,69.0219325 C178.980875,69.0219325 178.629932,69.3722976 178.278989,69.3722976 C177.577103,69.7226628 17.8980875,69.3722976 12.984887,69.3722976 C11.2301725,69.3722976 10.1773438,69.7226628 9.12451517,69.0219325 C9.12451517,69.0219325 8.77357228,69.0219325 8.77357228,68.6715674 L8.42262939,68.6715674 L8.42262939,68.6715674 C8.0716865,68.3212022 7.36980072,67.2701068 7.72074361,66.5693765 C7.72074361,66.2190114 7.72074361,65.8686463 8.0716865,65.5182811 C8.77357228,64.1168206 11.2301725,64.4671857 13.6867728,64.4671857 C17.1962017,64.4671857 76.8564932,64.8175508 78.6112077,64.4671857 L78.6112077,57.4598829 C76.5055503,57.1095178 74.399893,57.4598829 72.2942356,57.4598829 L29.8301458,57.4598829 L17.5471446,57.4598829 C15.4414872,57.1095178 13.6867728,57.1095178 11.5811154,57.1095178 C10.5282867,57.1095178 9.82640096,57.4598829 8.42262939,57.4598829 C7.01885783,57.4598829 6.31697204,57.810248 4.91320048,58.5109783 C4.2113147,58.8613435 3.50942891,59.5620737 3.15848602,59.9124389 L3.15848602,59.9124389 C2.45660024,60.6131692 2.10565735,60.6131692 1.75471446,61.3138994 L1.05282867,63.0657251 C0.701885783,63.4160903 0.701885783,63.7664554 0.701885783,63.7664554 C0.701885783,64.1168206 0.701885783,64.1168206 0.350942891,64.4671857 C7.91033905e-16,65.5182811 7.91033905e-16,69.0219325 0.701885783,70.0730279 C1.05282867,70.4233931 0.701885783,70.7737582 1.05282867,71.1241233 C1.40377157,71.8248536 2.45660024,73.5766793 2.45660024,74.2774096 C2.80754313,74.2774096 3.50942891,75.328505 3.8603718,75.6788702 C4.2113147,75.6788702 4.56225759,76.0292353 4.91320048,76.0292353 C4.91320048,76.3796004 5.61508626,76.3796004 5.61508626,76.3796004 C7.72074361,76.7299656 5.96602915,77.0803307 11.2301725,77.0803307 L174.76956,77.0803307 C175.822389,77.0803307 179.331817,77.4306959 180.384646,77.0803307 C181.086532,76.7299656 180.735589,76.7299656 181.437475,76.7299656 C182.490303,76.3796004 183.894075,75.328505 184.595961,74.9781399 L186.350675,72.1752188 C186.701618,71.8248536 186.350675,72.1752188 186.701618,71.8248536 L186.701618,71.1241233 C187.052561,70.4233931 187.052561,69.7226628 187.403504,68.6715674 C187.754447,67.9708371 187.754447,66.9197417 187.403504,65.8686463 C186.701618,65.167916 187.754447,65.167916 186.701618,63.0657251 L185.999732,61.6642646 C184.245018,58.8613435 183.192189,59.2117086 182.841246,58.5109783 C182.139361,58.5109783 182.490303,58.5109783 182.139361,58.1606132 C181.788418,57.810248 180.384646,57.4598829 179.68276,57.4598829 C166.697873,57.1095178 93.3508091,57.4598829 92.2979804,57.1095178 C90.8942089,57.1095178 90.543266,56.0584223 90.543266,54.6569618 L90.543266,17.518257 L92.6489233,17.1678918 L92.6489233,10.8613193 C92.2979804,10.5109542 92.2979804,10.5109542 91.5960946,10.5109542 C90.8942089,10.5109542 90.8942089,10.5109542 90.543266,9.81022391 L90.543266,1.40146056 C90.543266,0.35036514 90.8942089,0 89.8413802,0 L83.1734652,0 C82.8225224,1.7518257 83.5244081,9.45985877 82.8225224,10.5109542 C82.4715795,10.8613193 82.1206366,10.5109542 81.4187508,10.5109542 L81.4187508,10.8613193 C81.4187508,11.2116845 81.0678079,15.7664313 81.4187508,17.1678918 L83.1734652,17.1678918 C83.5244081,18.9197175 83.1734652,26.9781158 83.1734652,29.0803066 C83.1734652,34.3357837 82.8225224,55.3576921 83.1734652,58.8613435 C83.5244081,59.5620737 83.5244081,59.2117086 83.5244081,60.262804 C83.5244081,60.6131692 83.5244081,60.9635343 83.875351,61.3138994 L84.2262939,62.3649949 C84.5772368,63.0657251 84.5772368,62.71536 84.9281797,63.4160903 L84.9281797,63.4160903 Z" id="Shape"></path>
                            <path d="M187.052561,92.1460317 L187.052561,92.1460317 C187.052561,89.6934757 187.403504,84.7883638 187.052561,82.686173 L175.471446,82.686173 L6.31697204,82.686173 C4.56225759,82.686173 2.10565735,82.686173 0.701885783,83.0365381 C0.350942891,84.0876335 0.701885783,88.2920152 0.701885783,90.0438409 C0.701885783,92.846762 -0.350942891,92.1460317 6.31697204,92.1460317 L181.086532,92.1460317 L187.052561,92.1460317 L187.052561,92.1460317 Z" id="Shape"></path>
                            <path d="M174.76956,10.8613193 C174.76956,10.5109542 175.120503,10.5109542 174.76956,10.5109542 C173.716731,10.5109542 174.418617,10.160589 173.365788,10.160589 L171.962017,10.160589 C170.207302,10.160589 170.207302,9.81022391 169.154474,10.5109542 C167.399759,11.5620496 167.750702,12.9635102 166.697873,13.6642404 C166.34693,14.0146056 166.697873,13.6642404 166.34693,13.6642404 C165.645045,12.9635102 166.34693,11.5620496 165.995988,10.5109542 L158.97713,10.5109542 C158.97713,10.8613193 158.626187,51.1533104 158.97713,52.9051361 L165.995988,52.9051361 L165.995988,20.3211781 C165.995988,18.9197175 165.995988,19.2700827 166.34693,18.2189873 C166.697873,17.8686221 167.048816,17.1678918 167.750702,17.1678918 C168.101645,17.1678918 168.101645,17.518257 168.452588,17.518257 C169.154474,17.8686221 168.803531,17.518257 169.154474,18.2189873 C169.154474,19.2700827 169.505417,19.2700827 169.505417,20.3211781 C169.505417,23.8248295 169.154474,51.8540407 169.505417,52.9051361 L176.524274,52.9051361 C176.875217,51.1533104 176.524274,45.5474682 176.524274,43.7956425 L176.524274,20.3211781 C176.524274,19.6204478 176.524274,18.5693524 177.22616,17.518257 L177.577103,17.518257 C177.928046,17.1678918 178.278989,17.1678918 178.629932,17.518257 C180.033703,18.2189873 178.980875,17.8686221 179.68276,18.9197175 C180.033703,19.2700827 180.033703,18.9197175 180.033703,19.970813 L180.033703,52.9051361 L187.052561,52.9051361 L187.052561,24.8759249 C187.052561,23.4744644 187.403504,15.4160661 186.701618,14.3649707 C186.350675,13.6642404 186.701618,12.613145 185.297847,11.2116845 L185.297847,11.2116845 L185.297847,11.2116845 L184.595961,10.5109542 C184.245018,10.5109542 184.245018,10.5109542 183.894075,10.160589 C183.192189,9.81022391 180.033703,9.45985877 178.278989,11.2116845 L177.577103,12.9635102 C177.22616,13.3138753 177.22616,13.3138753 177.22616,13.6642404 C175.822389,14.3649707 176.173331,13.3138753 175.822389,12.613145 C175.822389,12.2627799 175.471446,11.9124147 175.471446,11.5620496 C175.120503,11.2116845 175.120503,11.5620496 174.76956,10.8613193 L174.76956,10.8613193 Z" id="Shape"></path>
                            <path d="M102.475324,52.9051361 C103.17721,52.9051361 102.826267,51.5036755 102.826267,51.1533104 L102.826267,20.6715432 L102.826267,18.5693524 C103.17721,17.8686221 103.528153,17.518257 104.580982,17.518257 C105.984753,17.8686221 105.63381,19.6204478 105.63381,21.0219084 L105.63381,52.5547709 C105.63381,53.2555012 105.63381,52.9051361 106.335696,52.9051361 L113.003611,52.9051361 C113.354554,52.9051361 113.354554,52.9051361 113.354554,52.5547709 L113.354554,17.518257 L113.354554,15.7664313 C113.354554,14.7153359 113.354554,15.4160661 113.003611,14.7153359 C113.003611,14.3649707 113.003611,13.6642404 112.652668,13.3138753 C112.652668,12.613145 112.652668,12.9635102 112.301725,12.2627799 C111.950782,10.8613193 110.547011,9.81022391 108.792296,9.81022391 C103.879096,9.81022391 103.528153,13.3138753 103.17721,13.6642404 C102.826267,13.3138753 102.826267,13.6642404 102.826267,12.9635102 C102.475324,11.5620496 103.17721,0.35036514 102.475324,0 L95.1055236,0 L95.1055236,0.700730279 L95.1055236,52.5547709 C95.1055236,52.9051361 95.1055236,52.9051361 95.8074093,52.9051361 L102.475324,52.9051361 L102.475324,52.9051361 Z" id="Shape"></path>
                            <path d="M126.690384,26.6277506 C126.339441,26.9781158 125.637555,26.9781158 124.935669,26.9781158 C123.531898,26.9781158 123.882841,26.9781158 123.882841,23.1240992 C123.882841,21.3722735 123.531898,18.5693524 124.584726,17.1678918 C125.286612,16.4671616 125.988498,16.8175267 126.690384,17.518257 C127.041327,18.5693524 127.041327,26.2773855 126.690384,26.6277506 L126.690384,26.6277506 Z M117.214926,15.4160661 C117.214926,16.4671616 117.214926,15.7664313 116.863983,16.4671616 L116.863983,19.970813 C116.863983,23.4744644 116.51304,45.8978333 116.863983,46.9489287 C116.863983,47.649659 116.863983,47.2992939 117.214926,47.649659 C117.565869,48.3503893 117.214926,47.649659 117.916811,49.4014847 L119.320583,51.1533104 C119.671526,51.5036755 120.373412,52.2044058 120.724355,52.2044058 C121.075298,52.5547709 121.075298,52.5547709 121.42624,52.5547709 C121.777183,52.9051361 123.180955,53.2555012 123.882841,53.2555012 C127.743212,53.6058664 126.339441,53.6058664 129.146984,52.9051361 C130.199813,52.5547709 132.30547,50.8029452 132.656413,49.7518498 C133.007356,49.4014847 133.709242,48.3503893 133.709242,47.649659 C134.060184,45.197103 134.060184,46.9489287 134.411127,45.5474682 L134.411127,36.4379745 L127.041327,36.4379745 L127.041327,44.4963727 L127.041327,45.5474682 C126.690384,46.2481984 127.041327,46.2481984 126.339441,46.2481984 C125.988498,46.9489287 125.286612,46.9489287 124.935669,46.5985636 C123.531898,45.5474682 123.882841,43.4452773 123.882841,41.3430865 C123.882841,39.9416259 123.531898,33.9854185 124.233784,32.9343231 L134.411127,32.9343231 L134.411127,32.583958 L134.411127,18.5693524 C134.411127,16.4671616 134.060184,17.518257 134.060184,16.4671616 C133.709242,15.4160661 134.060184,15.7664313 133.709242,15.065701 L133.007356,13.6642404 L130.901698,11.5620496 C129.146984,10.160589 129.146984,10.8613193 128.445098,10.5109542 C127.39227,9.81022391 127.39227,10.160589 125.637555,10.160589 C121.42624,10.160589 123.531898,10.160589 122.128126,10.5109542 C121.42624,10.5109542 121.075298,10.8613193 120.724355,11.2116845 L120.373412,11.2116845 L120.022469,11.5620496 C118.96964,12.2627799 117.214926,14.0146056 117.214926,15.4160661 L117.214926,15.4160661 Z" id="Shape"></path>
                            <path d="M147.746957,10.8613193 L147.396014,11.5620496 C147.045071,11.5620496 147.045071,11.5620496 147.045071,11.9124147 L145.992243,13.3138753 C145.290357,14.0146056 145.290357,13.6642404 145.290357,13.6642404 C144.588471,13.3138753 144.939414,11.2116845 144.939414,10.5109542 L137.569613,10.5109542 C137.920556,11.5620496 137.920556,30.4817671 137.920556,31.8832277 C137.920556,34.3357837 137.569613,52.2044058 137.920556,52.9051361 C137.920556,53.2555012 144.588471,53.2555012 144.939414,52.9051361 C145.290357,52.5547709 145.290357,51.5036755 145.290357,50.8029452 L145.290357,19.6204478 C145.290357,19.6204478 145.6413,18.2189873 145.6413,17.8686221 C146.343186,17.1678918 147.045071,17.518257 147.746957,17.8686221 L147.746957,18.2189873 C148.0979,18.5693524 147.746957,18.2189873 148.0979,18.5693524 C148.448843,18.9197175 148.448843,19.2700827 148.448843,19.6204478 L148.448843,32.9343231 L155.467701,32.9343231 L155.467701,16.8175267 L155.467701,14.3649707 C155.467701,13.3138753 155.467701,13.6642404 155.116758,13.3138753 C154.765815,12.9635102 154.765815,12.2627799 154.765815,11.9124147 L153.712986,10.5109542 L153.011101,10.160589 C152.660158,10.160589 151.958272,9.81022391 151.607329,9.81022391 C150.905443,9.81022391 149.852615,9.81022391 149.150729,10.160589 C148.799786,10.160589 147.746957,10.8613193 147.746957,10.8613193 L147.746957,10.8613193 Z" id="Shape"></path>
                            <path d="M28.4263742,44.4963727 C29.12826,44.1460076 28.7773171,44.4963727 28.7773171,44.1460076 C29.12826,43.4452773 28.7773171,11.5620496 29.12826,10.5109542 L36.1471178,10.5109542 C36.4980607,11.5620496 36.4980607,48.3503893 36.4980607,52.9051361 L28.7773171,52.9051361 C28.7773171,51.5036755 29.12826,50.102215 28.4263742,49.0511195 C28.0754313,49.0511195 28.4263742,48.7007544 28.0754313,49.0511195 L28.0754313,50.4525801 C27.7244884,51.1533104 27.3735455,50.4525801 27.3735455,51.5036755 C28.0754313,51.1533104 28.0754313,51.1533104 28.0754313,50.4525801 L28.4263742,50.102215 C28.7773171,50.8029452 28.4263742,52.2044058 28.7773171,53.2555012 L36.1471178,53.2555012 C36.8490036,52.9051361 36.4980607,43.7956425 36.4980607,42.744547 L36.4980607,15.4160661 C36.4980607,14.3649707 36.8490036,10.8613193 36.1471178,10.160589 L28.7773171,10.160589 C28.4263742,11.2116845 28.7773171,17.1678918 28.7773171,18.5693524 L28.7773171,35.7372442 C28.7773171,38.5401654 28.7773171,41.6934516 28.4263742,44.4963727 L28.4263742,44.4963727 Z" id="Shape"></path>
                            <path d="M64.9244349,10.8613193 L64.573492,11.2116845 C64.2225491,11.5620496 63.8716062,11.5620496 63.1697204,11.9124147 C62.8187775,12.613145 62.4678347,13.3138753 61.7659489,14.0146056 L62.4678347,13.6642404 C62.8187775,12.9635102 63.1697204,12.613145 63.8716062,11.9124147 C65.2753778,10.8613193 64.573492,11.5620496 65.2753778,10.8613193 C65.9772636,10.8613193 65.2753778,10.8613193 65.9772636,10.5109542 C66.6791494,10.5109542 66.3282065,10.5109542 67.0300922,10.160589 L68.7848067,10.160589 L72.2942356,10.160589 C72.6451785,10.5109542 72.2942356,10.5109542 73.3470643,10.5109542 L74.7508359,11.5620496 C75.4527216,11.9124147 77.558379,14.0146056 77.9093219,15.7664313 C78.2602648,16.4671616 78.2602648,16.4671616 78.6112077,16.8175267 L78.6112077,43.4452773 C78.6112077,44.1460076 78.6112077,46.2481984 78.2602648,46.5985636 C78.2602648,46.9489287 78.2602648,46.5985636 78.2602648,47.2992939 C77.9093219,47.2992939 77.9093219,47.649659 77.9093219,48.0000241 C77.9093219,48.7007544 77.9093219,48.0000241 77.9093219,48.3503893 C77.558379,48.7007544 77.558379,48.7007544 77.558379,49.0511195 C76.8564932,50.4525801 75.4527216,51.5036755 74.399893,52.2044058 L74.0489501,52.5547709 C75.1017787,52.5547709 74.7508359,52.2044058 75.4527216,52.2044058 L76.1546074,51.5036755 C76.5055503,51.1533104 77.558379,49.7518498 77.9093219,49.0511195 C79.3130934,46.2481984 78.9621506,42.3941819 78.9621506,39.2408956 C78.9621506,32.2335928 78.9621506,23.4744644 78.6112077,17.1678918 C78.6112077,16.1167964 77.9093219,15.065701 77.558379,14.0146056 C77.2074361,13.3138753 77.2074361,13.6642404 77.2074361,12.9635102 C76.1546074,10.5109542 71.2414069,9.10949363 68.0829209,9.81022391 C67.0300922,9.81022391 66.6791494,9.81022391 66.3282065,10.160589 C65.9772636,10.160589 64.9244349,10.8613193 64.9244349,10.8613193 L64.9244349,10.8613193 Z" id="Shape"></path>
                            <path d="M47.3772903,18.2189873 L47.7282332,18.2189873 L47.7282332,17.8686221 L47.7282332,17.8686221 L49.1320048,17.8686221 C49.1320048,18.2189873 49.4829477,18.2189873 49.4829477,18.5693524 C49.4829477,18.5693524 49.8338906,18.5693524 49.8338906,18.9197175 L49.8338906,18.9197175 L49.8338906,19.2700827 C49.8338906,18.5693524 49.8338906,18.2189873 49.4829477,17.8686221 C48.430119,16.8175267 48.0791761,17.518257 47.7282332,17.518257 C47.3772903,17.8686221 47.7282332,17.518257 47.3772903,18.2189873 L47.3772903,18.2189873 Z" id="Shape"></path>
                        </g>
                    </g>
                </g>
            </g>
        </g>
    </g>
</svg>