<?xml version="1.0" encoding="UTF-8" standalone="no"?>
<svg width="200px" height="200px" viewBox="0 0 200 200" version="1.1" xmlns="http://www.w3.org/2000/svg" xmlns:xlink="http://www.w3.org/1999/xlink" xmlns:sketch="http://www.bohemiancoding.com/sketch/ns">
    <!-- Generator: Sketch 3.4.2 (15855) - http://www.bohemiancoding.com/sketch -->
    <title>200x200-clientes15</title>
    <desc>Created with Sketch.</desc>
    <defs></defs>
    <g id="Page-1" stroke="none" stroke-width="1" fill="none" fill-rule="evenodd" sketch:type="MSPage">
        <g id="200x200-clientes" sketch:type="MSArtboardGroup">
            <g id="acqua" sketch:type="MSLayerGroup" transform="translate(1.000000, 51.000000)">
                <g id="Layer_x0020_1" sketch:type="MSShapeGroup">
                    <g id="_1028519104">
                        <g id="Group" transform="translate(29.772329, 53.501968)" fill="#C1C1C1">
                            <path d="M105.779335,12.9383844 C106.129597,13.2880705 104.728546,13.2880705 106.830123,13.6377565 L116.287215,13.6377565 L115.936953,17.1346172 L99.1243433,17.1346172 L99.1243433,0 C99.1243433,0.349686065 99.1243433,0 98.7740806,0.69937213 L99.1243433,17.1346172 L116.287215,17.1346172 C116.287215,16.085559 116.637478,14.3371287 116.287215,13.2880705 L105.779335,12.9383844 L105.779335,12.9383844 Z" id="Shape"></path>
                            <path d="M130.647986,9.79120982 C130.647986,11.8893262 130.998249,15.0365008 130.998249,17.1346172 L125.043783,17.1346172 L125.043783,0 L125.043783,17.1346172 L130.998249,17.1346172 C131.348511,16.085559 130.998249,14.6868147 130.998249,13.6377565 L130.998249,11.5396401 C130.998249,10.1408959 130.998249,10.490582 130.647986,9.79120982 L130.647986,9.79120982 Z" id="Shape"></path>
                            <path d="M0,26.925827 C0.350262697,27.6251991 0,27.6251991 1.40105079,27.6251991 C1.75131349,27.6251991 2.45183888,27.6251991 2.80210158,27.2755131 L3.15236427,25.1773967 C2.80210158,25.5270828 2.80210158,24.4780246 2.80210158,26.2264549 L2.80210158,27.2755131 L0,26.925827 L0,26.925827 Z" id="Shape"></path>
                            <path d="M130.647986,8.39246556 C130.998249,6.9937213 130.647986,7.69309343 131.348511,7.69309343 L130.647986,6.64403524 C130.647986,7.69309343 130.297723,7.34340737 130.647986,8.39246556 L130.647986,8.39246556 Z" id="Shape"></path>
                        </g>
                        <g id="Group" transform="translate(3.152364, 4.196233)" fill="#A7A8A8">
                            <path d="M192.994746,90.2190048 L0.700525394,90.5686909 L0.700525394,0 C0.350262697,0.69937213 0.350262697,1.74843033 0.350262697,2.44780246 C0.350262697,15.3861869 -2.63677968e-15,87.4215163 0.350262697,90.5686909 C2.80210158,91.268063 42.732049,90.9183769 48.6865149,90.9183769 L145.359019,90.9183769 L190.542907,90.9183769 C192.644483,90.9183769 192.294221,90.9183769 192.994746,90.2190048 L192.994746,90.2190048 Z" id="Shape"></path>
                            <path d="M183.187391,43.7107581 C183.887916,42.6616999 183.537653,41.9623278 183.537653,40.9132696 L183.537653,38.4654672 C182.136602,37.766095 169.877408,38.1157811 166.725044,38.1157811 C163.922942,38.1157811 164.623468,38.1157811 164.623468,38.4654672 L183.187391,38.4654672 L183.187391,43.7107581 L183.187391,43.7107581 Z" id="Shape"></path>
                        </g>
                        <g id="Group" fill="#939394">
                            <path d="M152.714536,41.2629557 L186.690018,41.2629557 L186.690018,35.6679786 L154.816112,36.0176647 L152.714536,41.2629557 Z" id="Shape"></path>
                            <path d="M13.3099825,41.2629557 L47.2854641,41.2629557 L45.1838879,35.6679786 L12.9597198,35.6679786 L13.3099825,41.2629557 Z" id="Shape"></path>
                            <path d="M199.649737,98.2617843 L199.649737,97.9120982 C199.649737,97.5624122 200.350263,5.94466311 199.649737,0.69937213 C197.898424,-5.55111512e-17 155.8669,0.349686065 149.912434,0.349686065 L99.8248687,0.349686065 L5.95446585,0.349686065 C4.90367776,0.349686065 0.700525394,-5.55111512e-17 0,0.69937213 L199.649737,0.69937213 L199.649737,98.2617843 L199.649737,98.2617843 Z" id="Shape"></path>
                            <path d="M108.581436,48.256677 L110.33275,48.256677 L111.383538,48.256677 L115.58669,48.256677 L107.880911,34.9686065 L106.47986,34.9686065 L102.276708,34.9686065 L100.875657,34.9686065 L108.581436,48.256677 Z" id="Shape"></path>
                            <path d="M80.2101576,80.427795 L80.5604203,84.6240278 L81.9614711,84.6240278 L81.9614711,78.6793647 L79.5096322,78.3296786 L78.4588441,82.8755974 C77.7583187,82.1762253 77.7583187,81.4768532 77.408056,80.777481 C77.408056,79.7284228 77.0577933,79.3787368 76.7075306,78.3296786 L74.6059545,78.6793647 L74.6059545,84.6240278 L76.0070053,84.6240278 L76.357268,80.777481 C77.0577933,82.1762253 76.7075306,82.8755974 77.7583187,84.6240278 L79.1593695,84.6240278 L80.2101576,80.427795 L80.2101576,80.427795 Z" id="Shape"></path>
                            <path d="M60.5954466,79.7284228 L63.7478109,79.7284228 C63.3975482,81.4768532 62.6970228,81.4768532 60.5954466,81.1271671 L60.5954466,79.7284228 L60.5954466,79.7284228 Z M65.1488616,84.6240278 C63.7478109,79.7284228 65.849387,82.5259114 64.7985989,79.0290507 C63.0472855,78.3296786 61.295972,78.3296786 59.1943958,78.3296786 L59.1943958,84.6240278 L60.2451839,84.6240278 C60.5954466,83.9246556 60.5954466,83.2252835 60.9457093,82.1762253 L63.0472855,82.5259114 L63.3975482,84.6240278 L65.1488616,84.6240278 L65.1488616,84.6240278 Z" id="Shape"></path>
                            <path d="M182.136602,80.777481 C182.837128,81.1271671 183.537653,82.1762253 183.887916,83.2252835 C184.938704,84.6240278 184.588441,84.6240278 186.690018,84.6240278 L186.339755,78.3296786 L185.288967,78.3296786 C184.938704,79.3787368 184.938704,81.1271671 184.938704,82.5259114 C182.837128,81.1271671 183.537653,78.3296786 180.735552,78.6793647 L180.385289,84.6240278 L182.136602,84.6240278 L182.136602,82.1762253 L182.136602,80.777481 L182.136602,80.777481 Z" id="Shape"></path>
                            <path d="M93.8704028,79.7284228 C97.0227671,78.3296786 98.0735552,82.8755974 95.6217163,83.5749696 C92.469352,84.6240278 91.7688266,80.777481 93.8704028,79.7284228 L93.8704028,79.7284228 Z M91.0683012,82.1762253 C91.7688266,86.022772 98.7740806,86.022772 98.4238179,81.4768532 C98.0735552,76.9309343 90.7180385,77.6303065 91.0683012,82.1762253 L91.0683012,82.1762253 Z" id="Shape"></path>
                            <path d="M166.725044,79.7284228 C169.877408,78.3296786 170.577933,82.5259114 168.476357,83.5749696 C166.725044,84.6240278 164.97373,82.8755974 165.674256,80.777481 C166.024518,79.7284228 166.024518,80.0781089 166.725044,79.7284228 L166.725044,79.7284228 Z M163.922942,82.5259114 C164.97373,86.3724581 171.628722,85.673086 170.928196,81.1271671 C170.577933,76.9309343 163.222417,77.6303065 163.922942,82.5259114 L163.922942,82.5259114 Z" id="Shape"></path>
                            <path d="M45.5341506,79.7284228 C47.2854641,79.0290507 48.6865149,80.427795 49.3870403,79.0290507 C49.0367776,78.3296786 50.0875657,78.3296786 46.5849387,78.3296786 C45.8844133,78.6793647 44.8336252,78.3296786 44.1330998,78.6793647 L44.1330998,84.6240278 L48.6865149,84.6240278 C49.737303,84.6240278 49.0367776,84.9737138 49.3870403,84.2743417 C49.0367776,83.2252835 48.3362522,83.5749696 45.5341506,83.5749696 C45.5341506,80.427795 47.9859895,83.2252835 49.0367776,81.4768532 C48.3362522,79.7284228 45.5341506,82.5259114 45.5341506,79.7284228 L45.5341506,79.7284228 Z" id="Shape"></path>
                            <path d="M139.054291,79.7284228 C139.754816,79.3787368 141.155867,79.3787368 141.50613,79.7284228 C142.556918,80.427795 141.155867,80.427795 143.607706,80.427795 C143.257443,77.2806204 138.704028,78.3296786 138.003503,79.3787368 C136.252189,82.8755974 141.50613,81.1271671 142.206655,83.2252835 C141.856392,83.5749696 141.155867,84.2743417 140.105079,83.5749696 C138.353765,83.2252835 140.455342,82.8755974 137.65324,82.8755974 C138.704028,86.3724581 144.658494,85.3233999 143.607706,82.1762253 C142.206655,80.0781089 139.754816,82.1762253 139.054291,79.7284228 L139.054291,79.7284228 Z" id="Shape"></path>
                            <path d="M32.9246935,78.6793647 L32.5744308,80.777481 C32.2241681,81.1271671 31.5236427,81.1271671 31.17338,81.1271671 C29.7723292,81.1271671 30.1225919,81.1271671 29.7723292,80.427795 C29.7723292,80.0781089 29.7723292,79.0290507 29.4220665,78.3296786 L28.3712785,78.6793647 L28.0210158,84.6240278 L29.7723292,84.6240278 L29.7723292,81.8265392 L32.5744308,81.8265392 L32.5744308,84.6240278 L34.3257443,84.6240278 C34.3257443,77.9799925 34.676007,78.3296786 32.9246935,78.6793647 L32.9246935,78.6793647 Z" id="Shape"></path>
                            <path d="M122.591944,78.6793647 C121.891419,81.8265392 121.541156,84.9737138 125.394046,84.9737138 C128.896673,84.6240278 128.54641,81.8265392 128.196147,78.6793647 L126.795096,78.6793647 C126.444834,80.427795 127.495622,82.8755974 126.094571,83.5749696 C122.942207,84.9737138 123.992995,79.7284228 123.992995,78.6793647 L122.591944,78.6793647 L122.591944,78.6793647 Z" id="Shape"></path>
                            <path d="M109.281961,79.7284228 L109.632224,79.7284228 L109.632224,79.7284228 L110.33275,79.7284228 L111.383538,79.7284228 C112.784588,79.7284228 112.784588,80.0781089 113.134851,79.0290507 C112.784588,78.3296786 113.485114,78.6793647 112.084063,78.6793647 L107.880911,78.6793647 L107.880911,84.6240278 L108.931699,84.6240278 L109.281961,83.5749696 L109.281961,82.1762253 L111.383538,82.1762253 C112.784588,81.8265392 112.084063,82.1762253 112.434326,81.4768532 C112.084063,80.777481 112.784588,81.1271671 109.281961,81.1271671 L109.281961,79.7284228 L109.281961,79.7284228 Z" id="Shape"></path>
                            <path d="M14.3607706,78.3296786 C12.6094571,78.6793647 13.3099825,78.3296786 12.9597198,79.0290507 C14.0105079,80.0781089 13.3099825,79.3787368 15.4115587,79.7284228 L15.4115587,84.6240278 L16.8126095,84.6240278 L16.8126095,79.7284228 L18.2136602,79.7284228 C19.2644483,79.3787368 18.5639229,79.7284228 18.9141856,79.0290507 C18.5639229,78.3296786 18.9141856,78.6793647 17.8633975,78.3296786 L14.3607706,78.3296786 L14.3607706,78.3296786 Z" id="Shape"></path>
                            <path d="M153.064799,84.6240278 L154.465849,84.6240278 L154.465849,78.6793647 L153.064799,78.6793647 L153.064799,84.6240278 Z" id="Shape"></path>
                        </g>
                        <g id="Group" transform="translate(0.000000, 0.699372)" fill="#444444">
                            <path d="M161.120841,60.4956893 C160.420315,60.4956893 160.770578,59.7963171 160.420315,61.1950614 L160.420315,62.5938057 C160.770578,63.2931778 160.770578,62.9434917 160.770578,64.342236 L160.770578,66.4403524 C160.770578,67.4894106 161.120841,68.8881548 160.770578,69.937213 L154.816112,69.937213 L154.816112,52.8025958 L162.872154,52.8025958 C163.222417,54.5510262 166.024518,62.2441196 166.725044,63.2931778 C167.425569,61.1950614 169.527145,54.2013401 170.227671,52.8025958 L178.283713,52.8025958 L178.283713,69.937213 L172.329247,69.937213 C171.628722,66.4403524 172.67951,62.5938057 172.329247,59.7963171 L168.82662,69.937213 L164.273205,69.937213 C163.57268,68.8881548 161.120841,61.5447475 161.120841,60.4956893 L161.120841,60.4956893 Z M101.225919,52.8025958 C108.581436,52.8025958 112.784588,52.8025958 120.140105,53.1522819 L120.140105,57.3485147 L113.835377,57.6982007 C113.835377,60.8453753 114.185639,67.4894106 113.835377,69.937213 L107.180385,69.937213 L107.180385,57.3485147 L101.225919,57.3485147 L101.225919,52.8025958 L101.225919,52.8025958 Z M135.551664,65.7409802 L146.059545,66.0906663 C146.409807,67.1397245 146.059545,68.8881548 146.059545,69.937213 L128.896673,69.937213 L128.54641,53.501968 C128.896673,52.8025958 128.896673,53.1522819 128.896673,52.8025958 L145.709282,52.8025958 L145.709282,56.9988286 L135.551664,56.9988286 L135.551664,59.4466311 L143.957968,59.4466311 L143.957968,63.2931778 L135.551664,63.2931778 L135.551664,65.7409802 L135.551664,65.7409802 Z M80.910683,64.691922 C82.3117338,65.3912942 81.2609457,65.7409802 83.0122592,66.4403524 C85.8143608,67.1397245 88.6164623,65.7409802 86.5148862,64.342236 C84.41331,62.9434917 75.3064799,63.6428639 75.3064799,57.6982007 C75.3064799,53.851654 79.8598949,52.4529098 84.0630473,52.4529098 C88.6164623,52.4529098 92.469352,53.851654 93.1698774,58.0478868 L87.2154116,58.0478868 C86.8651489,58.0478868 84.0630473,54.9007122 81.9614711,57.3485147 C82.3117338,58.7472589 84.41331,58.7472589 86.1646235,59.096945 C88.966725,59.7963171 93.5201401,60.4956893 93.5201401,63.9925499 C94.2206655,72.7347015 75.3064799,72.3850155 74.9562172,64.691922 L80.910683,64.691922 L80.910683,64.691922 Z M32.9246935,65.3912942 C31.8739054,63.2931778 25.9194396,63.2931778 23.8178634,62.2441196 C22.7670753,61.5447475 21.3660245,60.4956893 21.0157618,59.096945 C19.2644483,50.3547934 37.8283713,50.3547934 38.5288967,58.0478868 L32.9246935,58.0478868 C32.2241681,57.6982007 31.17338,55.9497704 28.7215412,56.6491425 C27.3204904,56.9988286 28.0210158,56.6491425 27.6707531,57.3485147 C28.0210158,59.4466311 32.5744308,58.7472589 36.7775832,60.8453753 C40.6304729,62.9434917 39.5796848,66.7900384 37.4781086,68.5384688 C32.5744308,72.0353294 21.0157618,70.9862712 20.6654991,64.691922 L26.619965,64.691922 C27.6707531,65.0416081 26.9702277,66.0906663 29.4220665,66.4403524 C31.17338,66.7900384 32.2241681,66.4403524 32.9246935,65.3912942 L32.9246935,65.3912942 Z M53.9404553,69.937213 C52.5394046,60.8453753 56.3922942,68.1887827 48.6865149,56.6491425 C47.9859895,55.6000844 46.5849387,54.2013401 46.234676,52.8025958 C53.5901926,52.8025958 53.2399299,52.4529098 54.9912434,55.2503983 C55.3415061,55.9497704 55.6917688,56.2994565 56.0420315,56.9988286 L57.4430823,58.3975729 C57.793345,57.6982007 59.8949212,53.501968 60.9457093,52.8025958 L67.9509632,53.1522819 C67.6007005,54.2013401 66.1996497,55.6000844 65.4991243,56.6491425 C64.4483363,58.0478868 60.5954466,63.2931778 60.5954466,64.342236 C60.2451839,65.7409802 60.5954466,68.1887827 60.2451839,69.937213 L53.9404553,69.937213 L53.9404553,69.937213 Z M13.3099825,73.0843876 L186.690018,73.0843876 L186.690018,49.6554212 L12.9597198,49.6554212 L13.3099825,73.0843876 L13.3099825,73.0843876 Z" id="Shape"></path>
                            <path d="M3.85288967,3.49686065 L196.14711,3.49686065 L196.14711,93.7158655 C195.446585,94.4152376 195.796848,94.4152376 193.695271,94.4152376 L148.511384,94.4152376 L51.8388792,94.4152376 C45.8844133,94.4152376 5.95446585,94.7649236 3.50262697,94.0655515 C3.15236427,90.9183769 3.50262697,18.8830475 3.50262697,5.94466311 C3.50262697,5.24529098 3.50262697,4.19623278 3.85288967,3.49686065 L3.85288967,3.49686065 Z M199.649737,97.5624122 L199.649737,0 L0,0 L0,97.5624122 L199.649737,97.5624122 L199.649737,97.5624122 Z" id="Shape"></path>
                            <path d="M102.62697,40.9132696 C99.8248687,41.9623278 97.7232925,42.6616999 94.5709282,41.2629557 C86.5148862,37.766095 86.8651489,25.5270828 93.8704028,21.680536 C98.7740806,18.8830475 104.728546,20.9811639 107.530648,26.2264549 C109.982487,30.7723737 107.530648,30.4226877 109.632224,33.9195483 C110.33275,35.6679786 112.434326,39.1648393 113.485114,40.2138975 C122.942207,23.0792803 102.62697,6.64403524 86.8651489,18.8830475 C78.4588441,25.5270828 79.5096322,43.011386 93.1698774,47.2076188 C98.0735552,48.6063631 101.225919,47.9069909 105.779335,46.5082467 C105.429072,45.1095024 103.677758,42.3120139 102.62697,40.9132696 L102.62697,40.9132696 Z" id="Shape"></path>
                            <path d="M117.338004,17.1346172 C117.338004,23.4289664 116.287215,37.416409 119.089317,42.3120139 C122.942207,49.6554212 135.901926,50.0051073 140.805604,43.3610721 C143.957968,38.8151532 142.90718,27.2755131 142.90718,21.33085 L142.90718,15.3861869 L136.252189,15.7358729 L136.252189,32.171118 C136.252189,37.416409 135.551664,42.6616999 130.297723,42.6616999 C123.292469,42.6616999 123.992995,33.9195483 123.992995,27.9748852 L123.992995,15.7358729 C121.891419,15.3861869 119.43958,15.3861869 117.338004,15.3861869 L117.338004,17.1346172 L117.338004,17.1346172 Z" id="Shape"></path>
                            <path d="M80.5604203,46.1585606 L80.5604203,39.1648393 C79.5096322,39.5145254 79.8598949,39.1648393 79.1593695,39.8642114 C78.8091068,40.2138975 78.4588441,40.2138975 78.1085814,40.5635836 C75.3064799,42.3120139 71.4535902,42.6616999 68.6514886,41.2629557 C57.793345,35.6679786 63.0472855,18.1836754 74.9562172,20.6314778 C77.7583187,21.33085 78.4588441,22.3799082 80.5604203,23.4289664 L80.5604203,16.4352451 C73.9054291,14.3371287 69.0017513,13.6377565 63.3975482,17.4843033 C52.8896673,24.1283385 53.5901926,39.1648393 63.0472855,45.1095024 C65.4991243,46.5082467 67.9509632,47.5573049 71.1033275,47.9069909 C75.6567426,48.256677 77.0577933,47.2076188 80.5604203,46.1585606 L80.5604203,46.1585606 Z" id="Shape"></path>
                            <path d="M40.9807356,19.5824196 L51.4886165,47.2076188 L58.4938704,46.8579327 L45.5341506,14.6868147 L36.0770578,14.6868147 L28.3712785,33.5698623 L35.3765324,33.5698623 L40.9807356,19.5824196 Z" id="Shape"></path>
                            <path d="M141.155867,47.2076188 L148.511384,47.2076188 L156.217163,26.5761409 C157.267951,24.4780246 157.968476,21.680536 159.019264,19.9321057 C160.420315,22.0302221 163.222417,32.8704901 164.97373,33.5698623 L171.278459,33.5698623 L163.57268,14.6868147 L154.465849,14.6868147 L141.155867,47.2076188 L141.155867,47.2076188 Z" id="Shape"></path>
                            <path d="M32.2241681,41.6126417 L13.3099825,41.6126417 L13.3099825,47.2076188 L30.1225919,47.2076188 L32.2241681,41.6126417 Z" id="Shape"></path>
                            <path d="M186.339755,47.2076188 L186.339755,41.9623278 L167.775832,41.9623278 L169.527145,47.2076188 L186.339755,47.2076188 Z" id="Shape"></path>
                        </g>
                    </g>
                </g>
            </g>
        </g>
    </g>
</svg>