<?xml version="1.0" encoding="UTF-8" standalone="no"?>
<svg width="200px" height="200px" viewBox="0 0 200 200" version="1.1" xmlns="http://www.w3.org/2000/svg" xmlns:xlink="http://www.w3.org/1999/xlink" xmlns:sketch="http://www.bohemiancoding.com/sketch/ns">
    <!-- Generator: Sketch 3.4.2 (15855) - http://www.bohemiancoding.com/sketch -->
    <title>200x200-clientes7</title>
    <desc>Created with Sketch.</desc>
    <defs></defs>
    <g id="Page-1" stroke="none" stroke-width="1" fill="none" fill-rule="evenodd" sketch:type="MSPage">
        <g id="200x200-clientes" sketch:type="MSArtboardGroup" fill="#737374">
            <g id="schneider" sketch:type="MSLayerGroup" transform="translate(1.000000, 70.000000)">
                <g id="Layer_x0020_1" sketch:type="MSShapeGroup">
                    <g id="_1749949120">
                        <path d="M0,8.39246556 C0,13.6377565 1.75131349,15.7358729 6.30472855,17.8339893 C10.1576182,19.9321057 16.1120841,20.6314778 16.1120841,23.7786524 C16.1120841,27.9748852 8.05604203,26.2264549 5.25394046,24.8277106 C3.50262697,24.1283385 2.10157618,23.0792803 0.700525394,22.3799082 L0.700525394,29.3736295 L4.90367776,31.1220598 C9.45709282,32.8704901 17.1628722,32.8704901 20.6654991,29.7233155 C26.2697023,25.5270828 25.5691769,17.1346172 17.5131349,13.6377565 C14.7110333,12.5886983 8.05604203,10.840268 8.05604203,8.39246556 C8.05604203,5.94466311 11.558669,5.94466311 13.6602452,5.94466311 C15.4115587,5.94466311 17.5131349,6.64403524 18.9141856,6.9937213 C23.8178634,8.74215163 23.117338,10.1408959 23.117338,2.79748852 C23.117338,2.09811639 22.0665499,2.09811639 21.3660245,1.74843033 C16.8126095,0 15.4115587,0 11.2084063,0 L10.5078809,0 C5.60420315,0 0,3.49686065 0,8.39246556 L0,8.39246556 Z" id="Shape"></path>
                        <path d="M55.6917688,48.9560491 C60.2451839,48.6063631 60.5954466,50.3547934 61.6462347,45.8088745 C63.7478109,35.6679786 64.4483363,34.9686065 77.7583187,34.9686065 L76.7075306,38.8151532 L72.1541156,38.8151532 C70.4028021,42.3120139 70.7530648,47.9069909 67.9509632,50.7044794 C64.4483363,53.851654 60.2451839,53.501968 54.6409807,53.1522819 L55.6917688,48.9560491 L55.6917688,48.9560491 Z M61.9964974,59.4466311 L58.1436077,59.4466311 C50.4378284,58.3975729 49.0367776,49.6554212 50.4378284,46.5082467 L56.0420315,46.8579327 L57.0928196,44.0604442 L51.4886165,44.0604442 C51.4886165,43.3610721 51.8388792,41.9623278 52.5394046,41.6126417 L57.4430823,41.6126417 L58.4938704,38.8151532 C57.0928196,38.8151532 55.3415061,38.4654672 53.9404553,39.1648393 L55.3415061,37.0667229 C56.7425569,35.6679786 58.8441331,33.5698623 60.5954466,32.5208041 C70.4028021,25.8767688 81.9614711,27.9748852 81.9614711,38.4654672 C81.9614711,39.8642114 81.6112084,39.8642114 81.6112084,41.2629557 L74.9562172,40.9132696 L74.2556918,43.7107581 C75.6567426,44.0604442 79.5096322,44.0604442 80.910683,43.7107581 C80.910683,44.0604442 80.5604203,44.4101303 80.5604203,45.1095024 C80.2101576,45.4591885 80.2101576,45.4591885 79.8598949,46.1585606 L73.9054291,46.1585606 C73.2049037,46.8579327 73.2049037,48.256677 72.854641,48.9560491 L78.1085814,48.9560491 C75.3064799,53.851654 68.6514886,58.3975729 62.6970228,59.4466311 L61.9964974,59.4466311 L61.9964974,59.4466311 Z" id="Shape"></path>
                        <path d="M137.65324,21.680536 C137.65324,14.6868147 142.206655,13.6377565 146.76007,15.7358729 L146.76007,26.2264549 C145.359019,26.5761409 145.359019,27.2755131 143.957968,27.6251991 C140.105079,28.3245713 137.65324,25.1773967 137.65324,21.680536 L137.65324,21.680536 Z M146.76007,11.1899541 C140.105079,8.0427795 130.998249,11.5396401 130.998249,21.33085 C130.998249,26.925827 135.201401,32.171118 139.754816,32.171118 C143.957968,32.171118 142.90718,32.5208041 146.76007,30.4226877 C146.76007,32.5208041 146.409807,32.171118 153.415061,32.171118 L153.415061,0.349686065 C145.008757,0.349686065 146.76007,-1.0490582 146.76007,5.24529098 L146.76007,11.1899541 L146.76007,11.1899541 Z" id="Shape"></path>
                        <path d="M47.9859895,1.0490582 L47.9859895,31.1220598 C47.9859895,31.8214319 47.9859895,32.171118 48.6865149,32.171118 L54.6409807,32.171118 L54.6409807,18.8830475 C54.6409807,17.8339893 57.0928196,15.7358729 57.793345,15.3861869 C64.0980736,12.5886983 62.6970228,24.8277106 62.6970228,28.3245713 C64.0980736,27.6251991 67.2504378,26.925827 69.352014,26.925827 L69.352014,17.1346172 C69.352014,11.1899541 61.6462347,7.34340737 56.0420315,12.2390123 L54.6409807,13.6377565 L54.6409807,0.349686065 L48.6865149,0.349686065 C47.9859895,0.349686065 47.9859895,0.349686065 47.9859895,1.0490582 L47.9859895,1.0490582 Z" id="Shape"></path>
                        <path d="M107.530648,14.3371287 L109.281961,14.3371287 C111.033275,14.3371287 112.784588,16.4352451 112.784588,18.8830475 L104.028021,18.8830475 C104.028021,16.085559 105.779335,14.3371287 107.530648,14.3371287 L107.530648,14.3371287 Z M96.6725044,21.33085 C96.6725044,27.9748852 101.576182,32.171118 107.530648,32.171118 C111.033275,32.171118 111.7338,32.5208041 115.236427,31.4717459 C117.338004,30.4226877 117.688266,29.7233155 118.739054,29.3736295 L118.739054,25.5270828 C117.338004,25.5270828 114.185639,28.6742573 109.982487,28.3245713 C106.47986,27.6251991 104.028021,26.2264549 103.677758,22.3799082 L119.089317,22.3799082 C119.089317,18.8830475 118.388792,15.7358729 115.936953,13.2880705 C114.886165,12.2390123 114.185639,11.8893262 112.784588,11.1899541 C105.779335,8.0427795 96.6725044,11.8893262 96.6725044,21.33085 L96.6725044,21.33085 Z" id="Shape"></path>
                        <path d="M167.775832,14.3371287 L168.82662,14.3371287 C170.928196,14.3371287 172.67951,16.7849311 172.67951,18.8830475 L163.57268,18.8830475 C163.57268,16.4352451 165.323993,14.3371287 167.775832,14.3371287 L167.775832,14.3371287 Z M156.217163,21.33085 C156.217163,27.9748852 161.120841,32.171118 167.425569,32.171118 C176.882662,32.171118 175.481611,30.4226877 178.633975,29.3736295 L178.633975,25.5270828 C177.583187,25.5270828 176.532399,26.5761409 174.430823,27.2755131 C169.877408,29.3736295 163.57268,27.6251991 163.57268,22.3799082 L178.633975,22.3799082 C178.633975,5.24529098 156.217163,6.9937213 156.217163,21.33085 L156.217163,21.33085 Z" id="Shape"></path>
                        <path d="M79.1593695,13.2880705 C79.1593695,9.79120982 80.5604203,10.490582 72.5043783,10.490582 L72.5043783,26.5761409 C74.6059545,26.5761409 77.408056,27.2755131 79.1593695,27.6251991 L79.1593695,19.2327336 C79.1593695,17.8339893 79.5096322,17.4843033 80.5604203,16.4352451 C83.3625219,13.2880705 87.2154116,14.6868147 87.2154116,18.1836754 L87.2154116,32.171118 L94.2206655,32.171118 L94.2206655,17.8339893 C94.2206655,10.840268 87.2154116,8.39246556 81.9614711,11.1899541 C80.5604203,11.8893262 80.2101576,12.5886983 79.1593695,13.2880705 L79.1593695,13.2880705 Z" id="Shape"></path>
                        <path d="M25.5691769,20.6314778 C25.5691769,24.4780246 26.2697023,26.925827 29.0718039,29.3736295 C32.5744308,32.5208041 38.178634,32.8704901 42.3817863,31.8214319 C43.4325744,31.4717459 44.4833625,31.1220598 45.5341506,31.1220598 L45.5341506,25.8767688 C43.0823117,26.925827 40.9807356,27.2755131 38.5288967,27.2755131 C35.7267951,27.2755131 32.9246935,24.8277106 32.9246935,22.0302221 C32.9246935,18.8830475 33.6252189,16.085559 37.4781086,15.3861869 C41.3309982,14.3371287 43.0823117,16.4352451 45.1838879,16.4352451 L45.1838879,11.5396401 C40.6304729,9.44152376 32.9246935,9.44152376 29.0718039,12.9383844 C27.3204904,15.0365008 25.5691769,17.1346172 25.5691769,20.6314778 L25.5691769,20.6314778 Z" id="Shape"></path>
                        <path d="M188.791594,16.085559 L188.791594,12.9383844 C188.791594,9.79120982 189.842382,10.490582 182.837128,10.490582 C182.136602,10.490582 181.78634,10.490582 181.78634,11.1899541 L181.78634,32.171118 C190.192644,32.171118 188.791594,33.2201762 188.791594,27.6251991 C188.791594,23.4289664 188.441331,22.0302221 190.89317,18.5333615 C193.695271,14.3371287 196.847636,17.4843033 198.248687,17.8339893 C198.598949,17.1346172 198.949212,16.085559 199.299475,15.0365008 C199.299475,13.9874426 200,12.9383844 200,11.8893262 C198.949212,11.5396401 193.695271,6.64403524 189.492119,15.0365008 L188.791594,16.085559 L188.791594,16.085559 Z" id="Shape"></path>
                        <path d="M121.541156,11.1899541 L121.541156,32.171118 L127.495622,32.171118 C128.196147,32.171118 128.196147,31.8214319 128.196147,31.1220598 L128.196147,11.1899541 C128.196147,9.79120982 125.744308,10.490582 122.241681,10.490582 C121.541156,10.490582 121.541156,10.490582 121.541156,11.1899541 L121.541156,11.1899541 Z" id="Shape"></path>
                        <path d="M88.2661996,54.2013401 L98.7740806,54.2013401 L98.7740806,51.4038516 L90.7180385,51.4038516 L90.7180385,46.1585606 L98.4238179,46.1585606 L98.4238179,43.7107581 L90.7180385,43.7107581 L90.7180385,38.1157811 L98.4238179,38.1157811 L98.4238179,35.3182926 L88.2661996,35.3182926 L88.2661996,54.2013401 Z" id="Shape"></path>
                        <path d="M119.089317,43.7107581 L119.789842,43.7107581 C121.190893,43.7107581 122.241681,45.1095024 122.241681,46.5082467 L116.287215,46.5082467 C116.987741,45.4591885 117.338004,43.7107581 119.089317,43.7107581 L119.089317,43.7107581 Z M113.835377,46.8579327 C113.835377,49.3057352 113.485114,50.7044794 115.58669,52.4529098 C117.688266,54.5510262 119.789842,54.5510262 122.241681,53.851654 C123.292469,53.501968 123.992995,53.1522819 124.69352,52.8025958 L124.69352,50.3547934 C123.642732,50.7044794 123.642732,51.0541655 122.591944,51.4038516 C119.43958,52.4529098 116.987741,51.7535376 116.287215,48.6063631 L123.992995,48.6063631 C125.043783,48.256677 124.69352,47.9069909 124.69352,46.8579327 C123.642732,38.4654672 113.835377,41.2629557 113.835377,46.8579327 L113.835377,46.8579327 Z" id="Shape"></path>
                        <path d="M130.297723,47.9069909 C130.297723,49.6554212 130.647986,51.0541655 132.049037,52.8025958 C134.500876,55.2503983 137.302977,54.2013401 140.105079,53.501968 L140.105079,51.0541655 C139.054291,51.4038516 138.353765,52.1032237 136.602452,52.1032237 C131.348511,52.1032237 132.049037,42.3120139 138.003503,44.0604442 C139.054291,44.4101303 139.054291,44.7598163 140.105079,45.1095024 L140.105079,42.3120139 C138.353765,41.9623278 138.704028,41.6126417 136.252189,41.6126417 C132.749562,41.6126417 130.297723,44.0604442 130.297723,47.9069909 L130.297723,47.9069909 Z" id="Shape"></path>
                        <path d="M184.938704,46.8579327 L184.938704,48.9560491 C184.938704,52.1032237 188.091068,54.5510262 191.243433,54.5510262 C192.294221,54.5510262 193.695271,53.851654 194.74606,53.501968 L194.74606,51.0541655 C194.74606,51.0541655 187.390543,53.851654 187.390543,47.9069909 C187.390543,46.1585606 188.441331,44.7598163 189.842382,44.0604442 C191.943958,43.3610721 192.994746,44.7598163 194.395797,45.1095024 L194.395797,42.3120139 C192.644483,41.9623278 192.994746,41.6126417 190.192644,41.6126417 C187.390543,41.6126417 184.938704,44.4101303 184.938704,46.8579327 L184.938704,46.8579327 Z" id="Shape"></path>
                        <path d="M146.059545,44.0604442 L148.161121,44.0604442 C148.161121,47.2076188 147.110333,54.5510262 151.663748,54.5510262 C153.415061,54.5510262 154.115587,53.851654 155.166375,53.501968 L155.166375,51.0541655 C155.166375,51.0541655 150.963222,53.1522819 150.963222,50.7044794 L150.963222,44.0604442 L154.465849,44.0604442 L154.465849,41.9623278 L150.963222,41.9623278 L150.963222,39.5145254 C149.912434,39.5145254 146.409807,43.011386 146.059545,44.0604442 L146.059545,44.0604442 Z" id="Shape"></path>
                        <path d="M104.378284,54.2013401 L106.830123,54.2013401 L106.830123,35.3182926 L104.378284,35.3182926 L104.378284,54.2013401 Z" id="Shape"></path>
                        <path d="M163.222417,44.4101303 L163.222417,41.9623278 L160.770578,41.9623278 L160.770578,54.2013401 L163.222417,54.2013401 C163.222417,51.4038516 162.171629,44.0604442 166.024518,44.0604442 C167.425569,44.0604442 167.425569,45.1095024 168.476357,45.1095024 C168.82662,44.0604442 169.176883,44.0604442 169.527145,43.011386 C168.476357,41.6126417 166.374781,40.9132696 164.623468,42.6616999 C163.922942,43.011386 163.922942,43.7107581 163.222417,44.4101303 L163.222417,44.4101303 Z" id="Shape"></path>
                        <path d="M120.84063,4.89560491 C120.84063,8.0427795 124.343257,8.0427795 126.795096,6.29434917 C127.495622,5.94466311 127.845884,5.24529098 128.196147,4.19623278 C131.348511,-1.74843033 120.84063,-1.0490582 120.84063,4.89560491 L120.84063,4.89560491 Z" id="Shape"></path>
                        <path d="M176.182137,53.501968 C176.182137,53.851654 176.532399,54.2013401 176.882662,54.2013401 L178.984238,54.2013401 L178.984238,41.9623278 L176.182137,41.9623278 L176.182137,53.501968 L176.182137,53.501968 Z" id="Shape"></path>
                        <path d="M176.182137,38.8151532 C176.182137,39.8642114 176.532399,39.5145254 177.583187,39.5145254 C178.633975,39.5145254 180.035026,37.0667229 177.93345,37.0667229 C176.882662,37.0667229 176.182137,37.766095 176.182137,38.8151532 L176.182137,38.8151532 Z" id="Shape"></path>
                    </g>
                </g>
            </g>
        </g>
    </g>
</svg>