<?xml version="1.0" encoding="UTF-8" standalone="no"?>
<svg width="200px" height="200px" viewBox="0 0 200 200" version="1.1" xmlns="http://www.w3.org/2000/svg" xmlns:xlink="http://www.w3.org/1999/xlink" xmlns:sketch="http://www.bohemiancoding.com/sketch/ns">
    <!-- Generator: Sketch 3.4.2 (15855) - http://www.bohemiancoding.com/sketch -->
    <title>200x200-clientes6</title>
    <desc>Created with Sketch.</desc>
    <defs></defs>
    <g id="Page-1" stroke="none" stroke-width="1" fill="none" fill-rule="evenodd" sketch:type="MSPage">
        <g id="200x200-clientes" sketch:type="MSArtboardGroup">
            <g id="sigas" sketch:type="MSLayerGroup" transform="translate(1.000000, 50.000000)">
                <g id="Layer_x0020_1" sketch:type="MSShapeGroup">
                    <g id="_1745243984">
                        <g id="Group" transform="translate(39.229422, 77.979993)" fill="#A7A8A8">
                            <path d="M10.8581436,6.29434917 L10.8581436,8.74215163 C10.1576182,8.74215163 4.20315236,8.39246556 3.15236427,8.74215163 L3.15236427,12.9383844 C4.20315236,12.9383844 10.1576182,12.5886983 11.558669,12.9383844 C11.558669,13.2880705 11.9089317,14.6868147 11.558669,15.0365008 C11.558669,15.3861869 1.05078809,15.3861869 0.350262697,15.0365008 L0.350262697,0.349686065 L11.2084063,0.349686065 C11.558669,0.69937213 11.558669,2.09811639 11.2084063,2.79748852 C9.80735552,2.79748852 4.20315236,2.44780246 3.15236427,2.79748852 L3.15236427,5.94466311 C3.50262697,6.29434917 3.50262697,6.29434917 3.85288967,6.29434917 L4.20315236,6.29434917 L10.8581436,6.29434917 L10.8581436,6.29434917 Z M3.50262697,8.74215163 L10.8581436,8.74215163 L10.8581436,6.64403524 L10.8581436,6.29434917 C10.8581436,6.29434917 10.8581436,6.29434917 10.5078809,5.94466311 C8.75656743,5.94466311 4.20315236,6.29434917 3.50262697,5.94466311 C3.15236427,5.94466311 3.15236427,3.14717459 3.50262697,2.79748852 C4.20315236,2.79748852 11.2084063,3.14717459 11.558669,2.79748852 L11.558669,0.349686065 C11.2084063,-4.4408921e-15 6.65499124,0.349686065 5.95446585,0.349686065 C5.25394046,0.349686065 0.350262697,-4.4408921e-15 0.350262697,0.349686065 L0.350262697,0.349686065 L0.350262697,13.6377565 C0.350262697,13.9874426 -4.74620343e-15,15.0365008 0.350262697,15.3861869 L5.95446585,15.3861869 L11.2084063,15.3861869 L11.9089317,15.3861869 L11.9089317,12.9383844 C11.2084063,12.5886983 4.20315236,12.9383844 3.50262697,12.5886983 C3.15236427,12.2390123 3.15236427,9.79120982 3.50262697,9.09183769 C3.50262697,8.74215163 3.15236427,8.74215163 3.50262697,8.74215163 L3.50262697,8.74215163 Z" id="Shape"></path>
                            <path d="M24.1681261,6.29434917 C22.7670753,6.64403524 23.117338,6.64403524 21.7162872,6.64403524 L18.9141856,6.64403524 C18.9141856,6.29434917 18.5639229,3.14717459 18.9141856,2.79748852 L23.4676007,2.79748852 C23.117338,2.44780246 21.7162872,2.79748852 21.3660245,2.79748852 C18.2136602,2.79748852 18.5639229,2.09811639 18.5639229,4.54591885 C18.5639229,6.9937213 17.8633975,6.64403524 21.3660245,6.64403524 C22.0665499,6.64403524 23.4676007,6.64403524 23.8178634,6.29434917 L24.1681261,6.29434917 L24.1681261,6.29434917 Z" id="Shape"></path>
                        </g>
                        <g id="Group" transform="translate(39.229422, 77.630306)" fill="#414242">
                            <path d="M3.50262697,9.09183769 C3.15236427,9.09183769 3.50262697,9.09183769 3.50262697,9.44152376 C3.15236427,10.1408959 3.15236427,12.5886983 3.50262697,12.9383844 C4.20315236,13.2880705 11.2084063,12.9383844 11.9089317,13.2880705 L11.9089317,15.7358729 L11.2084063,15.7358729 L5.95446585,15.7358729 L0.350262697,15.7358729 C0,15.3861869 0.350262697,14.3371287 0.350262697,13.9874426 L0.350262697,0.69937213 L0.350262697,0.69937213 C0.350262697,0.349686065 5.25394046,0.69937213 5.95446585,0.69937213 C6.65499124,0.69937213 11.2084063,0.349686065 11.558669,0.69937213 L11.558669,3.14717459 C11.2084063,3.49686065 4.20315236,3.14717459 3.50262697,3.14717459 C3.15236427,3.49686065 3.15236427,6.29434917 3.50262697,6.29434917 C4.20315236,6.64403524 8.75656743,6.29434917 10.5078809,6.29434917 L10.8581436,6.64403524 C10.8581436,6.64403524 10.8581436,6.29434917 10.8581436,6.9937213 L10.8581436,9.09183769 L11.2084063,9.09183769 C11.2084063,8.74215163 11.2084063,6.64403524 10.8581436,6.64403524 C10.1576182,5.94466311 4.90367776,6.64403524 3.50262697,6.29434917 L3.50262697,3.14717459 L7.70577933,3.14717459 C12.2591944,3.14717459 11.558669,3.84654672 11.558669,1.74843033 L11.558669,0.349686065 L1.40105079,0.349686065 C0.700525394,0.349686065 0.350262697,0.349686065 0,0.69937213 L0,15.0365008 C0,15.3861869 0,15.3861869 0.350262697,15.7358729 C0.700525394,16.085559 2.80210158,15.7358729 3.15236427,15.7358729 L5.95446585,15.7358729 C6.65499124,15.7358729 11.558669,16.085559 11.9089317,15.7358729 L11.9089317,13.2880705 C11.558669,12.9383844 11.558669,12.9383844 10.8581436,12.9383844 L3.50262697,12.9383844 L3.50262697,9.09183769 L3.50262697,9.09183769 Z" id="Shape"></path>
                            <path d="M71.8038529,4.54591885 L71.8038529,6.64403524 L77.7583187,6.64403524 C78.1085814,6.64403524 78.1085814,6.64403524 78.1085814,6.9937213 L78.1085814,9.09183769 C76.0070053,9.44152376 73.9054291,9.44152376 71.8038529,9.44152376 C71.8038529,10.1408959 72.1541156,15.0365008 71.8038529,15.7358729 L69.352014,15.7358729 C68.6514886,15.7358729 69.0017513,15.3861869 69.0017513,14.3371287 L69.0017513,1.39874426 C69.0017513,1.0490582 68.6514886,0.69937213 69.352014,0.69937213 C72.1541156,0.69937213 75.6567426,0.349686065 78.4588441,0.69937213 L79.1593695,0.69937213 L79.1593695,2.09811639 C79.1593695,2.44780246 79.5096322,3.14717459 79.1593695,3.14717459 L72.1541156,3.14717459 C71.8038529,3.14717459 71.8038529,3.84654672 71.8038529,4.54591885 L71.8038529,4.54591885 Z M68.6514886,1.39874426 L68.6514886,15.0365008 C68.6514886,16.085559 68.6514886,15.7358729 70.0525394,15.7358729 L71.8038529,15.7358729 C72.1541156,15.3861869 71.8038529,10.490582 72.1541156,9.44152376 L77.7583187,9.44152376 C78.1085814,9.44152376 78.1085814,9.44152376 78.4588441,9.09183769 C78.4588441,8.74215163 78.4588441,6.9937213 78.1085814,6.64403524 C78.1085814,6.29434917 73.9054291,6.64403524 73.2049037,6.64403524 L72.1541156,6.64403524 L72.1541156,3.14717459 C73.2049037,3.14717459 78.1085814,3.49686065 79.1593695,3.14717459 C79.5096322,3.14717459 79.5096322,2.79748852 79.5096322,2.09811639 C79.5096322,-5.55111512e-17 79.8598949,0.349686065 77.0577933,0.349686065 L69.352014,0.349686065 C68.6514886,0.349686065 68.6514886,0.349686065 68.6514886,1.39874426 L68.6514886,1.39874426 Z" id="Shape"></path>
                            <path d="M35.3765324,5.59497704 C35.3765324,5.59497704 35.3765324,4.54591885 35.0262697,4.54591885 L35.0262697,4.89560491 L35.0262697,5.24529098 L35.0262697,12.9383844 L35.0262697,15.7358729 L32.2241681,15.7358729 C31.8739054,15.3861869 32.2241681,3.84654672 32.2241681,1.39874426 L32.2241681,0.69937213 C32.5744308,0.349686065 36.4273205,0.69937213 36.7775832,0.69937213 L37.1278459,2.09811639 C37.1278459,2.44780246 37.1278459,2.79748852 37.4781086,3.14717459 C37.4781086,3.49686065 37.4781086,3.84654672 37.8283713,4.19623278 C37.8283713,3.49686065 37.4781086,2.79748852 37.1278459,2.09811639 C36.7775832,-7.77156117e-16 37.4781086,0.349686065 32.9246935,0.349686065 C32.5744308,0.349686065 32.2241681,0.349686065 31.8739054,0.69937213 L31.8739054,13.6377565 C31.8739054,13.9874426 31.8739054,15.7358729 32.2241681,15.7358729 C32.5744308,15.7358729 34.676007,16.085559 35.0262697,15.7358729 C35.3765324,15.0365008 35.0262697,6.64403524 35.0262697,4.89560491 C35.3765324,5.24529098 35.3765324,5.24529098 35.3765324,5.59497704 C35.3765324,5.94466311 35.3765324,5.59497704 35.3765324,5.59497704 L35.3765324,5.59497704 Z" id="Shape"></path>
                        </g>
                        <g id="Group" transform="translate(0.000000, 3.846547)" fill="#000000">
                            <path d="M154.115587,89.5196327 L154.115587,74.8328179 C154.115587,74.1334458 153.765324,74.4831319 156.567426,74.4831319 L157.267951,74.4831319 L157.267951,89.1699466 C157.267951,89.5196327 156.917688,89.5196327 155.8669,89.5196327 L154.115587,89.5196327 L154.115587,89.5196327 Z M134.500876,83.5749696 C134.500876,85.3233999 134.150613,87.7712023 132.399299,88.8202605 L132.049037,88.8202605 L132.049037,88.8202605 C131.348511,89.5196327 130.647986,89.5196327 129.597198,89.5196327 C129.246935,89.8693187 128.196147,89.8693187 127.495622,89.8693187 C125.394046,89.5196327 122.942207,88.4705745 122.591944,86.3724581 L122.241681,85.3233999 L122.241681,75.8818761 C122.241681,74.4831319 121.891419,74.4831319 122.591944,74.4831319 L124.69352,74.4831319 C125.043783,74.4831319 125.394046,74.1334458 125.394046,74.8328179 C125.394046,76.9309343 125.043783,83.9246556 125.394046,85.3233999 C125.744308,87.0718302 128.196147,87.4215163 129.597198,87.0718302 C130.998249,86.3724581 131.348511,85.3233999 131.348511,83.9246556 L131.348511,75.182504 C131.348511,74.4831319 130.998249,74.4831319 131.698774,74.4831319 L134.500876,74.4831319 L134.500876,83.5749696 L134.500876,83.5749696 Z M31.8739054,89.5196327 L31.8739054,82.8755974 L25.9194396,82.8755974 L25.9194396,87.7712023 C25.9194396,89.8693187 26.2697023,89.5196327 24.5183888,89.5196327 C22.4168126,89.5196327 22.7670753,90.2190048 22.7670753,85.673086 L22.7670753,76.2315622 L22.7670753,74.4831319 L22.7670753,74.4831319 C23.117338,74.1334458 24.1681261,74.4831319 24.5183888,74.4831319 C26.2697023,74.4831319 25.9194396,73.7837597 25.9194396,77.2806204 L25.9194396,80.0781089 C26.619965,80.427795 31.17338,80.427795 31.8739054,80.0781089 C31.8739054,79.0290507 31.8739054,74.4831319 32.2241681,74.4831319 C32.5744308,74.1334458 33.2749562,74.1334458 33.6252189,74.1334458 C35.7267951,74.1334458 35.0262697,73.7837597 35.0262697,77.9799925 C35.0262697,79.3787368 35.3765324,88.8202605 35.0262697,89.5196327 L32.9246935,89.5196327 L32.2241681,89.5196327 C31.8739054,89.5196327 32.2241681,89.5196327 31.8739054,89.5196327 L31.8739054,89.5196327 Z M160.770578,81.8265392 L160.770578,79.7284228 C161.120841,78.6793647 160.770578,78.6793647 161.471103,77.9799925 L161.471103,77.6303065 C161.821366,77.6303065 161.821366,77.2806204 161.821366,77.2806204 L162.521891,76.2315622 C162.872154,75.8818761 163.222417,75.5321901 163.57268,75.5321901 C164.97373,74.4831319 165.674256,74.4831319 167.075306,74.1334458 C168.126095,73.7837597 169.527145,74.1334458 170.577933,74.4831319 C170.928196,74.4831319 170.928196,74.4831319 171.278459,74.8328179 L171.628722,74.8328179 C171.628722,75.182504 171.978984,75.182504 171.978984,75.182504 C172.67951,75.5321901 173.029772,75.5321901 173.380035,76.2315622 C175.481611,78.6793647 175.831874,82.5259114 174.781086,85.3233999 C174.430823,86.3724581 174.08056,86.7221441 173.380035,87.7712023 C172.67951,88.8202605 172.329247,88.8202605 171.278459,89.1699466 C169.527145,90.2190048 166.374781,89.8693187 164.623468,89.1699466 C164.273205,88.8202605 163.57268,88.4705745 162.872154,88.1208884 C162.872154,87.7712023 162.872154,87.7712023 162.521891,87.4215163 C162.171629,87.0718302 161.821366,86.7221441 161.471103,86.022772 C161.471103,86.022772 161.471103,86.022772 161.471103,85.673086 C161.471103,85.673086 161.120841,85.3233999 161.120841,84.9737138 C160.770578,83.9246556 160.770578,82.8755974 160.770578,81.8265392 L160.770578,81.8265392 Z M89.6672504,82.1762253 C89.6672504,81.4768532 90.0175131,79.7284228 90.0175131,78.6793647 C90.7180385,76.9309343 91.7688266,75.5321901 93.5201401,74.8328179 C95.6217163,73.7837597 98.0735552,74.1334458 100.175131,74.4831319 C100.525394,74.8328179 100.875657,75.182504 101.225919,75.182504 C101.926445,75.8818761 102.276708,75.8818761 102.62697,76.5812483 C103.677758,77.9799925 104.378284,79.7284228 104.378284,81.4768532 C104.378284,82.5259114 104.378284,83.9246556 104.028021,84.9737138 C104.028021,85.3233999 103.677758,85.3233999 103.677758,85.673086 C102.977233,87.4215163 101.225919,89.1699466 99.1243433,89.5196327 C98.4238179,89.5196327 98.4238179,89.8693187 97.3730298,89.8693187 C95.971979,89.8693187 95.2714536,89.8693187 94.2206655,89.1699466 C93.5201401,89.1699466 92.1190893,88.4705745 91.7688266,87.7712023 L91.4185639,87.4215163 C91.0683012,87.0718302 90.7180385,86.022772 90.3677758,85.673086 C89.6672504,84.2743417 90.0175131,83.2252835 89.6672504,82.1762253 L89.6672504,82.1762253 Z M181.78634,89.5196327 L178.984238,89.5196327 L178.984238,74.4831319 C179.684764,74.4831319 181.78634,74.1334458 182.136602,74.4831319 C182.136602,74.4831319 182.486865,75.182504 182.837128,75.5321901 C182.837128,75.8818761 183.187391,75.8818761 183.187391,76.2315622 L185.639229,79.7284228 C185.989492,80.427795 185.989492,81.1271671 186.690018,81.8265392 L187.740806,83.5749696 C188.091068,83.9246556 188.091068,83.9246556 188.091068,84.2743417 L188.091068,83.9246556 C188.441331,83.9246556 188.091068,83.2252835 188.091068,82.8755974 L188.091068,74.8328179 C188.091068,74.1334458 188.441331,74.4831319 189.842382,74.4831319 C191.593695,74.4831319 191.243433,74.1334458 191.243433,76.2315622 L191.243433,89.5196327 L188.791594,89.5196327 C188.441331,89.5196327 188.091068,89.5196327 187.740806,89.1699466 L183.887916,82.8755974 C183.537653,82.1762253 182.837128,81.1271671 182.486865,80.427795 C182.486865,80.427795 182.486865,80.427795 182.136602,80.0781089 C182.136602,80.0781089 182.136602,80.0781089 182.136602,79.7284228 C181.78634,80.427795 182.136602,88.8202605 181.78634,89.5196327 L181.78634,89.5196327 Z M54.9912434,74.8328179 C54.9912434,74.1334458 54.9912434,74.4831319 55.3415061,74.4831319 C57.0928196,74.4831319 63.0472855,74.1334458 63.7478109,74.4831319 C64.4483363,74.4831319 64.7985989,74.8328179 65.4991243,74.8328179 C65.849387,75.182504 66.1996497,75.8818761 66.5499124,76.2315622 C67.2504378,77.2806204 67.6007005,79.3787368 66.9001751,80.427795 C66.5499124,81.1271671 66.9001751,80.777481 66.5499124,81.1271671 C65.849387,81.8265392 65.849387,81.8265392 65.1488616,82.1762253 C64.7985989,82.5259114 64.4483363,82.5259114 64.0980736,82.5259114 C64.0980736,82.5259114 63.7478109,82.5259114 63.7478109,82.8755974 L63.7478109,82.8755974 C63.7478109,83.2252835 63.7478109,82.8755974 64.0980736,83.2252835 C64.0980736,83.2252835 64.0980736,83.5749696 64.4483363,83.5749696 C65.1488616,84.2743417 65.4991243,84.9737138 66.1996497,86.022772 C66.5499124,86.3724581 66.5499124,86.7221441 66.9001751,86.7221441 L68.3012259,89.1699466 C68.3012259,89.1699466 68.3012259,89.1699466 68.3012259,89.5196327 L65.1488616,89.5196327 C64.7985989,89.5196327 64.7985989,89.5196327 64.7985989,89.1699466 C64.0980736,88.8202605 64.0980736,88.4705745 63.7478109,87.7712023 C63.3975482,87.4215163 63.3975482,87.4215163 63.3975482,87.0718302 C63.0472855,87.0718302 63.0472855,87.0718302 63.0472855,86.7221441 C62.6970228,86.3724581 62.6970228,86.3724581 62.6970228,86.022772 C60.9457093,83.5749696 60.5954466,83.2252835 58.1436077,83.2252835 C57.793345,84.6240278 58.1436077,87.4215163 58.1436077,88.8202605 C58.1436077,89.5196327 58.1436077,89.5196327 57.0928196,89.5196327 L54.9912434,89.5196327 L54.9912434,74.8328179 L54.9912434,74.8328179 Z M75.3064799,81.8265392 L75.3064799,81.8265392 L74.6059545,79.3787368 C74.6059545,79.3787368 74.6059545,79.7284228 74.6059545,79.3787368 C74.6059545,79.0290507 74.6059545,79.0290507 74.2556918,78.6793647 C74.2556918,80.427795 74.6059545,88.8202605 74.2556918,89.5196327 C73.9054291,89.8693187 71.8038529,89.5196327 71.4535902,89.5196327 C71.1033275,89.5196327 71.1033275,87.7712023 71.1033275,87.4215163 L71.1033275,74.4831319 C71.4535902,74.1334458 71.8038529,74.1334458 72.1541156,74.1334458 C76.7075306,74.1334458 76.0070053,73.7837597 76.357268,75.8818761 C76.7075306,76.5812483 77.0577933,77.2806204 77.0577933,77.9799925 C77.0577933,77.9799925 78.1085814,82.1762253 78.1085814,82.8755974 C78.4588441,83.2252835 78.4588441,83.2252835 78.4588441,83.5749696 C78.4588441,83.9246556 78.4588441,83.9246556 78.8091068,84.2743417 L78.8091068,84.2743417 L78.8091068,84.2743417 C79.5096322,82.5259114 79.5096322,81.1271671 80.2101576,79.3787368 L80.5604203,78.3296786 C80.910683,77.2806204 80.910683,75.5321901 81.6112084,74.4831319 C81.9614711,74.1334458 84.41331,74.4831319 85.4640981,74.4831319 L85.8143608,74.4831319 C86.1646235,74.4831319 86.1646235,74.8328179 86.1646235,76.2315622 L86.1646235,88.4705745 L86.1646235,89.1699466 C86.1646235,89.5196327 85.8143608,89.5196327 85.8143608,89.5196327 L83.3625219,89.5196327 C83.0122592,89.1699466 83.0122592,88.4705745 83.0122592,88.1208884 L83.0122592,79.7284228 C83.0122592,79.3787368 83.3625219,78.6793647 83.0122592,78.3296786 C82.6619965,78.3296786 83.0122592,78.3296786 83.0122592,79.0290507 C82.6619965,79.3787368 82.6619965,80.427795 82.3117338,81.1271671 C82.3117338,81.4768532 81.9614711,82.1762253 81.9614711,82.5259114 L80.5604203,88.1208884 C80.5604203,88.8202605 80.5604203,89.1699466 80.2101576,89.5196327 L77.408056,89.5196327 C77.0577933,89.1699466 77.0577933,88.8202605 77.0577933,88.4705745 L75.3064799,81.8265392 L75.3064799,81.8265392 Z M50.0875657,82.8755974 L42.732049,82.8755974 L42.732049,86.7221441 L50.0875657,86.7221441 C50.7880911,86.7221441 50.7880911,86.7221441 51.1383538,87.0718302 L51.1383538,89.5196327 C50.7880911,89.8693187 45.8844133,89.5196327 45.1838879,89.5196327 L42.3817863,89.5196327 C42.0315236,89.5196327 39.9299475,89.8693187 39.5796848,89.5196327 C39.2294221,89.1699466 39.2294221,89.1699466 39.2294221,88.8202605 L39.2294221,74.4831319 C39.5796848,74.1334458 39.9299475,74.1334458 40.6304729,74.1334458 L50.7880911,74.1334458 L50.7880911,75.5321901 C50.7880911,77.6303065 51.4886165,76.9309343 46.9352014,76.9309343 L42.732049,76.9309343 L42.732049,80.0781089 C44.1330998,80.427795 49.3870403,79.7284228 50.0875657,80.427795 C50.4378284,80.427795 50.4378284,82.5259114 50.4378284,82.8755974 L50.0875657,82.8755974 L50.0875657,82.8755974 Z M7.70577933,76.9309343 C7.35551664,76.5812483 7.70577933,75.5321901 7.70577933,75.182504 C7.70577933,74.1334458 7.70577933,74.1334458 8.75656743,74.1334458 L18.9141856,74.1334458 C19.9649737,74.1334458 19.614711,74.1334458 19.614711,75.5321901 C19.614711,77.2806204 19.9649737,76.9309343 18.9141856,76.9309343 L15.4115587,76.9309343 L15.4115587,89.5196327 L11.9089317,89.5196327 L11.9089317,76.9309343 L7.70577933,76.9309343 L7.70577933,76.9309343 Z M107.880911,75.182504 C107.880911,74.1334458 107.880911,74.1334458 108.581436,74.1334458 L116.287215,74.1334458 C119.089317,74.1334458 118.739054,73.7837597 118.739054,75.8818761 C118.739054,76.5812483 118.739054,76.9309343 118.388792,76.9309343 C117.338004,77.2806204 112.434326,76.9309343 111.383538,76.9309343 L111.383538,80.427795 L112.434326,80.427795 C113.134851,80.427795 117.338004,80.0781089 117.338004,80.427795 C117.688266,80.777481 117.688266,82.5259114 117.688266,82.8755974 C117.338004,83.2252835 117.338004,83.2252835 116.987741,83.2252835 L111.383538,83.2252835 C111.033275,84.2743417 111.383538,89.1699466 111.033275,89.5196327 L109.281961,89.5196327 C107.880911,89.5196327 107.880911,89.8693187 107.880911,88.8202605 L107.880911,75.182504 L107.880911,75.182504 Z M138.353765,84.6240278 C138.353765,84.6240278 139.404553,84.2743417 139.754816,84.2743417 C140.805604,84.2743417 140.805604,84.2743417 141.155867,84.6240278 L141.155867,85.3233999 C141.50613,85.3233999 141.50613,85.673086 141.50613,85.673086 C142.206655,87.0718302 143.957968,87.4215163 145.359019,87.0718302 L145.709282,87.0718302 C147.110333,86.7221441 147.460595,85.3233999 147.110333,84.2743417 C147.110333,84.2743417 146.409807,83.9246556 146.409807,83.5749696 C145.709282,83.5749696 144.308231,83.2252835 143.607706,82.8755974 C143.257443,82.8755974 142.90718,82.8755974 142.206655,82.5259114 C140.805604,82.1762253 139.404553,81.1271671 138.704028,79.7284228 L138.704028,77.9799925 C138.704028,77.2806204 139.054291,75.8818761 139.754816,75.5321901 L140.105079,75.5321901 C140.805604,74.8328179 140.455342,74.8328179 141.50613,74.4831319 C142.206655,74.1334458 143.607706,74.1334458 144.308231,74.1334458 C145.008757,74.1334458 146.76007,74.4831319 147.110333,74.4831319 C147.810858,74.8328179 148.511384,75.5321901 148.861646,75.8818761 C149.211909,76.5812483 149.562172,76.5812483 149.562172,76.9309343 C150.262697,79.0290507 149.912434,78.6793647 148.511384,78.6793647 C147.110333,78.6793647 147.110333,79.0290507 146.76007,78.3296786 C146.76007,77.6303065 146.409807,77.2806204 145.709282,76.9309343 C145.359019,76.5812483 143.607706,76.5812483 142.90718,76.9309343 C140.805604,77.2806204 141.50613,78.6793647 142.206655,79.0290507 C142.206655,79.3787368 142.556918,79.3787368 142.556918,79.3787368 C143.257443,79.7284228 143.607706,79.7284228 144.308231,79.7284228 C144.658494,80.0781089 144.658494,80.0781089 145.008757,80.0781089 C145.709282,80.427795 146.059545,80.427795 146.409807,80.427795 C146.76007,80.777481 147.460595,80.777481 147.460595,80.777481 C148.511384,81.1271671 149.562172,82.1762253 150.262697,83.2252835 L150.262697,83.5749696 L150.262697,85.3233999 L150.262697,86.7221441 C149.562172,87.7712023 148.861646,88.8202605 147.460595,89.1699466 C146.409807,89.8693187 144.308231,89.8693187 142.90718,89.8693187 L141.856392,89.5196327 C139.754816,88.8202605 138.353765,87.0718302 138.003503,85.3233999 L138.003503,84.9737138 L138.003503,84.6240278 L138.353765,84.6240278 L138.353765,84.6240278 Z M96.6725044,41.9623278 C94.9211909,41.9623278 93.8704028,41.2629557 92.8196147,40.2138975 C92.1190893,39.5145254 91.4185639,37.766095 91.4185639,36.3673508 C91.7688266,34.9686065 91.7688266,35.3182926 92.1190893,34.2692344 C92.469352,33.5698623 93.5201401,32.5208041 93.8704028,32.171118 C94.9211909,31.4717459 95.6217163,31.1220598 97.0227671,31.1220598 C99.1243433,31.1220598 101.225919,32.5208041 101.926445,34.2692344 C102.276708,34.9686065 102.62697,36.0176647 102.62697,36.7170368 L102.276708,37.766095 C102.276708,38.4654672 102.276708,38.4654672 101.926445,38.8151532 C101.576182,39.5145254 101.225919,39.8642114 100.875657,40.2138975 C99.8248687,41.6126417 98.4238179,41.9623278 96.6725044,41.9623278 L96.6725044,41.9623278 Z M104.378284,60.1460032 C104.728546,60.4956893 105.429072,61.8944335 105.429072,62.2441196 C105.779335,62.5938057 105.779335,63.6428639 105.779335,63.9925499 C105.429072,65.3912942 104.728546,66.4403524 104.028021,67.1397245 C103.677758,67.1397245 103.677758,67.1397245 103.327496,67.4894106 C103.327496,67.4894106 103.327496,67.4894106 102.977233,67.4894106 L102.276708,67.8390966 L100.525394,67.8390966 L14.3607706,67.8390966 L0,67.8390966 L0,96.1636679 L0,96.1636679 C0.350262697,96.513354 11.2084063,96.1636679 12.6094571,96.1636679 L174.781086,96.1636679 L199.649737,96.1636679 L199.649737,92.6668073 C199.649737,88.8202605 200,68.5384688 199.649737,67.8390966 L199.649737,67.8390966 L199.299475,67.8390966 L198.949212,67.8390966 L198.248687,67.8390966 L133.099825,67.8390966 C131.348511,67.8390966 111.7338,68.1887827 111.383538,67.8390966 C111.383538,67.4894106 111.383538,67.8390966 111.383538,67.8390966 L112.084063,66.7900384 C112.434326,66.4403524 112.434326,66.4403524 112.784588,65.7409802 C112.784588,65.7409802 112.784588,65.3912942 113.134851,65.3912942 C113.134851,64.342236 113.134851,65.3912942 113.835377,62.9434917 C113.835377,61.8944335 113.835377,60.8453753 113.485114,59.7963171 L113.485114,58.7472589 C113.485114,58.0478868 113.134851,57.6982007 112.784588,56.9988286 C112.784588,56.9988286 112.784588,56.9988286 112.434326,56.6491425 L111.7338,55.9497704 C111.033275,54.9007122 109.982487,54.5510262 109.281961,53.851654 L108.931699,53.851654 C107.880911,53.501968 107.530648,53.1522819 106.129597,52.8025958 L101.225919,52.1032237 L99.474606,52.1032237 C99.1243433,52.1032237 97.3730298,51.7535376 97.0227671,51.7535376 L96.6725044,51.4038516 C95.2714536,51.0541655 95.2714536,48.9560491 97.0227671,48.256677 L98.4238179,48.256677 C99.1243433,48.256677 99.1243433,47.9069909 99.474606,47.9069909 L100.875657,47.9069909 C101.576182,47.9069909 102.62697,47.9069909 103.327496,47.5573049 C104.028021,47.2076188 104.028021,47.2076188 104.728546,47.2076188 C105.429072,46.8579327 106.47986,46.5082467 107.180385,45.8088745 L109.281961,44.4101303 L109.281961,44.4101303 L109.982487,43.7107581 C110.33275,43.3610721 111.033275,42.3120139 111.383538,41.6126417 C111.7338,40.9132696 112.084063,39.8642114 112.434326,39.1648393 L112.434326,35.6679786 C111.7338,33.9195483 111.383538,33.2201762 110.33275,31.8214319 C109.982487,31.4717459 109.632224,31.4717459 109.632224,31.1220598 L112.434326,31.1220598 L114.535902,31.1220598 L114.886165,31.1220598 C115.236427,30.7723737 115.236427,24.4780246 114.886165,24.4780246 C114.886165,24.1283385 114.886165,24.1283385 114.535902,24.1283385 L114.185639,24.1283385 C110.33275,24.1283385 96.6725044,24.1283385 94.9211909,24.4780246 C93.8704028,24.4780246 92.469352,24.4780246 91.4185639,24.8277106 C91.0683012,25.1773967 90.7180385,25.1773967 90.7180385,25.1773967 C90.3677758,25.1773967 90.0175131,25.1773967 89.6672504,25.5270828 L88.2661996,25.8767688 C87.2154116,26.5761409 86.1646235,27.2755131 85.1138354,27.9748852 C84.41331,28.6742573 83.3625219,29.7233155 83.0122592,30.7723737 L81.9614711,32.8704901 L81.9614711,33.2201762 L81.9614711,33.5698623 C81.2609457,35.3182926 81.6112084,37.416409 81.6112084,39.1648393 C81.9614711,39.5145254 81.9614711,39.1648393 81.9614711,39.5145254 C82.3117338,40.5635836 82.3117338,40.9132696 83.0122592,41.9623278 C83.3625219,42.6616999 84.0630473,43.7107581 84.7635727,44.0604442 C85.1138354,44.0604442 85.1138354,44.4101303 85.1138354,44.4101303 L85.4640981,44.4101303 L85.4640981,44.4101303 C86.1646235,45.1095024 86.1646235,45.1095024 86.5148862,45.4591885 C86.8651489,45.4591885 87.2154116,45.4591885 87.2154116,45.8088745 C87.5656743,46.1585606 88.2661996,46.1585606 88.6164623,46.5082467 C88.966725,46.5082467 89.3169877,46.5082467 89.6672504,46.8579327 C90.0175131,46.8579327 90.0175131,46.8579327 90.0175131,47.2076188 L89.3169877,47.2076188 C88.2661996,47.5573049 87.2154116,48.256677 86.8651489,48.9560491 C85.8143608,50.0051073 85.4640981,51.4038516 85.4640981,53.1522819 C85.4640981,53.501968 85.8143608,54.2013401 86.1646235,54.5510262 C86.5148862,55.6000844 86.8651489,55.2503983 87.2154116,55.6000844 L87.2154116,55.9497704 C87.5656743,55.9497704 87.915937,56.2994565 87.915937,56.2994565 C88.2661996,56.2994565 88.2661996,56.2994565 88.2661996,56.6491425 L87.2154116,56.6491425 L86.5148862,56.9988286 C85.8143608,56.9988286 85.1138354,57.3485147 84.41331,57.6982007 C84.0630473,57.6982007 82.6619965,58.7472589 82.6619965,58.7472589 C83.0122592,59.096945 83.7127846,59.096945 84.0630473,59.096945 L94.2206655,59.096945 C95.6217163,59.096945 101.225919,58.7472589 102.276708,59.096945 C102.977233,59.4466311 103.327496,59.4466311 103.677758,59.7963171 L104.378284,60.1460032 L104.378284,60.1460032 Z" id="Shape"></path>
                            <path d="M31.5236427,24.4780246 C31.5236427,23.0792803 31.8739054,22.3799082 32.9246935,22.0302221 C33.6252189,20.9811639 35.3765324,20.9811639 36.7775832,20.9811639 C37.4781086,20.9811639 40.2802102,21.33085 40.6304729,21.680536 L43.0823117,22.7295942 C43.7828371,22.7295942 44.4833625,23.4289664 45.5341506,23.7786524 L46.9352014,24.4780246 C47.2854641,24.8277106 47.6357268,25.1773967 48.3362522,25.5270828 C49.0367776,25.8767688 49.3870403,26.5761409 49.3870403,25.5270828 L49.3870403,17.1346172 C49.3870403,16.4352451 49.3870403,15.7358729 49.0367776,15.7358729 C48.6865149,15.3861869 47.9859895,15.0365008 47.2854641,14.6868147 L46.5849387,14.6868147 C45.8844133,14.3371287 45.1838879,13.9874426 44.1330998,13.6377565 C44.1330998,13.6377565 43.7828371,13.6377565 43.4325744,13.2880705 L39.9299475,12.5886983 C39.5796848,12.5886983 39.2294221,12.5886983 38.8791594,12.2390123 L35.0262697,12.2390123 C33.6252189,12.2390123 30.8231173,12.2390123 29.7723292,12.5886983 L28.7215412,12.5886983 C28.3712785,12.9383844 28.0210158,12.9383844 28.0210158,12.9383844 C27.6707531,12.9383844 27.3204904,13.2880705 26.9702277,13.2880705 L25.2189142,13.9874426 C24.5183888,13.9874426 22.4168126,15.7358729 22.0665499,16.4352451 C20.6654991,17.8339893 21.0157618,17.1346172 19.9649737,18.8830475 L19.614711,19.9321057 C18.9141856,21.33085 18.5639229,23.4289664 18.5639229,24.8277106 C18.5639229,25.5270828 18.5639229,26.2264549 18.9141856,26.925827 C19.2644483,28.6742573 19.614711,30.4226877 21.0157618,31.8214319 C21.0157618,32.171118 21.3660245,32.5208041 21.3660245,32.5208041 C21.7162872,32.8704901 21.7162872,32.5208041 21.7162872,32.8704901 C22.7670753,34.2692344 24.8686515,35.6679786 26.2697023,36.3673508 L29.0718039,37.766095 L32.9246935,39.8642114 C33.2749562,39.8642114 33.6252189,39.8642114 33.9754816,40.2138975 C33.9754816,40.2138975 34.3257443,40.2138975 34.676007,40.5635836 L35.0262697,40.5635836 L36.0770578,41.2629557 L37.1278459,42.3120139 C37.1278459,42.6616999 37.4781086,43.011386 37.4781086,43.3610721 C38.178634,44.7598163 37.4781086,45.8088745 36.4273205,46.8579327 L36.0770578,47.2076188 C35.3765324,47.5573049 31.8739054,47.9069909 30.8231173,47.5573049 L29.7723292,47.5573049 C29.4220665,47.5573049 29.0718039,47.2076188 28.7215412,47.2076188 C27.6707531,46.8579327 26.619965,46.5082467 25.2189142,46.1585606 L20.6654991,44.0604442 C20.3152364,43.7107581 19.614711,43.3610721 19.2644483,43.011386 C18.9141856,43.011386 18.9141856,43.3610721 18.9141856,43.7107581 L18.9141856,53.501968 C19.9649737,54.2013401 21.3660245,54.5510262 22.4168126,54.9007122 C22.7670753,55.2503983 23.4676007,55.2503983 24.1681261,55.6000844 C24.5183888,55.6000844 25.2189142,55.6000844 25.9194396,55.9497704 C25.9194396,55.9497704 26.2697023,55.9497704 26.619965,56.2994565 L29.4220665,56.6491425 C30.4728546,56.6491425 31.8739054,56.9988286 32.5744308,56.9988286 L35.3765324,56.9988286 C36.0770578,56.9988286 38.178634,56.9988286 39.2294221,56.6491425 L39.5796848,56.6491425 L40.9807356,56.2994565 C41.6812609,56.2994565 42.0315236,55.9497704 42.3817863,55.6000844 C42.732049,55.6000844 43.0823117,55.6000844 43.0823117,55.2503983 C44.4833625,54.9007122 45.5341506,54.2013401 46.5849387,53.501968 C46.9352014,53.1522819 47.2854641,52.8025958 47.6357268,52.4529098 C47.6357268,52.1032237 47.9859895,52.1032237 47.9859895,52.1032237 C48.3362522,51.7535376 48.3362522,51.4038516 48.6865149,51.4038516 L49.0367776,50.7044794 L49.0367776,50.7044794 L49.737303,49.3057352 L50.7880911,46.8579327 C51.1383538,45.8088745 51.1383538,41.9623278 50.7880911,40.9132696 C50.0875657,38.8151532 50.0875657,38.8151532 48.6865149,36.7170368 C48.3362522,36.3673508 47.2854641,34.9686065 46.5849387,34.6189204 C46.234676,34.2692344 45.5341506,33.5698623 44.8336252,33.2201762 L43.4325744,32.5208041 C43.0823117,32.171118 43.0823117,32.5208041 42.732049,32.171118 C42.3817863,31.8214319 42.0315236,31.8214319 41.3309982,31.4717459 C40.9807356,31.1220598 40.9807356,31.1220598 40.6304729,31.1220598 L38.5288967,30.0730016 C37.4781086,29.3736295 36.0770578,29.0239434 35.0262697,28.3245713 C34.3257443,27.6251991 33.2749562,27.2755131 32.5744308,26.925827 L31.8739054,25.8767688 C31.5236427,25.5270828 31.5236427,24.8277106 31.5236427,24.4780246 L31.5236427,24.4780246 Z" id="Shape"></path>
                            <path d="M138.353765,48.6063631 C137.65324,49.3057352 136.252189,50.3547934 135.201401,50.7044794 C134.500876,51.0541655 134.150613,51.0541655 133.450088,51.0541655 C132.399299,51.0541655 132.749562,51.0541655 132.049037,50.7044794 C130.998249,50.0051073 130.647986,48.256677 130.647986,46.8579327 C130.647986,46.1585606 131.698774,44.7598163 132.049037,44.4101303 L132.049037,44.4101303 C132.399299,44.0604442 132.399299,44.0604442 132.749562,43.7107581 L134.150613,43.011386 C134.851138,42.6616999 135.551664,42.3120139 136.252189,41.9623278 L136.602452,41.9623278 L136.952715,41.6126417 C137.65324,41.6126417 137.65324,41.2629557 138.353765,41.2629557 C138.704028,41.2629557 138.353765,41.2629557 138.353765,41.6126417 C138.353765,43.7107581 138.704028,47.2076188 138.353765,48.6063631 L138.353765,48.6063631 Z M120.490368,36.7170368 C121.190893,36.3673508 121.190893,36.3673508 121.541156,36.0176647 L122.241681,35.3182926 C122.942207,34.6189204 123.992995,33.9195483 124.69352,33.5698623 C125.394046,33.2201762 125.744308,32.8704901 126.444834,32.5208041 C127.495622,32.171118 128.54641,31.4717459 129.597198,31.4717459 C131.698774,31.1220598 135.901926,30.4226877 137.302977,32.171118 C137.65324,32.5208041 137.65324,32.5208041 138.003503,33.2201762 C138.353765,33.5698623 138.704028,35.3182926 138.353765,36.0176647 C137.65324,36.3673508 134.851138,37.416409 134.150613,37.416409 C133.80035,37.766095 133.80035,37.766095 133.450088,37.766095 C131.698774,38.4654672 129.947461,38.8151532 128.196147,39.5145254 C127.845884,39.8642114 127.845884,39.8642114 127.495622,39.8642114 C126.795096,39.8642114 126.094571,40.2138975 125.744308,40.5635836 L125.744308,40.5635836 L124.69352,41.2629557 L124.69352,41.2629557 L124.343257,41.2629557 C123.642732,41.6126417 122.942207,42.3120139 122.241681,42.6616999 C121.891419,43.3610721 121.190893,43.7107581 120.84063,44.4101303 L120.140105,45.4591885 C120.140105,45.8088745 120.140105,46.1585606 119.789842,46.1585606 C119.43958,47.5573049 119.43958,48.6063631 119.43958,50.0051073 C119.43958,50.3547934 120.140105,52.1032237 120.140105,52.4529098 C120.84063,53.501968 121.190893,54.2013401 121.891419,54.9007122 C122.591944,55.2503983 123.642732,55.9497704 123.992995,56.2994565 C125.394046,56.6491425 126.094571,56.6491425 127.495622,56.9988286 C128.196147,57.3485147 132.049037,56.9988286 132.749562,56.9988286 L135.201401,56.2994565 L138.704028,54.2013401 C138.704028,53.851654 138.704028,53.851654 139.054291,53.851654 L139.054291,53.851654 L139.054291,53.851654 L139.404553,54.5510262 C140.105079,55.6000844 140.455342,56.2994565 141.856392,56.6491425 C141.856392,56.9988286 142.206655,56.9988286 142.556918,56.9988286 L143.257443,56.9988286 L147.810858,56.9988286 C148.161121,56.6491425 148.511384,56.6491425 148.861646,56.6491425 L152.364273,55.6000844 C153.064799,55.6000844 153.415061,55.2503983 154.115587,54.9007122 C154.465849,53.1522819 154.465849,51.0541655 154.465849,48.9560491 C153.765324,48.9560491 151.313485,50.3547934 150.61296,49.6554212 C149.912434,48.6063631 149.912434,47.2076188 149.912434,45.8088745 L149.912434,34.2692344 C149.912434,33.2201762 149.912434,32.5208041 149.562172,31.4717459 C149.562172,31.1220598 149.211909,30.4226877 149.211909,30.0730016 L148.861646,30.0730016 C148.511384,29.0239434 148.511384,28.6742573 147.810858,27.9748852 C147.460595,27.6251991 147.110333,26.925827 146.409807,26.5761409 L146.059545,26.2264549 L146.059545,26.2264549 C145.709282,25.8767688 145.359019,25.8767688 145.008757,25.5270828 C143.957968,25.1773967 143.257443,24.8277106 142.206655,24.4780246 C141.856392,24.4780246 141.50613,24.4780246 141.155867,24.1283385 C140.105079,24.1283385 138.353765,23.7786524 137.302977,23.7786524 C135.201401,23.7786524 133.099825,23.7786524 131.348511,24.1283385 C130.297723,24.4780246 129.597198,24.1283385 128.196147,24.8277106 L127.145359,24.8277106 C126.444834,25.1773967 125.744308,25.5270828 125.394046,25.5270828 C125.043783,25.5270828 125.043783,25.8767688 125.043783,25.8767688 C124.343257,26.2264549 122.942207,26.5761409 122.241681,27.2755131 L121.891419,27.2755131 L121.541156,27.6251991 C121.190893,27.6251991 120.84063,27.9748852 120.490368,27.9748852 L120.490368,36.7170368 L120.490368,36.7170368 Z" id="Shape"></path>
                            <path d="M159.019264,46.5082467 C158.669002,46.8579327 158.669002,54.5510262 158.669002,54.5510262 C159.019264,54.5510262 159.369527,54.9007122 159.71979,54.9007122 L161.471103,55.6000844 C162.171629,55.6000844 165.323993,56.6491425 166.024518,56.6491425 L167.075306,56.9988286 L170.577933,56.9988286 L173.029772,56.9988286 L174.08056,56.9988286 C174.781086,56.9988286 175.481611,56.6491425 176.182137,56.6491425 C176.532399,56.6491425 176.882662,56.2994565 177.232925,56.2994565 L178.984238,55.6000844 C179.334501,55.2503983 180.035026,54.9007122 180.385289,54.9007122 L181.436077,53.851654 L181.78634,53.501968 C181.78634,53.1522819 181.78634,53.501968 182.136602,52.8025958 L182.837128,52.1032237 C184.238179,50.3547934 184.238179,47.2076188 183.887916,45.1095024 L183.887916,44.0604442 C183.537653,43.3610721 183.537653,43.3610721 183.187391,42.6616999 C182.136602,41.2629557 181.085814,40.2138975 180.035026,39.5145254 L178.633975,38.4654672 C177.583187,38.1157811 176.532399,37.416409 175.131349,37.0667229 C174.08056,36.3673508 173.029772,36.0176647 171.978984,35.6679786 C170.928196,34.9686065 170.227671,34.9686065 169.877408,33.9195483 C169.527145,33.2201762 169.877408,32.5208041 170.227671,31.8214319 L170.577933,31.8214319 C170.928196,31.4717459 171.278459,31.1220598 171.628722,31.1220598 C172.67951,31.1220598 173.380035,30.7723737 174.08056,31.1220598 C174.781086,31.1220598 175.481611,31.1220598 176.182137,31.4717459 C176.882662,31.4717459 177.232925,31.8214319 177.93345,31.8214319 C178.283713,32.171118 177.93345,31.8214319 178.283713,32.171118 C178.984238,32.171118 180.735552,33.2201762 181.436077,33.5698623 C181.78634,33.5698623 182.136602,33.9195483 182.486865,33.9195483 L182.486865,26.925827 C182.486865,26.2264549 182.486865,26.2264549 181.78634,26.2264549 C181.78634,25.8767688 181.085814,25.8767688 180.735552,25.5270828 C180.385289,25.5270828 180.035026,25.1773967 179.684764,25.1773967 L175.131349,24.1283385 C173.730298,23.7786524 171.278459,23.7786524 169.527145,23.7786524 C168.82662,23.7786524 167.075306,24.1283385 166.024518,24.4780246 C165.674256,24.4780246 165.323993,24.8277106 164.97373,24.8277106 L163.922942,25.1773967 L163.222417,25.8767688 C162.171629,26.2264549 161.120841,27.2755131 160.420315,27.9748852 C159.369527,29.0239434 159.019264,30.0730016 158.669002,31.4717459 C158.318739,31.8214319 158.318739,32.171118 158.318739,32.5208041 C158.318739,33.2201762 158.318739,34.6189204 158.669002,35.3182926 C158.669002,36.3673508 159.019264,37.416409 159.71979,38.4654672 L161.120841,39.8642114 C161.821366,40.5635836 162.872154,41.2629557 163.57268,41.6126417 C164.273205,41.9623278 164.97373,42.3120139 165.674256,42.6616999 L170.227671,44.7598163 C170.227671,44.7598163 170.577933,44.7598163 170.928196,45.1095024 L171.628722,45.4591885 C171.978984,45.8088745 172.67951,46.1585606 172.67951,47.2076188 C173.029772,47.9069909 172.67951,48.6063631 171.978984,48.9560491 C171.628722,49.6554212 170.577933,49.6554212 169.877408,49.6554212 C168.476357,50.0051073 166.374781,50.0051073 164.623468,49.3057352 C164.623468,49.3057352 163.922942,48.9560491 163.57268,48.9560491 C162.872154,48.6063631 161.821366,47.9069909 160.770578,47.5573049 C160.420315,47.2076188 159.369527,46.5082467 159.019264,46.5082467 L159.019264,46.5082467 Z" id="Shape"></path>
                            <path d="M66.5499124,26.2264549 C66.9001751,26.2264549 66.9001751,26.5761409 66.9001751,26.925827 C67.2504378,27.2755131 66.9001751,27.2755131 67.2504378,27.9748852 L67.6007005,28.3245713 L68.6514886,32.171118 C68.6514886,32.171118 68.6514886,32.171118 68.6514886,32.5208041 C69.0017513,32.5208041 69.0017513,32.8704901 69.0017513,32.8704901 L69.352014,34.2692344 L69.352014,35.6679786 C69.7022767,36.0176647 70.0525394,37.766095 70.0525394,38.4654672 C70.4028021,38.8151532 70.4028021,40.2138975 70.4028021,40.5635836 C70.7530648,41.6126417 70.7530648,42.6616999 71.1033275,43.7107581 L71.1033275,46.1585606 L71.1033275,48.6063631 L70.7530648,50.7044794 C70.4028021,51.4038516 70.4028021,52.1032237 70.0525394,52.4529098 C69.7022767,54.2013401 69.7022767,53.501968 69.352014,54.2013401 C68.6514886,55.6000844 67.6007005,56.9988286 65.849387,56.2994565 C65.4991243,55.9497704 65.1488616,55.9497704 65.1488616,55.6000844 C64.7985989,55.6000844 64.0980736,54.9007122 64.0980736,54.5510262 C63.7478109,54.2013401 63.7478109,53.851654 63.3975482,53.501968 L63.0472855,51.7535376 C62.6970228,51.4038516 62.6970228,51.0541655 62.6970228,50.7044794 C62.3467601,48.6063631 62.3467601,47.2076188 62.3467601,45.1095024 L62.3467601,44.0604442 L63.3975482,37.766095 L63.3975482,37.0667229 L63.7478109,36.3673508 L63.7478109,35.6679786 L64.0980736,35.3182926 L64.0980736,34.6189204 L64.0980736,34.2692344 L64.0980736,33.9195483 C64.4483363,33.5698623 64.7985989,31.4717459 65.1488616,30.7723737 L65.849387,29.0239434 L65.849387,28.3245713 C65.849387,27.9748852 66.1996497,26.5761409 66.5499124,26.2264549 L66.5499124,26.2264549 Z M77.0577933,41.2629557 C77.0577933,40.5635836 77.0577933,38.4654672 76.7075306,37.766095 L76.7075306,36.3673508 L76.357268,35.3182926 C76.357268,34.6189204 76.0070053,33.2201762 75.6567426,32.8704901 C75.6567426,32.171118 74.2556918,27.9748852 73.9054291,26.925827 C73.5551664,26.5761409 73.5551664,26.925827 73.5551664,26.5761409 L73.5551664,25.8767688 L72.854641,24.1283385 C72.5043783,23.7786524 72.5043783,24.1283385 72.5043783,23.4289664 C72.5043783,23.0792803 72.1541156,22.7295942 72.1541156,22.3799082 L71.4535902,19.9321057 C71.4535902,19.5824196 71.1033275,18.8830475 70.7530648,18.5333615 L69.7022767,14.6868147 L69.7022767,13.9874426 C69.352014,13.2880705 69.352014,12.2390123 69.0017513,11.5396401 C69.0017513,11.1899541 69.0017513,10.1408959 68.6514886,9.79120982 L68.6514886,9.09183769 L68.3012259,8.0427795 C67.9509632,7.34340737 67.9509632,6.64403524 67.9509632,5.94466311 C67.6007005,5.59497704 67.9509632,5.59497704 67.6007005,5.24529098 L67.2504378,2.79748852 C66.9001751,2.09811639 66.9001751,0.69937213 66.5499124,0.349686065 L66.5499124,0 L66.5499124,0.349686065 C66.1996497,0.349686065 66.1996497,0.69937213 66.1996497,0.69937213 L66.1996497,1.39874426 C65.849387,2.79748852 65.849387,4.54591885 65.1488616,6.29434917 L65.1488616,6.9937213 C64.7985989,7.69309343 64.7985989,8.74215163 64.4483363,9.44152376 L64.4483363,10.840268 L63.0472855,16.085559 L63.0472855,16.7849311 L62.6970228,17.4843033 C62.3467601,18.1836754 62.6970228,18.1836754 62.3467601,18.5333615 C62.3467601,18.8830475 61.9964974,19.5824196 61.9964974,19.9321057 L61.295972,22.3799082 C60.9457093,22.7295942 60.9457093,23.0792803 60.5954466,23.4289664 C60.5954466,24.1283385 59.8949212,24.8277106 59.8949212,25.8767688 C59.5446585,26.5761409 58.4938704,29.3736295 58.1436077,30.4226877 C57.793345,30.7723737 57.793345,31.4717459 57.793345,31.8214319 L57.0928196,33.2201762 L57.0928196,33.5698623 C56.7425569,34.6189204 56.7425569,35.6679786 56.3922942,37.0667229 L56.3922942,37.766095 C56.0420315,39.1648393 56.0420315,40.2138975 56.0420315,41.6126417 C56.0420315,42.6616999 56.3922942,43.7107581 56.3922942,44.4101303 L56.3922942,45.1095024 C56.7425569,45.8088745 56.7425569,46.8579327 56.7425569,47.2076188 L57.4430823,49.3057352 C57.4430823,49.6554212 57.793345,49.6554212 57.793345,49.6554212 C57.793345,50.0051073 57.793345,50.0051073 58.1436077,50.3547934 L58.1436077,51.0541655 L59.5446585,52.8025958 C59.5446585,53.1522819 59.8949212,53.501968 60.2451839,53.851654 C60.2451839,54.2013401 60.2451839,54.2013401 61.295972,55.2503983 C61.295972,55.2503983 61.6462347,55.2503983 61.6462347,55.6000844 C61.9964974,55.6000844 62.3467601,55.9497704 62.6970228,56.2994565 C64.0980736,56.9988286 64.7985989,56.9988286 66.5499124,56.9988286 C68.6514886,56.9988286 70.0525394,56.6491425 71.4535902,55.2503983 C72.1541156,54.5510262 72.1541156,54.5510262 73.2049037,53.851654 L74.2556918,51.7535376 C74.6059545,51.4038516 74.9562172,50.7044794 75.3064799,50.3547934 L75.3064799,50.3547934 L75.3064799,49.6554212 C76.0070053,48.256677 76.0070053,47.2076188 76.357268,45.8088745 C76.357268,45.4591885 76.357268,45.4591885 76.7075306,45.1095024 L76.7075306,44.4101303 L76.7075306,43.011386 C77.0577933,42.3120139 77.0577933,41.9623278 77.0577933,41.2629557 L77.0577933,41.2629557 Z" id="Shape"></path>
                            <path d="M167.425569,76.5812483 L165.323993,77.6303065 C163.922942,79.0290507 163.922942,81.1271671 163.922942,82.8755974 C163.922942,83.9246556 164.623468,85.3233999 165.323993,86.022772 C166.024518,86.3724581 166.024518,86.7221441 166.725044,87.0718302 L167.775832,87.0718302 C168.82662,87.0718302 168.82662,87.0718302 169.877408,86.7221441 C170.577933,86.3724581 171.628722,85.673086 171.628722,84.9737138 C172.329247,83.9246556 172.329247,82.5259114 172.329247,81.1271671 C172.329247,80.427795 171.978984,79.7284228 171.628722,79.0290507 C171.628722,78.3296786 170.577933,77.2806204 169.877408,76.9309343 C169.176883,76.9309343 167.775832,76.5812483 167.425569,76.5812483 L167.425569,76.5812483 Z" id="Shape"></path>
                            <path d="M92.8196147,81.8265392 C92.8196147,83.2252835 93.1698774,84.2743417 93.8704028,85.673086 C94.5709282,86.7221441 95.6217163,87.0718302 97.0227671,87.0718302 C98.7740806,87.0718302 99.474606,86.7221441 100.175131,85.673086 C101.225919,84.2743417 101.576182,81.8265392 101.225919,80.427795 C101.225919,80.0781089 101.225919,80.0781089 100.875657,80.0781089 C100.525394,78.6793647 100.175131,77.6303065 99.1243433,77.2806204 C98.7740806,76.9309343 98.7740806,76.9309343 98.0735552,76.9309343 C97.0227671,76.5812483 96.3222417,76.5812483 95.2714536,77.2806204 C94.2206655,77.6303065 93.8704028,77.9799925 93.5201401,79.0290507 C93.1698774,79.3787368 93.1698774,79.3787368 93.1698774,79.7284228 C92.8196147,80.427795 92.8196147,80.777481 92.8196147,81.8265392 L92.8196147,81.8265392 Z" id="Shape"></path>
                            <path d="M63.3975482,80.427795 C63.7478109,80.0781089 63.7478109,80.427795 64.0980736,79.3787368 C64.0980736,79.3787368 64.0980736,79.3787368 64.0980736,79.0290507 C64.4483363,77.9799925 63.3975482,76.9309343 62.6970228,76.9309343 L58.1436077,76.9309343 C57.793345,77.2806204 58.1436077,80.427795 58.1436077,80.777481 L60.9457093,80.777481 C62.3467601,80.777481 61.9964974,80.777481 63.3975482,80.427795 L63.3975482,80.427795 Z" id="Shape"></path>
                        </g>
                        <g id="Group" fill="#BFBFBF">
                            <path d="M77.0577933,45.1095024 C77.0577933,45.8088745 77.0577933,46.1585606 76.7075306,46.8579327 L76.7075306,48.256677 L76.7075306,48.9560491 C76.357268,49.3057352 76.357268,49.3057352 76.357268,49.6554212 C76.0070053,51.0541655 76.0070053,52.1032237 75.3064799,53.501968 L75.3064799,54.2013401 L75.3064799,54.2013401 C74.9562172,54.5510262 74.6059545,55.2503983 74.2556918,55.6000844 L73.2049037,57.6982007 C72.1541156,58.3975729 72.1541156,58.3975729 71.4535902,59.096945 C70.0525394,60.4956893 68.6514886,60.8453753 66.5499124,60.8453753 C64.7985989,60.8453753 64.0980736,60.8453753 62.6970228,60.1460032 C62.3467601,59.7963171 61.9964974,59.4466311 61.6462347,59.4466311 C61.6462347,59.096945 61.295972,59.096945 61.295972,59.096945 C60.2451839,58.0478868 60.2451839,58.0478868 60.2451839,57.6982007 C59.8949212,57.3485147 59.5446585,56.9988286 59.5446585,56.6491425 L58.1436077,54.9007122 L58.1436077,54.2013401 C57.793345,53.851654 57.793345,53.851654 57.793345,53.501968 C57.793345,53.501968 57.4430823,53.501968 57.4430823,53.1522819 L56.7425569,51.0541655 C56.7425569,50.7044794 56.7425569,49.6554212 56.3922942,48.9560491 L56.3922942,48.256677 C56.3922942,47.5573049 56.0420315,46.5082467 56.0420315,45.4591885 C56.0420315,44.0604442 56.0420315,43.011386 56.3922942,41.6126417 L56.3922942,40.9132696 C56.7425569,39.5145254 56.7425569,38.4654672 57.0928196,37.416409 C57.0928196,37.416409 57.0928196,37.416409 57.0928196,37.0667229 L57.793345,35.6679786 C57.793345,35.3182926 57.793345,34.6189204 58.1436077,34.2692344 C58.4938704,33.2201762 59.5446585,30.4226877 59.8949212,29.7233155 C59.8949212,28.6742573 60.5954466,27.9748852 60.5954466,27.2755131 C60.9457093,26.925827 60.9457093,26.5761409 61.295972,26.2264549 L61.9964974,23.7786524 C61.9964974,23.4289664 62.3467601,22.7295942 62.3467601,22.3799082 C62.6970228,22.0302221 62.3467601,22.0302221 62.6970228,21.33085 L63.0472855,20.6314778 L63.0472855,19.9321057 L64.4483363,14.6868147 L64.4483363,13.2880705 C64.7985989,12.5886983 64.7985989,11.5396401 65.1488616,10.840268 L65.1488616,10.1408959 C65.849387,8.39246556 65.849387,6.64403524 66.1996497,5.24529098 L66.1996497,4.54591885 C66.1996497,4.54591885 66.1996497,4.19623278 66.5499124,4.19623278 L66.5499124,3.84654672 L66.5499124,4.19623278 C66.9001751,4.54591885 66.9001751,5.94466311 67.2504378,6.64403524 L67.6007005,9.09183769 C67.9509632,9.44152376 67.6007005,9.44152376 67.9509632,9.79120982 C67.9509632,10.490582 67.9509632,11.1899541 68.3012259,11.8893262 L68.6514886,12.9383844 L68.6514886,13.6377565 C69.0017513,13.9874426 69.0017513,15.0365008 69.0017513,15.3861869 C69.352014,16.085559 69.352014,17.1346172 69.7022767,17.8339893 L69.7022767,18.5333615 L70.7530648,22.3799082 C71.1033275,22.7295942 71.4535902,23.4289664 71.4535902,23.7786524 L72.1541156,26.2264549 C72.1541156,26.5761409 72.5043783,26.925827 72.5043783,27.2755131 C72.5043783,27.9748852 72.5043783,27.6251991 72.854641,27.9748852 L73.5551664,29.7233155 L73.5551664,30.4226877 C73.5551664,30.7723737 73.5551664,30.4226877 73.9054291,30.7723737 C74.2556918,31.8214319 75.6567426,36.0176647 75.6567426,36.7170368 C76.0070053,37.0667229 76.357268,38.4654672 76.357268,39.1648393 L76.7075306,40.2138975 L76.7075306,41.6126417 C77.0577933,42.3120139 77.0577933,44.4101303 77.0577933,45.1095024 L77.0577933,45.1095024 Z M159.019264,50.3547934 C159.369527,50.3547934 160.420315,51.0541655 160.770578,51.4038516 C161.821366,51.7535376 162.872154,52.4529098 163.57268,52.8025958 C163.922942,52.8025958 164.623468,53.1522819 164.623468,53.1522819 C166.374781,53.851654 168.476357,53.851654 169.877408,53.501968 C170.577933,53.501968 171.628722,53.501968 171.978984,52.8025958 C172.67951,52.4529098 173.029772,51.7535376 172.67951,51.0541655 C172.67951,50.0051073 171.978984,49.6554212 171.628722,49.3057352 L170.928196,48.9560491 C170.577933,48.6063631 170.227671,48.6063631 170.227671,48.6063631 L165.674256,46.5082467 C164.97373,46.1585606 164.273205,45.8088745 163.57268,45.4591885 C162.872154,45.1095024 161.821366,44.4101303 161.120841,43.7107581 C160.420315,43.011386 160.420315,43.011386 159.71979,42.3120139 C159.019264,41.2629557 158.669002,40.2138975 158.669002,39.1648393 C158.318739,38.4654672 158.318739,37.0667229 158.318739,36.3673508 C158.318739,36.0176647 158.318739,35.6679786 158.669002,35.3182926 C159.019264,33.9195483 159.369527,32.8704901 160.420315,31.8214319 C161.120841,31.1220598 162.171629,30.0730016 163.222417,29.7233155 C163.57268,29.3736295 163.57268,29.3736295 163.922942,29.0239434 L164.97373,28.6742573 C165.323993,28.6742573 165.674256,28.3245713 166.024518,28.3245713 C167.075306,27.9748852 168.82662,27.6251991 169.527145,27.6251991 C171.278459,27.6251991 173.730298,27.6251991 175.131349,27.9748852 L179.684764,29.0239434 C180.035026,29.0239434 180.385289,29.3736295 180.735552,29.3736295 C181.085814,29.7233155 181.78634,29.7233155 181.78634,30.0730016 C182.486865,30.0730016 182.486865,30.0730016 182.486865,30.7723737 L182.486865,37.766095 C182.136602,37.766095 181.78634,37.416409 181.436077,37.416409 C180.735552,37.0667229 178.984238,36.0176647 178.283713,36.0176647 C177.93345,35.6679786 178.283713,36.0176647 177.93345,35.6679786 C177.232925,35.6679786 176.882662,35.3182926 176.182137,35.3182926 C175.481611,34.9686065 174.781086,34.9686065 174.08056,34.9686065 C173.380035,34.6189204 172.67951,34.9686065 171.628722,34.9686065 C171.278459,34.9686065 170.928196,35.3182926 170.577933,35.6679786 L170.227671,35.6679786 C169.877408,36.3673508 169.527145,37.0667229 169.877408,37.766095 C170.227671,38.8151532 170.928196,38.8151532 171.978984,39.5145254 C173.029772,39.8642114 174.08056,40.2138975 175.131349,40.9132696 C176.532399,41.2629557 177.583187,41.9623278 178.633975,42.3120139 L180.035026,43.3610721 C181.085814,44.0604442 182.136602,45.1095024 183.187391,46.5082467 C183.537653,47.2076188 183.537653,47.2076188 183.887916,47.9069909 L183.887916,48.9560491 C184.238179,51.0541655 184.238179,54.2013401 182.837128,55.9497704 L182.136602,56.6491425 C181.78634,57.3485147 181.78634,56.9988286 181.78634,57.3485147 L181.436077,57.6982007 L180.385289,58.7472589 C180.035026,58.7472589 179.334501,59.096945 178.984238,59.4466311 L177.232925,60.1460032 C176.882662,60.1460032 176.532399,60.4956893 176.182137,60.4956893 C175.481611,60.4956893 174.781086,60.8453753 174.08056,60.8453753 L173.029772,60.8453753 L170.577933,60.8453753 L167.075306,60.8453753 L166.024518,60.4956893 C165.323993,60.4956893 162.171629,59.4466311 161.471103,59.4466311 L159.71979,58.7472589 C159.369527,58.7472589 159.019264,58.3975729 158.669002,58.3975729 C158.669002,58.3975729 158.669002,50.7044794 159.019264,50.3547934 L159.019264,50.3547934 Z M120.490368,40.5635836 L120.490368,31.8214319 C120.84063,31.8214319 121.190893,31.4717459 121.541156,31.4717459 C121.541156,31.4717459 121.541156,31.4717459 121.891419,31.1220598 L122.241681,31.1220598 C122.942207,30.4226877 124.343257,30.0730016 125.043783,29.7233155 C125.043783,29.7233155 125.043783,29.3736295 125.394046,29.3736295 C125.744308,29.3736295 126.444834,29.0239434 127.145359,28.6742573 L128.196147,28.6742573 C129.597198,27.9748852 130.297723,28.3245713 131.348511,27.9748852 C133.099825,27.6251991 135.201401,27.6251991 137.302977,27.6251991 C138.353765,27.6251991 140.105079,27.9748852 141.155867,27.9748852 C141.50613,28.3245713 141.856392,28.3245713 142.206655,28.3245713 C143.257443,28.6742573 143.957968,29.0239434 145.008757,29.3736295 C145.359019,29.7233155 145.709282,29.7233155 146.059545,30.0730016 L146.059545,30.0730016 L146.409807,30.4226877 C147.110333,30.7723737 147.460595,31.4717459 147.810858,31.8214319 C148.511384,32.5208041 148.511384,32.8704901 148.861646,33.9195483 L149.211909,33.9195483 C149.211909,34.2692344 149.562172,34.9686065 149.562172,35.3182926 C149.912434,36.3673508 149.912434,37.0667229 149.912434,38.1157811 L149.912434,49.6554212 C149.912434,51.0541655 149.912434,52.4529098 150.61296,53.501968 C151.313485,54.2013401 153.765324,52.8025958 154.465849,52.8025958 C154.465849,54.9007122 154.465849,56.9988286 154.115587,58.7472589 C153.415061,59.096945 153.064799,59.4466311 152.364273,59.4466311 L148.861646,60.4956893 C148.511384,60.4956893 148.161121,60.4956893 147.810858,60.8453753 L143.257443,60.8453753 L142.556918,60.8453753 C142.206655,60.8453753 141.856392,60.8453753 141.856392,60.4956893 C140.455342,60.1460032 140.105079,59.4466311 139.404553,58.3975729 L139.054291,57.6982007 L139.054291,57.6982007 L139.054291,57.6982007 C138.704028,57.6982007 138.704028,57.6982007 138.704028,58.0478868 L135.201401,60.1460032 L132.749562,60.8453753 C132.049037,60.8453753 128.196147,61.1950614 127.495622,60.8453753 C126.094571,60.4956893 125.394046,60.4956893 123.992995,60.1460032 C123.642732,59.7963171 122.591944,59.096945 121.891419,58.7472589 C121.190893,58.0478868 120.84063,57.3485147 120.140105,56.2994565 C120.140105,55.9497704 119.43958,54.2013401 119.43958,53.851654 C119.43958,52.4529098 119.43958,51.4038516 119.789842,50.0051073 C120.140105,50.0051073 120.140105,49.6554212 120.140105,49.3057352 L120.84063,48.256677 C121.190893,47.5573049 121.891419,47.2076188 122.241681,46.5082467 C122.942207,46.1585606 123.642732,45.4591885 124.343257,45.1095024 L124.69352,45.1095024 L124.69352,45.1095024 L125.744308,44.4101303 L125.744308,44.4101303 C126.094571,44.0604442 126.795096,43.7107581 127.495622,43.7107581 C127.845884,43.7107581 127.845884,43.7107581 128.196147,43.3610721 C129.947461,42.6616999 131.698774,42.3120139 133.450088,41.6126417 C133.80035,41.6126417 133.80035,41.6126417 134.150613,41.2629557 C134.851138,41.2629557 137.65324,40.2138975 138.353765,39.8642114 C138.704028,39.1648393 138.353765,37.416409 138.003503,37.0667229 C137.65324,36.3673508 137.65324,36.3673508 137.302977,36.0176647 C135.901926,34.2692344 131.698774,34.9686065 129.597198,35.3182926 C128.54641,35.3182926 127.495622,36.0176647 126.444834,36.3673508 C125.744308,36.7170368 125.394046,37.0667229 124.69352,37.416409 C123.992995,37.766095 122.942207,38.4654672 122.241681,39.1648393 L121.541156,39.8642114 C121.190893,40.2138975 121.190893,40.2138975 120.490368,40.5635836 L120.490368,40.5635836 Z M31.5236427,28.3245713 C31.5236427,28.6742573 31.5236427,29.3736295 31.8739054,29.7233155 L32.5744308,30.7723737 C33.2749562,31.1220598 34.3257443,31.4717459 35.0262697,32.171118 C36.0770578,32.8704901 37.4781086,33.2201762 38.5288967,33.9195483 L40.6304729,34.9686065 C40.9807356,34.9686065 40.9807356,34.9686065 41.3309982,35.3182926 C42.0315236,35.6679786 42.3817863,35.6679786 42.732049,36.0176647 C43.0823117,36.3673508 43.0823117,36.0176647 43.4325744,36.3673508 L44.8336252,37.0667229 C45.5341506,37.416409 46.234676,38.1157811 46.5849387,38.4654672 C47.2854641,38.8151532 48.3362522,40.2138975 48.6865149,40.5635836 C50.0875657,42.6616999 50.0875657,42.6616999 50.7880911,44.7598163 C51.1383538,45.8088745 51.1383538,49.6554212 50.7880911,50.7044794 L49.737303,53.1522819 L49.0367776,54.5510262 L49.0367776,54.5510262 L48.6865149,55.2503983 C48.3362522,55.2503983 48.3362522,55.6000844 47.9859895,55.9497704 C47.9859895,55.9497704 47.6357268,55.9497704 47.6357268,56.2994565 C47.2854641,56.6491425 46.9352014,56.9988286 46.5849387,57.3485147 C45.5341506,58.0478868 44.4833625,58.7472589 43.0823117,59.096945 C43.0823117,59.4466311 42.732049,59.4466311 42.3817863,59.4466311 C42.0315236,59.7963171 41.6812609,60.1460032 40.9807356,60.1460032 L39.5796848,60.4956893 C39.2294221,60.4956893 39.5796848,60.4956893 39.2294221,60.4956893 C38.178634,60.8453753 36.0770578,60.8453753 35.3765324,60.8453753 L32.5744308,60.8453753 C31.8739054,60.8453753 30.4728546,60.4956893 29.4220665,60.4956893 L26.619965,60.1460032 C26.2697023,59.7963171 25.9194396,59.7963171 25.9194396,59.7963171 C25.2189142,59.4466311 24.5183888,59.4466311 24.1681261,59.4466311 C23.4676007,59.096945 22.7670753,59.096945 22.4168126,58.7472589 C21.3660245,58.3975729 19.9649737,58.0478868 18.9141856,57.3485147 L18.9141856,47.5573049 C18.9141856,47.2076188 18.9141856,46.8579327 19.2644483,46.8579327 C19.614711,47.2076188 20.3152364,47.5573049 20.6654991,47.9069909 L25.2189142,50.0051073 C26.619965,50.3547934 27.6707531,50.7044794 28.7215412,51.0541655 C29.0718039,51.0541655 29.4220665,51.4038516 29.7723292,51.4038516 L30.8231173,51.4038516 C31.8739054,51.7535376 35.3765324,51.4038516 36.0770578,51.0541655 L36.4273205,50.7044794 C37.4781086,49.6554212 38.178634,48.6063631 37.4781086,47.2076188 C37.4781086,46.8579327 37.1278459,46.5082467 37.1278459,46.1585606 L36.0770578,45.1095024 L35.0262697,44.4101303 L34.676007,44.4101303 C34.3257443,44.0604442 33.9754816,44.0604442 33.9754816,44.0604442 C33.6252189,43.7107581 33.2749562,43.7107581 32.9246935,43.7107581 L29.0718039,41.6126417 L26.2697023,40.2138975 C24.8686515,39.5145254 22.7670753,38.1157811 21.7162872,36.7170368 C21.7162872,36.3673508 21.7162872,36.7170368 21.3660245,36.3673508 C21.3660245,36.3673508 21.0157618,36.0176647 21.0157618,35.6679786 C19.614711,34.2692344 19.2644483,32.5208041 18.9141856,30.7723737 C18.5639229,30.0730016 18.5639229,29.3736295 18.5639229,28.6742573 C18.5639229,27.2755131 18.9141856,25.1773967 19.614711,23.7786524 L19.9649737,22.7295942 C21.0157618,20.9811639 20.6654991,21.680536 22.0665499,20.2817918 C22.4168126,19.5824196 24.5183888,17.8339893 25.2189142,17.8339893 L26.9702277,17.1346172 C27.3204904,17.1346172 27.6707531,16.7849311 28.0210158,16.7849311 C28.0210158,16.7849311 28.3712785,16.7849311 28.7215412,16.4352451 L29.7723292,16.4352451 C30.8231173,16.085559 33.6252189,16.085559 35.0262697,16.085559 L38.8791594,16.085559 C39.2294221,16.4352451 39.5796848,16.4352451 39.9299475,16.4352451 L43.4325744,17.1346172 C43.7828371,17.4843033 44.1330998,17.4843033 44.1330998,17.4843033 C45.1838879,17.8339893 45.8844133,18.1836754 46.5849387,18.5333615 L47.2854641,18.5333615 C47.9859895,18.8830475 48.6865149,19.2327336 49.0367776,19.5824196 C49.3870403,19.5824196 49.3870403,20.2817918 49.3870403,20.9811639 L49.3870403,29.3736295 C49.3870403,30.4226877 49.0367776,29.7233155 48.3362522,29.3736295 C47.6357268,29.0239434 47.2854641,28.6742573 46.9352014,28.3245713 L45.5341506,27.6251991 C44.4833625,27.2755131 43.7828371,26.5761409 43.0823117,26.5761409 L40.6304729,25.5270828 C40.2802102,25.1773967 37.4781086,24.8277106 36.7775832,24.8277106 C35.3765324,24.8277106 33.6252189,24.8277106 32.9246935,25.8767688 C31.8739054,26.2264549 31.5236427,26.925827 31.5236427,28.3245713 L31.5236427,28.3245713 Z M104.378284,63.9925499 L103.677758,63.6428639 C103.327496,63.2931778 102.977233,63.2931778 102.276708,62.9434917 C101.225919,62.5938057 95.6217163,62.9434917 94.2206655,62.9434917 L84.0630473,62.9434917 C83.7127846,62.9434917 83.0122592,62.9434917 82.6619965,62.5938057 C82.6619965,62.5938057 84.0630473,61.5447475 84.41331,61.5447475 C85.1138354,61.1950614 85.8143608,60.8453753 86.5148862,60.8453753 L87.2154116,60.4956893 L88.2661996,60.4956893 C88.2661996,60.1460032 88.2661996,60.1460032 87.915937,60.1460032 C87.915937,60.1460032 87.5656743,59.7963171 87.2154116,59.7963171 C87.2154116,59.7963171 87.2154116,59.7963171 87.2154116,59.4466311 C86.8651489,59.096945 86.5148862,59.4466311 86.1646235,58.3975729 C85.8143608,58.0478868 85.4640981,57.3485147 85.4640981,56.9988286 C85.4640981,55.2503983 85.8143608,53.851654 86.8651489,52.8025958 C87.2154116,52.1032237 88.2661996,51.4038516 89.3169877,51.0541655 L90.0175131,51.0541655 C90.0175131,50.7044794 90.0175131,50.7044794 89.6672504,50.7044794 C89.3169877,50.3547934 88.966725,50.3547934 88.6164623,50.3547934 C88.2661996,50.0051073 87.5656743,50.0051073 87.2154116,49.6554212 C87.2154116,49.3057352 86.8651489,49.3057352 86.5148862,49.3057352 C86.1646235,48.9560491 86.1646235,48.9560491 85.4640981,48.256677 L85.4640981,48.256677 L85.1138354,48.256677 C85.1138354,48.256677 85.1138354,47.9069909 84.7635727,47.9069909 C84.0630473,47.5573049 83.3625219,46.5082467 83.0122592,45.8088745 C82.3117338,44.7598163 82.3117338,44.4101303 81.9614711,43.3610721 C81.9614711,43.011386 81.9614711,43.3610721 81.6112084,43.011386 C81.6112084,41.2629557 81.2609457,39.1648393 81.9614711,37.416409 C81.9614711,37.416409 81.9614711,37.416409 81.9614711,37.0667229 L81.9614711,36.7170368 L83.0122592,34.6189204 C83.3625219,33.5698623 84.41331,32.5208041 85.1138354,31.8214319 C86.1646235,31.1220598 87.2154116,30.4226877 88.2661996,29.7233155 L89.6672504,29.3736295 C90.0175131,29.0239434 90.3677758,29.0239434 90.7180385,29.0239434 C90.7180385,29.0239434 91.0683012,29.0239434 91.4185639,28.6742573 C92.469352,28.3245713 93.8704028,28.3245713 94.9211909,28.3245713 C96.6725044,27.9748852 110.33275,27.9748852 114.185639,27.9748852 L114.535902,27.9748852 C114.886165,27.9748852 114.886165,27.9748852 114.886165,28.3245713 C115.236427,28.3245713 115.236427,34.6189204 114.886165,34.9686065 C114.886165,34.9686065 114.886165,34.9686065 114.535902,34.9686065 L112.434326,34.9686065 L109.632224,34.9686065 C109.632224,35.3182926 109.982487,35.3182926 110.33275,35.6679786 C111.383538,37.0667229 111.7338,37.766095 112.434326,39.5145254 L112.434326,43.011386 C112.084063,43.7107581 111.7338,44.7598163 111.383538,45.4591885 C111.033275,46.1585606 110.33275,47.2076188 109.982487,47.5573049 L109.281961,48.256677 L109.281961,48.256677 L107.180385,49.6554212 C106.47986,50.3547934 105.429072,50.7044794 104.728546,51.0541655 C104.028021,51.0541655 104.028021,51.0541655 103.327496,51.4038516 C102.62697,51.7535376 101.576182,51.7535376 100.875657,51.7535376 L99.474606,51.7535376 C99.1243433,51.7535376 99.1243433,52.1032237 98.4238179,52.1032237 L97.0227671,52.1032237 C95.2714536,52.8025958 95.2714536,54.9007122 96.6725044,55.2503983 L97.0227671,55.6000844 C97.3730298,55.6000844 99.1243433,55.9497704 99.474606,55.9497704 L101.225919,55.9497704 L106.129597,56.6491425 C107.530648,56.9988286 107.880911,57.3485147 108.931699,57.6982007 L109.281961,57.6982007 C109.982487,58.3975729 111.033275,58.7472589 111.7338,59.7963171 L112.434326,60.4956893 L112.784588,60.8453753 C113.134851,61.5447475 113.485114,61.8944335 113.485114,62.5938057 L113.485114,63.6428639 C113.835377,64.691922 113.835377,65.7409802 113.835377,66.7900384 C113.134851,69.2378409 113.134851,68.1887827 113.134851,69.2378409 C112.784588,69.2378409 112.784588,69.587527 112.784588,69.587527 C112.434326,70.2868991 112.434326,70.2868991 112.084063,70.6365852 L111.383538,71.6856433 C111.383538,71.6856433 111.383538,71.3359573 111.383538,71.6856433 C111.7338,72.0353294 131.348511,71.6856433 133.099825,71.6856433 L198.248687,71.6856433 L198.949212,71.6856433 L199.299475,71.6856433 L199.649737,71.6856433 L199.649737,71.6856433 C200,72.3850155 199.649737,92.6668073 199.649737,96.513354 L199.649737,100.010215 C200,100.010215 200,100.359901 200,99.3108425 L200,86.022772 L200,72.7347015 L200,71.6856433 C199.649737,71.3359573 179.684764,71.6856433 177.93345,71.6856433 L111.7338,71.6856433 L111.7338,71.6856433 L111.7338,71.6856433 C112.084063,70.9862712 112.434326,70.9862712 112.434326,70.6365852 L113.134851,69.2378409 C113.485114,68.8881548 113.485114,68.5384688 113.485114,68.1887827 C113.835377,67.1397245 114.185639,65.3912942 113.835377,64.342236 L113.835377,62.9434917 L116.287215,62.9434917 L119.089317,62.9434917 L198.949212,62.9434917 C200,62.9434917 199.649737,62.9434917 199.649737,60.8453753 L199.649737,4.19623278 C199.649737,2.79748852 200,1.0490582 199.649737,0 L174.781086,0 L6.30472855,0 L0,0 L0,31.4717459 L0,62.9434917 L6.65499124,62.9434917 L82.3117338,62.9434917 C83.0122592,63.2931778 84.7635727,62.9434917 85.4640981,62.9434917 L98.4238179,62.9434917 C99.474606,62.9434917 101.926445,62.9434917 102.62697,63.2931778 C103.327496,63.6428639 102.62697,62.9434917 103.677758,63.6428639 C104.028021,64.342236 103.677758,63.9925499 104.378284,63.9925499 L104.378284,63.9925499 Z" id="Shape"></path>
                            <path d="M96.6725044,45.8088745 C98.4238179,45.8088745 99.8248687,45.4591885 100.875657,44.0604442 C101.225919,43.7107581 101.576182,43.3610721 101.926445,42.6616999 C102.276708,42.3120139 102.276708,42.3120139 102.276708,41.6126417 L102.62697,40.5635836 C102.62697,39.8642114 102.276708,38.8151532 101.926445,38.1157811 C101.225919,36.3673508 99.1243433,34.9686065 97.0227671,34.9686065 C95.6217163,34.9686065 94.9211909,35.3182926 93.8704028,36.0176647 C93.5201401,36.3673508 92.469352,37.416409 92.1190893,38.1157811 C91.7688266,39.1648393 91.7688266,38.8151532 91.4185639,40.2138975 C91.4185639,41.6126417 92.1190893,43.3610721 92.8196147,44.0604442 C93.8704028,45.1095024 94.9211909,45.8088745 96.6725044,45.8088745 L96.6725044,45.8088745 Z" id="Shape"></path>
                            <path d="M138.353765,52.4529098 C138.704028,51.0541655 138.353765,47.5573049 138.353765,45.4591885 C138.353765,45.1095024 138.704028,45.1095024 138.353765,45.1095024 C137.65324,45.1095024 137.65324,45.4591885 136.952715,45.4591885 L136.602452,45.8088745 C136.602452,45.8088745 136.602452,45.8088745 136.252189,45.8088745 C135.551664,46.1585606 134.851138,46.5082467 134.150613,46.8579327 L132.749562,47.5573049 C132.399299,47.9069909 132.399299,47.9069909 132.049037,48.256677 L132.049037,48.256677 C131.698774,48.6063631 130.647986,50.0051073 130.647986,50.7044794 C130.647986,52.1032237 130.998249,53.851654 132.049037,54.5510262 C132.749562,54.9007122 132.399299,54.9007122 133.450088,54.9007122 C134.150613,54.9007122 134.500876,54.9007122 135.201401,54.5510262 C136.252189,54.2013401 137.65324,53.1522819 138.353765,52.4529098 L138.353765,52.4529098 Z" id="Shape"></path>
                            <path d="M108.231173,93.0164933 L108.231173,78.3296786 L118.388792,78.3296786 L118.388792,80.427795 C118.038529,80.777481 115.236427,80.777481 114.535902,80.777481 C110.33275,80.777481 111.033275,80.0781089 111.033275,82.5259114 L111.033275,84.6240278 L117.338004,84.6240278 L117.338004,86.7221441 L111.033275,86.7221441 C111.033275,87.0718302 111.033275,86.7221441 111.033275,87.0718302 L111.033275,93.3661794 L108.231173,93.0164933 L108.231173,93.0164933 Z M111.033275,82.1762253 C111.033275,81.4768532 111.033275,80.777481 111.383538,80.777481 L118.388792,80.777481 C118.739054,80.777481 118.388792,80.0781089 118.388792,79.7284228 L118.388792,78.3296786 L117.688266,78.3296786 C114.886165,77.9799925 111.383538,78.3296786 108.581436,78.3296786 C107.880911,78.3296786 108.231173,78.6793647 108.231173,79.0290507 L108.231173,91.9674351 C108.231173,93.0164933 107.880911,93.3661794 108.581436,93.3661794 L111.033275,93.3661794 C111.383538,92.6668073 111.033275,87.7712023 111.033275,87.0718302 C113.134851,87.0718302 115.236427,87.0718302 117.338004,86.7221441 L117.338004,84.6240278 C117.338004,84.2743417 117.338004,84.2743417 116.987741,84.2743417 L111.033275,84.2743417 L111.033275,82.1762253 L111.033275,82.1762253 Z" id="Shape"></path>
                            <path d="M74.6059545,83.2252835 L75.3064799,85.673086 L75.3064799,85.673086 C75.3064799,85.3233999 74.9562172,84.2743417 74.9562172,83.5749696 C74.6059545,83.2252835 74.6059545,81.8265392 74.2556918,81.4768532 L74.2556918,81.4768532 C73.9054291,81.8265392 74.2556918,82.5259114 74.2556918,82.8755974 L74.2556918,84.2743417 L74.2556918,93.0164933 C73.9054291,93.3661794 71.8038529,93.3661794 71.4535902,93.0164933 L71.4535902,93.0164933 L71.4535902,82.1762253 L71.4535902,78.3296786 L76.0070053,78.3296786 C76.0070053,78.6793647 76.0070053,79.3787368 76.357268,79.7284228 L76.0070053,78.3296786 C75.6567426,78.3296786 71.8038529,77.9799925 71.4535902,78.3296786 L71.4535902,79.0290507 C71.4535902,81.4768532 71.1033275,93.0164933 71.4535902,93.3661794 L74.2556918,93.3661794 L74.2556918,90.5686909 L74.2556918,82.8755974 L74.2556918,82.5259114 L74.2556918,82.1762253 C74.6059545,82.1762253 74.6059545,83.2252835 74.6059545,83.2252835 L74.6059545,83.2252835 Z" id="Shape"></path>
                        </g>
                        <path d="M66.5499124,30.0730016 C66.1996497,30.4226877 65.849387,31.8214319 65.849387,32.171118 L65.849387,32.8704901 L65.1488616,34.6189204 C64.7985989,35.3182926 64.4483363,37.416409 64.0980736,37.766095 L64.0980736,38.1157811 L64.0980736,38.4654672 L64.0980736,39.1648393 C64.0980736,39.1648393 64.0980736,39.1648393 63.7478109,39.5145254 L63.7478109,40.2138975 L63.3975482,40.9132696 L63.3975482,41.6126417 L62.3467601,47.9069909 L62.3467601,48.9560491 C62.3467601,51.0541655 62.3467601,52.4529098 62.6970228,54.5510262 C62.6970228,54.9007122 62.6970228,55.2503983 63.0472855,55.6000844 L63.3975482,57.3485147 C63.7478109,57.6982007 63.7478109,58.0478868 64.0980736,58.3975729 C64.0980736,58.7472589 64.7985989,59.4466311 65.1488616,59.4466311 C65.1488616,59.7963171 65.4991243,59.7963171 65.849387,60.1460032 C67.6007005,60.8453753 68.6514886,59.4466311 69.352014,58.0478868 C69.7022767,57.3485147 69.7022767,58.0478868 70.0525394,56.2994565 C70.4028021,55.9497704 70.4028021,55.2503983 70.7530648,54.5510262 L71.1033275,52.4529098 L71.1033275,50.0051073 L71.1033275,47.5573049 C70.7530648,46.5082467 70.7530648,45.4591885 70.4028021,44.4101303 C70.4028021,44.0604442 70.4028021,42.6616999 70.0525394,42.3120139 C70.0525394,41.6126417 69.7022767,39.8642114 69.352014,39.5145254 L69.352014,38.1157811 L69.0017513,36.7170368 C69.0017513,36.7170368 69.0017513,36.3673508 68.6514886,36.3673508 L68.6514886,36.0176647 L67.6007005,32.171118 L67.2504378,31.8214319 C66.9001751,31.1220598 67.2504378,31.1220598 66.9001751,30.7723737 C66.9001751,30.4226877 66.9001751,30.0730016 66.5499124,30.0730016 L66.5499124,30.0730016 Z" id="Shape" fill="#6F6F6F"></path>
                        <path d="M25.9194396,86.7221441 C25.9194396,86.7221441 25.9194396,86.7221441 25.9194396,87.0718302 L25.9194396,93.0164933 C25.5691769,93.3661794 23.4676007,93.3661794 23.117338,93.3661794 L23.117338,78.3296786 L25.9194396,78.3296786 C26.2697023,79.3787368 25.5691769,83.5749696 25.9194396,84.2743417 L27.6707531,84.2743417 L31.8739054,84.2743417 C32.2241681,83.5749696 31.8739054,78.6793647 32.2241681,78.3296786 L32.5744308,78.3296786 L32.9246935,78.3296786 L35.0262697,78.3296786 L35.0262697,93.0164933 C34.676007,93.3661794 34.3257443,93.3661794 34.3257443,93.3661794 L31.8739054,93.3661794 L32.2241681,93.3661794 L32.9246935,93.3661794 L35.0262697,93.3661794 C35.3765324,92.6668073 35.0262697,83.2252835 35.0262697,81.8265392 C35.0262697,77.6303065 35.7267951,77.9799925 33.6252189,77.9799925 C33.2749562,77.9799925 32.5744308,77.9799925 32.2241681,78.3296786 C31.8739054,78.3296786 31.8739054,82.8755974 31.8739054,83.9246556 C31.17338,84.2743417 26.619965,84.2743417 25.9194396,83.9246556 L25.9194396,81.1271671 C25.9194396,77.6303065 26.2697023,78.3296786 24.5183888,78.3296786 C24.1681261,78.3296786 23.117338,77.9799925 22.7670753,78.3296786 L22.7670753,78.3296786 L22.7670753,80.0781089 L22.7670753,89.5196327 C22.7670753,94.0655515 22.4168126,93.3661794 24.5183888,93.3661794 C26.2697023,93.3661794 25.9194396,93.7158655 25.9194396,91.6177491 L25.9194396,86.7221441 L25.9194396,86.7221441 Z" id="Shape" fill="#959596"></path>
                        <path d="M19.614711,78.3296786 L19.614711,80.777481 L15.4115587,80.777481 C15.061296,81.1271671 15.4115587,93.0164933 15.061296,93.3661794 L12.6094571,93.3661794 L12.2591944,93.3661794 C11.9089317,93.0164933 12.6094571,81.4768532 12.2591944,80.777481 L9.80735552,80.777481 L8.75656743,80.777481 C7.35551664,80.777481 7.70577933,80.777481 7.70577933,79.3787368 L7.70577933,78.3296786 L19.614711,78.3296786 L19.614711,78.3296786 Z M7.70577933,80.777481 L11.9089317,80.777481 L11.9089317,93.3661794 L15.4115587,93.3661794 L15.4115587,80.777481 L18.9141856,80.777481 C19.9649737,80.777481 19.614711,81.1271671 19.614711,79.3787368 C19.614711,77.9799925 19.9649737,77.9799925 18.9141856,77.9799925 L8.75656743,77.9799925 C7.70577933,77.9799925 7.70577933,77.9799925 7.70577933,79.0290507 C7.70577933,79.3787368 7.35551664,80.427795 7.70577933,80.777481 L7.70577933,80.777481 Z" id="Shape" fill="#545455"></path>
                    </g>
                </g>
            </g>
        </g>
    </g>
</svg>