<?xml version="1.0" encoding="UTF-8" standalone="no"?>
<svg width="200px" height="200px" viewBox="0 0 200 200" version="1.1" xmlns="http://www.w3.org/2000/svg" xmlns:xlink="http://www.w3.org/1999/xlink" xmlns:sketch="http://www.bohemiancoding.com/sketch/ns">
    <!-- Generator: Sketch 3.4.2 (15855) - http://www.bohemiancoding.com/sketch -->
    <title>200x200-clientes14</title>
    <desc>Created with Sketch.</desc>
    <defs></defs>
    <g id="Page-1" stroke="none" stroke-width="1" fill="none" fill-rule="evenodd" sketch:type="MSPage">
        <g id="200x200-clientes" sketch:type="MSArtboardGroup">
            <g id="artelum-4" sketch:type="MSLayerGroup" transform="translate(1.000000, 83.000000)">
                <g id="Layer_x0020_1" sketch:type="MSShapeGroup">
                    <g id="_1023490000" transform="translate(0.000000, 0.333659)">
                        <g id="Group" fill="#C7C7C7">
                            <path d="M2.85035629,1.4228319 C3.08788599,0.948554599 2.85035629,1.18569325 3.80047506,0.948554599 L10.2137767,1.18569325 L10.2137767,1.18569325 L10.6888361,1.65997055 L10.2137767,1.65997055 C9.73871734,1.65997055 9.97624703,1.65997055 9.73871734,1.8971092 L11.1638955,2.13424785 C10.4513064,2.3713865 9.73871734,2.13424785 10.6888361,2.60852515 C11.1638955,2.8456638 11.8764846,2.8456638 12.3515439,3.08280245 L11.4014252,3.3199411 L11.6389549,3.3199411 L12.1140143,3.7942184 L11.4014252,3.7942184 L11.6389549,4.03135705 C13.3016627,4.742773 22.5653207,7.35129815 24.4655582,8.29985274 L24.4655582,7.5884368 L30.6413302,9.48554599 C30.4038005,8.77413004 30.4038005,9.24840734 29.216152,8.77413004 C28.5035629,8.53699139 28.9786223,8.77413004 28.7410926,8.53699139 C29.216152,8.53699139 30.4038005,9.01126869 30.6413302,8.77413004 C29.4536817,8.29985274 28.2660333,8.0627141 27.0783848,7.5884368 C25.6532067,7.35129815 24.2280285,7.1141595 23.04038,6.40274355 C25.1781473,6.6398822 29.4536817,8.0627141 30.8788599,8.0627141 C29.6912114,7.5884368 29.4536817,7.82557545 28.5035629,7.1141595 L30.4038005,7.35129815 L30.8788599,7.35129815 L27.3159145,6.6398822 L27.5534442,6.6398822 L21.6152019,5.6913276 L23.2779097,6.6398822 L21.1401425,5.92846625 C22.0902613,5.45418895 21.1401425,5.92846625 21.6152019,5.45418895 L21.8527316,5.2170503 C21.6152019,4.50563435 22.5653207,5.45418895 21.3776722,4.50563435 L21.1401425,4.50563435 L23.04038,4.2684957 C22.5653207,3.7942184 23.04038,4.03135705 22.5653207,3.7942184 L21.8527316,3.7942184 L22.327791,3.7942184 C22.8028504,3.55707975 22.5653207,3.7942184 22.8028504,3.55707975 C21.8527316,3.55707975 21.6152019,3.55707975 20.6650831,3.08280245 L30.6413302,4.2684957 C30.1662708,3.55707975 26.3657957,3.7942184 24.9406176,3.3199411 L30.8788599,3.55707975 C30.1662708,2.8456638 27.7909739,3.3199411 26.6033254,2.8456638 L30.8788599,2.8456638 C28.9786223,1.8971092 23.5154394,2.8456638 21.3776722,1.8971092 L23.2779097,1.4228319 C23.2779097,1.65997055 23.2779097,1.4228319 23.2779097,1.4228319 C23.5154394,1.65997055 23.5154394,1.4228319 23.5154394,1.4228319 C25.1781473,1.18569325 22.5653207,1.65997055 23.9904988,1.4228319 L30.4038005,1.4228319 C29.4536817,1.18569325 12.3515439,0.948554599 9.26365796,0.948554599 C7.60095012,0.71141595 3.32541568,0.4742773 1.90023753,0.948554599 L2.85035629,1.4228319 L2.85035629,1.4228319 Z" id="Shape"></path>
                            <path d="M0.712589074,10.9083779 C0.475059382,12.3312098 0.950118765,14.4654576 0.950118765,15.6511509 L0.950118765,20.6310625 C1.18764846,23.9510036 1.18764846,27.5080834 1.18764846,30.8280245 L1.18764846,23.2395877 C1.18764846,20.3939239 1.42517815,18.259676 1.66270784,15.6511509 C1.42517815,15.8882895 1.42517815,16.5997055 1.42517815,17.3111214 C2.13776722,17.5482601 1.18764846,17.5482601 1.90023753,17.3111214 C2.13776722,17.0739828 1.90023753,17.3111214 1.90023753,17.3111214 C2.13776722,16.5997055 1.90023753,17.0739828 1.90023753,17.0739828 L2.13776722,21.3424785 C2.6128266,22.0538944 2.13776722,22.5281717 2.6128266,23.2395877 L2.6128266,21.1053398 C2.85035629,21.8167558 2.6128266,21.5796171 3.08788599,22.5281717 L3.32541568,23.002449 C3.08788599,21.5796171 2.85035629,20.8682012 3.08788599,19.6825079 C2.37529691,20.1567852 2.6128266,19.9196466 2.6128266,21.1053398 L2.6128266,19.2082306 C2.13776722,19.6825079 2.37529691,19.2082306 2.13776722,19.9196466 L2.13776722,20.8682012 C2.13776722,19.2082306 2.37529691,17.7853987 2.6128266,16.1254282 L2.6128266,17.5482601 C3.08788599,17.0739828 2.85035629,17.5482601 3.32541568,16.3625668 C2.37529691,17.5482601 4.03800475,18.0225374 3.56294537,16.5997055 C3.56294537,18.259676 3.32541568,16.8368441 4.03800475,17.5482601 C4.27553444,16.8368441 4.27553444,16.5997055 4.51306413,16.1254282 C4.51306413,16.1254282 4.03800475,16.3625668 4.51306413,16.5997055 L4.75059382,16.5997055 C4.51306413,17.3111214 4.03800475,18.0225374 4.03800475,18.971092 L4.27553444,18.971092 C4.51306413,20.3939239 4.27553444,17.7853987 4.27553444,19.6825079 L4.27553444,20.6310625 L4.98812352,20.1567852 C5.22565321,19.6825079 5.22565321,19.6825079 5.22565321,18.971092 C5.22565321,19.2082306 5.22565321,19.4453693 5.4631829,19.4453693 C6.65083135,19.6825079 5.4631829,19.4453693 5.93824228,18.7339533 L6.17577197,18.7339533 L6.17577197,18.7339533 C5.93824228,17.7853987 4.27553444,11.8569325 3.56294537,11.1455165 L3.32541568,11.8569325 L2.85035629,12.8054871 C2.85035629,11.6197938 2.6128266,11.3826552 2.37529691,10.6712392 L1.66270784,9.72268464 L1.42517815,10.9083779 L0.950118765,9.72268464 L0.712589074,10.9083779 L0.712589074,10.9083779 Z" id="Shape"></path>
                            <path d="M0.237529691,0.23713865 L31.3539192,0.23713865 L31.3539192,31.5394404 L0.237529691,31.5394404 L0.237529691,0.23713865 L0.237529691,0.23713865 Z M0,31.7765791 L31.3539192,31.5394404 C31.8289786,30.1166085 31.8289786,2.13424785 31.3539192,0.23713865 C29.4536817,-1.38777878e-17 0.950118765,-1.38777878e-17 0,0.23713865 L0,31.7765791 L0,31.7765791 Z" id="Shape"></path>
                            <path d="M24.4655582,4.03135705 L23.2779097,4.2684957 L23.9904988,4.742773 C23.04038,4.50563435 23.04038,4.50563435 22.5653207,4.742773 L24.4655582,4.97991165 L24.2280285,4.97991165 C23.7529691,5.6913276 24.2280285,4.97991165 23.2779097,5.2170503 L23.2779097,5.2170503 C23.04038,5.2170503 23.04038,5.2170503 23.04038,5.45418895 L26.128266,5.92846625 C26.128266,5.6913276 24.9406176,5.45418895 24.2280285,4.97991165 L30.6413302,6.1656049 C30.6413302,5.6913276 30.1662708,5.92846625 29.6912114,5.6913276 C28.2660333,5.45418895 26.128266,5.2170503 25.415677,4.742773 L30.6413302,5.45418895 C30.1662708,4.97991165 29.216152,4.97991165 28.7410926,4.97991165 L26.3657957,4.50563435 C26.3657957,4.50563435 26.3657957,4.50563435 26.128266,4.50563435 L26.128266,4.2684957 L28.9786223,4.742773 C28.9786223,4.50563435 28.7410926,4.50563435 28.7410926,4.50563435 L28.2660333,4.50563435 C28.2660333,4.2684957 27.7909739,4.2684957 27.5534442,4.2684957 C27.0783848,4.03135705 26.6033254,4.03135705 26.128266,4.03135705 C25.1781473,4.03135705 24.2280285,3.55707975 23.04038,3.55707975 C23.5154394,3.7942184 23.2779097,3.7942184 23.7529691,4.03135705 L24.4655582,4.03135705 L24.4655582,4.03135705 Z" id="Shape"></path>
                        </g>
                        <path d="M193.111639,13.2797644 C191.686461,15.1768736 187.410926,24.1881423 186.223278,25.1366969 L180.047506,13.2797644 L172.446556,13.2797644 C172.209026,15.1768736 173.634204,13.2797644 175.296912,15.8882895 C176.247031,17.3111214 175.771971,25.6109742 175.771971,27.5080834 C175.771971,30.3537472 176.247031,30.5908858 173.396675,31.0651631 L173.396675,32.0137177 L179.809976,32.0137177 L179.809976,31.0651631 C177.434679,30.3537472 177.434679,31.5394404 177.434679,26.5595288 L177.434679,19.4453693 C178.384798,20.6310625 179.809976,24.1881423 180.760095,25.6109742 C181.235154,26.7966674 181.710214,27.745222 182.185273,28.9309153 C182.422803,29.4051926 183.372922,32.0137177 184.085511,32.0137177 C185.273159,31.7765791 185.748219,29.8794699 186.223278,28.9309153 L191.448931,19.4453693 C191.448931,21.1053398 191.686461,29.1680539 191.211401,30.3537472 C190.498812,31.0651631 190.023753,30.8280245 188.836105,31.0651631 L189.073634,32.0137177 L199.76247,32.0137177 C200,30.1166085 199.049881,31.3023018 197.624703,30.3537472 C196.912114,29.8794699 197.149644,16.5997055 197.387173,15.6511509 C197.862233,13.2797644 200,15.4140122 200,13.2797644 C199.049881,13.0426257 194.536817,13.2797644 193.111639,13.2797644 L193.111639,13.2797644 Z" id="Shape" fill="#000000"></path>
                        <path d="M71.9714964,14.4654576 C75.2969121,14.4654576 76.2470309,14.9397349 76.2470309,18.4968147 C76.0095012,21.8167558 75.0593824,22.5281717 71.9714964,22.5281717 L71.9714964,14.4654576 L71.9714964,14.4654576 Z M82.4228029,17.0739828 C81.9477435,14.228319 79.0973872,13.2797644 76.0095012,13.2797644 L63.4204276,13.2797644 L63.4204276,14.228319 C64.608076,14.4654576 65.0831354,14.4654576 66.0332542,14.7025963 L66.0332542,29.1680539 C66.0332542,31.0651631 65.3206651,30.8280245 63.4204276,31.0651631 L63.6579572,32.0137177 L74.3467933,32.0137177 L74.3467933,31.0651631 C71.9714964,30.8280245 71.9714964,31.0651631 71.9714964,28.456638 L71.9714964,24.4252809 C72.4465558,22.7653104 73.6342043,24.4252809 73.871734,25.1366969 L76.7220903,29.8794699 C77.4346793,31.0651631 77.9097387,32.0137177 79.8099762,32.0137177 L84.7980998,32.0137177 C84.7980998,30.1166085 79.0973872,25.3738355 78.3847981,23.2395877 C80.760095,21.8167558 83.3729216,20.6310625 82.4228029,17.0739828 L82.4228029,17.0739828 Z" id="Shape" fill="#000000"></path>
                        <path d="M122.327791,14.9397349 C124.228029,16.1254282 123.04038,17.5482601 124.940618,17.5482601 L124.940618,13.2797644 L109.263658,13.2797644 C108.788599,15.8882895 111.638955,12.3312098 111.638955,16.3625668 L111.638955,18.971092 C111.638955,32.9622723 112.351544,30.1166085 109.263658,31.0651631 L109.263658,32.0137177 L125.890736,32.0137177 L126.603325,27.0338061 C125.415677,27.0338061 125.415677,27.9823607 124.465558,28.9309153 C123.04038,30.3537472 121.140143,31.0651631 118.764846,30.5908858 C117.577197,30.3537472 117.577197,29.6423312 117.577197,28.2194993 L117.577197,23.002449 C124.465558,22.5281717 120.427553,25.8481128 123.04038,25.8481128 L123.04038,18.7339533 C121.140143,18.4968147 123.04038,19.6825079 121.377672,21.1053398 C120.427553,21.8167558 118.764846,21.5796171 117.577197,21.5796171 L117.577197,14.4654576 C119.002375,14.4654576 121.140143,14.228319 122.327791,14.9397349 L122.327791,14.9397349 Z" id="Shape" fill="#000000"></path>
                        <path d="M160.570071,13.2797644 C159.382423,13.0426257 150.356295,13.0426257 149.643705,13.2797644 C149.643705,14.4654576 149.406176,14.228319 150.831354,14.228319 C151.306413,14.4654576 151.781473,14.4654576 152.019002,14.9397349 C152.494062,18.7339533 151.543943,24.6624196 152.731591,27.9823607 C153.68171,31.3023018 157.719715,32.7251337 162.232779,32.2508564 C169.35867,31.3023018 168.171021,24.4252809 168.171021,17.5482601 C168.171021,14.228319 168.408551,14.7025963 169.833729,14.228319 C170.783848,13.9911803 170.546318,14.4654576 170.546318,13.2797644 C169.833729,13.0426257 164.845606,13.0426257 164.133017,13.2797644 C164.133017,14.9397349 164.370546,13.9911803 165.558195,14.4654576 C166.983373,14.9397349 166.508314,19.2082306 166.508314,21.5796171 C166.508314,24.8995582 166.983373,28.9309153 163.895487,29.8794699 C159.857482,30.8280245 158.194774,28.9309153 158.194774,25.1366969 C157.957245,23.4767263 157.719715,15.6511509 158.432304,14.7025963 C159.144893,13.9911803 160.095012,14.4654576 160.570071,13.9911803 L160.570071,13.2797644 L160.570071,13.2797644 Z" id="Shape" fill="#000000"></path>
                        <path d="M48.2185273,18.7339533 L50.5938242,24.8995582 L45.6057007,24.8995582 C45.8432304,23.4767263 46.7933492,21.5796171 47.2684086,20.1567852 C47.5059382,19.6825079 47.7434679,19.2082306 48.2185273,18.7339533 L48.2185273,18.7339533 Z M45.1306413,32.0137177 C45.368171,29.8794699 43.4679335,31.7765791 43.9429929,29.4051926 C43.9429929,28.6937766 44.6555819,27.5080834 44.8931116,26.3223901 L51.0688836,26.5595288 C51.7814727,27.2709447 52.4940618,29.1680539 52.2565321,30.3537472 C51.3064133,31.3023018 50.8313539,30.3537472 51.0688836,32.0137177 L61.0451306,32.0137177 C61.0451306,29.8794699 59.3824228,31.7765791 57.719715,28.2194993 C57.0071259,26.5595288 56.2945368,24.6624196 55.5819477,23.002449 C54.8693587,21.3424785 54.1567696,19.6825079 53.4441805,18.0225374 C52.9691211,16.8368441 51.7814727,13.7540417 51.0688836,12.8054871 L48.9311164,12.8054871 C48.456057,13.7540417 45.6057007,21.1053398 44.8931116,22.7653104 C43.9429929,24.4252809 43.4679335,26.3223901 42.7553444,27.745222 C41.3301663,31.0651631 40.1425178,30.5908858 39.192399,31.0651631 L39.192399,32.0137177 L45.1306413,32.0137177 L45.1306413,32.0137177 Z" id="Shape" fill="#000000"></path>
                        <path d="M86.4608076,17.3111214 C88.3610451,17.3111214 87.4109264,16.1254282 89.3111639,15.1768736 C90.2612827,14.4654576 91.9239905,14.4654576 93.5866983,14.4654576 C93.5866983,16.8368441 93.824228,29.1680539 93.3491686,30.3537472 C92.3990499,31.0651631 91.9239905,30.8280245 90.9738717,31.0651631 L90.9738717,32.0137177 C92.8741093,32.0137177 100.712589,32.2508564 101.900238,31.7765791 L101.900238,31.0651631 C100.950119,30.8280245 100.475059,30.8280245 99.5249406,30.5908858 C99.0498812,27.9823607 99.2874109,17.7853987 99.5249406,14.7025963 C102.137767,14.228319 103.562945,14.4654576 104.988124,16.3625668 C105.463183,17.0739828 105.463183,17.3111214 106.650831,17.3111214 L105.700713,13.2797644 L87.1733967,13.2797644 L86.4608076,17.3111214 L86.4608076,17.3111214 Z" id="Shape" fill="#000000"></path>
                        <path d="M138.004751,16.3625668 C138.004751,14.228319 138.47981,14.4654576 140.617577,14.228319 L140.617577,13.2797644 L129.691211,13.2797644 C129.691211,15.6511509 132.304038,12.8054871 132.304038,16.1254282 C132.304038,19.4453693 132.304038,27.5080834 132.066508,30.3537472 C130.64133,31.3023018 129.691211,30.3537472 129.691211,32.0137177 L146.555819,32.0137177 L147.268409,27.0338061 C145.368171,27.2709447 144.655582,31.5394404 139.429929,30.5908858 C138.24228,30.3537472 138.004751,29.6423312 138.004751,28.456638 L138.004751,16.3625668 L138.004751,16.3625668 Z" id="Shape" fill="#000000"></path>
                        <path d="M0.712589074,10.9083779 L0.712589074,2.3713865 C1.42517815,3.3199411 3.32541568,9.95982329 3.56294537,11.1455165 C4.27553444,11.8569325 5.93824228,17.7853987 6.17577197,18.7339533 L6.17577197,18.7339533 L5.93824228,18.7339533 C5.4631829,19.4453693 6.65083135,19.6825079 5.4631829,19.4453693 C5.22565321,19.4453693 5.22565321,19.2082306 5.22565321,18.971092 C5.22565321,19.6825079 5.22565321,19.6825079 4.98812352,20.1567852 L4.27553444,20.6310625 L4.27553444,19.6825079 C4.27553444,17.7853987 4.51306413,20.3939239 4.27553444,18.971092 L4.03800475,18.971092 C4.03800475,18.0225374 4.51306413,17.3111214 4.75059382,16.5997055 L4.51306413,16.5997055 C4.03800475,16.3625668 4.51306413,16.1254282 4.51306413,16.1254282 C4.27553444,16.5997055 4.27553444,16.8368441 4.03800475,17.5482601 C3.32541568,16.8368441 3.56294537,18.259676 3.56294537,16.5997055 C4.03800475,18.0225374 2.37529691,17.5482601 3.32541568,16.3625668 C2.85035629,17.5482601 3.08788599,17.0739828 2.6128266,17.5482601 L2.6128266,16.1254282 C2.37529691,17.7853987 2.13776722,19.2082306 2.13776722,20.8682012 L2.13776722,19.9196466 C2.37529691,19.2082306 2.13776722,19.6825079 2.6128266,19.2082306 L2.6128266,21.1053398 C2.6128266,19.9196466 2.37529691,20.1567852 3.08788599,19.6825079 C2.85035629,20.8682012 3.08788599,21.5796171 3.32541568,23.002449 L3.08788599,22.5281717 C2.6128266,21.5796171 2.85035629,21.8167558 2.6128266,21.1053398 L2.6128266,23.2395877 C2.13776722,22.5281717 2.6128266,22.0538944 2.13776722,21.3424785 L1.90023753,17.0739828 C1.90023753,17.0739828 2.13776722,16.5997055 1.90023753,17.3111214 C1.90023753,17.3111214 2.13776722,17.0739828 1.90023753,17.3111214 C1.18764846,17.5482601 2.13776722,17.5482601 1.42517815,17.3111214 C1.42517815,16.5997055 1.42517815,15.8882895 1.66270784,15.6511509 C1.42517815,18.259676 1.18764846,20.3939239 1.18764846,23.2395877 L1.18764846,30.8280245 C1.18764846,27.5080834 1.18764846,23.9510036 0.950118765,20.6310625 L0.950118765,15.6511509 C0.950118765,14.4654576 0.475059382,12.3312098 0.712589074,10.9083779 L0.712589074,10.9083779 Z M24.4655582,4.03135705 L23.7529691,4.03135705 C23.2779097,3.7942184 23.5154394,3.7942184 23.04038,3.55707975 C24.2280285,3.55707975 25.1781473,4.03135705 26.128266,4.03135705 C26.6033254,4.03135705 27.0783848,4.03135705 27.5534442,4.2684957 C27.7909739,4.2684957 28.2660333,4.2684957 28.2660333,4.50563435 L28.7410926,4.50563435 C28.7410926,4.50563435 28.9786223,4.50563435 28.9786223,4.742773 L26.128266,4.2684957 L26.128266,4.50563435 L26.3657957,4.50563435 L28.7410926,4.97991165 C29.216152,4.97991165 30.1662708,4.97991165 30.6413302,5.45418895 L25.415677,4.742773 C26.128266,5.2170503 28.2660333,5.45418895 29.6912114,5.6913276 C30.1662708,5.92846625 30.6413302,5.6913276 30.6413302,6.1656049 L24.2280285,4.97991165 C24.9406176,5.45418895 26.128266,5.6913276 26.128266,5.92846625 L23.04038,5.45418895 C23.04038,5.2170503 23.04038,5.2170503 23.2779097,5.2170503 L23.2779097,5.2170503 C24.2280285,4.97991165 23.7529691,5.6913276 24.2280285,4.97991165 L24.4655582,4.97991165 L22.5653207,4.742773 C23.04038,4.50563435 23.04038,4.50563435 23.9904988,4.742773 L23.2779097,4.2684957 L24.4655582,4.03135705 L24.4655582,4.03135705 Z M11.6389549,30.8280245 C11.1638955,30.1166085 1.42517815,2.13424785 0.950118765,1.18569325 L30.8788599,11.8569325 L30.6413302,30.8280245 L11.6389549,30.8280245 L11.6389549,30.8280245 Z M11.4014252,3.7942184 C10.2137767,3.55707975 3.80047506,1.18569325 2.85035629,1.4228319 L1.90023753,0.948554599 C3.32541568,0.4742773 7.60095012,0.71141595 9.26365796,0.948554599 C12.3515439,0.948554599 29.4536817,1.18569325 30.4038005,1.4228319 L23.9904988,1.4228319 C22.5653207,1.65997055 25.1781473,1.18569325 23.5154394,1.4228319 C23.5154394,1.4228319 23.5154394,1.65997055 23.2779097,1.4228319 C23.2779097,1.4228319 23.2779097,1.65997055 23.2779097,1.4228319 L21.3776722,1.8971092 C23.5154394,2.8456638 28.9786223,1.8971092 30.8788599,2.8456638 L26.6033254,2.8456638 C27.7909739,3.3199411 30.1662708,2.8456638 30.8788599,3.55707975 L24.9406176,3.3199411 C26.3657957,3.7942184 30.1662708,3.55707975 30.6413302,4.2684957 L20.6650831,3.08280245 C21.6152019,3.55707975 21.8527316,3.55707975 22.8028504,3.55707975 C22.5653207,3.7942184 22.8028504,3.55707975 22.327791,3.7942184 L21.8527316,3.7942184 L22.5653207,3.7942184 C23.04038,4.03135705 22.5653207,3.7942184 23.04038,4.2684957 L21.1401425,4.50563435 L21.3776722,4.50563435 C22.5653207,5.45418895 21.6152019,4.50563435 21.8527316,5.2170503 L21.6152019,5.45418895 C21.1401425,5.92846625 22.0902613,5.45418895 21.1401425,5.92846625 L23.2779097,6.6398822 L21.6152019,5.6913276 L27.5534442,6.6398822 L27.3159145,6.6398822 L30.8788599,7.35129815 L30.4038005,7.35129815 L28.5035629,7.1141595 C29.4536817,7.82557545 29.6912114,7.5884368 30.8788599,8.0627141 C29.4536817,8.0627141 25.1781473,6.6398822 23.04038,6.40274355 C24.2280285,7.1141595 25.6532067,7.35129815 27.0783848,7.5884368 C28.2660333,8.0627141 29.4536817,8.29985274 30.6413302,8.77413004 C30.4038005,9.01126869 29.216152,8.53699139 28.7410926,8.53699139 C28.9786223,8.77413004 28.5035629,8.53699139 29.216152,8.77413004 C30.4038005,9.24840734 30.4038005,8.77413004 30.6413302,9.48554599 L24.4655582,7.5884368 L24.4655582,8.29985274 C22.5653207,7.35129815 13.3016627,4.742773 11.6389549,4.03135705 L11.4014252,3.7942184 L11.4014252,3.7942184 Z M0.237529691,31.5394404 L31.3539192,31.5394404 L31.3539192,0.23713865 L0.237529691,0.23713865 L0.237529691,31.5394404 L0.237529691,31.5394404 Z" id="Shape" fill="#A7A8A8"></path>
                    </g>
                </g>
            </g>
        </g>
    </g>
</svg>