<?xml version="1.0" encoding="UTF-8" standalone="no"?>
<svg width="200px" height="200px" viewBox="0 0 200 200" version="1.1" xmlns="http://www.w3.org/2000/svg" xmlns:xlink="http://www.w3.org/1999/xlink" xmlns:sketch="http://www.bohemiancoding.com/sketch/ns">
    <!-- Generator: Sketch 3.4.2 (15855) - http://www.bohemiancoding.com/sketch -->
    <title>200x200-clientes8</title>
    <desc>Created with Sketch.</desc>
    <defs></defs>
    <g id="Page-1" stroke="none" stroke-width="1" fill="none" fill-rule="evenodd" sketch:type="MSPage">
        <g id="200x200-clientes" sketch:type="MSArtboardGroup" fill="#3F3F3F">
            <g id="rehau-2" sketch:type="MSLayerGroup" transform="translate(0.000000, 71.000000)">
                <g id="Layer_x0020_1" sketch:type="MSShapeGroup">
                    <g id="_1755479808" transform="translate(0.213012, 0.774358)">
                        <path d="M134.476031,23.2195092 C134.177417,21.1445743 134.177417,15.8090275 134.376493,13.8328991 C134.774646,10.3746743 136.267718,9.78183577 139.751553,10.1770615 C140.348782,12.5484156 140.249244,20.6505422 139.950629,23.2195092 L134.476031,23.2195092 L134.476031,23.2195092 Z M155.876732,0 L123.82545,0 C121.038382,1.87732202 118.45039,2.17374128 118.251314,9.97944862 C117.952699,17.4887367 117.753623,52.8614357 118.45039,56.0232412 L132.684345,56.1220477 C134.874184,55.9244348 134.376493,55.5292091 134.376493,52.9602422 C134.276955,46.2414055 134.376493,39.5225688 134.376493,32.8037321 L140.050167,32.8037321 L140.050167,55.9244348 L155.876732,56.0232412 L155.876732,0 L155.876732,0 Z" id="Shape"></path>
                        <path d="M15.9261029,9.97944862 C20.6043956,9.38661009 21.5002389,11.0663193 21.5002389,15.7102211 L21.5002389,16.6982853 C21.5002389,20.6505422 20.6043956,23.0218963 16.8219462,23.1207027 L15.9261029,22.9230899 L15.9261029,9.97944862 L15.9261029,9.97944862 Z M0,56.0232412 L15.6274885,56.0232412 L16.1251792,32.7049257 C22.7942348,32.0132807 21.6993152,35.4715055 21.6993152,41.0046651 L21.6993152,55.6280156 L37.9240325,55.8256284 L37.9240325,40.0166009 C37.9240325,34.3846348 39.2180283,29.3455073 33.9425068,27.6657981 C36.0328078,25.6896697 37.4263418,25.6896697 37.6254181,21.4409936 C37.8244943,14.2281248 38.7203376,5.53315963 33.2457398,1.7785156 L29.8614429,0 L0,0 L0,56.0232412 L0,56.0232412 Z" id="Shape"></path>
                        <path d="M112.378563,0 L96.8506132,0 L96.4524606,23.2195092 L90.8783246,23.2195092 L90.5797101,0 L75.151298,0 L75.151298,56.0232412 L90.2810957,56.0232412 L90.7787864,32.8037321 L96.5519987,32.8037321 L96.6515369,56.0232412 L112.776716,56.1220477 L112.776716,54.4423385 L112.378563,0 Z" id="Shape"></path>
                        <path d="M177.576047,0 L161.849021,0 C160.853639,10.6710936 161.749482,25.986089 161.749482,37.1512147 C161.749482,53.8495 162.744864,56.4184669 180.263577,56.5172734 C197.483676,56.7148862 199.573977,54.9363706 199.573977,38.1392789 L199.573977,0.197612844 L183.548336,0.197612844 C183.448798,8.20093302 183.448798,16.3030596 183.448798,24.3063798 C183.448798,30.0371523 184.543717,42.9807936 182.353878,46.7354376 C176.87928,47.7235018 177.675585,43.6724385 177.675585,39.1273431 C177.675585,30.2347651 178.173276,5.63196605 177.576047,0 L177.576047,0 Z" id="Shape"></path>
                        <path d="M69.4776238,0 L43.4981685,0 L43.3986304,56.0232412 L69.4776238,56.0232412 C70.0748527,53.8495 70.0748527,48.6127596 69.4776238,46.4390183 L59.3247332,46.4390183 L59.3247332,32.8037321 L69.6767001,32.8037321 L69.7762383,23.2195092 L59.4242714,23.2195092 L59.3247332,9.68302935 L69.7762383,9.68302935 L69.4776238,0 L69.4776238,0 Z" id="Shape"></path>
                    </g>
                </g>
            </g>
        </g>
    </g>
</svg>