<?xml version="1.0" encoding="UTF-8"?>
<svg width="583px" height="189px" viewBox="0 0 583 189" version="1.1" xmlns="http://www.w3.org/2000/svg" xmlns:xlink="http://www.w3.org/1999/xlink" xmlns:sketch="http://www.bohemiancoding.com/sketch/ns">
    <!-- Generator: Sketch 3.4.2 (15855) - http://www.bohemiancoding.com/sketch -->
    <title>Capa_x0020_1 + SISTEMA CONSTRUCTIVO</title>
    <desc>Created with Sketch.</desc>
    <defs>
        <linearGradient x1="73.1656652%" y1="93.6395604%" x2="27.6549356%" y2="6.24483516%" id="linearGradient-1">
            <stop stop-color="#869D81" offset="0%"></stop>
            <stop stop-color="#5F705D" offset="65.8824%"></stop>
            <stop stop-color="#384238" offset="100%"></stop>
        </linearGradient>
        <linearGradient x1="92.6187253%" y1="76.5583646%" x2="7.558092%" y2="23.2503864%" id="linearGradient-2">
            <stop stop-color="#28A652" offset="0%"></stop>
            <stop stop-color="#09AD55" offset="94.902%"></stop>
            <stop stop-color="#23A654" offset="100%"></stop>
        </linearGradient>
    </defs>
    <g id="Page-1" stroke="none" stroke-width="1" fill="none" fill-rule="evenodd" sketch:type="MSPage">
        <g id="Artboard-1" sketch:type="MSArtboardGroup" transform="translate(-15.000000, -34.000000)">
            <g id="Capa_x0020_1-+-SISTEMA-CONSTRUCTIVO" sketch:type="MSLayerGroup" transform="translate(14.000000, 34.000000)">
                <g id="Capa_x0020_1" sketch:type="MSShapeGroup">
                    <g id="_754527952">
                        <path d="M364.290061,150.374233 L410.567951,150.374233 C425.993915,149.190184 439.046653,148.006135 444.979716,137.349693 C450.912779,127.877301 450.912779,110.116564 449.726166,97.0920245 C448.539554,86.4355828 446.166329,78.1472393 436.673428,74.595092 C433.11359,73.4110429 430.740365,73.4110429 425.993915,73.4110429 L425.993915,72.2269939 C439.046653,69.8588957 447.352941,65.1226994 449.726166,50.9141104 C450.912779,44.993865 450.912779,36.7055215 449.726166,29.601227 C446.166329,8.28834356 430.740365,4.73619632 408.194726,4.73619632 C405.821501,3.55214724 366.663286,3.55214724 364.290061,4.73619632 L364.290061,150.374233 L364.290061,150.374233 Z M398.701826,129.06135 C404.634888,130.245399 410.567951,127.877301 414.127789,124.325153 C416.501014,119.588957 416.501014,111.300613 416.501014,105.380368 C416.501014,95.9079755 416.501014,86.4355828 408.194726,84.0674847 L398.701826,84.0674847 L398.701826,129.06135 L398.701826,129.06135 Z M398.701826,62.7546012 C399.888438,63.9386503 405.821501,62.7546012 407.008114,62.7546012 C410.567951,62.7546012 411.754564,61.5705521 412.941176,59.202454 C417.687627,54.4662577 417.687627,33.1533742 412.941176,28.4171779 C410.567951,24.8650307 403.448276,24.8650307 398.701826,24.8650307 L398.701826,62.7546012 L398.701826,62.7546012 Z" id="Shape" fill="#FEFEFE"></path>
                        <path d="M561.267748,143.269939 C562.454361,144.453988 562.454361,148.006135 563.640974,150.374233 L583.813387,150.374233 L583.813387,76.9631902 L536.348884,76.9631902 L536.348884,98.2760736 L549.401623,98.2760736 C549.401623,104.196319 549.401623,119.588957 548.21501,123.141104 C548.21501,126.693252 545.841785,129.06135 542.281947,129.06135 C528.042596,131.429448 531.602434,113.668712 531.602434,101.828221 L531.602434,50.9141104 C531.602434,40.2576687 528.042596,21.3128834 542.281947,24.8650307 C545.841785,26.0490798 548.21501,27.2331288 549.401623,31.9693252 C550.588235,37.8895706 549.401623,49.7300613 549.401623,56.8343558 L583.813387,56.8343558 C585,27.2331288 581.440162,3.55214724 547.028398,1.18404908 C514.989858,-1.18404908 497.190669,13.0245399 497.190669,43.809816 L497.190669,88.803681 C497.190669,116.03681 492.444219,149.190184 525.669371,152.742331 C535.162272,153.92638 547.028398,152.742331 555.334686,148.006135 C558.894523,145.638037 560.081136,144.453988 561.267748,143.269939 L561.267748,143.269939 Z" id="Shape" fill="#FEFEFE"></path>
                        <path d="M456.845842,150.374233 L491.257606,150.374233 L491.257606,4.73619632 L456.845842,3.55214724 L456.845842,150.374233 Z" id="Shape" fill="#FEFEFE"></path>
                        <path d="M46.2778905,150.374233 L55.7707911,150.374233 L55.7707911,54.4662577 C56.9574037,56.8343558 66.4503043,108.932515 68.8235294,117.220859 C70.010142,112.484663 71.1967546,106.564417 71.1967546,101.828221 C72.3833671,95.9079755 73.5699797,91.1717791 74.7565923,85.2515337 L80.6896552,53.2822086 L80.6896552,150.374233 L90.1825558,150.374233 L91.3691684,5.9202454 L80.6896552,5.9202454 L68.8235294,71.0429448 L55.7707911,5.9202454 L46.2778905,5.9202454 L46.2778905,150.374233 L46.2778905,150.374233 Z" id="Shape" fill="#FEFEFE"></path>
                        <path d="M94.9290061,150.374233 L105.608519,150.374233 L109.168357,123.141104 L129.340771,123.141104 C130.527383,123.141104 130.527383,124.325153 130.527383,125.509202 L130.527383,129.06135 C131.713996,134.981595 132.900609,145.638037 134.087221,150.374233 L143.580122,150.374233 C143.580122,148.006135 140.020284,117.220859 138.833671,113.668712 C137.647059,101.828221 135.273834,89.9877301 134.087221,78.1472393 C130.527383,53.2822086 128.154158,29.601227 124.59432,5.9202454 L113.914807,5.9202454 L94.9290061,150.374233 L94.9290061,150.374233 Z M110.35497,113.668712 L129.340771,113.668712 C129.340771,110.116564 119.84787,40.2576687 119.84787,40.2576687 C118.661258,41.4417178 117.474645,55.6503067 117.474645,58.0184049 L110.35497,113.668712 L110.35497,113.668712 Z" id="Shape" fill="#FEFEFE"></path>
                        <path d="M265.801217,123.141104 C266.98783,124.325153 277.667343,134.981595 280.040568,136.165644 L289.533469,145.638037 C294.279919,150.374233 294.279919,149.190184 299.026369,149.190184 L318.01217,149.190184 C322.758621,149.190184 326.318458,150.374233 329.878296,148.006135 C332.251521,145.638037 334.624746,143.269939 334.624746,139.717791 L334.624746,112.484663 L334.624746,105.380368 C334.624746,101.828221 335.811359,103.01227 333.438134,100.644172 L313.26572,81.6993865 C312.079108,80.5153374 300.212982,69.8588957 299.026369,68.6748466 C301.399594,78.1472393 297.839757,84.0674847 290.720081,88.803681 L288.346856,91.1717791 L295.466531,99.4601227 C295.466531,100.644172 296.653144,101.828221 296.653144,101.828221 C299.026369,100.644172 299.026369,97.0920245 300.212982,93.5398773 L312.079108,93.5398773 C312.079108,101.828221 309.705882,107.748466 304.959432,112.484663 C306.146045,114.852761 313.26572,123.141104 313.26572,125.509202 L297.839757,125.509202 L295.466531,120.773006 C293.093306,121.957055 290.720081,123.141104 289.533469,124.325153 C283.600406,126.693252 275.294118,126.693252 269.361055,124.325153 C268.174442,124.325153 268.174442,123.141104 265.801217,123.141104 L265.801217,123.141104 Z" id="Shape" fill="url(#linearGradient-1)"></path>
                        <path d="M258.681542,111.300613 L262.241379,118.404908 C262.241379,119.588957 263.427992,120.773006 263.427992,120.773006 C264.614604,121.957055 265.801217,121.957055 265.801217,123.141104 C268.174442,123.141104 268.174442,124.325153 269.361055,124.325153 C275.294118,126.693252 283.600406,126.693252 289.533469,124.325153 C290.720081,123.141104 293.093306,121.957055 295.466531,120.773006 L297.839757,125.509202 L313.26572,125.509202 C313.26572,123.141104 306.146045,114.852761 304.959432,112.484663 C309.705882,107.748466 312.079108,101.828221 312.079108,93.5398773 L300.212982,93.5398773 C299.026369,97.0920245 299.026369,100.644172 296.653144,101.828221 C296.653144,101.828221 295.466531,100.644172 295.466531,99.4601227 L288.346856,91.1717791 C289.533469,89.9877301 289.533469,89.9877301 290.720081,88.803681 C297.839757,84.0674847 301.399594,78.1472393 299.026369,68.6748466 C296.653144,60.3865031 281.227181,56.8343558 271.73428,62.7546012 C268.174442,65.1226994 264.614604,69.8588957 265.801217,75.7791411 C265.801217,81.6993865 270.547667,87.6196319 271.73428,88.803681 C265.801217,94.7239264 258.681542,97.0920245 258.681542,111.300613 L258.681542,111.300613 Z" id="Shape" fill="#FEFEFE"></path>
                        <path d="M10.6795132,113.668712 L1.18661258,113.668712 C1.18661258,126.693252 -2.22044605e-16,136.165644 7.11967546,144.453988 C13.0527383,151.558282 23.7322515,153.92638 33.2251521,146.822086 C41.5314402,139.717791 40.3448276,129.06135 40.3448276,118.404908 C40.3448276,105.380368 39.158215,98.2760736 34.4117647,88.803681 C32.0385396,84.0674847 22.5456389,72.2269939 18.9858012,67.4907975 C13.0527383,59.202454 10.6795132,50.9141104 10.6795132,39.0736196 C10.6795132,34.3374233 10.6795132,24.8650307 11.8661258,21.3128834 C15.4259635,9.47239264 28.4787018,10.6564417 30.851927,23.6809816 L30.851927,41.4417178 L40.3448276,41.4417178 C40.3448276,28.4171779 41.5314402,18.9447853 34.4117647,10.6564417 C32.0385396,8.28834356 28.4787018,4.73619632 23.7322515,4.73619632 C16.6125761,3.55214724 13.0527383,5.9202454 9.49290061,8.28834356 C7.11967546,10.6564417 3.55983773,15.392638 2.37322515,20.1288344 C1.18661258,24.8650307 1.18661258,31.9693252 1.18661258,36.7055215 C1.18661258,58.0184049 4.7464503,62.7546012 15.4259635,78.1472393 C24.9188641,91.1717791 30.851927,95.9079755 30.851927,116.03681 C30.851927,120.773006 30.851927,130.245399 29.6653144,133.797546 C28.4787018,138.533742 24.9188641,142.08589 20.1724138,142.08589 C15.4259635,140.90184 11.8661258,136.165644 11.8661258,131.429448 C10.6795132,126.693252 11.8661258,119.588957 10.6795132,113.668712 L10.6795132,113.668712 Z" id="Shape" fill="#FEFEFE"></path>
                        <path d="M231.389452,140.90184 C230.20284,144.453988 236.135903,149.190184 240.882353,150.374233 L261.054767,150.374233 L319.198783,150.374233 C325.131846,150.374233 329.878296,150.374233 333.438134,144.453988 C335.811359,140.90184 335.811359,132.613497 335.811359,126.693252 L335.811359,106.564417 L335.811359,85.2515337 C341.744422,85.2515337 345.30426,86.4355828 348.864097,81.6993865 C351.237323,79.3312883 353.610548,74.595092 351.237323,69.8588957 C350.05071,66.3067485 346.490872,62.7546012 344.117647,61.5705521 C326.318458,44.993865 308.51927,22.4969325 290.720081,7.10429448 C288.346856,5.9202454 284.787018,3.55214724 281.227181,4.73619632 C276.48073,4.73619632 275.294118,7.10429448 272.920892,9.47239264 L219.523327,62.7546012 C218.336714,65.1226994 214.776876,67.4907975 213.590264,72.2269939 C213.590264,76.9631902 215.963489,80.5153374 218.336714,82.8834356 C221.896552,86.4355828 224.269777,85.2515337 230.20284,85.2515337 L230.20284,112.484663 C230.20284,116.03681 230.20284,139.717791 231.389452,140.90184 L231.389452,140.90184 Z M334.624746,139.717791 C334.624746,143.269939 332.251521,145.638037 329.878296,148.006135 C326.318458,150.374233 322.758621,149.190184 318.01217,149.190184 L299.026369,149.190184 C294.279919,149.190184 294.279919,150.374233 289.533469,145.638037 L280.040568,136.165644 C277.667343,134.981595 266.98783,124.325153 265.801217,123.141104 C265.801217,121.957055 264.614604,121.957055 263.427992,120.773006 C263.427992,120.773006 262.241379,119.588957 262.241379,118.404908 C261.054767,116.03681 259.868154,113.668712 258.681542,111.300613 C258.681542,97.0920245 265.801217,94.7239264 271.73428,88.803681 C270.547667,87.6196319 265.801217,81.6993865 265.801217,75.7791411 C264.614604,69.8588957 268.174442,65.1226994 271.73428,62.7546012 C281.227181,56.8343558 296.653144,60.3865031 299.026369,68.6748466 C300.212982,69.8588957 312.079108,80.5153374 313.26572,81.6993865 L333.438134,100.644172 C335.811359,103.01227 334.624746,101.828221 334.624746,105.380368 L334.624746,112.484663 L334.624746,139.717791 L334.624746,139.717791 Z" id="Shape" fill="url(#linearGradient-2)"></path>
                        <path d="M148.326572,150.374233 L181.551724,150.374233 L181.551724,140.90184 L157.819473,140.90184 L157.819473,5.9202454 L148.326572,5.9202454 L148.326572,150.374233 Z" id="Shape" fill="#FEFEFE"></path>
                        <path d="M183.924949,150.374233 L217.150101,150.374233 L217.150101,140.90184 L194.604462,140.90184 L194.604462,5.9202454 L183.924949,5.9202454 L183.924949,150.374233 Z" id="Shape" fill="#FEFEFE"></path>
                        <path d="M288.346856,112.484663 C288.346856,111.300613 280.040568,99.4601227 278.853955,98.2760736 C275.294118,99.4601227 270.547667,106.564417 274.107505,111.300613 C277.667343,116.03681 284.787018,116.03681 288.346856,112.484663 L288.346856,112.484663 Z" id="Shape" fill="#505E4E"></path>
                        <path d="M282.413793,81.6993865 C283.600406,81.6993865 287.160243,78.1472393 287.160243,75.7791411 C290.720081,66.3067485 276.48073,65.1226994 277.667343,74.595092 C277.667343,76.9631902 280.040568,80.5153374 282.413793,81.6993865 L282.413793,81.6993865 Z" id="Shape" fill="#505E4E"></path>
                    </g>
                </g>
                <path d="M7.06443402,188.155952 C5.58436608,188.155952 3.69209284,187.833123 1.38755752,187.187456 L1.38755752,184.088269 C3.87089299,185.240537 5.91216413,185.816662 7.51143217,185.816662 C8.74316657,185.816662 9.73400256,185.493833 10.4839699,184.848166 C11.2339372,184.202499 11.6089152,183.353211 11.6089152,182.300276 C11.6089152,181.436076 11.3630687,180.701019 10.8713683,180.095086 C10.3796678,179.489152 9.473264,178.813695 8.15212952,178.068694 L6.63233581,177.189598 C4.75493419,176.116797 3.43133624,175.106094 2.66150224,174.15746 C1.89166825,173.208826 1.50675702,172.103758 1.50675702,170.842224 C1.50675702,169.143622 2.12261498,167.745526 3.35434938,166.647891 C4.58608377,165.550257 6.15552825,165.001448 8.06272989,165.001448 C9.76133136,165.001448 11.5542727,165.284544 13.4416076,165.850745 L13.4416076,168.711533 C11.1172056,167.797665 9.38386347,167.340738 8.24152915,167.340738 C7.15879489,167.340738 6.26480753,167.628801 5.55954025,168.204935 C4.85427298,168.781069 4.50164463,169.506192 4.50164463,170.380326 C4.50164463,171.115393 4.75990764,171.766017 5.27644142,172.332218 C5.7929752,172.898418 6.73662853,173.573875 8.10742971,174.358609 L9.68682317,175.252606 C11.5940248,176.33534 12.9250727,177.358459 13.6800066,178.321993 C14.4349406,179.285527 14.812402,180.442744 14.812402,181.793679 C14.812402,183.710814 14.104662,185.250458 12.6891607,186.412659 C11.2736595,187.57486 9.39876937,188.155952 7.06443402,188.155952 L7.06443402,188.155952 Z M30.4383456,187.604655 L30.4383456,165.552746 L33.5673326,165.552746 L33.5673326,187.604655 L30.4383456,187.604655 Z M54.8403529,188.155952 C53.360285,188.155952 51.4680117,187.833123 49.1634764,187.187456 L49.1634764,184.088269 C51.6468119,185.240537 53.688083,185.816662 55.2873511,185.816662 C56.5190854,185.816662 57.5099214,185.493833 58.2598888,184.848166 C59.0098561,184.202499 59.3848341,183.353211 59.3848341,182.300276 C59.3848341,181.436076 59.1389876,180.701019 58.6472872,180.095086 C58.1555867,179.489152 57.2491829,178.813695 55.9280484,178.068694 L54.4082547,177.189598 C52.5308531,176.116797 51.2072551,175.106094 50.4374211,174.15746 C49.6675871,173.208826 49.2826759,172.103758 49.2826759,170.842224 C49.2826759,169.143622 49.8985339,167.745526 51.1302683,166.647891 C52.3620027,165.550257 53.9314471,165.001448 55.8386488,165.001448 C57.5372502,165.001448 59.3301916,165.284544 61.2175265,165.850745 L61.2175265,168.711533 C58.8931245,167.797665 57.1597824,167.340738 56.017448,167.340738 C54.9347138,167.340738 54.0407264,167.628801 53.3354591,168.204935 C52.6301919,168.781069 52.2775635,169.506192 52.2775635,170.380326 C52.2775635,171.115393 52.5358265,171.766017 53.0523603,172.332218 C53.5688941,172.898418 54.5125474,173.573875 55.8833486,174.358609 L57.4627421,175.252606 C59.3699437,176.33534 60.7009915,177.358459 61.4559255,178.321993 C62.2108595,179.285527 62.5883208,180.442744 62.5883208,181.793679 C62.5883208,183.710814 61.8805808,185.250458 60.4650796,186.412659 C59.0495784,187.57486 57.1746882,188.155952 54.8403529,188.155952 L54.8403529,188.155952 Z M83.4739427,187.604655 L83.4739427,167.892036 L75.6514751,167.892036 L75.6514751,165.552746 L94.4253974,165.552746 L94.4253974,167.892036 L86.6029298,167.892036 L86.6029298,187.604655 L83.4739427,187.604655 Z M108.799746,187.604655 L108.799746,165.552746 L121.121995,165.552746 L121.121995,167.892036 L111.928733,167.892036 L111.928733,174.969507 L119.632001,174.969507 L119.632001,177.278997 L111.928733,177.278997 L111.928733,185.265364 L121.762693,185.265364 L121.762693,187.604655 L108.799746,187.604655 Z M136.613839,187.604655 L136.613839,165.552746 L140.949721,165.552746 L147.058696,182.613175 L153.34647,165.552746 L157.220454,165.552746 L157.220454,187.604655 L154.300066,187.604655 L154.300066,169.665129 L148.220891,186.129561 L145.196204,186.129561 L139.295828,169.620429 L139.295828,187.604655 L136.613839,187.604655 Z M185.347446,179.171289 L181.592662,169.665129 L177.822977,179.171289 L185.347446,179.171289 Z M188.655232,187.604655 L186.256342,181.49568 L176.914081,181.49568 L174.485391,187.604655 L171.579903,187.604655 L180.326167,165.552746 L183.425354,165.552746 L192.037518,187.604655 L188.655232,187.604655 Z M236.878149,188.155952 C233.451146,188.155952 230.80395,187.150216 228.936482,185.138715 C227.069014,183.127213 226.135294,180.27887 226.135294,176.5936 C226.135294,172.918264 227.086397,170.067437 228.988632,168.041035 C230.890867,166.014634 233.570346,165.001448 237.027149,165.001448 C239.003884,165.001448 241.318318,165.324277 243.97052,165.969944 L243.97052,168.905232 C240.950784,167.862231 238.62145,167.340738 236.982449,167.340738 C234.588514,167.340738 232.735973,168.150294 231.424772,169.769428 C230.113571,171.388563 229.45798,173.673197 229.45798,176.6234 C229.45798,179.434536 230.15827,181.652121 231.558871,183.276222 C232.959473,184.900324 234.871612,185.712362 237.295348,185.712362 C239.381349,185.712362 241.616318,185.071671 244.00032,183.79027 L244.00032,186.472259 C241.824918,187.594727 239.450885,188.155952 236.878149,188.155952 L236.878149,188.155952 Z M268.700326,188.155952 C265.640857,188.155952 263.179908,187.095584 261.317407,184.974815 C259.454905,182.854047 258.523668,180.050403 258.523668,176.5638 C258.523668,173.057331 259.459872,170.253687 261.332306,168.152785 C263.204741,166.051883 265.705423,165.001448 268.834425,165.001448 C271.953495,165.001448 274.451693,166.0494 276.329094,168.145335 C278.206496,170.24127 279.145183,173.037464 279.145183,176.534 C279.145183,180.10007 278.206496,182.928547 276.329094,185.019515 C274.451693,187.110484 271.908795,188.155952 268.700326,188.155952 L268.700326,188.155952 Z M268.745026,185.816662 C270.999894,185.816662 272.74317,185.004623 273.974904,183.380522 C275.206639,181.756421 275.822496,179.464336 275.822496,176.5042 C275.822496,173.633465 275.204155,171.388563 273.967454,169.769428 C272.730753,168.150294 271.019761,167.340738 268.834425,167.340738 C266.639157,167.340738 264.925681,168.152777 263.693947,169.776878 C262.462212,171.40098 261.846354,173.658298 261.846354,176.5489 C261.846354,179.429569 262.457246,181.694337 263.679047,183.343272 C264.900848,184.992207 266.589491,185.816662 268.745026,185.816662 L268.745026,185.816662 Z M294.800926,187.604655 L294.800926,165.552746 L297.870314,165.552746 L308.970768,182.583375 L308.970768,165.552746 L311.652757,165.552746 L311.652757,187.604655 L308.598269,187.604655 L297.482915,170.574025 L297.482915,187.604655 L294.800926,187.604655 Z M332.940677,188.155952 C331.460609,188.155952 329.568336,187.833123 327.2638,187.187456 L327.2638,184.088269 C329.747136,185.240537 331.788407,185.816662 333.387675,185.816662 C334.619409,185.816662 335.610245,185.493833 336.360213,184.848166 C337.11018,184.202499 337.485158,183.353211 337.485158,182.300276 C337.485158,181.436076 337.239311,180.701019 336.747611,180.095086 C336.255911,179.489152 335.349507,178.813695 334.028372,178.068694 L332.508579,177.189598 C330.631177,176.116797 329.307579,175.106094 328.537745,174.15746 C327.767911,173.208826 327.383,172.103758 327.383,170.842224 C327.383,169.143622 327.998858,167.745526 329.230592,166.647891 C330.462326,165.550257 332.031771,165.001448 333.938973,165.001448 C335.637574,165.001448 337.430515,165.284544 339.31785,165.850745 L339.31785,168.711533 C336.993448,167.797665 335.260106,167.340738 334.117772,167.340738 C333.035038,167.340738 332.14105,167.628801 331.435783,168.204935 C330.730516,168.781069 330.377887,169.506192 330.377887,170.380326 C330.377887,171.115393 330.63615,171.766017 331.152684,172.332218 C331.669218,172.898418 332.612871,173.573875 333.983672,174.358609 L335.563066,175.252606 C337.470268,176.33534 338.801315,177.358459 339.556249,178.321993 C340.311183,179.285527 340.688645,180.442744 340.688645,181.793679 C340.688645,183.710814 339.980905,185.250458 338.565403,186.412659 C337.149902,187.57486 335.275012,188.155952 332.940677,188.155952 L332.940677,188.155952 Z M361.574267,187.604655 L361.574267,167.892036 L353.751799,167.892036 L353.751799,165.552746 L372.525721,165.552746 L372.525721,167.892036 L364.703254,167.892036 L364.703254,187.604655 L361.574267,187.604655 Z M386.90007,187.604655 L386.90007,165.552746 L393.575242,165.552746 C395.691044,165.552746 397.312638,166.019606 398.440072,166.95334 C399.567507,167.887074 400.131215,169.242955 400.131215,171.021023 C400.131215,173.961292 398.646203,176.047263 395.676134,177.278997 L403.036703,187.604655 L399.192519,187.604655 L392.919645,178.277293 L389.999257,178.277293 L389.999257,187.604655 L386.90007,187.604655 Z M389.999257,175.938003 L391.012453,175.938003 C394.946056,175.938003 396.912829,174.393391 396.912829,171.304122 C396.912829,169.029387 395.263919,167.892036 391.966049,167.892036 L389.999257,167.892036 L389.999257,175.938003 Z M417.291853,165.552746 L420.42084,165.552746 L420.42084,179.469288 C420.42084,181.684423 420.830584,183.296084 421.650085,184.304318 C422.469585,185.312552 423.773317,185.816662 425.561318,185.816662 C427.309586,185.816662 428.548752,185.342352 429.278853,184.393718 C430.008954,183.445084 430.373998,181.83839 430.373998,179.573588 L430.373998,165.552746 L433.115587,165.552746 L433.115587,179.528888 C433.115587,182.538691 432.497246,184.72896 431.260545,186.099761 C430.023844,187.470562 428.054588,188.155952 425.352719,188.155952 C422.601183,188.155952 420.569846,187.445729 419.258644,186.025261 C417.947443,184.604793 417.291853,182.409558 417.291853,179.439488 L417.291853,165.552746 Z M459.335387,188.155952 C455.908384,188.155952 453.261188,187.150216 451.39372,185.138715 C449.526251,183.127213 448.592531,180.27887 448.592531,176.5936 C448.592531,172.918264 449.543635,170.067437 451.445869,168.041035 C453.348104,166.014634 456.027583,165.001448 459.484386,165.001448 C461.461121,165.001448 463.775555,165.324277 466.427757,165.969944 L466.427757,168.905232 C463.408022,167.862231 461.078688,167.340738 459.439686,167.340738 C457.045751,167.340738 455.193211,168.150294 453.882009,169.769428 C452.570808,171.388563 451.915218,173.673197 451.915218,176.6234 C451.915218,179.434536 452.615508,181.652121 454.016109,183.276222 C455.41671,184.900324 457.32885,185.712362 459.752585,185.712362 C461.838587,185.712362 464.073555,185.071671 466.457557,183.79027 L466.457557,186.472259 C464.282156,187.594727 461.908122,188.155952 459.335387,188.155952 L459.335387,188.155952 Z M487.521979,187.604655 L487.521979,167.892036 L479.699511,167.892036 L479.699511,165.552746 L498.473433,165.552746 L498.473433,167.892036 L490.650966,167.892036 L490.650966,187.604655 L487.521979,187.604655 Z M512.832882,187.604655 L512.832882,165.552746 L515.961869,165.552746 L515.961869,187.604655 L512.832882,187.604655 Z M538.933482,187.604655 L530.604417,165.552746 L533.733404,165.552746 L540.557576,183.611471 L547.143348,165.552746 L549.884937,165.552746 L541.88367,187.604655 L538.933482,187.604655 Z M573.02045,188.155952 C569.96098,188.155952 567.500032,187.095584 565.63753,184.974815 C563.775029,182.854047 562.843792,180.050403 562.843792,176.5638 C562.843792,173.057331 563.779995,170.253687 565.65243,168.152785 C567.524865,166.051883 570.025546,165.001448 573.154549,165.001448 C576.273618,165.001448 578.771816,166.0494 580.649218,168.145335 C582.52662,170.24127 583.465306,173.037464 583.465306,176.534 C583.465306,180.10007 582.52662,182.928547 580.649218,185.019515 C578.771816,187.110484 576.228919,188.155952 573.02045,188.155952 L573.02045,188.155952 Z M573.065149,185.816662 C575.320018,185.816662 577.063293,185.004623 578.295028,183.380522 C579.526762,181.756421 580.14262,179.464336 580.14262,176.5042 C580.14262,173.633465 579.524279,171.388563 578.287578,169.769428 C577.050877,168.150294 575.339884,167.340738 573.154549,167.340738 C570.95928,167.340738 569.245805,168.152777 568.01407,169.776878 C566.782336,171.40098 566.166478,173.658298 566.166478,176.5489 C566.166478,179.429569 566.777369,181.694337 567.99917,183.343272 C569.220971,184.992207 570.909614,185.816662 573.065149,185.816662 L573.065149,185.816662 Z" id="SISTEMA-CONSTRUCTIVO" fill="#FFFFFF" sketch:type="MSShapeGroup"></path>
            </g>
        </g>
    </g>
</svg>