<?xml version="1.0" encoding="UTF-8" standalone="no"?>
<svg width="612px" height="261px" viewBox="0 0 612 261" version="1.1" xmlns="http://www.w3.org/2000/svg" xmlns:xlink="http://www.w3.org/1999/xlink" xmlns:sketch="http://www.bohemiancoding.com/sketch/ns">
    <!-- Generator: Sketch 3.4.2 (15855) - http://www.bohemiancoding.com/sketch -->
    <title>Artboard 1small-and-big</title>
    <desc>Created with Sketch.</desc>
    <defs>
        <linearGradient x1="73.1656652%" y1="93.6395604%" x2="27.6549356%" y2="6.24483516%" id="linearGradient-1">
            <stop stop-color="#869D81" offset="0%"></stop>
            <stop stop-color="#5F705D" offset="65.8824%"></stop>
            <stop stop-color="#384238" offset="100%"></stop>
        </linearGradient>
        <linearGradient x1="92.6187253%" y1="76.5583646%" x2="7.558092%" y2="23.2503864%" id="linearGradient-2">
            <stop stop-color="#28A652" offset="0%"></stop>
            <stop stop-color="#09AD55" offset="94.902%"></stop>
            <stop stop-color="#23A654" offset="100%"></stop>
        </linearGradient>
    </defs>
    <g id="Page-1" stroke="none" stroke-width="1" fill="none" fill-rule="evenodd" sketch:type="MSPage">
        <g id="Artboard-1" sketch:type="MSArtboardGroup">
            <g id="Capa_x0020_1-+-SISTEMA-CONSTRUCTIVO" sketch:type="MSLayerGroup" transform="translate(14.000000, 34.000000)">
                <g id="Capa_x0020_1" sketch:type="MSShapeGroup">
                    <g id="_754527952">
                        <path d="M364.290061,150.374233 L410.567951,150.374233 C425.993915,149.190184 439.046653,148.006135 444.979716,137.349693 C450.912779,127.877301 450.912779,110.116564 449.726166,97.0920245 C448.539554,86.4355828 446.166329,78.1472393 436.673428,74.595092 C433.11359,73.4110429 430.740365,73.4110429 425.993915,73.4110429 L425.993915,72.2269939 C439.046653,69.8588957 447.352941,65.1226994 449.726166,50.9141104 C450.912779,44.993865 450.912779,36.7055215 449.726166,29.601227 C446.166329,8.28834356 430.740365,4.73619632 408.194726,4.73619632 C405.821501,3.55214724 366.663286,3.55214724 364.290061,4.73619632 L364.290061,150.374233 L364.290061,150.374233 Z M398.701826,129.06135 C404.634888,130.245399 410.567951,127.877301 414.127789,124.325153 C416.501014,119.588957 416.501014,111.300613 416.501014,105.380368 C416.501014,95.9079755 416.501014,86.4355828 408.194726,84.0674847 L398.701826,84.0674847 L398.701826,129.06135 L398.701826,129.06135 Z M398.701826,62.7546012 C399.888438,63.9386503 405.821501,62.7546012 407.008114,62.7546012 C410.567951,62.7546012 411.754564,61.5705521 412.941176,59.202454 C417.687627,54.4662577 417.687627,33.1533742 412.941176,28.4171779 C410.567951,24.8650307 403.448276,24.8650307 398.701826,24.8650307 L398.701826,62.7546012 L398.701826,62.7546012 Z" id="Shape" fill="#FEFEFE"></path>
                        <path d="M561.267748,143.269939 C562.454361,144.453988 562.454361,148.006135 563.640974,150.374233 L583.813387,150.374233 L583.813387,76.9631902 L536.348884,76.9631902 L536.348884,98.2760736 L549.401623,98.2760736 C549.401623,104.196319 549.401623,119.588957 548.21501,123.141104 C548.21501,126.693252 545.841785,129.06135 542.281947,129.06135 C528.042596,131.429448 531.602434,113.668712 531.602434,101.828221 L531.602434,50.9141104 C531.602434,40.2576687 528.042596,21.3128834 542.281947,24.8650307 C545.841785,26.0490798 548.21501,27.2331288 549.401623,31.9693252 C550.588235,37.8895706 549.401623,49.7300613 549.401623,56.8343558 L583.813387,56.8343558 C585,27.2331288 581.440162,3.55214724 547.028398,1.18404908 C514.989858,-1.18404908 497.190669,13.0245399 497.190669,43.809816 L497.190669,88.803681 C497.190669,116.03681 492.444219,149.190184 525.669371,152.742331 C535.162272,153.92638 547.028398,152.742331 555.334686,148.006135 C558.894523,145.638037 560.081136,144.453988 561.267748,143.269939 L561.267748,143.269939 Z" id="Shape" fill="#FEFEFE"></path>
                        <path d="M456.845842,150.374233 L491.257606,150.374233 L491.257606,4.73619632 L456.845842,3.55214724 L456.845842,150.374233 Z" id="Shape" fill="#FEFEFE"></path>
                        <path d="M46.2778905,150.374233 L55.7707911,150.374233 L55.7707911,54.4662577 C56.9574037,56.8343558 66.4503043,108.932515 68.8235294,117.220859 C70.010142,112.484663 71.1967546,106.564417 71.1967546,101.828221 C72.3833671,95.9079755 73.5699797,91.1717791 74.7565923,85.2515337 L80.6896552,53.2822086 L80.6896552,150.374233 L90.1825558,150.374233 L91.3691684,5.9202454 L80.6896552,5.9202454 L68.8235294,71.0429448 L55.7707911,5.9202454 L46.2778905,5.9202454 L46.2778905,150.374233 L46.2778905,150.374233 Z" id="Shape" fill="#FEFEFE"></path>
                        <path d="M94.9290061,150.374233 L105.608519,150.374233 L109.168357,123.141104 L129.340771,123.141104 C130.527383,123.141104 130.527383,124.325153 130.527383,125.509202 L130.527383,129.06135 C131.713996,134.981595 132.900609,145.638037 134.087221,150.374233 L143.580122,150.374233 C143.580122,148.006135 140.020284,117.220859 138.833671,113.668712 C137.647059,101.828221 135.273834,89.9877301 134.087221,78.1472393 C130.527383,53.2822086 128.154158,29.601227 124.59432,5.9202454 L113.914807,5.9202454 L94.9290061,150.374233 L94.9290061,150.374233 Z M110.35497,113.668712 L129.340771,113.668712 C129.340771,110.116564 119.84787,40.2576687 119.84787,40.2576687 C118.661258,41.4417178 117.474645,55.6503067 117.474645,58.0184049 L110.35497,113.668712 L110.35497,113.668712 Z" id="Shape" fill="#FEFEFE"></path>
                        <path d="M265.801217,123.141104 C266.98783,124.325153 277.667343,134.981595 280.040568,136.165644 L289.533469,145.638037 C294.279919,150.374233 294.279919,149.190184 299.026369,149.190184 L318.01217,149.190184 C322.758621,149.190184 326.318458,150.374233 329.878296,148.006135 C332.251521,145.638037 334.624746,143.269939 334.624746,139.717791 L334.624746,112.484663 L334.624746,105.380368 C334.624746,101.828221 335.811359,103.01227 333.438134,100.644172 L313.26572,81.6993865 C312.079108,80.5153374 300.212982,69.8588957 299.026369,68.6748466 C301.399594,78.1472393 297.839757,84.0674847 290.720081,88.803681 L288.346856,91.1717791 L295.466531,99.4601227 C295.466531,100.644172 296.653144,101.828221 296.653144,101.828221 C299.026369,100.644172 299.026369,97.0920245 300.212982,93.5398773 L312.079108,93.5398773 C312.079108,101.828221 309.705882,107.748466 304.959432,112.484663 C306.146045,114.852761 313.26572,123.141104 313.26572,125.509202 L297.839757,125.509202 L295.466531,120.773006 C293.093306,121.957055 290.720081,123.141104 289.533469,124.325153 C283.600406,126.693252 275.294118,126.693252 269.361055,124.325153 C268.174442,124.325153 268.174442,123.141104 265.801217,123.141104 L265.801217,123.141104 Z" id="Shape" fill="url(#linearGradient-1)"></path>
                        <path d="M258.681542,111.300613 L262.241379,118.404908 C262.241379,119.588957 263.427992,120.773006 263.427992,120.773006 C264.614604,121.957055 265.801217,121.957055 265.801217,123.141104 C268.174442,123.141104 268.174442,124.325153 269.361055,124.325153 C275.294118,126.693252 283.600406,126.693252 289.533469,124.325153 C290.720081,123.141104 293.093306,121.957055 295.466531,120.773006 L297.839757,125.509202 L313.26572,125.509202 C313.26572,123.141104 306.146045,114.852761 304.959432,112.484663 C309.705882,107.748466 312.079108,101.828221 312.079108,93.5398773 L300.212982,93.5398773 C299.026369,97.0920245 299.026369,100.644172 296.653144,101.828221 C296.653144,101.828221 295.466531,100.644172 295.466531,99.4601227 L288.346856,91.1717791 C289.533469,89.9877301 289.533469,89.9877301 290.720081,88.803681 C297.839757,84.0674847 301.399594,78.1472393 299.026369,68.6748466 C296.653144,60.3865031 281.227181,56.8343558 271.73428,62.7546012 C268.174442,65.1226994 264.614604,69.8588957 265.801217,75.7791411 C265.801217,81.6993865 270.547667,87.6196319 271.73428,88.803681 C265.801217,94.7239264 258.681542,97.0920245 258.681542,111.300613 L258.681542,111.300613 Z" id="Shape" fill="#FEFEFE"></path>
                        <path d="M10.6795132,113.668712 L1.18661258,113.668712 C1.18661258,126.693252 -2.22044605e-16,136.165644 7.11967546,144.453988 C13.0527383,151.558282 23.7322515,153.92638 33.2251521,146.822086 C41.5314402,139.717791 40.3448276,129.06135 40.3448276,118.404908 C40.3448276,105.380368 39.158215,98.2760736 34.4117647,88.803681 C32.0385396,84.0674847 22.5456389,72.2269939 18.9858012,67.4907975 C13.0527383,59.202454 10.6795132,50.9141104 10.6795132,39.0736196 C10.6795132,34.3374233 10.6795132,24.8650307 11.8661258,21.3128834 C15.4259635,9.47239264 28.4787018,10.6564417 30.851927,23.6809816 L30.851927,41.4417178 L40.3448276,41.4417178 C40.3448276,28.4171779 41.5314402,18.9447853 34.4117647,10.6564417 C32.0385396,8.28834356 28.4787018,4.73619632 23.7322515,4.73619632 C16.6125761,3.55214724 13.0527383,5.9202454 9.49290061,8.28834356 C7.11967546,10.6564417 3.55983773,15.392638 2.37322515,20.1288344 C1.18661258,24.8650307 1.18661258,31.9693252 1.18661258,36.7055215 C1.18661258,58.0184049 4.7464503,62.7546012 15.4259635,78.1472393 C24.9188641,91.1717791 30.851927,95.9079755 30.851927,116.03681 C30.851927,120.773006 30.851927,130.245399 29.6653144,133.797546 C28.4787018,138.533742 24.9188641,142.08589 20.1724138,142.08589 C15.4259635,140.90184 11.8661258,136.165644 11.8661258,131.429448 C10.6795132,126.693252 11.8661258,119.588957 10.6795132,113.668712 L10.6795132,113.668712 Z" id="Shape" fill="#FEFEFE"></path>
                        <path d="M231.389452,140.90184 C230.20284,144.453988 236.135903,149.190184 240.882353,150.374233 L261.054767,150.374233 L319.198783,150.374233 C325.131846,150.374233 329.878296,150.374233 333.438134,144.453988 C335.811359,140.90184 335.811359,132.613497 335.811359,126.693252 L335.811359,106.564417 L335.811359,85.2515337 C341.744422,85.2515337 345.30426,86.4355828 348.864097,81.6993865 C351.237323,79.3312883 353.610548,74.595092 351.237323,69.8588957 C350.05071,66.3067485 346.490872,62.7546012 344.117647,61.5705521 C326.318458,44.993865 308.51927,22.4969325 290.720081,7.10429448 C288.346856,5.9202454 284.787018,3.55214724 281.227181,4.73619632 C276.48073,4.73619632 275.294118,7.10429448 272.920892,9.47239264 L219.523327,62.7546012 C218.336714,65.1226994 214.776876,67.4907975 213.590264,72.2269939 C213.590264,76.9631902 215.963489,80.5153374 218.336714,82.8834356 C221.896552,86.4355828 224.269777,85.2515337 230.20284,85.2515337 L230.20284,112.484663 C230.20284,116.03681 230.20284,139.717791 231.389452,140.90184 L231.389452,140.90184 Z M334.624746,139.717791 C334.624746,143.269939 332.251521,145.638037 329.878296,148.006135 C326.318458,150.374233 322.758621,149.190184 318.01217,149.190184 L299.026369,149.190184 C294.279919,149.190184 294.279919,150.374233 289.533469,145.638037 L280.040568,136.165644 C277.667343,134.981595 266.98783,124.325153 265.801217,123.141104 C265.801217,121.957055 264.614604,121.957055 263.427992,120.773006 C263.427992,120.773006 262.241379,119.588957 262.241379,118.404908 C261.054767,116.03681 259.868154,113.668712 258.681542,111.300613 C258.681542,97.0920245 265.801217,94.7239264 271.73428,88.803681 C270.547667,87.6196319 265.801217,81.6993865 265.801217,75.7791411 C264.614604,69.8588957 268.174442,65.1226994 271.73428,62.7546012 C281.227181,56.8343558 296.653144,60.3865031 299.026369,68.6748466 C300.212982,69.8588957 312.079108,80.5153374 313.26572,81.6993865 L333.438134,100.644172 C335.811359,103.01227 334.624746,101.828221 334.624746,105.380368 L334.624746,112.484663 L334.624746,139.717791 L334.624746,139.717791 Z" id="Shape" fill="url(#linearGradient-2)"></path>
                        <path d="M148.326572,150.374233 L181.551724,150.374233 L181.551724,140.90184 L157.819473,140.90184 L157.819473,5.9202454 L148.326572,5.9202454 L148.326572,150.374233 Z" id="Shape" fill="#FEFEFE"></path>
                        <path d="M183.924949,150.374233 L217.150101,150.374233 L217.150101,140.90184 L194.604462,140.90184 L194.604462,5.9202454 L183.924949,5.9202454 L183.924949,150.374233 Z" id="Shape" fill="#FEFEFE"></path>
                        <path d="M288.346856,112.484663 C288.346856,111.300613 280.040568,99.4601227 278.853955,98.2760736 C275.294118,99.4601227 270.547667,106.564417 274.107505,111.300613 C277.667343,116.03681 284.787018,116.03681 288.346856,112.484663 L288.346856,112.484663 Z" id="Shape" fill="#505E4E"></path>
                        <path d="M282.413793,81.6993865 C283.600406,81.6993865 287.160243,78.1472393 287.160243,75.7791411 C290.720081,66.3067485 276.48073,65.1226994 277.667343,74.595092 C277.667343,76.9631902 280.040568,80.5153374 282.413793,81.6993865 L282.413793,81.6993865 Z" id="Shape" fill="#505E4E"></path>
                    </g>
                </g>
                <text id="SISTEMA-CONSTRUCTIVO" sketch:type="MSTextLayer" font-family="Lucida Grande" font-size="28.4171779" font-weight="normal" letter-spacing="10.5" fill="#FFFFFF">
                    <tspan x="0" y="186.846626">SISTEMA CONSTRUCTIV</tspan>
                    <tspan x="522.800901" y="186.846626">O</tspan>
                </text>
            </g>
        </g>
    </g>
</svg>