<?xml version="1.0" encoding="UTF-8" standalone="no"?>
<svg width="612px" height="261px" viewBox="0 0 612 261" version="1.1" xmlns="http://www.w3.org/2000/svg" xmlns:xlink="http://www.w3.org/1999/xlink" xmlns:sketch="http://www.bohemiancoding.com/sketch/ns">
    <!-- Generator: Sketch 3.4.2 (15855) - http://www.bohemiancoding.com/sketch -->
    <title>Artboard 1small-and-big</title>
    <desc>Created with Sketch.</desc>
    <defs>
        <linearGradient x1="73.1656652%" y1="93.6395604%" x2="27.6549356%" y2="6.24483516%" id="linearGradient-1">
            <stop stop-color="#869D81" offset="0%"></stop>
            <stop stop-color="#5F705D" offset="65.8824%"></stop>
            <stop stop-color="#384238" offset="100%"></stop>
        </linearGradient>
        <linearGradient x1="92.6187253%" y1="76.5583646%" x2="7.558092%" y2="23.2503864%" id="linearGradient-2">
            <stop stop-color="#28A652" offset="0%"></stop>
            <stop stop-color="#09AD55" offset="94.902%"></stop>
            <stop stop-color="#23A654" offset="100%"></stop>
        </linearGradient>
    </defs>
    <g id="Page-1" stroke="none" stroke-width="1" fill="none" fill-rule="evenodd" sketch:type="MSPage">
        <g id="Artboard-1" sketch:type="MSArtboardGroup">
            <g id="Capa_x0020_1-+-SISTEMA-CONSTRUCTIVO" sketch:type="MSLayerGroup" transform="translate(60.000000, 49.000000)">
                <g id="Capa_x0020_1" sketch:type="MSShapeGroup">
                    <g id="_754527952">
                        <path d="M307,127 L346,127 C359,126 370,125 375,116 C380,108 380,93 379,82 C378,73 376,66 368,63 C365,62 363,62 359,62 L359,61 C370,59 377,55 379,43 C380,38 380,31 379,25 C376,7 363,4 344,4 C342,3 309,3 307,4 L307,127 L307,127 Z M336,109 C341,110 346,108 349,105 C351,101 351,94 351,89 C351,81 351,73 344,71 L336,71 L336,109 L336,109 Z M336,53 C337,54 342,53 343,53 C346,53 347,52 348,50 C352,46 352,28 348,24 C346,21 340,21 336,21 L336,53 L336,53 Z" id="Shape" fill="#FEFEFE"></path>
                        <path d="M473,121 C474,122 474,125 475,127 L492,127 L492,65 L452,65 L452,83 L463,83 C463,88 463,101 462,104 C462,107 460,109 457,109 C445,111 448,96 448,86 L448,43 C448,34 445,18 457,21 C460,22 462,23 463,27 C464,32 463,42 463,48 L492,48 C493,23 490,3 461,1 C434,-1 419,11 419,37 L419,75 C419,98 415,126 443,129 C451,130 461,129 468,125 C471,123 472,122 473,121 L473,121 Z" id="Shape" fill="#FEFEFE"></path>
                        <path d="M385,127 L414,127 L414,4 L385,3 L385,127 Z" id="Shape" fill="#FEFEFE"></path>
                        <path d="M39,127 L47,127 L47,46 C48,48 56,92 58,99 C59,95 60,90 60,86 C61,81 62,77 63,72 L68,45 L68,127 L76,127 L77,5 L68,5 L58,60 L47,5 L39,5 L39,127 L39,127 Z" id="Shape" fill="#FEFEFE"></path>
                        <path d="M80,127 L89,127 L92,104 L109,104 C110,104 110,105 110,106 L110,109 C111,114 112,123 113,127 L121,127 C121,125 118,99 117,96 C116,86 114,76 113,66 C110,45 108,25 105,5 L96,5 L80,127 L80,127 Z M93,96 L109,96 C109,93 101,34 101,34 C100,35 99,47 99,49 L93,96 L93,96 Z" id="Shape" fill="#FEFEFE"></path>
                        <path d="M224,104 C225,105 234,114 236,115 L244,123 C248,127 248,126 252,126 L268,126 C272,126 275,127 278,125 C280,123 282,121 282,118 L282,95 L282,89 C282,86 283,87 281,85 L264,69 C263,68 253,59 252,58 C254,66 251,71 245,75 L243,77 L249,84 C249,85 250,86 250,86 C252,85 252,82 253,79 L263,79 C263,86 261,91 257,95 C258,97 264,104 264,106 L251,106 L249,102 C247,103 245,104 244,105 C239,107 232,107 227,105 C226,105 226,104 224,104 L224,104 Z" id="Shape" fill="url(#linearGradient-1)"></path>
                        <path d="M218,94 L221,100 C221,101 222,102 222,102 C223,103 224,103 224,104 C226,104 226,105 227,105 C232,107 239,107 244,105 C245,104 247,103 249,102 L251,106 L264,106 C264,104 258,97 257,95 C261,91 263,86 263,79 L253,79 C252,82 252,85 250,86 C250,86 249,85 249,84 L243,77 C244,76 244,76 245,75 C251,71 254,66 252,58 C250,51 237,48 229,53 C226,55 223,59 224,64 C224,69 228,74 229,75 C224,80 218,82 218,94 L218,94 Z" id="Shape" fill="#FEFEFE"></path>
                        <path d="M9,96 L1,96 C1,107 0,115 6,122 C11,128 20,130 28,124 C35,118 34,109 34,100 C34,89 33,83 29,75 C27,71 19,61 16,57 C11,50 9,43 9,33 C9,29 9,21 10,18 C13,8 24,9 26,20 L26,35 L34,35 C34,24 35,16 29,9 C27,7 24,4 20,4 C14,3 11,5 8,7 C6,9 3,13 2,17 C1,21 1,27 1,31 C1,49 4,53 13,66 C21,77 26,81 26,98 C26,102 26,110 25,113 C24,117 21,120 17,120 C13,119 10,115 10,111 C9,107 10,101 9,96 L9,96 Z" id="Shape" fill="#FEFEFE"></path>
                        <path d="M195,119 C194,122 199,126 203,127 L220,127 L269,127 C274,127 278,127 281,122 C283,119 283,112 283,107 L283,90 L283,72 C288,72 291,73 294,69 C296,67 298,63 296,59 C295,56 292,53 290,52 C275,38 260,19 245,6 C243,5 240,3 237,4 C233,4 232,6 230,8 L185,53 C184,55 181,57 180,61 C180,65 182,68 184,70 C187,73 189,72 194,72 L194,95 C194,98 194,118 195,119 L195,119 Z M282,118 C282,121 280,123 278,125 C275,127 272,126 268,126 L252,126 C248,126 248,127 244,123 L236,115 C234,114 225,105 224,104 C224,103 223,103 222,102 C222,102 221,101 221,100 C220,98 219,96 218,94 C218,82 224,80 229,75 C228,74 224,69 224,64 C223,59 226,55 229,53 C237,48 250,51 252,58 C253,59 263,68 264,69 L281,85 C283,87 282,86 282,89 L282,95 L282,118 L282,118 Z" id="Shape" fill="url(#linearGradient-2)"></path>
                        <path d="M125,127 L153,127 L153,119 L133,119 L133,5 L125,5 L125,127 Z" id="Shape" fill="#FEFEFE"></path>
                        <path d="M155,127 L183,127 L183,119 L164,119 L164,5 L155,5 L155,127 Z" id="Shape" fill="#FEFEFE"></path>
                        <path d="M243,95 C243,94 236,84 235,83 C232,84 228,90 231,94 C234,98 240,98 243,95 L243,95 Z" id="Shape" fill="#505E4E"></path>
                        <path d="M238,69 C239,69 242,66 242,64 C245,56 233,55 234,63 C234,65 236,68 238,69 L238,69 Z" id="Shape" fill="#505E4E"></path>
                    </g>
                </g>
                <text id="SISTEMA-CONSTRUCTIVO" sketch:type="MSTextLayer" font-family="Lucida Grande" font-size="24" font-weight="normal" letter-spacing="10.5" fill="#FFFFFF">
                    <tspan x="0" y="158">SISTEMA CONSTRUCTIV</tspan>
                    <tspan x="472.546875" y="158">O</tspan>
                </text>
            </g>
        </g>
    </g>
</svg>