<?xml version="1.0" encoding="UTF-8"?>
<!DOCTYPE svg PUBLIC "-//W3C//DTD SVG 1.1//EN" "http://www.w3.org/Graphics/SVG/1.1/DTD/svg11.dtd">
<!-- Creator: CorelDRAW X7 -->
<svg xmlns="http://www.w3.org/2000/svg" xml:space="preserve" width="40.0431mm" height="10.445mm" version="1.1" style="shape-rendering:geometricPrecision; text-rendering:geometricPrecision; image-rendering:optimizeQuality; fill-rule:evenodd; clip-rule:evenodd"
viewBox="0 0 491 128"
 xmlns:xlink="http://www.w3.org/1999/xlink">
 <defs>
  <style type="text/css">
   <![CDATA[
    .fil2 {fill:#FEFEFE}
    .fil0 {fill:#FEFEFE}
    .fil4 {fill:#505E4E}
    .fil3 {fill:url(#id0)}
    .fil1 {fill:url(#id1)}
   ]]>
  </style>
  <linearGradient id="id0" gradientUnits="userSpaceOnUse" x1="287.205" y1="97.1029" x2="187.83" y2="31.3888">
   <stop offset="0" style="stop-opacity:1; stop-color:#28A652"/>
   <stop offset="0.94902" style="stop-opacity:1; stop-color:#09AD55"/>
   <stop offset="1" style="stop-opacity:1; stop-color:#23A654"/>
  </linearGradient>
  <linearGradient id="id1" gradientUnits="userSpaceOnUse" x1="265.619" y1="120.909" x2="239.109" y2="61.2621">
   <stop offset="0" style="stop-opacity:1; stop-color:#869D81"/>
   <stop offset="0.658824" style="stop-opacity:1; stop-color:#5F705D"/>
   <stop offset="1" style="stop-opacity:1; stop-color:#384238"/>
  </linearGradient>
 </defs>
 <g id="Capa_x0020_1">
  <metadata id="CorelCorpID_0Corel-Layer"/>
  <g id="_754527952">
   <path class="fil0" d="M306 126c2,0 37,0 39,0 13,-1 24,-2 29,-11 5,-8 5,-23 4,-34 -1,-9 -3,-16 -11,-19 -3,-1 -5,-1 -9,-1l0 -1c11,-2 18,-6 20,-18 1,-5 1,-12 0,-18 -3,-18 -16,-21 -35,-21 -2,-1 -35,-1 -37,0l0 123zm29 -18c5,1 10,-1 13,-4 2,-4 2,-11 2,-16 0,-8 0,-16 -7,-18 -2,0 -7,0 -8,0l0 38zm0 -56c1,1 6,0 7,0 3,0 4,-1 5,-3 4,-4 4,-22 0,-26 -2,-3 -8,-3 -12,-3l0 32z"/>
   <path class="fil0" d="M472 120c1,1 1,4 2,6l17 0 0 -62 -40 0 0 18 11 0c0,5 0,18 -1,21 0,3 -2,5 -5,5 -12,2 -9,-13 -9,-23l0 -43c0,-9 -3,-25 9,-22 3,1 5,2 6,6 1,5 0,15 0,21l29 0c1,-25 -2,-45 -31,-47 -27,-2 -42,10 -42,36 0,13 0,25 0,38 0,23 -4,51 24,54 8,1 18,0 25,-4 3,-2 4,-3 5,-4z"/>
   <polygon class="fil0" points="384,126 413,126 413,3 384,2 "/>
   <path class="fil0" d="M38 126l8 0 0 -81c1,2 9,46 11,53 1,-4 2,-9 2,-13 1,-5 2,-9 3,-14l5 -27 0 82 8 0 1 -122 -9 0 -10 55 -11 -55 -8 0 0 122z"/>
   <path class="fil0" d="M79 126l9 0 3 -23 17 0c1,0 1,1 1,2 0,1 0,2 0,3 1,5 2,14 3,18l8 0c0,-2 -3,-28 -4,-31 -1,-10 -3,-20 -4,-30 -3,-21 -5,-41 -8,-61l-9 0 -16 122zm13 -31l16 0c0,-3 -8,-62 -8,-62 -1,1 -2,13 -2,15l-6 47z"/>
   <path class="fil1" d="M223 103c1,1 10,10 12,11l8 8c4,4 4,3 8,3l16 0c4,0 7,1 10,-1 2,-2 4,-4 4,-7 0,-2 0,-19 0,-23 0,-2 0,-4 0,-6 0,-3 1,-2 -1,-4l-17 -16c-1,-1 -11,-10 -12,-11 2,8 -1,13 -7,17 -1,1 -1,1 -2,2l6 7c0,1 1,2 1,2 2,-1 2,-4 3,-7l10 0c0,7 -2,12 -6,16 1,2 7,9 7,11l-13 0 -2 -4c-2,1 -4,2 -5,3 -5,2 -12,2 -17,0 -1,0 -1,-1 -3,-1z"/>
   <path class="fil2" d="M217 93c1,2 2,4 3,6 0,1 1,2 1,2 1,1 2,1 2,2 2,0 2,1 3,1 5,2 12,2 17,0 1,-1 3,-2 5,-3l2 4 13 0c0,-2 -6,-9 -7,-11 4,-4 6,-9 6,-16l-10 0c-1,3 -1,6 -3,7 0,0 -1,-1 -1,-2l-6 -7c1,-1 1,-1 2,-2 6,-4 9,-9 7,-17 -2,-7 -15,-10 -23,-5 -3,2 -6,6 -5,11 0,5 4,10 5,11 -5,5 -11,7 -11,19z"/>
   <path class="fil0" d="M8 95l-8 0c0,11 -1,19 5,26 5,6 14,8 22,2 7,-6 6,-15 6,-24 0,-11 -1,-17 -5,-25 -2,-4 -10,-14 -13,-18 -5,-7 -7,-14 -7,-24 0,-4 0,-12 1,-15 3,-10 14,-9 16,2 0,4 0,11 0,15l8 0c0,-11 1,-19 -5,-26 -2,-2 -5,-5 -9,-5 -6,-1 -9,1 -12,3 -2,2 -5,6 -6,10 -1,4 -1,10 -1,14 0,18 3,22 12,35 8,11 13,15 13,32 0,4 0,12 -1,15 -1,4 -4,7 -8,7 -4,-1 -7,-5 -7,-9 -1,-4 0,-10 -1,-15z"/>
   <path class="fil3" d="M194 118c-1,3 4,7 8,8 5,0 11,0 17,0l49 0c5,0 9,0 12,-5 2,-3 2,-10 2,-15 0,-6 0,-11 0,-17l0 -18c5,0 8,1 11,-3 2,-2 4,-6 2,-10 -1,-3 -4,-6 -6,-7 -15,-14 -30,-33 -45,-46 -2,-1 -5,-3 -8,-2 -4,0 -5,2 -7,4 -15,15 -30,30 -45,45 -1,2 -4,4 -5,8 0,4 2,7 4,9 3,3 5,2 10,2 0,8 0,16 0,23 0,3 0,23 1,24zm87 -1c0,3 -2,5 -4,7 -3,2 -6,1 -10,1l-16 0c-4,0 -4,1 -8,-3l-8 -8c-2,-1 -11,-10 -12,-11 0,-1 -1,-1 -2,-2 0,0 -1,-1 -1,-2 -1,-2 -2,-4 -3,-6 0,-12 6,-14 11,-19 -1,-1 -5,-6 -5,-11 -1,-5 2,-9 5,-11 8,-5 21,-2 23,5 1,1 11,10 12,11l17 16c2,2 1,1 1,4 0,2 0,4 0,6 0,4 0,21 0,23z"/>
   <polygon class="fil0" points="124,126 152,126 152,118 132,118 132,4 124,4 "/>
   <polygon class="fil0" points="154,126 182,126 182,118 163,118 163,4 154,4 "/>
   <path class="fil4" d="M242 94c0,-1 -7,-11 -8,-12 -3,1 -7,7 -4,11 3,4 9,4 12,1z"/>
   <path class="fil4" d="M237 68c1,0 4,-3 4,-5 3,-8 -9,-9 -8,-1 0,2 2,5 4,6z"/>
  </g>
 </g>
</svg>
